<svg width="52" height="52" viewBox="0 0 52 52" fill="none" xmlns="http://www.w3.org/2000/svg">
<circle cx="26" cy="26" r="25.5" fill="white" stroke="#CCCCCC"/>
<path d="M17.8182 26C17.8182 21.4839 21.4839 17.8182 26 17.8182C27.943 17.8182 29.7239 18.5003 31.1285 19.6364H28.7273V21.4545H33.2636C33.6086 21.4545 33.9239 21.2593 34.0776 20.9504C34.1414 20.8221 34.1728 20.6835 34.1727 20.5455L34.1729 16H32.3548V18.2907C30.6295 16.8649 28.4197 16 26 16C20.4797 16 16 20.4797 16 26C16 31.5203 20.4797 36 26 36C31.5203 36 36 31.5203 36 26H34.1818C34.1818 30.5161 30.5161 34.1818 26 34.1818C21.4839 34.1818 17.8182 30.5161 17.8182 26Z" fill="#999999"/>
</svg>
