<svg width="40" height="40" viewBox="0 0 40 40" fill="none" xmlns="http://www.w3.org/2000/svg">
<circle cx="20" cy="20" r="20" fill="#004D45"/>
<path d="M19.5971 27.9929L19.5966 27.9924L12.3271 20.7329C10.5582 18.964 10.5576 16.0983 12.3255 14.3287C13.2239 13.4395 14.3685 13 15.53 13C16.695 13 17.8475 13.4417 18.7329 14.3271L19.2929 14.8871L20 15.5942L20.7071 14.8871L21.2671 14.3271C23.0366 12.5576 25.9034 12.5576 27.6729 14.3271C28.5583 15.2125 29 16.365 29 17.53C29 18.695 28.5583 19.8475 27.6729 20.7329L20.4129 27.9929C20.1934 28.2124 19.8166 28.2124 19.5971 27.9929Z" stroke="white" stroke-width="2"/>
</svg>
