<svg width="40" height="40" viewBox="0 0 40 40" fill="none" xmlns="http://www.w3.org/2000/svg">
<path d="M0.5 20C0.5 9.23045 9.23045 0.5 20 0.5C30.7696 0.5 39.5 9.23045 39.5 20C39.5 30.7696 30.7696 39.5 20 39.5C9.23045 39.5 0.5 30.7696 0.5 20Z" fill="white"/>
<path d="M0.5 20C0.5 9.23045 9.23045 0.5 20 0.5C30.7696 0.5 39.5 9.23045 39.5 20C39.5 30.7696 30.7696 39.5 20 39.5C9.23045 39.5 0.5 30.7696 0.5 20Z" stroke="#D9D9D9"/>
<path fill-rule="evenodd" clip-rule="evenodd" d="M26.7595 14.7409C25.1024 13.0838 22.4373 13.0838 20.7802 14.7409L20.2802 15.2409C19.9873 15.5338 19.5124 15.5338 19.2195 15.2409L18.7195 14.7409C17.8856 13.907 16.8187 13.5005 15.7298 13.5005C14.6409 13.5005 13.5741 13.907 12.7402 14.7409L12.7388 14.7422C11.0843 16.3883 11.0821 19.0629 12.7309 20.7209C12.7311 20.7211 12.7313 20.7214 12.7315 20.7216L19.2702 27.2602C19.5273 27.5173 19.9624 27.5173 20.2195 27.2602L26.7595 20.7202C27.5934 19.8863 27.9998 18.8194 27.9998 17.7305C27.9998 16.6416 27.5934 15.5748 26.7595 14.7409ZM19.7498 13.6501C21.9949 11.4374 25.5874 11.4474 27.8202 13.6802C28.9463 14.8063 29.4998 16.2594 29.4998 17.7305C29.4998 19.2016 28.9463 20.6548 27.8202 21.7809L21.2802 28.3209C20.4373 29.1638 19.0524 29.1638 18.2095 28.3209L11.6695 21.7809L11.6682 21.7795C9.43783 19.5377 9.43564 15.9133 11.6802 13.6795C12.8062 12.5539 14.259 12.0005 15.7298 12.0005C17.1878 12.0005 18.6281 12.5443 19.7498 13.6501Z" fill="#999999"/>
</svg>
