<svg width="24" height="24" viewBox="0 0 24 24" fill="none" xmlns="http://www.w3.org/2000/svg">
<path d="M0.5 12C0.5 5.64873 5.64873 0.5 12 0.5C18.3513 0.5 23.5 5.64873 23.5 12C23.5 18.3513 18.3513 23.5 12 23.5C5.64873 23.5 0.5 18.3513 0.5 12Z" fill="white"/>
<path d="M0.5 12C0.5 5.64873 5.64873 0.5 12 0.5C18.3513 0.5 23.5 5.64873 23.5 12C23.5 18.3513 18.3513 23.5 12 23.5C5.64873 23.5 0.5 18.3513 0.5 12Z" stroke="#D9D9D9"/>
<path fill-rule="evenodd" clip-rule="evenodd" d="M9.65746 8.0625C9.05829 8.0625 8.45929 8.29312 8.00195 8.75049L8.00076 8.75168C7.08281 9.66421 7.08281 11.1414 8.00076 12.0539L8.0016 12.0547L11.8148 15.8614C11.9158 15.9624 12.092 15.9627 12.1929 15.8618L15.9993 12.0551C16.015 12.0395 16.0314 12.0249 16.0484 12.0114C16.4787 11.5558 16.6873 10.9849 16.6873 10.4062C16.6873 9.80694 16.4567 9.20786 15.9993 8.75049C15.0866 7.83772 13.6078 7.83772 12.6951 8.75049L12.4018 9.04384C12.2963 9.14934 12.1533 9.20861 12.0041 9.20861C11.8549 9.20861 11.7118 9.14934 11.6063 9.04384L11.313 8.75049C10.8495 8.287 10.2577 8.0625 9.65746 8.0625ZM16.7394 12.906L12.9885 16.6573C12.4482 17.1976 11.5599 17.1976 11.0196 16.6573L7.20762 12.8517C7.20749 12.8516 7.20776 12.8519 7.20762 12.8517C5.8476 11.4993 5.84732 9.3061 7.20762 7.95383L7.60419 8.35276L7.20643 7.95503C7.88146 7.27994 8.76954 6.9375 9.65746 6.9375C10.4998 6.9375 11.3373 7.23959 12.0041 7.85474C13.3623 6.60374 15.4771 6.63717 16.7949 7.95503C17.4699 8.63011 17.8123 9.51825 17.8123 10.4062C17.8123 11.2931 17.4774 12.1748 16.7949 12.8574C16.7773 12.8749 16.7588 12.8912 16.7394 12.906Z" fill="#999999"/>
</svg>
