<svg width="32" height="32" viewBox="0 0 32 32" fill="none" xmlns="http://www.w3.org/2000/svg">
<path d="M0.5 16C0.5 7.43959 7.43959 0.5 16 0.5C24.5604 0.5 31.5 7.43959 31.5 16C31.5 24.5604 24.5604 31.5 16 31.5C7.43959 31.5 0.5 24.5604 0.5 16Z" fill="white"/>
<path d="M0.5 16C0.5 7.43959 7.43959 0.5 16 0.5C24.5604 0.5 31.5 7.43959 31.5 16C31.5 24.5604 24.5604 31.5 16 31.5C7.43959 31.5 0.5 24.5604 0.5 16Z" stroke="#D9D9D9"/>
<path fill-rule="evenodd" clip-rule="evenodd" d="M17.318 22.2097L22.3192 17.208C22.345 17.1882 22.3697 17.1666 22.3932 17.1432C23.3032 16.233 23.7497 15.0575 23.7497 13.8749C23.7497 12.691 23.2932 11.5068 22.3932 10.6067C20.6362 8.84956 17.8164 8.80499 16.0055 10.473C15.1164 9.65279 13.9997 9.25 12.8766 9.25C11.6931 9.25 10.5093 9.70631 9.60936 10.6059C7.79643 12.409 7.79706 15.3327 9.61016 17.1357L14.6929 22.2097C15.4132 22.9301 16.5976 22.9301 17.318 22.2097ZM9.60936 10.6059L9.60857 10.6067L10.1389 11.137L9.61016 10.6051L9.60936 10.6059Z" fill="#004D45"/>
</svg>
