<svg width="24" height="24" viewBox="0 0 24 24" fill="none" xmlns="http://www.w3.org/2000/svg">
<path fill-rule="evenodd" clip-rule="evenodd" d="M12.75 5.52441H14.0508V4.02441H9.94824V5.52441H11.25V6.12394C7.21533 6.50333 4.07031 9.91405 4.07031 14.0647V15.3792H2.76954C2.52871 15.3792 2.30253 15.4948 2.16153 15.69C2.02052 15.8853 1.98185 16.1363 2.05757 16.365L3.08321 19.4617C3.18487 19.7687 3.47182 19.9759 3.79518 19.9759H20.2054C20.5288 19.9759 20.8157 19.7687 20.9174 19.4617L21.943 16.365C22.0188 16.1363 21.9801 15.8853 21.8391 15.69C21.6981 15.4948 21.4719 15.3792 21.2311 15.3792H19.9293V14.0647C19.9293 9.91418 16.7845 6.50355 12.75 6.12397V5.52441ZM5.57031 14.0647C5.57031 10.4795 8.44932 7.58887 11.9998 7.58887C15.5503 7.58887 18.4293 10.4795 18.4293 14.0647V15.3792H5.57031V14.0647ZM4.81257 16.8792H3.808L4.33684 18.4759H19.6638L20.1926 16.8792H19.187L19.1793 16.8792H4.82031L4.81257 16.8792Z" fill="#004D45"/>
</svg>
