<svg width="126" height="24" viewBox="0 0 126 24" fill="none" xmlns="http://www.w3.org/2000/svg">
<g id="CI" clip-path="url(#clip0_8801_56488)">
<g id="Vector">
<path d="M78.1291 8.85503V5.41799H82.3111V9.6H83.0561L83.8011 8.85503V0.0507936H82.3111V4.22434H78.1291V0.0507936H76.6392V9.6H77.3841L78.1291 8.85503Z" fill="#231F20"/>
<path d="M90.8614 9.54921L91.5556 8.85503V8.35556H86.4847V5.37566H90.963V4.18201H86.4847V1.19365H90.6667L91.2593 0.601058V0H84.9947V9.54921H90.8614Z" fill="#231F20"/>
<path d="M68.2836 1.24444H71.1196V9.6H71.8645L72.6095 8.85503V1.24444H74.8444L75.4455 0.643386V0.0507936H68.2836V1.24444Z" fill="#231F20"/>
<path d="M80.2963 14.4085H78.9079L75.4624 23.9831H76.9608L78.0021 20.9862H81.2698L82.345 23.9831H83.8434L80.3979 14.4085H80.2878H80.2963ZM78.4169 19.7926L79.6106 16.364L80.8466 19.7926H78.4169Z" fill="#231F20"/>
<path d="M85.0455 24H85.7905L86.5439 23.2466V14.4169H85.0455V24Z" fill="#231F20"/>
<path d="M89.236 14.4169H87.7376V24H92.9778L93.7227 23.2466V22.7979H89.236V14.4169Z" fill="#231F20"/>
<path d="M100.614 21.4519L96.4233 14.4H94.9249V23.9746H95.6698L96.4233 23.2296V16.9228L100.614 23.9746H101.359L102.104 23.2296V14.4H100.614V21.4519Z" fill="#231F20"/>
<path d="M120.965 22.7979V14.4169H119.467V24H124.707L125.452 23.2466V22.7979H120.965Z" fill="#231F20"/>
<path d="M113.185 19.7841H117.672V18.5905H113.185V15.5937H117.376L117.968 15.0011V14.4H111.687V23.9746H117.528L118.273 23.2381V22.781H113.185V19.7841Z" fill="#231F20"/>
<path d="M103.306 15.5937H106.15V23.9746H106.895L107.64 23.2296V15.5937H109.892L110.485 15.0011V14.4H103.306V15.5937Z" fill="#231F20"/>
<path d="M74.8698 17.3968C74.8698 15.746 73.7947 14.4 72.4741 14.4H68.2836V23.9746H69.0286L69.7735 23.2296V20.3852H71.3481L73.8201 23.9746H74.7175L75.1577 23.5344L72.9481 20.3259C74.0402 20.0466 74.8614 18.836 74.8614 17.3968H74.8698ZM69.782 19.1915V15.6021H72.4741C73.109 15.6021 73.6677 16.4402 73.6677 17.3968C73.6677 18.3534 73.109 19.1915 72.4741 19.1915H69.782Z" fill="#231F20"/>
<path d="M6.54392 0H0V5.45185H6.54392V0Z" fill="#049882"/>
<path d="M7.36508 0H19.6317V5.45185H13.0878V24H7.36508V0Z" fill="#049882"/>
<path d="M34.8444 14.9672C38.0275 14.0444 40.364 11.1153 40.364 7.63598C40.364 3.42011 36.9439 0 32.728 0H21.8243V24H27.5471V15.272H29.3418L35.7249 24H41.4476L34.8444 14.9672ZM32.7196 9.82011H27.5386V5.46032H32.7196C33.9217 5.46032 34.9037 6.44233 34.9037 7.64444C34.9037 8.84656 33.9217 9.82857 32.7196 9.82857V9.82011Z" fill="#231F20"/>
<path d="M61.0794 0H41.4476V5.45185H48.4063V24H54.1291V5.45185H61.0794V0Z" fill="#D8942A"/>
</g>
</g>
<defs>
<clipPath id="clip0_8801_56488">
<rect width="126" height="24" fill="white"/>
</clipPath>
</defs>
</svg>
