<svg width="48" height="48" viewBox="0 0 48 48" fill="none" xmlns="http://www.w3.org/2000/svg">
<path d="M0 24C0 10.7452 10.7452 0 24 0C37.2548 0 48 10.7452 48 24C48 37.2548 37.2548 48 24 48C10.7452 48 0 37.2548 0 24Z" fill="#004D45"/>
<path fill-rule="evenodd" clip-rule="evenodd" d="M27.6005 18.1072C26.3342 18.1072 25.3076 19.1337 25.3076 20.4C25.3076 21.6663 26.3342 22.6929 27.6005 22.6929C28.8668 22.6929 29.8933 21.6663 29.8933 20.4C29.8933 19.1337 28.8668 18.1072 27.6005 18.1072ZM26.8076 20.4C26.8076 19.9622 27.1626 19.6072 27.6005 19.6072C28.0384 19.6072 28.3933 19.9622 28.3933 20.4C28.3933 20.8379 28.0384 21.1929 27.6005 21.1929C27.1626 21.1929 26.8076 20.8379 26.8076 20.4Z" fill="white"/>
<path fill-rule="evenodd" clip-rule="evenodd" d="M15.0215 17.6023V30.5829C15.0215 31.9752 16.257 32.9786 17.6023 32.9786H30.3978C31.7431 32.9786 32.9786 31.9752 32.9786 30.5829V17.6023C32.9786 16.1801 31.82 15.0215 30.3978 15.0215H17.6023C16.1801 15.0215 15.0215 16.1801 15.0215 17.6023ZM17.6023 16.5215C17.0086 16.5215 16.5215 17.0086 16.5215 17.6023V27.9931L21.5748 23.4427C21.8599 23.1859 22.2928 23.1858 22.5781 23.4423L25.955 26.4788L28.0456 24.6039C28.3308 24.3481 28.763 24.3484 29.0479 24.6047L31.4786 26.791V17.6023C31.4786 17.0086 30.9916 16.5215 30.3978 16.5215H17.6023ZM16.5215 30.5829V30.0117L22.077 25.009L25.4529 28.0446C25.7377 28.3008 26.1699 28.301 26.4551 28.0453L28.5456 26.1704L31.4786 28.8085V30.5829C31.4786 31.0008 31.0685 31.4786 30.3978 31.4786H17.6023C16.9316 31.4786 16.5215 31.0008 16.5215 30.5829Z" fill="white"/>
</svg>
