<svg width="24" height="25" viewBox="0 0 24 25" fill="none" xmlns="http://www.w3.org/2000/svg">
<g id="ico-24px-Dark">
<path id="Union" fill-rule="evenodd" clip-rule="evenodd" d="M10.5 2.75C5.94365 2.75 2.25 6.44365 2.25 11C2.25 15.5563 5.94365 19.25 10.5 19.25C12.5081 19.25 14.3487 18.5325 15.7793 17.34L20.4697 22.0304L21.5304 20.9697L16.84 16.2793C18.0325 14.8487 18.75 13.0081 18.75 11C18.75 6.44365 15.0563 2.75 10.5 2.75ZM3.75 11C3.75 7.27208 6.77208 4.25 10.5 4.25C14.2279 4.25 17.25 7.27208 17.25 11C17.25 14.7279 14.2279 17.75 10.5 17.75C6.77208 17.75 3.75 14.7279 3.75 11Z" fill="white"/>
</g>
</svg>
