<svg width="20" height="20" viewBox="0 0 20 20" fill="none" xmlns="http://www.w3.org/2000/svg">
<path fill-rule="evenodd" clip-rule="evenodd" d="M10.1221 2.09882C9.89153 1.96706 9.60847 1.96706 9.3779 2.09882L2.3779 6.09882C2.14421 6.23235 2 6.48086 2 6.75V16.75C2 17.1642 2.33579 17.5 2.75 17.5H16.75C17.1642 17.5 17.5 17.1642 17.5 16.75V6.75C17.5 6.48086 17.3558 6.23235 17.1221 6.09882L10.1221 2.09882ZM10.5 16V9.75C10.5 9.33579 10.1642 9 9.75 9C9.33579 9 9 9.33579 9 9.75V16H3.5V7.18524L9.75 3.61381L16 7.18524V16H10.5Z" fill="#999999"/>
</svg>
