<svg width="80" height="80" viewBox="0 0 80 80" fill="none" xmlns="http://www.w3.org/2000/svg">
<path fill-rule="evenodd" clip-rule="evenodd" d="M21.2578 16.1773C21.2578 13.462 23.4583 11.2617 26.1714 11.2617H53.8257C56.5389 11.2617 58.7393 13.462 58.7393 16.1773V45.2988H21.2578V16.1773ZM21.2578 49.2988H58.7393V50.7555C58.7393 53.4709 56.5389 55.6711 53.8257 55.6711H26.1714C23.4583 55.6711 21.2578 53.4709 21.2578 50.7555V49.2988ZM26.1714 7.26172C21.248 7.26172 17.2578 11.2539 17.2578 16.1773V50.7555C17.2578 55.6789 21.248 59.6711 26.1714 59.6711H28.2564L17.8434 70.0872L20.6722 72.9152L26.9996 66.5859H52.9994L59.3268 72.9152L62.1556 70.0872L51.7427 59.6711H53.8257C58.7491 59.6711 62.7393 55.6789 62.7393 50.7555V16.1773C62.7393 11.2539 58.7491 7.26172 53.8257 7.26172H26.1714ZM49.0006 62.5859L46.0867 59.6711H33.9124L30.9984 62.5859H49.0006ZM33.0859 25.0938H46.9131V21.0938H33.0859V25.0938Z" fill="white"/>
</svg>
