<svg width="144" height="144" viewBox="0 0 144 144" fill="none" xmlns="http://www.w3.org/2000/svg">
<g id="ico-144px-inspection">
<g id="og">
<path id="Union" fill-rule="evenodd" clip-rule="evenodd" d="M113 24H31V20H113V24ZM64.25 68C52.514 68 43 58.4859 43 46.7498V46.7277V46.7057V46.6836V46.6615V46.6394V46.6173V46.5953V46.5732V46.5511V46.529V46.507V46.4849V46.4628V46.4407V46.4187V46.3966V46.3745V46.3525V46.3304V46.3083V46.2863V46.2642V46.2422V46.2201V46.198V46.176V46.1539V46.1319V46.1098V46.0878V46.0657V46.0437V46.0217V45.9996V45.9776V45.9555V45.9335V45.9115V45.8894V45.8674V45.8454V45.8233V45.8013V45.7793V45.7572V45.7352V45.7132V45.6912V45.6692V45.6472V45.6251V45.6031V45.5811V45.5591V45.5371V45.5151V45.4931V45.4711V45.4491V45.4271V45.4051V45.3831V45.3611V45.3392V45.3172V45.2952V45.2732V45.2512V45.2293V45.2073V45.1853V45.1633V45.1414V45.1194V45.0975V45.0755V45.0535V45.0316V45.0096V44.9877V44.9657V44.9438V44.9219V44.8999V44.878V44.856V44.8341V44.8122V44.7903V44.7683V44.7464V44.7245V44.7026V44.6807V44.6588V44.6368V44.6149V44.593V44.5711V44.5492V44.5274V44.5055V44.4836V44.4617V44.4398V44.4179V44.3961V44.3742V44.3523V44.3304V44.3086V44.2867V44.2649V44.243V44.2212V44.1993V44.1775V44.1556V44.1338V44.112V44.0901V44.0683V44.0465V44.0247V44.0028V43.981V43.9592V43.9374V43.9156V43.8938V43.872V43.8502V43.8284V43.8066V43.7848V43.7631V43.7413V43.7195V43.6977V43.676V43.6542V43.6325V43.6107V43.5889V43.5672V43.5455V43.5237V43.502V43.4803V43.4585V43.4368V43.4151V43.3934V43.3716V43.3499V43.3282V43.3065V43.2848V43.2631V43.2415V43.2198V43.1981V43.1764V43.1547V43.1331V43.1114V43.0897V43.0681V43.0464V43.0248V43.0031V42.9815V42.9599V42.9382V42.9166V42.895V42.8734V42.8518V42.8302V42.8086V42.787V42.7654V42.7438V42.7222V42.7006V42.679V42.6574V42.6359V42.6143V42.5928V42.5712V42.5497V42.5281V42.5066V42.485V42.4635V42.442V42.4205V42.3989V42.3774V42.3559V42.3344V42.3129V42.2914V42.2699V42.2485V42.227V42.2055V42.184V42.1626V42.1411V42.1197V42.0982V42.0768V42.0553V42.0339V42.0125V41.9911V41.9696V41.9482V41.9268V41.9054V41.884V41.8626V41.8413V41.8199V41.7985V41.7771V41.7558V41.7344V41.7131V41.6917V41.6704V41.649V41.6277V41.6064V41.585V41.5637V41.5424V41.5211V41.4998V41.4785V41.4572V41.436V41.4147V41.3934V41.3722V41.3509V41.3296V41.3084V41.2872V41.2659V41.2447V41.2235V41.2022V41.181V41.1598V41.1386V41.1174V41.0963V41.0751V41.0539V41.0327V41.0116V40.9904V40.9693V40.9481V40.927V40.9058V40.8847V40.8636V40.8425V40.8214V40.8003V40.7792V40.7581V40.737V40.7159V40.6948V40.6738V40.6527V40.6317V40.6106V40.5896V40.5686V40.5475V40.5265V40.5055V40.4845V40.4635V40.4425V40.4215V40.4005V40.3796V40.3586V40.3376V40.3167V40.2957V40.2748V40.2539V40.2329V40.212V40.1911V40.1702V40.1493V40.1284V40.1075V40.0866V40.0658V40.0449V40.0241V40.0032V39.9824V39.9615V39.9407V39.9199V39.8991V39.8783V39.8574V39.8367V39.8159V39.7951V39.7743V39.7536V39.7328V39.712V39.6913V39.6706V39.6498V39.6291V39.6084V39.5877V39.567V39.5463V39.5256V39.5049V39.4843V39.4636V39.443V39.4223V39.4017V39.381V39.3604V39.3398V39.3192V39.2986V39.278V39.2574V39.2368V39.2163V39.1957V39.1751V39.1546V39.1341V39.1135V39.093V39.0725V39.052V39.0315V39.011V38.9905V38.97V38.9496V38.9291V38.9087V38.8882V38.8678V38.8473V38.8269V38.8065V38.7861V38.7657V38.7453V38.7249V38.7046V38.6842V38.6639V38.6435V38.6232V38.6028V38.5825V38.5622V38.5419V38.5216V38.5013V38.481V38.4608V38.4405V38.4203V38.4V38.3798V38.3596V38.3393V38.3191V38.2989V38.2787V38.2585V38.2384V38.2182V38.198V38.1779V38.1577V38.1376V38.1175V38.0974V38.0773V38.0572V38.0371V38.017V37.9969V37.9769V37.9568V37.9368V37.9167V37.8967V37.8767V37.8567V37.8367V37.8167V37.7967V37.7767V37.7568V37.7368V37.7169V37.697V37.677V37.6571V37.6372V37.6173V37.5974V37.5775V37.5577V37.5378V37.518V37.4981V37.4783V37.4585V37.4386V37.4188V37.399V37.3793V37.3595V37.3397V37.32V37.3002V37.2805V37.2607V37.241V37.2213V37.2016V37.1819V37.1623V37.1426V37.1229V37.1033V37.0836V37.064V37.0444V37.0248V37.0052V36.9856V36.966V36.9464V36.9269V36.9073V36.8878V36.8682V36.8487V36.8292V36.8097V36.7902V36.7707V36.7513V36.7318V36.7123V36.6929V36.6735V36.6541V36.6346V36.6152V36.5959V36.5765V36.5571V36.5378V36.5184V36.4991V36.4797V36.4604V36.4411V36.4218V36.4025V36.3833V36.364V36.3447V36.3255V36.3063V36.287V36.2678V36.2486V36.2294V36.2103V36.1911V36.1719V36.1528V36.1337V36.1145V36.0954V36.0763V36.0572V36.0381V36.0191V36H39V36.0191V36.0381V36.0572V36.0763V36.0954V36.1145V36.1337V36.1528V36.1719V36.1911V36.2103V36.2294V36.2486V36.2678V36.287V36.3063V36.3255V36.3447V36.364V36.3833V36.4025V36.4218V36.4411V36.4604V36.4797V36.4991V36.5184V36.5378V36.5571V36.5765V36.5959V36.6152V36.6346V36.6541V36.6735V36.6929V36.7123V36.7318V36.7513V36.7707V36.7902V36.8097V36.8292V36.8487V36.8682V36.8878V36.9073V36.9269V36.9464V36.966V36.9856V37.0052V37.0248V37.0444V37.064V37.0836V37.1033V37.1229V37.1426V37.1623V37.1819V37.2016V37.2213V37.241V37.2607V37.2805V37.3002V37.32V37.3397V37.3595V37.3793V37.399V37.4188V37.4386V37.4585V37.4783V37.4981V37.518V37.5378V37.5577V37.5775V37.5974V37.6173V37.6372V37.6571V37.677V37.697V37.7169V37.7368V37.7568V37.7767V37.7967V37.8167V37.8367V37.8567V37.8767V37.8967V37.9167V37.9368V37.9568V37.9769V37.9969V38.017V38.0371V38.0572V38.0773V38.0974V38.1175V38.1376V38.1577V38.1779V38.198V38.2182V38.2384V38.2585V38.2787V38.2989V38.3191V38.3393V38.3596V38.3798V38.4V38.4203V38.4405V38.4608V38.481V38.5013V38.5216V38.5419V38.5622V38.5825V38.6028V38.6232V38.6435V38.6639V38.6842V38.7046V38.7249V38.7453V38.7657V38.7861V38.8065V38.8269V38.8473V38.8678V38.8882V38.9087V38.9291V38.9496V38.97V38.9905V39.011V39.0315V39.052V39.0725V39.093V39.1135V39.1341V39.1546V39.1751V39.1957V39.2163V39.2368V39.2574V39.278V39.2986V39.3192V39.3398V39.3604V39.381V39.4017V39.4223V39.443V39.4636V39.4843V39.5049V39.5256V39.5463V39.567V39.5877V39.6084V39.6291V39.6498V39.6706V39.6913V39.712V39.7328V39.7536V39.7743V39.7951V39.8159V39.8367V39.8574V39.8783V39.8991V39.9199V39.9407V39.9615V39.9824V40.0032V40.0241V40.0449V40.0658V40.0866V40.1075V40.1284V40.1493V40.1702V40.1911V40.212V40.2329V40.2539V40.2748V40.2957V40.3167V40.3376V40.3586V40.3796V40.4005V40.4215V40.4425V40.4635V40.4845V40.5055V40.5265V40.5475V40.5686V40.5896V40.6106V40.6317V40.6527V40.6738V40.6948V40.7159V40.737V40.7581V40.7792V40.8003V40.8214V40.8425V40.8636V40.8847V40.9058V40.927V40.9481V40.9693V40.9904V41.0116V41.0327V41.0539V41.0751V41.0963V41.1174V41.1386V41.1598V41.181V41.2022V41.2235V41.2447V41.2659V41.2872V41.3084V41.3296V41.3509V41.3722V41.3934V41.4147V41.436V41.4572V41.4785V41.4998V41.5211V41.5424V41.5637V41.585V41.6064V41.6277V41.649V41.6704V41.6917V41.7131V41.7344V41.7558V41.7771V41.7985V41.8199V41.8413V41.8626V41.884V41.9054V41.9268V41.9482V41.9696V41.9911V42.0125V42.0339V42.0553V42.0768V42.0982V42.1197V42.1411V42.1626V42.184V42.2055V42.227V42.2485V42.2699V42.2914V42.3129V42.3344V42.3559V42.3774V42.3989V42.4205V42.442V42.4635V42.485V42.5066V42.5281V42.5497V42.5712V42.5928V42.6143V42.6359V42.6574V42.679V42.7006V42.7222V42.7438V42.7654V42.787V42.8086V42.8302V42.8518V42.8734V42.895V42.9166V42.9382V42.9599V42.9815V43.0031V43.0248V43.0464V43.0681V43.0897V43.1114V43.1331V43.1547V43.1764V43.1981V43.2198V43.2415V43.2631V43.2848V43.3065V43.3282V43.3499V43.3716V43.3934V43.4151V43.4368V43.4585V43.4803V43.502V43.5237V43.5455V43.5672V43.5889V43.6107V43.6325V43.6542V43.676V43.6977V43.7195V43.7413V43.7631V43.7848V43.8066V43.8284V43.8502V43.872V43.8938V43.9156V43.9374V43.9592V43.981V44.0028V44.0247V44.0465V44.0683V44.0901V44.112V44.1338V44.1556V44.1775V44.1993V44.2212V44.243V44.2649V44.2867V44.3086V44.3304V44.3523V44.3742V44.3961V44.4179V44.4398V44.4617V44.4836V44.5055V44.5274V44.5492V44.5711V44.593V44.6149V44.6368V44.6588V44.6807V44.7026V44.7245V44.7464V44.7683V44.7903V44.8122V44.8341V44.856V44.878V44.8999V44.9219V44.9438V44.9657V44.9877V45.0096V45.0316V45.0535V45.0755V45.0975V45.1194V45.1414V45.1633V45.1853V45.2073V45.2293V45.2512V45.2732V45.2952V45.3172V45.3392V45.3611V45.3831V45.4051V45.4271V45.4491V45.4711V45.4931V45.5151V45.5371V45.5591V45.5811V45.6031V45.6251V45.6472V45.6692V45.6912V45.7132V45.7352V45.7572V45.7793V45.8013V45.8233V45.8454V45.8674V45.8894V45.9115V45.9335V45.9555V45.9776V45.9996V46.0217V46.0437V46.0657V46.0878V46.1098V46.1319V46.1539V46.176V46.198V46.2201V46.2422V46.2642V46.2863V46.3083V46.3304V46.3525V46.3745V46.3966V46.4187V46.4407V46.4628V46.4849V46.507V46.529V46.5511V46.5732V46.5953V46.6173V46.6394V46.6615V46.6836V46.7057V46.7277V46.7498C39 57.1944 45.3416 66.158 54.3845 70C45.3416 73.8419 39 82.8054 39 93.25V122C39 123.105 39.8954 124 41 124H103C104.105 124 105 123.105 105 122V93.25C105 82.8054 98.6584 73.8419 89.6155 70C98.6584 66.1581 105 57.1946 105 46.75V28H101V46.75C101 58.4861 91.486 68 79.75 68V72C91.486 72 101 81.514 101 93.25V120H43V93.25C43 81.5139 52.5139 72 64.25 72V68Z" fill="#004D45"/>
<path id="Rectangle" d="M99 46H46C46 56.4934 54.5066 65 65 65H65.875H79.125H79.9998C90.4932 65 99 56.4934 99 46Z" fill="#E6B300"/>
<path id="Rectangle_2" d="M46 112V110C46 107.791 47.7909 106 50 106H65.875H79.125H95.001C97.2101 106 99 107.791 99 110V112C99 114.209 97.2091 116 95 116H50C47.7909 116 46 114.209 46 112Z" fill="#E6B300"/>
</g>
</g>
</svg>
