<svg width="24" height="24" viewBox="0 0 24 24" fill="none" xmlns="http://www.w3.org/2000/svg">
<path d="M19.226 18.705C19.226 20.1039 15.9951 21.2392 12.0002 21.2392C8.00538 21.2392 4.77441 20.1039 4.77441 18.705C4.77441 17.6913 6.45699 16.8195 8.90345 16.4141C10.4725 18.1373 12.0002 19.2118 12.0002 19.2118C12.0002 19.2118 13.528 18.1373 15.097 16.4141C17.5434 16.8195 19.226 17.6913 19.226 18.705Z" stroke="black" stroke-width="1.5" stroke-linecap="round" stroke-linejoin="round"/>
<path d="M11.9999 2.75977C8.3973 2.75977 5.48633 5.62849 5.48633 9.15612C5.48633 11.9843 7.22052 14.5692 8.9031 16.4141C10.4721 18.1374 11.9999 19.2119 11.9999 19.2119C11.9999 19.2119 13.5276 18.1374 15.0966 16.4141C16.7792 14.5692 18.5134 11.9843 18.5134 9.15612C18.5134 5.62849 15.6025 2.75977 11.9999 2.75977ZM11.9999 7.33148C13.0321 7.33148 13.8579 8.15257 13.8579 9.15612C13.8579 10.1597 13.0321 10.9909 11.9999 10.9909C10.9676 10.9909 10.1418 10.1698 10.1418 9.15612C10.1418 8.14243 10.9676 7.33148 11.9999 7.33148Z" stroke="black" stroke-width="1.5" stroke-linecap="round" stroke-linejoin="round"/>
<path d="M13.8577 9.15666C13.8577 10.1703 13.0319 10.9914 11.9997 10.9914C10.9674 10.9914 10.1416 10.1703 10.1416 9.15666C10.1416 8.14298 10.9674 7.33203 11.9997 7.33203C13.0319 7.33203 13.8577 8.15312 13.8577 9.15666Z" stroke="black" stroke-width="1.5" stroke-linecap="round" stroke-linejoin="round"/>
<path fill-rule="evenodd" clip-rule="evenodd" d="M4.73633 9.15612C4.73633 5.20227 7.9952 2.00977 11.9999 2.00977C16.0046 2.00977 19.2634 5.20227 19.2634 9.15612C19.2634 11.7702 17.9304 14.1355 16.4884 15.9404C17.2363 16.1343 17.8995 16.3799 18.4374 16.6727C19.2099 17.0931 19.976 17.7564 19.976 18.705C19.976 19.3665 19.5923 19.8911 19.1377 20.2683C18.6786 20.6493 18.0592 20.9588 17.3595 21.2044C15.9534 21.6978 14.0591 21.9892 12.0002 21.9892C9.94135 21.9892 8.04705 21.6978 6.64091 21.2044C5.94127 20.9588 5.32185 20.6493 4.86273 20.2683C4.40819 19.8911 4.02441 19.3665 4.02441 18.705C4.02441 17.7564 4.79051 17.0931 5.56301 16.6727C6.10095 16.3799 6.76411 16.1343 7.51204 15.9405C6.06993 14.1356 4.73633 11.7703 4.73633 9.15612ZM8.63281 17.2247C7.63883 17.4179 6.8353 17.688 6.28001 17.9902C5.59961 18.3605 5.52441 18.6399 5.52441 18.705C5.52441 18.7429 5.54451 18.8848 5.82062 19.114C6.09214 19.3393 6.53013 19.5758 7.1376 19.789C8.34565 20.2129 10.0642 20.4892 12.0002 20.4892C13.9362 20.4892 15.6548 20.2129 16.8628 19.789C17.4703 19.5758 17.9083 19.3393 18.1798 19.114C18.4559 18.8848 18.476 18.7429 18.476 18.705C18.476 18.6399 18.4008 18.3605 17.7204 17.9902C17.1651 17.688 16.3616 17.4179 15.3676 17.2247C14.6547 17.9774 13.9689 18.5928 13.4417 19.0342C13.1428 19.2845 12.8936 19.4799 12.7177 19.6138C12.6297 19.6808 12.5599 19.7325 12.5113 19.768C12.4961 19.7791 12.483 19.7886 12.472 19.7965C12.4654 19.8013 12.4596 19.8054 12.4545 19.809L12.4387 19.8203L12.4341 19.8236L12.4326 19.8246C12.4326 19.8246 12.4317 19.8253 12.0002 19.2118C11.5688 19.8253 11.5686 19.8252 11.5686 19.8252L11.5663 19.8236L11.5617 19.8203L11.5459 19.809C11.5325 19.7994 11.5135 19.7857 11.4892 19.768C11.4406 19.7325 11.3708 19.6808 11.2828 19.6138C11.1068 19.4799 10.8577 19.2845 10.5587 19.0342C10.0315 18.5928 9.34575 17.9774 8.63281 17.2247ZM12.0002 19.2118C11.8317 19.4514 11.5686 19.8252 11.5686 19.8252C11.8274 20.0072 12.1728 20.0073 12.4317 19.8253C12.4317 19.8253 12.1687 19.4514 12.0002 19.2118ZM12.0002 18.2725C12.1349 18.1668 12.2965 18.0367 12.4787 17.8841C13.038 17.4159 13.7861 16.7398 14.5424 15.9091C16.1918 14.1006 17.7634 11.6945 17.7634 9.15612C17.7634 6.05472 15.2004 3.50977 11.9999 3.50977C8.79939 3.50977 6.23633 6.05472 6.23633 9.15612C6.23633 11.6944 7.80812 14.1001 9.45759 15.9087C10.2139 16.7393 10.9625 17.4159 11.5217 17.8841C11.7039 18.0367 11.8656 18.1668 12.0002 18.2725ZM11.9999 8.08148C11.3689 8.08148 10.8918 8.56943 10.8918 9.15612C10.8918 9.74819 11.3744 10.2409 11.9999 10.2409C12.6227 10.2409 13.1079 9.74073 13.1079 9.15612C13.1079 8.57687 12.6281 8.08148 11.9999 8.08148ZM14.6079 9.15612C14.6079 10.5914 13.4389 11.7409 11.9999 11.7409C10.5608 11.7409 9.39181 10.5914 9.39181 9.15612C9.39181 7.71544 10.5663 6.58148 11.9999 6.58148C13.4362 6.58148 14.6079 7.72827 14.6079 9.15612Z" fill="white"/>
</svg>
