<svg width="24" height="24" viewBox="0 0 24 24" fill="none" xmlns="http://www.w3.org/2000/svg">
<path fill-rule="evenodd" clip-rule="evenodd" d="M8.75 6.75C8.75 6.06421 9.31421 5.5 10 5.5C10.6858 5.5 11.25 6.06421 11.25 6.75H12.75C12.75 5.23579 11.5142 4 10 4C8.48579 4 7.25 5.23579 7.25 6.75V16.25H2V17.75H22V16.25H15.75V6.75C15.75 6.06421 16.3142 5.5 17 5.5C17.6858 5.5 18.25 6.06421 18.25 6.75H19.75C19.75 5.23579 18.5142 4 17 4C15.4858 4 14.25 5.23579 14.25 6.75V10H8.75V6.75ZM14.25 16.25H8.75V14.5H14.25V16.25ZM14.25 13V11.5H8.75V13H14.25ZM4 20.75H20V19.25H4V20.75Z" fill="#004D45"/>
</svg>
