<svg width="24" height="24" viewBox="0 0 24 24" fill="none" xmlns="http://www.w3.org/2000/svg">
<path d="M18.75 11H17.5V4.25C17.5 3.01 16.49 2 15.25 2H5.25C4.01 2 3 3.01 3 4.25V19.25C3 20.49 4.01 21.5 5.25 21.5H18.75C19.99 21.5 21 20.49 21 19.25V13.25C21 12.01 19.99 11 18.75 11ZM12 13.25V20H5.25C4.84 20 4.5 19.66 4.5 19.25V4.25C4.5 3.84 4.84 3.5 5.25 3.5H15.25C15.66 3.5 16 3.84 16 4.25V11H14.25C13.01 11 12 12.01 12 13.25ZM19.5 19.25C19.5 19.66 19.16 20 18.75 20H13.5V13.25C13.5 12.84 13.84 12.5 14.25 12.5H18.75C19.16 12.5 19.5 12.84 19.5 13.25V19.25Z" fill="#1F1B1C"/>
<path d="M8.75 5.75H6.75V7.75H8.75V5.75Z" fill="#1F1B1C"/>
<path d="M13.75 5.75H11.75V7.75H13.75V5.75Z" fill="#1F1B1C"/>
<path d="M8.75 10.75H6.75V12.75H8.75V10.75Z" fill="#1F1B1C"/>
<path d="M8.75 15.75H6.75V17.75H8.75V15.75Z" fill="#1F1B1C"/>
<path d="M17.75 15.75H15.75V17.75H17.75V15.75Z" fill="#1F1B1C"/>
</svg>
