<svg width="60" height="61" viewBox="0 0 60 61" fill="none" xmlns="http://www.w3.org/2000/svg">
<path d="M49.51 29.68C50 30 50.48 30.34 50.93 30.71C50.48 30.33 50.01 29.99 49.51 29.68Z" fill="#719C98"/>
<path d="M54 34.31V13.5C54 10.74 51.76 8.5 49 8.5H41V6.5C41 5.95 40.55 5.5 40 5.5C39.45 5.5 39 5.95 39 6.5V8.5H19V6.5C19 5.95 18.55 5.5 18 5.5C17.45 5.5 17 5.95 17 6.5V8.5H9C6.24 8.5 4 10.74 4 13.5V46.5C4 49.26 6.24 51.5 9 51.5H32.22C34.83 54.08 38.3 55.5 42 55.5C49.72 55.5 56 49.22 56 41.5C56 38.94 55.31 36.46 54 34.31ZM6 13.5C6 11.85 7.35 10.5 9 10.5H17V12.5C17 13.05 17.45 13.5 18 13.5C18.55 13.5 19 13.05 19 12.5V10.5H39V12.5C39 13.05 39.45 13.5 40 13.5C40.55 13.5 41 13.05 41 12.5V10.5H49C50.65 10.5 52 11.85 52 13.5V18.5H6V13.5ZM9 49.5C7.35 49.5 6 48.15 6 46.5V20.5H52V31.7C51.87 31.56 51.73 31.43 51.59 31.3C51.37 31.09 51.15 30.9 50.93 30.71C50.48 30.34 50 30 49.51 29.68C49.05 29.38 48.56 29.11 48.06 28.88C47.87 28.78 47.67 28.7 47.47 28.61C47.16 28.48 46.85 28.36 46.53 28.25C46.41 28.21 46.3 28.17 46.18 28.14C45.72 27.99 45.26 27.87 44.79 27.78C44.65 27.75 44.5 27.72 44.35 27.7C44.17 27.67 44 27.64 43.82 27.62C43.76 27.61 43.7 27.6 43.64 27.6C43.1 27.53 42.55 27.5 42 27.5C34.28 27.5 28 33.78 28 41.5C28 41.73 28.01 41.95 28.02 42.18C28.03 42.45 28.05 42.71 28.08 42.97C28.08 43.02 28.09 43.06 28.09 43.1C28.11 43.23 28.12 43.36 28.15 43.49C28.15 43.57 28.16 43.65 28.19 43.73C28.22 43.94 28.26 44.14 28.3 44.35C28.34 44.59 28.39 44.82 28.46 45.05C28.55 45.41 28.66 45.76 28.78 46.11C28.89 46.45 29.02 46.78 29.17 47.1C29.28 47.36 29.4 47.61 29.53 47.86C29.64 48.08 29.76 48.3 29.89 48.52C30.08 48.85 30.29 49.18 30.51 49.5H9ZM42 53.5C38.7 53.5 35.63 52.19 33.35 49.81C31.19 47.57 30 44.62 30 41.5C30 34.88 35.38 29.5 42 29.5C42.29 29.5 42.58 29.51 42.86 29.53C43.12 29.55 43.39 29.58 43.64 29.62C43.78 29.63 43.92 29.65 44.05 29.68C44.3 29.72 44.55 29.77 44.79 29.83C45.02 29.88 45.24 29.94 45.46 30.01C45.68 30.07 45.89 30.14 46.1 30.22C46.3 30.29 46.5 30.36 46.69 30.46C47.53 30.81 48.32 31.26 49.06 31.8C49.24 31.93 49.43 32.07 49.6 32.22C49.79 32.37 49.97 32.52 50.14 32.69C50.2 32.74 50.25 32.79 50.3 32.85C50.46 32.99 50.61 33.14 50.75 33.3C50.92 33.48 51.1 33.67 51.26 33.87C51.58 34.26 51.88 34.68 52.16 35.12C52.17 35.13 52.17 35.14 52.18 35.15C53.37 37.04 54 39.23 54 41.5C54 48.12 48.62 53.5 42 53.5Z" fill="#719C98"/>
<path d="M44 33.5V41.5C44 41.77 43.89 42.02 43.71 42.21L39.71 46.21L38.29 44.79L42 41.09V33.5H44Z" fill="#719C98"/>
<path d="M29.41 28.5L25.71 32.21L24.29 30.79L25.59 29.5H14.41L15.71 30.79L14.29 32.21L10.59 28.5L14.29 24.79L15.71 26.21L14.41 27.5H25.59L24.29 26.21L25.71 24.79L29.41 28.5Z" fill="#719C98"/>
</svg>
