<svg width="24" height="24" viewBox="0 0 24 24" fill="none" xmlns="http://www.w3.org/2000/svg">
<path d="M19 11.06C18.83 10.89 18.56 10.89 18.39 11.06L11.43 18.02C9.93 19.52 7.48 19.52 5.98 18.02C4.48 16.52 4.48 14.07 5.98 12.57L12.94 5.61003C13.94 4.61003 15.57 4.61003 16.57 5.61003C17.57 6.61003 17.57 8.24003 16.57 9.24003L12.39 13.42L9.61 16.2C9.11 16.7 8.29 16.7 7.79 16.2C7.29 15.7 7.29 14.88 7.79 14.38L12.66 9.51003L14.45 7.72003C14.62 7.55003 14.62 7.28003 14.45 7.11003C14.28 6.94003 14.01 6.94003 13.84 7.11003L12.05 8.90003L7.18 13.77C6.35 14.6 6.35 15.96 7.18 16.8C7.6 17.22 8.15 17.43 8.69 17.43C9.23 17.43 9.79 17.22 10.2 16.8L17.16 9.84003C18.5 8.50003 18.5 6.33003 17.16 5.00003C15.82 3.67003 13.65 3.66003 12.32 5.00003L5.38 11.96C3.54 13.8 3.54 16.78 5.38 18.62C6.3 19.54 7.5 20 8.71 20C9.92 20 11.12 19.54 12.04 18.62L19 11.66C19.17 11.49 19.17 11.22 19 11.05V11.06Z" fill="black"/>
</svg>
