<svg width="24" height="24" viewBox="0 0 24 24" fill="none" xmlns="http://www.w3.org/2000/svg">
<path d="M0.5 12C0.5 5.64873 5.64873 0.5 12 0.5C18.3513 0.5 23.5 5.64873 23.5 12C23.5 18.3513 18.3513 23.5 12 23.5C5.64873 23.5 0.5 18.3513 0.5 12Z" fill="white"/>
<path d="M0.5 12C0.5 5.64873 5.64873 0.5 12 0.5C18.3513 0.5 23.5 5.64873 23.5 12C23.5 18.3513 18.3513 23.5 12 23.5C5.64873 23.5 0.5 18.3513 0.5 12Z" stroke="#D9D9D9"/>
<path d="M10.5 9H13.5V9.75H10.5V9Z" fill="#999999"/>
<path d="M10.5 15.75H14.25V16.5H10.5V15.75Z" fill="#999999"/>
<path d="M11.25 9H13.5V16.5H11.25V9Z" fill="#999999"/>
<path d="M13.5 7.125C13.5 7.74632 12.9963 8.25 12.375 8.25C11.7537 8.25 11.25 7.74632 11.25 7.125C11.25 6.50368 11.7537 6 12.375 6C12.9963 6 13.5 6.50368 13.5 7.125Z" fill="#999999"/>
</svg>
