<svg width="24" height="24" viewBox="0 0 24 24" fill="none" xmlns="http://www.w3.org/2000/svg">
<g id="ico-24px-Dark">
<g id="Vector">
<path d="M12 3.50289C16.6922 3.50289 20.4971 7.30775 20.4971 12C20.4971 16.6922 16.6922 20.4971 12 20.4971C7.30775 20.4971 3.50289 16.6922 3.50289 12C3.50289 9.35001 4.71925 6.9809 6.62428 5.42004V8.52662H8.12717V3.16117H7.43523L7.40977 3.1121C7.37856 3.1283 7.34746 3.14465 7.31644 3.16117H2.75145V4.66406H5.20593C3.23625 6.49106 2 9.10119 2 12C2 17.5223 6.47773 22 12 22C17.5223 22 22 17.5223 22 12C22 6.47773 17.5223 2 12 2V3.50289Z" fill="white"/>
<path d="M15.2674 12.5548C15.1338 12.2671 14.9489 12.0102 14.7125 11.8047C14.4762 11.5889 14.1884 11.4142 13.8596 11.2703C13.5308 11.1265 13.1711 11.0031 12.7806 10.9209L12.3387 10.8182V8.66017C12.6265 8.70128 12.8834 8.77321 13.0786 8.91708C13.3458 9.11232 13.4999 9.38978 13.5308 9.73917H15.3496C15.3496 9.20481 15.1955 8.73211 14.918 8.33134C14.6406 7.93056 14.2501 7.612 13.7568 7.38593C13.3458 7.20096 12.8628 7.10847 12.349 7.07764V6.05003H11.6297V7.08792C11.1364 7.12902 10.674 7.21123 10.2629 7.3962C9.74912 7.62228 9.34835 7.94084 9.05034 8.34161C8.75233 8.75266 8.60847 9.22536 8.61874 9.75972C8.61874 10.4277 8.83454 10.9518 9.27642 11.3423C9.71829 11.7327 10.3143 12.0205 11.0645 12.2055L11.6297 12.3493V14.6512C11.4344 14.6306 11.2597 14.5895 11.0953 14.5279C10.8384 14.4251 10.6329 14.2812 10.4787 14.0757C10.3246 13.8805 10.2424 13.6236 10.2218 13.3256H8.38239C8.39267 13.973 8.55709 14.5073 8.8551 14.9492C9.1531 15.3911 9.57443 15.7199 10.1088 15.9357C10.5507 16.1207 11.0645 16.2029 11.6399 16.2337V17.2613H12.3593V16.2337C12.9347 16.2029 13.4485 16.1104 13.8801 15.9357C14.394 15.7199 14.7947 15.4013 15.0722 15.0006C15.3496 14.5998 15.4832 14.1271 15.4935 13.5722C15.4935 13.2022 15.4216 12.8631 15.288 12.5754L15.2674 12.5548ZM11.4241 10.5613C11.2494 10.4996 11.0953 10.4277 10.972 10.3352C10.8384 10.253 10.7356 10.1502 10.6637 10.0269C10.5918 9.90359 10.5507 9.77 10.5609 9.60558C10.5609 9.41033 10.6123 9.24592 10.7254 9.09177C10.8384 8.93763 11.0028 8.82459 11.2083 8.73211C11.3317 8.68073 11.4652 8.6499 11.6194 8.62934V10.6126C11.5577 10.5921 11.4755 10.5818 11.4139 10.551L11.4241 10.5613ZM13.3663 14.1168C13.2327 14.2812 13.0478 14.4148 12.8114 14.5073C12.6676 14.5587 12.5134 14.5998 12.349 14.6204V12.5137C12.5442 12.5651 12.7189 12.6268 12.8628 12.6884C13.0889 12.7809 13.2636 12.9042 13.3766 13.0378C13.4999 13.1714 13.5513 13.3461 13.5513 13.5516C13.5513 13.7674 13.4896 13.9627 13.3561 14.1271L13.3663 14.1168Z" fill="white"/>
</g>
</g>
</svg>
