<svg width="40" height="40" viewBox="0 0 40 40" fill="none" xmlns="http://www.w3.org/2000/svg">
<path d="M22 20C21.4477 20 21 20.4477 21 21C21 21.5523 21.4477 22 22 22H25C25.5523 22 26 21.5523 26 21C26 20.4477 25.5523 20 25 20H22Z" fill="#1A1A1A"/>
<path fill-rule="evenodd" clip-rule="evenodd" d="M16 12V10H14V12H13C11.3431 12 10 13.3431 10 15V27C10 28.6569 11.3431 30 13 30H27C28.6569 30 30 28.6569 30 27V15C30 13.3431 28.6569 12 27 12H26V10H24V12H16ZM13 14C12.4477 14 12 14.4477 12 15V16H28V15C28 14.4477 27.5523 14 27 14H13ZM28 27V18H12V27C12 27.5523 12.4477 28 13 28H27C27.5523 28 28 27.5523 28 27Z" fill="#1A1A1A"/>
</svg>
