<svg width="16" height="16" viewBox="0 0 16 16" fill="none" xmlns="http://www.w3.org/2000/svg">
<g id="ico-rating">
<path id="Star 1" d="M7.46196 1.09019C7.68205 0.644243 8.31795 0.644244 8.53804 1.09019L10.2115 4.48107C10.2989 4.65815 10.4679 4.78089 10.6633 4.80929L14.4054 5.35304C14.8975 5.42455 15.094 6.02934 14.7379 6.37646L12.0301 9.01589C11.8887 9.15373 11.8242 9.35233 11.8575 9.54697L12.4968 13.2739C12.5808 13.764 12.0664 14.1378 11.6262 13.9064L8.2792 12.1468C8.10441 12.0549 7.89559 12.0549 7.7208 12.1468L4.3738 13.9064C3.93362 14.1378 3.41917 13.764 3.50323 13.2739L4.14245 9.54697C4.17583 9.35233 4.1113 9.15373 3.96989 9.01589L1.26212 6.37646C0.906006 6.02934 1.10251 5.42455 1.59465 5.35304L5.3367 4.80929C5.53212 4.78089 5.70106 4.65815 5.78846 4.48107L7.46196 1.09019Z" fill="#E6B300"/>
</g>
</svg>
