<svg width="20" height="20" viewBox="0 0 20 20" fill="none" xmlns="http://www.w3.org/2000/svg">
<g id="btn/reset">
<circle id="container" cx="10" cy="10" r="10" fill="#F2F2F2"/>
<g id="ico-20px">
<path id="Vector" d="M10 15.9954C6.69606 15.9954 4.00464 13.3039 4.00464 10C4.00464 6.69606 6.69606 3.99536 10 3.99536C11.2993 3.99536 12.5336 4.40371 13.536 5.16473L13.536 4.16241L14.9281 4.16241L14.9281 6.81671C14.9281 6.9188 14.9002 7.03016 14.8538 7.12297C14.7425 7.36427 14.5012 7.51276 14.232 7.51276L11.587 7.51276L11.587 6.12065L12.4872 6.12065C11.7541 5.64733 10.9002 5.38747 10 5.38747C7.45708 5.38747 5.39675 7.45708 5.39675 10C5.39675 12.5429 7.45708 14.6033 10 14.6033C12.5429 14.6033 14.6032 12.5336 14.6032 10L15.9954 10C15.9954 13.3039 13.3039 15.9954 10 15.9954Z" fill="#999999"/>
</g>
</g>
</svg>
