<svg width="24" height="24" viewBox="0 0 24 24" fill="none" xmlns="http://www.w3.org/2000/svg">
<path d="M12.5 4.75C12.5 4.06421 13.0642 3.5 13.75 3.5C14.4358 3.5 15 4.06421 15 4.75H16.5C16.5 3.23579 15.2642 2 13.75 2C12.2358 2 11 3.23579 11 4.75V9.75H12.5V4.75Z" fill="#004D45"/>
<path fill-rule="evenodd" clip-rule="evenodd" d="M2 11.75C2 11.3358 2.33579 11 2.75 11H8V8.75C8 8.06421 7.43579 7.5 6.75 7.5C6.06421 7.5 5.5 8.06421 5.5 8.75H4C4 7.23579 5.23579 6 6.75 6C8.26421 6 9.5 7.23579 9.5 8.75V11H14V8.75C14 7.23579 15.2358 6 16.75 6C18.2642 6 19.5 7.23579 19.5 8.75H18C18 8.06421 17.4358 7.5 16.75 7.5C16.0642 7.5 15.5 8.06421 15.5 8.75V11H20.75C21.1642 11 21.5 11.3358 21.5 11.75V13.75C21.5 14.1642 21.1642 14.5 20.75 14.5H20.5V18.75C20.5 20.2642 19.2642 21.5 17.75 21.5H5.75C4.23579 21.5 3 20.2642 3 18.75V14.5H2.75C2.33579 14.5 2 14.1642 2 13.75V11.75ZM4.5 14.5H19V18.75C19 19.4358 18.4358 20 17.75 20H5.75C5.06421 20 4.5 19.4358 4.5 18.75V14.5ZM20 13H3.5V12.5H20V13Z" fill="#004D45"/>
</svg>
