<svg width="33" height="32" viewBox="0 0 33 32" fill="none" xmlns="http://www.w3.org/2000/svg">
<path d="M10.8887 2.33594C10.8887 1.78365 11.3364 1.33594 11.8887 1.33594H30.5553C31.1076 1.33594 31.5553 1.78365 31.5553 2.33594V15.6651L29.5553 14.3751V3.33594H12.8887V3.62585L10.8887 2.33594Z" fill="#004D45"/>
<path d="M10.809 14.6693L9.84823 13.7085L11.2624 12.2943L14.6362 15.668L11.2624 19.0418L9.84823 17.6276L10.8066 16.6693H6.55534V14.6693H10.809Z" fill="#004D45"/>
<path fill-rule="evenodd" clip-rule="evenodd" d="M12.8887 3.62585L10.8887 2.33594V8.00913C10.777 8.0047 10.6658 8.0026 10.5553 8.0026C6.32305 8.0026 2.88867 11.437 2.88867 15.6693C2.88867 18.9797 4.99263 21.8029 7.93311 22.8769L5.62712 28.6306C5.50363 28.9387 5.54108 29.288 5.72709 29.563C5.91309 29.8379 6.2234 30.0026 6.55534 30.0026H25.222C25.6309 30.0026 25.9986 29.7537 26.1505 29.374L31.4755 16.0615C31.5192 15.9592 31.5463 15.8481 31.5534 15.7316C31.5547 15.711 31.5553 15.6902 31.5553 15.6693L29.5553 14.3789V14.3751L12.8887 3.62585ZM12.8887 3.62585L29.5553 14.3789V14.6693H18.1574C17.7696 11.6921 15.674 9.25089 12.8887 8.3637V3.62585ZM9.46633 21.2343C6.85989 20.7239 4.88867 18.4209 4.88867 15.6693C4.88867 12.5416 7.42762 10.0026 10.5553 10.0026C10.9516 10.0026 11.3309 10.0377 11.6732 10.1125L16.222 15.6693C16.222 18.797 13.6831 21.3359 10.5553 21.3359C10.1767 21.3359 9.81392 21.3015 9.46633 21.2343ZM11.6751 10.113L11.6899 10.116C14.2715 10.6368 16.222 12.927 16.222 15.6693L11.6751 10.113ZM9.914 23.3105C10.1258 23.3275 10.3396 23.3359 10.5553 23.3359C14.4487 23.3359 17.6669 20.4296 18.1573 16.6693H29.0783L24.545 28.0026H8.03345L9.914 23.3105Z" fill="#004D45"/>
</svg>
