<svg width="48" height="48" viewBox="0 0 48 48" fill="none" xmlns="http://www.w3.org/2000/svg">
<rect x="0.5" y="0.5" width="47" height="47" rx="23.5" fill="white"/>
<rect x="0.5" y="0.5" width="47" height="47" rx="23.5" stroke="#D9D9D9"/>
<path d="M27.4385 24C27.4385 23.5752 27.7829 23.2308 28.2077 23.2308H29.2597C29.6845 23.2308 30.0289 23.5752 30.0289 24C30.0289 24.4248 29.6845 24.7692 29.2597 24.7692H28.2077C27.7829 24.7692 27.4385 24.4248 27.4385 24Z" fill="#1A1A1A"/>
<path d="M20.844 30.9231H27.1556V29.3846H20.844V30.9231Z" fill="#1A1A1A"/>
<path fill-rule="evenodd" clip-rule="evenodd" d="M18.1026 14.7692C18.1026 14.3444 18.447 14 18.8718 14H29.1282C29.553 14 29.8974 14.3444 29.8974 14.7692V20.1538H33.2308C33.6556 20.1538 34 20.4982 34 20.9231V31.1795C34 31.6043 33.6556 31.9487 33.2308 31.9487H29.8974V33.2308C29.8974 33.6556 29.553 34 29.1282 34H18.8718C18.447 34 18.1026 33.6556 18.1026 33.2308V31.9487H14.7692C14.3444 31.9487 14 31.6043 14 31.1795V20.9231C14 20.4982 14.3444 20.1538 14.7692 20.1538H18.1026V14.7692ZM18.1026 30.4103V27.0769C18.1026 26.6521 18.447 26.3077 18.8718 26.3077H29.1282C29.553 26.3077 29.8974 26.6521 29.8974 27.0769V30.4103H32.4615V21.6923H15.5385V30.4103H18.1026ZM28.359 27.8462H19.641V32.4615H28.359V27.8462ZM28.359 15.5385V20.1538H19.641V15.5385H28.359Z" fill="#1A1A1A"/>
</svg>
