<svg width="24" height="24" viewBox="0 0 24 24" fill="none" xmlns="http://www.w3.org/2000/svg">
<path fill-rule="evenodd" clip-rule="evenodd" d="M6.62448 4.06023C6.40689 3.96734 6.15823 3.98256 5.9536 4.1013L3.5236 5.5113C3.31104 5.63463 3.17239 5.85428 3.15247 6.09923C3.13256 6.34417 3.23391 6.58333 3.42375 6.73938L8.76927 11.1334L7.62188 11.7992L4.95275 10.4779C4.72739 10.3663 4.4611 10.3751 4.2436 10.5013L2.6236 11.4413C2.42032 11.5592 2.28409 11.7657 2.25555 11.9989C2.22702 12.2322 2.30949 12.4654 2.47834 12.6289L6.86834 16.8789C7.40424 17.3969 8.23003 17.5105 8.88613 17.1289L8.88791 17.1278L20.3549 10.5096L20.3603 10.5065C21.4539 9.86311 22.0747 8.47247 21.5667 7.2046C21.5546 7.157 21.5377 7.11024 21.5159 7.06503C21.1723 6.3502 20.5469 5.84153 19.811 5.65469C19.1582 5.47654 18.454 5.5474 17.8257 5.91011L14.9003 7.5933L6.62448 4.06023ZM19.4381 7.10761C19.7116 7.17597 19.9606 7.35638 20.12 7.63152C20.1287 7.6571 20.1388 7.68236 20.1504 7.70717C20.3824 8.20442 20.1687 8.87732 19.6022 9.21211L19.5997 9.21355L8.1351 15.8304L8.1321 15.8322C8.06859 15.8692 7.97517 15.8623 7.91156 15.801L4.23422 12.241L4.64813 12.0008L7.31726 13.3221C7.54263 13.4337 7.80891 13.4249 8.02641 13.2987L10.4564 11.8887C10.669 11.7654 10.8076 11.5457 10.8275 11.3008C10.8475 11.0558 10.7461 10.8167 10.5563 10.6606L5.21074 6.26657L6.38127 5.58737L14.6555 9.11977C14.8722 9.21229 15.1198 9.19758 15.324 9.08007L18.574 7.21007L18.5752 7.2094C18.8438 7.0542 19.1356 7.02419 19.4201 7.10286L19.4381 7.10761Z" fill="#1A1A1A"/>
<path d="M2 21.3496H22V19.8496H2V21.3496Z" fill="#1A1A1A"/>
</svg>
