<svg width="32" height="32" viewBox="0 0 32 32" fill="none" xmlns="http://www.w3.org/2000/svg">
<path d="M20.0026 18.3333C20.0026 17.781 20.4503 17.3333 21.0026 17.3333H25.0026C25.5549 17.3333 26.0026 17.781 26.0026 18.3333C26.0026 18.8856 25.5549 19.3333 25.0026 19.3333H21.0026C20.4503 19.3333 20.0026 18.8856 20.0026 18.3333Z" fill="#1A1A1A"/>
<path fill-rule="evenodd" clip-rule="evenodd" d="M1.33594 7.66667C1.33594 5.64162 2.97756 4 5.0026 4H26.3359C28.361 4 30.0026 5.64162 30.0026 7.66667V23.6667C30.0026 25.6917 28.361 27.3333 26.3359 27.3333H5.0026C2.97756 27.3333 1.33594 25.6917 1.33594 23.6667V7.66667ZM5.0026 6C4.08213 6 3.33594 6.74619 3.33594 7.66667V9.66667H28.0026V7.66667C28.0026 6.74619 27.2564 6 26.3359 6H5.0026ZM28.0026 13.6667H3.33594V23.6667C3.33594 24.5871 4.08213 25.3333 5.0026 25.3333H26.3359C27.2564 25.3333 28.0026 24.5871 28.0026 23.6667V13.6667Z" fill="#1A1A1A"/>
</svg>
