<svg width="24" height="24" viewBox="0 0 24 24" fill="none" xmlns="http://www.w3.org/2000/svg">
<path fill-rule="evenodd" clip-rule="evenodd" d="M5 5.75C5 5.33579 5.33579 5 5.75 5H8.75C9.16421 5 9.5 5.33579 9.5 5.75V11H14V5.75C14 5.33579 14.3358 5 14.75 5H17.75C18.1642 5 18.5 5.33579 18.5 5.75V8H20.75C21.1642 8 21.5 8.33579 21.5 8.75V14.75C21.5 15.1642 21.1642 15.5 20.75 15.5H18.5V17.75C18.5 18.1642 18.1642 18.5 17.75 18.5H14.75C14.3358 18.5 14 18.1642 14 17.75V12.5H9.5V17.75C9.5 18.1642 9.16421 18.5 8.75 18.5H5.75C5.33579 18.5 5 18.1642 5 17.75V15.5H2.75C2.33579 15.5 2 15.1642 2 14.75V8.75C2 8.33579 2.33579 8 2.75 8H5V5.75ZM17 14.75V8.75V6.5H15.5V17H17V14.75ZM18.5 14H20V9.5H18.5V14ZM6.5 8.75V14.75V17H8V6.5H6.5V8.75ZM5 9.5H3.5V14H5V9.5Z" fill="#004D45"/>
</svg>
