<svg width="24" height="24" viewBox="0 0 24 24" fill="none" xmlns="http://www.w3.org/2000/svg">
<path fill-rule="evenodd" clip-rule="evenodd" d="M6 2.75C6 2.33579 5.66421 2 5.25 2C4.83579 2 4.5 2.33579 4.5 2.75C4.5 3.71579 3.71579 4.5 2.75 4.5C2.33579 4.5 2 4.83579 2 5.25C2 5.66421 2.33579 6 2.75 6C3.71579 6 4.5 6.78421 4.5 7.75C4.5 8.16421 4.83579 8.5 5.25 8.5C5.66421 8.5 6 8.16421 6 7.75C6 6.78421 6.78421 6 7.75 6C8.16421 6 8.5 5.66421 8.5 5.25C8.5 4.83579 8.16421 4.5 7.75 4.5C6.78421 4.5 6 3.71579 6 2.75ZM4.82621 5.25C4.98012 5.12203 5.12203 4.98012 5.25 4.82621C5.37797 4.98012 5.51988 5.12203 5.67379 5.25C5.51988 5.37797 5.37797 5.51988 5.25 5.67379C5.12203 5.51988 4.98012 5.37797 4.82621 5.25Z" fill="#004D45"/>
<path fill-rule="evenodd" clip-rule="evenodd" d="M2.75 10C2.33579 10 2 10.3358 2 10.75V12.75C2 13.1642 2.33579 13.5 2.75 13.5H3V20.75C3 21.1642 3.33579 21.5 3.75 21.5H19.75C20.1642 21.5 20.5 21.1642 20.5 20.75V13.5H20.75C21.1642 13.5 21.5 13.1642 21.5 12.75V10.75C21.5 10.3358 21.1642 10 20.75 10H13.5V3.75C13.5 2.78579 12.7142 2 11.75 2C10.7858 2 10 2.78579 10 3.75V10H2.75ZM11.5 10H12V3.75C12 3.61421 11.8858 3.5 11.75 3.5C11.6142 3.5 11.5 3.61421 11.5 3.75V10ZM3.5 11.5V12H20V11.5H3.5ZM15.75 18.4271L16.5365 20H14.9635L15.75 18.4271ZM16.4208 16.4146L18.2135 20H19V13.5H4.5V20H7V16.75H8.5V20H13.2865L15.0792 16.4146C15.2062 16.1605 15.4659 16 15.75 16C16.0341 16 16.2938 16.1605 16.4208 16.4146Z" fill="#004D45"/>
</svg>
