<svg width="17" height="17" viewBox="0 0 17 17" fill="none" xmlns="http://www.w3.org/2000/svg">
<g id="ico-search-xs" clip-path="url(#clip0_2531_2307)">
<path id="Vector (Stroke)" fill-rule="evenodd" clip-rule="evenodd" d="M6.75 1.75C3.85051 1.75 1.5 4.10051 1.5 7C1.5 9.8995 3.85051 12.25 6.75 12.25C8.1749 12.25 9.46722 11.6823 10.4131 10.7608C10.4277 10.7433 10.4432 10.7263 10.4597 10.7099C10.4761 10.6935 10.4931 10.678 10.5106 10.6634C11.4323 9.71741 12 8.42501 12 7C12 4.10051 9.6495 1.75 6.75 1.75ZM12.0238 11.2134C12.9476 10.0586 13.5 8.59382 13.5 7C13.5 3.27208 10.4779 0.25 6.75 0.25C3.02208 0.25 0 3.27208 0 7C0 10.7279 3.02208 13.75 6.75 13.75C8.3437 13.75 9.8084 13.1977 10.9631 12.274L15.2197 16.5306C15.5126 16.8235 15.9874 16.8235 16.2803 16.5306C16.5732 16.2377 16.5732 15.7628 16.2803 15.4699L12.0238 11.2134Z" fill="#999999"/>
</g>
<defs>
<clipPath id="clip0_2531_2307">
<rect width="16.5" height="16.5" fill="white" transform="translate(0 0.25)"/>
</clipPath>
</defs>
</svg>
