<svg width="24" height="24" viewBox="0 0 24 24" fill="none" xmlns="http://www.w3.org/2000/svg">
<path d="M18.5 14.25V4.75C18.5 3.23 17.27 2 15.75 2H7.75C6.23 2 5 3.23 5 4.75V14.25C5 15.77 6.23 17 7.75 17H7.94L5.22 19.72C4.93 20.01 4.93 20.49 5.22 20.78C5.37 20.93 5.56 21 5.75 21C5.94 21 6.13 20.93 6.28 20.78L8.06 19H15.44L17.22 20.78C17.37 20.93 17.56 21 17.75 21C17.94 21 18.13 20.93 18.28 20.78C18.57 20.49 18.57 20.01 18.28 19.72L15.56 17H15.75C17.27 17 18.5 15.77 18.5 14.25ZM6.5 4.75C6.5 4.06 7.06 3.5 7.75 3.5H15.75C16.44 3.5 17 4.06 17 4.75V12.5H6.5V4.75ZM9.56 17.5L10.06 17H13.44L13.94 17.5H9.56ZM7.75 15.5C7.06 15.5 6.5 14.94 6.5 14.25V14H17V14.25C17 14.94 16.44 15.5 15.75 15.5H7.75Z" fill="#1F1B1C"/>
<path d="M13.5 6.25C13.5 6.66 13.16 7 12.75 7H10.75C10.34 7 10 6.66 10 6.25C10 5.84 10.34 5.5 10.75 5.5H12.75C13.16 5.5 13.5 5.84 13.5 6.25Z" fill="#1F1B1C"/>
</svg>
