<svg width="24" height="24" viewBox="0 0 24 24" fill="none" xmlns="http://www.w3.org/2000/svg">
<g id="ico-24px-Light">
<g id="vector">
<path d="M17.06 21.53L20.06 18.53L19 17.47L17.28 19.19V3H15.78V19.19L14.06 17.47L13 18.53L16 21.53C16.07 21.6 16.15 21.65 16.24 21.69C16.34 21.73 16.43 21.75 16.53 21.75C16.72 21.75 16.92 21.67 17.06 21.53Z" fill="#999999"/>
<path d="M9 7.53048L10.06 6.47048L7.06 3.47048C6.99 3.40048 6.91 3.35048 6.82 3.31048C6.54 3.19048 6.21 3.26048 6 3.47048L3 6.47048L4.06 7.53048L5.78 5.81048V22.0005H7.28V5.81048L9 7.53048Z" fill="#999999"/>
</g>
</g>
</svg>
