<svg width="24" height="24" viewBox="0 0 24 24" fill="none" xmlns="http://www.w3.org/2000/svg">
<path fill-rule="evenodd" clip-rule="evenodd" d="M10.4687 15.6157C11.0227 15.0551 11.5 14.0614 11.5 12.3333C11.5 10.5679 10.9974 8.4611 10.1906 6.82742C9.78843 6.01305 9.34593 5.38856 8.91936 4.98796C8.49192 4.58653 8.18337 4.5 8 4.5C7.81663 4.5 7.50808 4.58653 7.08064 4.98796C6.65407 5.38856 6.21157 6.01305 5.8094 6.82742C5.00261 8.4611 4.5 10.5679 4.5 12.3333C4.5 14.0614 4.97732 15.0551 5.53134 15.6157C5.95181 16.0411 6.52635 16.3284 7.25 16.4435V14.3107L5.46967 12.5303L6.53033 11.4697L7.25 12.1893V9H8.75V12.1893L9.46967 11.4697L10.5303 12.5303L8.75 14.3107V16.4435C9.47365 16.3284 10.0482 16.0411 10.4687 15.6157ZM3 12.3333C3 15.9724 4.84437 17.674 7.25 17.9571V20.25H2V21.75H22V20.25H17.75V19.1429V17.8968C19.0439 17.527 20 16.1745 20 14C20 11.4227 18.6569 8 17 8C15.3431 8 14 11.4227 14 14C14 16.1745 14.9561 17.527 16.25 17.8968V19.1429V20.25H8.75V17.9571C11.1556 17.674 13 15.9724 13 12.3333C13 8.32415 10.7614 3 8 3C5.23858 3 3 8.32415 3 12.3333ZM18.5 14C18.5 15.0386 18.2297 15.6802 17.9505 16.0288C17.6883 16.3562 17.3667 16.5 17 16.5C16.6333 16.5 16.3117 16.3562 16.0495 16.0288C15.7703 15.6802 15.5 15.0386 15.5 14C15.5 12.9335 15.7865 11.6473 16.2409 10.6614C16.4678 10.1692 16.702 9.82789 16.8962 9.63243C16.9381 9.5903 16.9727 9.56003 17 9.5385C17.0273 9.56003 17.0619 9.5903 17.1038 9.63243C17.298 9.82789 17.5322 10.1692 17.7591 10.6614C18.2135 11.6473 18.5 12.9335 18.5 14ZM17.077 9.48891C17.077 9.48904 17.0752 9.48989 17.0716 9.49106C17.0752 9.48936 17.077 9.48878 17.077 9.48891ZM16.9284 9.49106C16.9248 9.48989 16.923 9.48904 16.923 9.48891C16.923 9.48878 16.9248 9.48936 16.9284 9.49106Z" fill="#004D45"/>
</svg>
