<svg width="24" height="24" viewBox="0 0 24 24" fill="none" xmlns="http://www.w3.org/2000/svg">
<path d="M3.06066 10.0098C7.73777 5.33268 15.3229 5.33268 20 10.0098L21.0607 8.94912C15.7978 3.68623 7.26289 3.68623 2 8.94912L3.06066 10.0098Z" fill="#004D45"/>
<path d="M5.76086 12.7097C8.94796 9.52256 14.1131 9.52256 17.3002 12.7097L18.3609 11.649C14.588 7.87611 8.47309 7.87611 4.7002 11.649L5.76086 12.7097Z" fill="#004D45"/>
<path d="M14.5994 15.4098C12.9023 13.7127 10.1572 13.7127 8.46007 15.4098L7.39941 14.3491C9.68231 12.0662 13.3772 12.0662 15.6601 14.3491L14.5994 15.4098Z" fill="#004D45"/>
<path d="M13.0303 18.2695C13.0303 19.098 12.3587 19.7695 11.5303 19.7695C10.7018 19.7695 10.0303 19.098 10.0303 18.2695C10.0303 17.4411 10.7018 16.7695 11.5303 16.7695C12.3587 16.7695 13.0303 17.4411 13.0303 18.2695Z" fill="#004D45"/>
</svg>
