<svg width="24" height="24" viewBox="0 0 24 24" fill="none" xmlns="http://www.w3.org/2000/svg">
<path d="M12 23.5C5.64873 23.5 0.5 18.3513 0.5 12C0.5 5.64873 5.64873 0.5 12 0.5C18.3513 0.5 23.5 5.64873 23.5 12C23.5 18.3513 18.3513 23.5 12 23.5Z" fill="white"/>
<path d="M12 23.5C5.64873 23.5 0.5 18.3513 0.5 12C0.5 5.64873 5.64873 0.5 12 0.5C18.3513 0.5 23.5 5.64873 23.5 12C23.5 18.3513 18.3513 23.5 12 23.5Z" stroke="#D9D9D9"/>
<path fill-rule="evenodd" clip-rule="evenodd" d="M12.9885 16.6573L16.7394 12.906C16.7588 12.8912 16.7773 12.8749 16.7949 12.8574C17.4774 12.1748 17.8123 11.2931 17.8123 10.4062C17.8123 9.51825 17.4699 8.63011 16.7949 7.95503C15.4771 6.63717 13.3623 6.60374 12.0041 7.85474C11.3373 7.23959 10.4998 6.9375 9.65746 6.9375C8.76981 6.9375 7.88198 7.27974 7.20702 7.95443C5.84732 9.30674 5.8478 11.4995 7.20762 12.8517L11.0196 16.6573C11.5599 17.1976 12.4482 17.1976 12.9885 16.6573ZM7.20702 7.95443L7.20643 7.95503L7.60419 8.35276L7.20762 7.95383L7.20702 7.95443Z" fill="#004D45"/>
</svg>
