<svg width="24" height="24" viewBox="0 0 24 24" fill="none" xmlns="http://www.w3.org/2000/svg">
<path d="M11 13.75C11.5523 13.75 12 13.3023 12 12.75C12 12.1977 11.5523 11.75 11 11.75C10.4477 11.75 10 12.1977 10 12.75C10 13.3023 10.4477 13.75 11 13.75Z" fill="#004D45"/>
<path d="M7 6.5H11V5H7V6.5Z" fill="#004D45"/>
<path fill-rule="evenodd" clip-rule="evenodd" d="M4 2C3.58579 2 3.25 2.33579 3.25 2.75V20H2V21.5H22V20H14.75V2.75C14.75 2.33579 14.4142 2 14 2H4ZM13.25 3.5H4.75V20H13.25V3.5Z" fill="#004D45"/>
</svg>
