<svg width="24" height="24" viewBox="0 0 24 24" fill="none" xmlns="http://www.w3.org/2000/svg">
<path d="M3.55599 11.0766C3.55599 6.92128 6.92128 3.55599 11.0766 3.55599V2C6.06194 2 2 6.06194 2 11.0766C2 16.0912 6.06194 20.1532 11.0766 20.1532C13.3037 20.1532 15.3428 19.352 16.9217 18.022L20.8998 22L22 20.8998L18.022 16.9217C19.352 15.3428 20.1532 13.3037 20.1532 11.0766H18.5972C18.5972 15.2319 15.2319 18.5972 11.0766 18.5972C6.92128 18.5972 3.55599 15.2319 3.55599 11.0766Z" fill="#004D45"/>
<path d="M19.3752 5.63063H13.1512V4.07465H19.3752V5.63063Z" fill="#004D45"/>
<path d="M13.1512 8.7426H17.3005V7.18662H13.1512V8.7426Z" fill="#004D45"/>
</svg>
