<svg width="20" height="20" viewBox="0 0 20 20" fill="none" xmlns="http://www.w3.org/2000/svg">
<g id="ico-20px/Rating">
<path id="vactor" fill-rule="evenodd" clip-rule="evenodd" d="M6.35164 7.04004C6.35421 7.04001 6.35679 7.04 6.35938 7.04H6.84798L9.71379 3.10869C10.0847 2.44418 10.7868 2 11.5794 2C12.7842 2 13.7094 2.98646 13.7094 4.12C13.7094 4.30611 13.6766 4.48784 13.6573 4.59416C13.6484 4.64279 13.6348 4.69043 13.6166 4.73638L12.7034 7.04H15.5694C17.0503 7.04 18.2114 8.33107 18.0455 9.79667L17.5563 15.2075L17.5546 15.2247C17.4117 16.4819 16.3426 17.44 15.0794 17.44H6.36774C6.36516 17.44 6.36258 17.44 6.36 17.44H3.75C3.33579 17.44 3 17.1043 3 16.69V7.79004C3 7.37583 3.33579 7.04004 3.75 7.04004H6.35164ZM11.0143 3.85692C11.1319 3.63148 11.3534 3.5 11.5794 3.5C11.9346 3.5 12.2094 3.79354 12.2094 4.12C12.2094 4.14602 12.2051 4.18641 12.1938 4.25522L10.9022 7.51362C10.8106 7.7446 10.8394 8.00592 10.979 8.21144C11.1186 8.41696 11.3509 8.54 11.5994 8.54H15.5694C16.1647 8.54 16.6216 9.06249 16.5545 9.63237L16.5524 9.65247L16.0633 15.0627C16.0028 15.5618 15.5737 15.94 15.0794 15.94H7.11V8.54H7.22937C7.46903 8.54 7.69426 8.42547 7.83544 8.2318L10.9554 3.9518C10.9774 3.92168 10.9971 3.88997 11.0143 3.85692ZM5.60938 8.54004H4.5V15.94H5.60938V8.54004Z" fill="#004D45"/>
</g>
</svg>
