<svg width="40" height="40" viewBox="0 0 40 40" fill="none" xmlns="http://www.w3.org/2000/svg">
<g id="ico-etc-hoteladd">
<g id="Vector">
<path d="M17 31.5H10.5V34H17V31.5Z" fill="white"/>
<path d="M20.75 9.5H6.75C6.06 9.5 5.5 10.06 5.5 10.75V32.75C5.5 33.44 6.06 34 6.75 34H9V30.75C9 30.34 9.34 30 9.75 30H17.75C18.16 30 18.5 30.34 18.5 30.75V34H22V10.75C22 10.06 21.44 9.5 20.75 9.5ZM12.75 26.75C12.75 27.3 12.3 27.75 11.75 27.75H9.75C9.2 27.75 8.75 27.3 8.75 26.75V24.75C8.75 24.2 9.2 23.75 9.75 23.75H11.75C12.3 23.75 12.75 24.2 12.75 24.75V26.75ZM12.75 20.75C12.75 21.3 12.3 21.75 11.75 21.75H9.75C9.2 21.75 8.75 21.3 8.75 20.75V18.75C8.75 18.2 9.2 17.75 9.75 17.75H11.75C12.3 17.75 12.75 18.2 12.75 18.75V20.75ZM12.75 14.75C12.75 15.3 12.3 15.75 11.75 15.75H9.75C9.2 15.75 8.75 15.3 8.75 14.75V12.75C8.75 12.2 9.2 11.75 9.75 11.75H11.75C12.3 11.75 12.75 12.2 12.75 12.75V14.75ZM18.75 26.75C18.75 27.3 18.3 27.75 17.75 27.75H15.75C15.2 27.75 14.75 27.3 14.75 26.75V24.75C14.75 24.2 15.2 23.75 15.75 23.75H17.75C18.3 23.75 18.75 24.2 18.75 24.75V26.75ZM18.75 20.75C18.75 21.3 18.3 21.75 17.75 21.75H15.75C15.2 21.75 14.75 21.3 14.75 20.75V18.75C14.75 18.2 15.2 17.75 15.75 17.75H17.75C18.3 17.75 18.75 18.2 18.75 18.75V20.75ZM18.75 14.75C18.75 15.3 18.3 15.75 17.75 15.75H15.75C15.2 15.75 14.75 15.3 14.75 14.75V12.75C14.75 12.2 15.2 11.75 15.75 11.75H17.75C18.3 11.75 18.75 12.2 18.75 12.75V14.75Z" fill="white"/>
<path d="M29.75 19.5H23.5V34H29.75C30.44 34 31 33.44 31 32.75V20.75C31 20.06 30.44 19.5 29.75 19.5ZM28.75 32.25C28.75 32.53 28.53 32.75 28.25 32.75H26.25C25.97 32.75 25.75 32.53 25.75 32.25V30.25C25.75 29.97 25.97 29.75 26.25 29.75H28.25C28.53 29.75 28.75 29.97 28.75 30.25V32.25ZM28.75 28.25C28.75 28.53 28.53 28.75 28.25 28.75H26.25C25.97 28.75 25.75 28.53 25.75 28.25V26.25C25.75 25.97 25.97 25.75 26.25 25.75H28.25C28.53 25.75 28.75 25.97 28.75 26.25V28.25ZM28.75 24.25C28.75 24.53 28.53 24.75 28.25 24.75H26.25C25.97 24.75 25.75 24.53 25.75 24.25V22.25C25.75 21.97 25.97 21.75 26.25 21.75H28.25C28.53 21.75 28.75 21.97 28.75 22.25V24.25Z" fill="white"/>
<path d="M35.5 8.5V7H32.5V4H31V7H28V8.5H31V11.5H32.5V8.5H35.5Z" fill="#8BAFAC"/>
<path d="M9.75 11.75H11.75C12.3023 11.75 12.75 12.1977 12.75 12.75V14.75C12.75 15.3023 12.3023 15.75 11.75 15.75H9.75C9.19772 15.75 8.75 15.3023 8.75 14.75V12.75C8.75 12.1977 9.19772 11.75 9.75 11.75Z" fill="#8BAFAC"/>
<path d="M15.75 11.75H17.75C18.3023 11.75 18.75 12.1977 18.75 12.75V14.75C18.75 15.3023 18.3023 15.75 17.75 15.75H15.75C15.1977 15.75 14.75 15.3023 14.75 14.75V12.75C14.75 12.1977 15.1977 11.75 15.75 11.75Z" fill="#8BAFAC"/>
<path d="M9.75 17.75H11.75C12.3023 17.75 12.75 18.1977 12.75 18.75V20.75C12.75 21.3023 12.3023 21.75 11.75 21.75H9.75C9.19772 21.75 8.75 21.3023 8.75 20.75V18.75C8.75 18.1977 9.19772 17.75 9.75 17.75Z" fill="#8BAFAC"/>
<path d="M15.75 17.75H17.75C18.3023 17.75 18.75 18.1977 18.75 18.75V20.75C18.75 21.3023 18.3023 21.75 17.75 21.75H15.75C15.1977 21.75 14.75 21.3023 14.75 20.75V18.75C14.75 18.1977 15.1977 17.75 15.75 17.75Z" fill="#8BAFAC"/>
<path d="M9.75 23.75H11.75C12.3023 23.75 12.75 24.1977 12.75 24.75V26.75C12.75 27.3023 12.3023 27.75 11.75 27.75H9.75C9.19772 27.75 8.75 27.3023 8.75 26.75V24.75C8.75 24.1977 9.19772 23.75 9.75 23.75Z" fill="#8BAFAC"/>
<path d="M15.75 23.75H17.75C18.3023 23.75 18.75 24.1977 18.75 24.75V26.75C18.75 27.3023 18.3023 27.75 17.75 27.75H15.75C15.1977 27.75 14.75 27.3023 14.75 26.75V24.75C14.75 24.1977 15.1977 23.75 15.75 23.75Z" fill="#8BAFAC"/>
<path d="M26.25 21.75H28.25C28.5261 21.75 28.75 21.9739 28.75 22.25V24.25C28.75 24.5261 28.5261 24.75 28.25 24.75H26.25C25.9739 24.75 25.75 24.5261 25.75 24.25V22.25C25.75 21.9739 25.9739 21.75 26.25 21.75Z" fill="#8BAFAC"/>
<path d="M26.25 25.75H28.25C28.5261 25.75 28.75 25.9739 28.75 26.25V28.25C28.75 28.5261 28.5261 28.75 28.25 28.75H26.25C25.9739 28.75 25.75 28.5261 25.75 28.25V26.25C25.75 25.9739 25.9739 25.75 26.25 25.75Z" fill="#8BAFAC"/>
<path d="M26.25 29.75H28.25C28.5261 29.75 28.75 29.9739 28.75 30.25V32.25C28.75 32.5261 28.5261 32.75 28.25 32.75H26.25C25.9739 32.75 25.75 32.5261 25.75 32.25V30.25C25.75 29.9739 25.9739 29.75 26.25 29.75Z" fill="#8BAFAC"/>
<path fill-rule="evenodd" clip-rule="evenodd" d="M29.75 18H23.5V10.75C23.5 9.23 22.27 8 20.75 8H6.75C5.23 8 4 9.23 4 10.75V32.75C4 34.27 5.23 35.5 6.75 35.5H29.75C31.27 35.5 32.5 34.27 32.5 32.75V20.75C32.5 19.23 31.27 18 29.75 18ZM17 34H10.5V31.5H17V34ZM22 34H18.5V30.75C18.5 30.34 18.16 30 17.75 30H9.75C9.34 30 9 30.34 9 30.75V34H6.75C6.06 34 5.5 33.44 5.5 32.75V10.75C5.5 10.06 6.06 9.5 6.75 9.5H20.75C21.44 9.5 22 10.06 22 10.75V34ZM31 32.75C31 33.44 30.44 34 29.75 34H23.5V19.5H29.75C30.44 19.5 31 20.06 31 20.75V32.75Z" fill="#8BAFAC"/>
</g>
</g>
</svg>
