<svg width="25" height="24" viewBox="0 0 25 24" fill="none" xmlns="http://www.w3.org/2000/svg">
<path fill-rule="evenodd" clip-rule="evenodd" d="M20.751 3C22.2698 3 23.501 4.23122 23.501 5.75V17.75C23.501 19.2688 22.2698 20.5 20.751 20.5H4.75098C3.23219 20.5 2.00098 19.2688 2.00098 17.75V5.75C2.00098 4.23122 3.23219 3 4.75098 3H20.751ZM3.50098 5.75C3.50098 5.61419 3.52263 5.48344 3.56268 5.36102L12.2825 12.335C12.5564 12.5541 12.9455 12.5541 13.2194 12.335L21.9393 5.36099C21.9793 5.48342 22.001 5.61418 22.001 5.75V17.75C22.001 18.4404 21.4413 19 20.751 19H4.75098C4.06062 19 3.50098 18.4404 3.50098 17.75V5.75ZM12.7509 10.7889L4.88768 4.5H20.6142L12.7509 10.7889Z" fill="#004D45"/>
</svg>
