<svg width="24" height="24" viewBox="0 0 24 24" fill="none" xmlns="http://www.w3.org/2000/svg">
<path d="M19.75 7.75H3.75V20.75H19.75V7.75Z" stroke="black" stroke-width="1.5" stroke-linejoin="round"/>
<path d="M6.75 11.75V7.75C6.75 4.99 8.99 2.75 11.75 2.75C14.51 2.75 16.75 4.99 16.75 7.75V11.75" stroke="black" stroke-width="1.5" stroke-linejoin="round"/>
<path fill-rule="evenodd" clip-rule="evenodd" d="M6.04853 7C6.41635 4.17979 8.82996 2 11.75 2C14.67 2 17.0837 4.17979 17.4515 7H19.75C20.1642 7 20.5 7.33579 20.5 7.75V20.75C20.5 21.1642 20.1642 21.5 19.75 21.5H3.75C3.33579 21.5 3 21.1642 3 20.75V7.75C3 7.33579 3.33579 7 3.75 7H6.04853ZM7.56608 7C7.92069 5.01143 9.6601 3.5 11.75 3.5C13.8399 3.5 15.5793 5.01143 15.9339 7H7.56608ZM6 8.5V11.75H7.5V8.5H16V11.75H17.5V8.5H19V20H4.5V8.5H6Z" fill="#004D45"/>
</svg>
