<svg width="210" height="41" viewBox="0 0 210 41" fill="none" xmlns="http://www.w3.org/2000/svg">
<g id="CI" clip-path="url(#clip0_11833_42475)">
<g id="Vector">
<path d="M130.215 15.2584V9.52998H137.185V16.5H138.427L139.668 15.2584V0.584656H137.185V7.54056H130.215V0.584656H127.732V16.5H128.974L130.215 15.2584Z" fill="#231F20"/>
<path d="M151.436 16.4153L152.593 15.2584V14.4259H144.141V9.45944H151.605V7.47002H144.141V2.48942H151.111L152.099 1.50176V0.5H141.658V16.4153H151.436Z" fill="#231F20"/>
<path d="M113.806 2.57407H118.533V16.5H119.774L121.016 15.2584V2.57407H124.741L125.743 1.57231V0.584656H113.806V2.57407Z" fill="#231F20"/>
<path d="M133.827 24.5141H131.513L125.771 40.4718H128.268L130.004 35.4771H135.45L137.242 40.4718H139.739L133.996 24.5141H133.813H133.827ZM130.695 33.4877L132.684 27.7734L134.744 33.4877H130.695Z" fill="#231F20"/>
<path d="M141.743 40.5H142.984L144.24 39.2443V24.5282H141.743V40.5Z" fill="#231F20"/>
<path d="M148.727 24.5282H146.229V40.5H154.963L156.205 39.2443V38.4965H148.727V24.5282Z" fill="#231F20"/>
<path d="M167.69 36.2531L160.705 24.5H158.208V40.4577H159.45L160.705 39.216V28.7046L167.69 40.4577H168.931L170.173 39.216V24.5H167.69V36.2531Z" fill="#231F20"/>
<path d="M201.608 38.4965V24.5282H199.111V40.5H207.845L209.086 39.2443V38.4965H201.608Z" fill="#231F20"/>
<path d="M188.642 33.4735H196.12V31.4841H188.642V26.4894H195.626L196.614 25.5018V24.5H186.145V40.4577H195.88L197.122 39.2302V38.4683H188.642V33.4735Z" fill="#231F20"/>
<path d="M172.176 26.4894H176.917V40.4577H178.159L179.4 39.216V26.4894H183.153L184.141 25.5018V24.5H172.176V26.4894Z" fill="#231F20"/>
<path d="M124.783 29.4947C124.783 26.7434 122.991 24.5 120.79 24.5H113.806V40.4577H115.048L116.289 39.216V34.4753H118.914L123.034 40.4577H124.529L125.263 39.724L121.58 34.3765C123.4 33.9109 124.769 31.8933 124.769 29.4947H124.783ZM116.303 32.4859V26.5035H120.79C121.848 26.5035 122.78 27.9003 122.78 29.4947C122.78 31.0891 121.848 32.4859 120.79 32.4859H116.303Z" fill="#231F20"/>
<path d="M10.9065 0.5H0V9.58642H10.9065V0.5Z" fill="#049882"/>
<path d="M12.2751 0.5H32.7196V9.58642H21.8131V40.5H12.2751V0.5Z" fill="#049882"/>
<path d="M58.0741 25.4453C63.3792 23.9074 67.2734 19.0256 67.2734 13.2266C67.2734 6.20018 61.5732 0.5 54.5467 0.5H36.3739V40.5H45.9118V25.9533H48.903L59.5415 40.5H69.0794L58.0741 25.4453ZM54.5326 16.8668H45.8977V9.60053H54.5326C56.5362 9.60053 58.1728 11.2372 58.1728 13.2407C58.1728 15.2443 56.5362 16.881 54.5326 16.881V16.8668Z" fill="#231F20"/>
<path d="M101.799 0.5H69.0794V9.58642H80.6773V40.5H90.2152V9.58642H101.799V0.5Z" fill="#D8942A"/>
</g>
</g>
<defs>
<clipPath id="clip0_11833_42475">
<rect width="209.123" height="40" fill="white" transform="translate(0 0.5)"/>
</clipPath>
</defs>
</svg>
