<svg width="40" height="40" viewBox="0 0 40 40" fill="none" xmlns="http://www.w3.org/2000/svg">
<path d="M18.6952 10.0845C19.1227 10.0287 19.5582 10 20 10C21.6334 10 23.1754 10.3918 24.5372 11.0864C24.5618 11.0989 24.5863 11.1116 24.6107 11.1243C25.132 11.3956 25.6263 11.7114 26.0884 12.0665C26.7807 12.5986 27.4012 13.2195 27.9333 13.9118C28.2729 14.3536 28.5766 14.8246 28.8397 15.3207C28.871 15.3797 28.9017 15.4391 28.9318 15.4988C29.5537 16.7301 29.9284 18.1074 29.9907 19.5655C29.9969 19.7096 30 19.8545 30 20C30 20.1104 29.9982 20.2205 29.9946 20.3301C29.9462 21.8229 29.5705 23.2331 28.9369 24.4912C28.9106 24.5434 28.8839 24.5954 28.8567 24.6471C28.5897 25.155 28.2804 25.637 27.9335 26.0884C27.4014 26.7807 26.7805 27.4012 26.0882 27.9333C25.6464 28.2729 25.1754 28.5766 24.6793 28.8397C24.6203 28.871 24.5609 28.9017 24.5012 28.9318C23.2699 29.5537 21.8926 29.9284 20.4345 29.9907C20.2904 29.9969 20.1455 30 20 30C19.8896 30 19.7795 29.9982 19.6699 29.9946C18.1771 29.9462 16.7669 29.5705 15.5088 28.9369C15.4566 28.9106 15.4046 28.8839 15.3529 28.8567C14.845 28.5897 14.363 28.2804 13.9116 27.9335C13.2193 27.4014 12.5988 26.7805 12.0667 26.0882C11.7168 25.6329 11.4049 25.1465 11.1362 24.6336C11.1196 24.6018 11.1031 24.5699 11.0867 24.5378C10.3919 23.1759 10 21.6336 10 20C10 19.5582 10.0287 19.1227 10.0845 18.6952L12.0677 18.9539C12.0231 19.2958 12 19.645 12 20C12 20.0444 12.0004 20.0887 12.0011 20.1329C12.0704 24.3912 15.4683 27.8414 19.7057 27.9947C19.8033 27.9982 19.9014 28 20 28C20.0888 28 20.1772 27.9986 20.2652 27.9957C24.4624 27.859 27.843 24.4878 27.9947 20.2943C27.9982 20.1967 28 20.0986 28 20C28 19.9112 27.9986 19.8228 27.9957 19.7348C27.858 15.5075 24.4393 12.1086 20.204 12.0025C20.1362 12.0009 20.0682 12 20 12C19.645 12 19.2958 12.0231 18.9539 12.0677L18.6952 10.0845Z" fill="#1A1A1A"/>
<path d="M13.9116 12.0665C14.5994 11.5379 15.3583 11.0966 16.1719 10.7592L16.938 12.6067C16.2881 12.8761 15.6811 13.229 15.1303 13.6523L13.9116 12.0665Z" fill="#1A1A1A"/>
<path d="M10.7592 16.1719C11.0966 15.3583 11.5379 14.5994 12.0665 13.9116L13.6523 15.1303C13.229 15.6811 12.8761 16.2881 12.6067 16.938L10.7592 16.1719Z" fill="#1A1A1A"/>
<path d="M19 14.2695V20.4137L22.5629 23.9766L23.9771 22.5624L21 19.5853V14.2695H19Z" fill="#1A1A1A"/>
</svg>
