<svg width="60" height="61" viewBox="0 0 60 61" fill="none" xmlns="http://www.w3.org/2000/svg">
<g clip-path="url(#clip0_5588_16647)">
<path d="M51 29.5H45V10.5C45 7.74 42.76 5.5 40 5.5H12C9.24 5.5 7 7.74 7 10.5V50.5C7 53.26 9.24 55.5 12 55.5H48.5C51.53 55.5 54 53.03 54 50V32.5C54 30.85 52.65 29.5 51 29.5ZM12 53.5C10.35 53.5 9 52.15 9 50.5V10.5C9 8.85 10.35 7.5 12 7.5H40C41.65 7.5 43 8.85 43 10.5V50C43 50.19 43.01 50.38 43.03 50.56C43.04 50.7 43.06 50.84 43.09 50.97C43.11 51.09 43.13 51.2 43.16 51.3C43.18 51.4 43.2 51.49 43.24 51.59C43.24 51.62 43.25 51.65 43.27 51.69C43.31 51.82 43.36 51.96 43.41 52.09C43.42 52.12 43.43 52.14 43.44 52.17C43.51 52.32 43.59 52.47 43.67 52.62C43.74 52.76 43.83 52.9 43.92 53.03C44.02 53.19 44.14 53.35 44.26 53.5H12ZM52 50C52 51.93 50.43 53.5 48.5 53.5C46.57 53.5 45 51.93 45 50V31.5H51C51.55 31.5 52 31.95 52 32.5V50Z" fill="#719C98"/>
<path d="M26 44.5C18.28 44.5 12 38.22 12 30.5C12 22.78 18.28 16.5 26 16.5C33.72 16.5 40 22.78 40 30.5C40 38.22 33.72 44.5 26 44.5ZM26 18.5C19.38 18.5 14 23.88 14 30.5C14 37.12 19.38 42.5 26 42.5C32.62 42.5 38 37.12 38 30.5C38 23.88 32.62 18.5 26 18.5Z" fill="#719C98"/>
<path d="M30.77 32.31C30.58 31.89 30.31 31.52 29.96 31.21C29.61 30.9 29.2 30.64 28.72 30.42C28.24 30.21 27.72 30.04 27.15 29.91L26.51 29.76V26.58C26.94 26.63 27.3 26.77 27.58 26.97C27.97 27.26 28.19 27.66 28.24 28.17H30.89C30.88 27.39 30.67 26.71 30.27 26.12C29.86 25.52 29.29 25.06 28.57 24.73C27.97 24.46 27.28 24.29 26.51 24.25V22.77H25.46V24.25C24.73 24.3 24.06 24.47 23.46 24.73C22.71 25.06 22.13 25.52 21.7 26.12C21.27 26.71 21.06 27.4 21.06 28.19C21.06 29.16 21.37 29.93 22.01 30.5C22.65 31.07 23.52 31.49 24.63 31.76L25.46 31.97V35.34C25.18 35.3 24.92 35.24 24.68 35.14C24.3 35 24 34.78 23.77 34.49C23.55 34.19 23.42 33.83 23.39 33.39H20.72C20.74 34.33 20.97 35.12 21.4 35.76C21.84 36.4 22.45 36.88 23.23 37.2C23.88 37.46 24.62 37.63 25.46 37.67V39.14H26.51V37.67C27.36 37.63 28.1 37.47 28.72 37.2C29.48 36.88 30.06 36.43 30.46 35.84C30.86 35.26 31.07 34.56 31.07 33.76C31.07 33.21 30.97 32.73 30.77 32.31ZM25.46 29.5C25.36 29.47 25.26 29.43 25.16 29.4C24.91 29.31 24.69 29.2 24.5 29.07C24.31 28.95 24.16 28.8 24.05 28.62C23.94 28.45 23.89 28.24 23.9 28.01C23.9 27.73 23.98 27.48 24.15 27.25C24.31 27.03 24.55 26.86 24.86 26.73C25.04 26.66 25.24 26.61 25.46 26.58V29.5ZM27.99 34.59C27.8 34.83 27.53 35.02 27.18 35.16C26.97 35.24 26.75 35.3 26.51 35.33V32.24C26.79 32.32 27.04 32.41 27.26 32.5C27.59 32.64 27.85 32.81 28.02 33.01C28.19 33.21 28.28 33.46 28.28 33.75C28.28 34.07 28.18 34.35 27.99 34.59Z" fill="#719C98"/>
</g>
<defs>
<clipPath id="clip0_5588_16647">
<rect width="47" height="50" fill="white" transform="translate(7 5.5)"/>
</clipPath>
</defs>
</svg>
