<svg width="48" height="48" viewBox="0 0 48 48" fill="none" xmlns="http://www.w3.org/2000/svg">
<rect x="0.5" y="0.5" width="47" height="47" rx="23.5" fill="white"/>
<rect x="0.5" y="0.5" width="47" height="47" rx="23.5" stroke="#D9D9D9"/>
<path fill-rule="evenodd" clip-rule="evenodd" d="M34.2434 14.2434C31.8998 11.8998 28.1002 11.8998 25.7566 14.2434L22.1429 17.8571L23.5571 19.2713L27.1708 15.6576C28.7333 14.0951 31.2667 14.0951 32.8292 15.6576C34.3917 17.2202 34.3917 19.7535 32.8292 21.316L29.2155 24.9297L30.6298 26.3439L34.2434 22.7303C36.587 20.3867 36.587 16.587 34.2434 14.2434ZM15.8578 26.9707L19.4714 23.357L18.0572 21.9428L14.4435 25.5565C12.1 27.9 12.1 31.6997 14.4435 34.0433C16.7871 36.3869 20.5868 36.3869 22.9304 34.0433L26.544 30.4296L25.1298 29.0154L21.5162 32.6291C19.9536 34.1916 17.4203 34.1916 15.8578 32.6291C14.2952 31.0666 14.2952 28.5332 15.8578 26.9707ZM28.6259 21.2755C29.0164 20.885 29.0164 20.2518 28.6259 19.8613C28.2353 19.4708 27.6022 19.4708 27.2116 19.8613L20.5724 26.5005C20.1819 26.8911 20.1819 27.5242 20.5724 27.9148C20.9629 28.3053 21.5961 28.3053 21.9866 27.9148L28.6259 21.2755Z" fill="#004D45"/>
</svg>
