<svg width="137" height="40" viewBox="0 0 137 40" fill="none" xmlns="http://www.w3.org/2000/svg">
<path d="M68.646 17.7375V29.7838H63.219V18.1896C63.219 15.7786 61.6598 13.9594 58.8513 13.9594C56.2983 13.9594 54.477 15.7786 54.477 18.2376L54.4704 29.7838H49.0609V9.25966H54.2586V11.6729C55.5645 9.64839 58.2463 9.02162 60.142 9.02162C66.3704 9.02162 68.646 13.1251 68.646 17.7397V17.7375ZM17.2177 9.26622L11.8454 22.138L6.33544 9.26622H0L8.94955 28.5171L3.83927 39.9498H9.95414L23.5728 9.26622H17.2199H17.2177ZM93.2846 19.6659C93.2846 25.5318 88.5302 30.2861 82.6643 30.2861C76.7984 30.2861 72.0441 25.5318 72.0441 19.6659C72.0441 13.8 76.7984 9.04564 82.6643 9.04564C88.5302 9.04564 93.2846 13.8 93.2846 19.6659ZM87.9472 19.6659C87.9472 16.7482 85.582 14.3831 82.6643 14.3831C79.7467 14.3831 77.3815 16.7482 77.3815 19.6659C77.3815 22.5835 79.7467 24.9487 82.6643 24.9487C85.582 24.9487 87.9472 22.5835 87.9472 19.6659ZM44.7762 20.2752V29.7838H39.8821V27.6676C38.2857 29.2793 36.2197 30.2577 33.9943 30.2577C28.1284 30.2577 23.3741 25.5034 23.3741 19.6375C23.3741 13.7716 28.1284 9.01725 33.9943 9.01725C39.8602 9.01725 44.7762 13.6493 44.7762 20.273V20.2752ZM39.275 19.6659C39.275 16.7482 36.9098 14.3831 33.9921 14.3831C31.0745 14.3831 28.7093 16.7482 28.7093 19.6659C28.7093 22.5835 31.0745 24.9487 33.9921 24.9487C36.9098 24.9487 39.275 22.5835 39.275 19.6659ZM136.934 20.2752V29.7838H132.04V27.6676C130.443 29.2793 128.38 30.2577 126.152 30.2577C120.286 30.2577 115.532 25.5034 115.532 19.6375C115.532 13.7716 120.286 9.01725 126.152 9.01725C132.018 9.01725 136.934 13.6493 136.934 20.273V20.2752ZM131.433 19.6659C131.433 16.7482 129.067 14.3831 126.15 14.3831C123.232 14.3831 120.867 16.7482 120.867 19.6659C120.867 22.5835 123.232 24.9487 126.15 24.9487C129.067 24.9487 131.433 22.5835 131.433 19.6659ZM96.7526 29.7794H102.278V0H96.7526V29.7794ZM106.709 29.4955C106.709 33.2955 104.42 34.5512 102.319 34.5512V40C105.471 40 112.14 39.1046 112.173 29.5916V9.25748H106.707V29.4933L106.709 29.4955Z" fill="#FF3478"/>
</svg>
