<svg width="33" height="32" viewBox="0 0 33 32" fill="none" xmlns="http://www.w3.org/2000/svg">
<path fill-rule="evenodd" clip-rule="evenodd" d="M27.5547 4C29.5797 4 31.2214 5.64162 31.2214 7.66667V23.6667C31.2214 25.6917 29.5797 27.3333 27.5547 27.3333H6.22135C4.19631 27.3333 2.55469 25.6917 2.55469 23.6667V7.66667C2.55469 5.64162 4.19631 4 6.22135 4H27.5547ZM4.55469 7.66667C4.55469 7.48559 4.58356 7.31126 4.63696 7.14803L16.2634 16.4467C16.6286 16.7387 17.1474 16.7387 17.5126 16.4467L29.1391 7.14798C29.1925 7.31123 29.2214 7.48557 29.2214 7.66667V23.6667C29.2214 24.5871 28.4752 25.3333 27.5547 25.3333H6.22135C5.30088 25.3333 4.55469 24.5871 4.55469 23.6667V7.66667ZM16.888 14.3852L6.40363 6H27.3723L16.888 14.3852Z" fill="#1A1A1A"/>
</svg>
