<svg width="24" height="24" viewBox="0 0 24 24" fill="none" xmlns="http://www.w3.org/2000/svg">
<path d="M12.6977 5.48837V11.711L15.284 14.2974L14.2974 15.284L11.5067 12.4933C11.3758 12.3625 11.3023 12.185 11.3023 12V5.48837H12.6977Z" fill="black"/>
<path fill-rule="evenodd" clip-rule="evenodd" d="M12 2C6.47715 2 2 6.47715 2 12C2 17.5228 6.47715 22 12 22C17.5228 22 22 17.5228 22 12C22 6.47715 17.5228 2 12 2ZM3.39535 12C3.39535 7.24778 7.24778 3.39535 12 3.39535C16.7522 3.39535 20.6047 7.24778 20.6047 12C20.6047 16.7522 16.7522 20.6047 12 20.6047C7.24778 20.6047 3.39535 16.7522 3.39535 12Z" fill="black"/>
</svg>
