<svg width="24" height="24" viewBox="0 0 24 24" fill="none" xmlns="http://www.w3.org/2000/svg">
<path fill-rule="evenodd" clip-rule="evenodd" d="M6 6V5.75C6 4.23579 7.23579 3 8.75 3H14.75C16.2642 3 17.5 4.23579 17.5 5.75V6H20.75C21.1642 6 21.5 6.33579 21.5 6.75V19.75C21.5 20.1642 21.1642 20.5 20.75 20.5H2.75C2.33579 20.5 2 20.1642 2 19.75V6.75C2 6.33579 2.33579 6 2.75 6H6ZM7.5 5.75C7.5 5.06421 8.06421 4.5 8.75 4.5H14.75C15.4358 4.5 16 5.06421 16 5.75V6H7.5V5.75ZM3.5 7.5V9.75C3.5 11.5458 4.95421 13 6.75 13H9V11.75C9 11.3358 9.33579 11 9.75 11H13.75C14.1642 11 14.5 11.3358 14.5 11.75V13H16.75C18.5458 13 20 11.5458 20 9.75V7.5H3.5ZM6.75 14.5H9V15.75C9 16.1642 9.33579 16.5 9.75 16.5H13.75C14.1642 16.5 14.5 16.1642 14.5 15.75V14.5H16.75C18.0075 14.5 19.1505 14.0119 20 13.2147V19H3.5V13.2147C4.34952 14.0119 5.49254 14.5 6.75 14.5ZM10.5 12.5V15H13V12.5H10.5Z" fill="#004D45"/>
</svg>
