<svg width="24" height="24" viewBox="0 0 24 24" fill="none" xmlns="http://www.w3.org/2000/svg">
<path fill-rule="evenodd" clip-rule="evenodd" d="M8.3199 2.63558C8.57814 2.45481 8.92186 2.45481 9.1801 2.63558L14.1801 6.13558C14.3806 6.27592 14.5 6.50526 14.5 6.75V14.5H16.75C17.0654 14.5 17.3471 14.6973 17.4548 14.9937L19.2753 20H21V21.5H18.75C18.4346 21.5 18.1529 21.3027 18.0452 21.0063L16.2247 16H14.5V17.75H13.75L14.5 17.75V17.7501V17.7502V17.7504V17.7506V17.7509V17.7512V17.7516V17.752V17.7525V17.753V17.7536V17.7542V17.7549V17.7556V17.7563V17.7571V17.758V17.7589V17.7598V17.7608V17.7619V17.763V17.7641V17.7653V17.7666V17.7678V17.7692V17.7705V17.772V17.7734V17.775V17.7765V17.7781V17.7798V17.7815V17.7832V17.785V17.7868V17.7887V17.7906V17.7926V17.7946V17.7967V17.7988V17.8009V17.8031V17.8054V17.8077V17.81V17.8123V17.8148V17.8172V17.8197V17.8223V17.8248V17.8275V17.8301V17.8329V17.8356V17.8384V17.8413V17.8441V17.8471V17.85V17.853V17.8561V17.8592V17.8623V17.8655V17.8687V17.872V17.8753V17.8786V17.882V17.8854V17.8889V17.8924V17.8959V17.8995V17.9031V17.9068V17.9105V17.9142V17.918V17.9219V17.9257V17.9296V17.9336V17.9375V17.9415V17.9456V17.9497V17.9538V17.958V17.9622V17.9665V17.9707V17.9751V17.9794V17.9838V17.9883V17.9927V17.9972V18.0018V18.0064V18.011V18.0156V18.0203V18.0251V18.0298V18.0346V18.0395V18.0443V18.0493V18.0542V18.0592V18.0642V18.0692V18.0743V18.0795V18.0846V18.0898V18.095V18.1003V18.1056V18.1109V18.1163V18.1217V18.1271V18.1326V18.1381V18.1436V18.1492V18.1547V18.1604V18.166V18.1717V18.1775V18.1832V18.189V18.1949V18.2007V18.2066V18.2125V18.2185V18.2245V18.2305V18.2365V18.2426V18.2487V18.2549V18.261V18.2672V18.2735V18.2798V18.286V18.2924V18.2987V18.3051V18.3115V18.318V18.3245V18.331V18.3375V18.3441V18.3507V18.3573V18.3639V18.3706V18.3773V18.3841V18.3908V18.3976V18.4045V18.4113V18.4182V18.4251V18.432V18.439V18.446V18.453V18.46V18.4671V18.4742V18.4813V18.4885V18.4957V18.5029V18.5101V18.5174V18.5246V18.532V18.5393V18.5466V18.554V18.5614V18.5689V18.5763V18.5838V18.5913V18.5989V18.6064V18.614V18.6216V18.6293V18.6369V18.6446V18.6523V18.6601V18.6678V18.6756V18.6834V18.6912V18.6991V18.7069V18.7148V18.7227V18.7307V18.7386V18.7466V18.7546V18.7627V18.7707V18.7788V18.7869V18.795V18.8031V18.8113V18.8195V18.8277V18.8359V18.8441V18.8524V18.8607V18.869V18.8773V18.8857V18.894V18.9024V18.9108V18.9193V18.9277V18.9362V18.9446V18.9531V18.9617V18.9702V18.9788V18.9874V18.9959V19.0046V19.0132V19.0219V19.0305V19.0392V19.0479V19.0566V19.0654V19.0741V19.0829V19.0917V19.1005V19.1094V19.1182V19.1271V19.1359V19.1448V19.1538V19.1627V19.1716V19.1806V19.1896V19.1986V19.2076V19.2166V19.2256V19.2347V19.2437V19.2528V19.2619V19.271V19.2802V19.2893V19.2985V19.3076V19.3168V19.326V19.3352V19.3445V19.3537V19.363V19.3722V19.3815V19.3908V19.4001V19.4094V19.4187V19.4281V19.4374V19.4468V19.4562V19.4656V19.475V19.4844V19.4938V19.5033V19.5127V19.5222V19.5317V19.5412V19.5507V19.5602V19.5697V19.5792V19.5887V19.5983V19.6079V19.6174V19.627V19.6366V19.6462V19.6558V19.6654V19.6751V19.6847V19.6943V19.704V19.7137V19.7233V19.733V19.7427V19.7524V19.7621V19.7718V19.7815V19.7913V19.801V19.8107V19.8205V19.8303V19.84V19.8498V19.8596V19.8694V19.8792V19.889V19.8988V19.9086V19.9184V19.9282V19.9381V19.9479V19.9577V19.9676V19.9774V19.9873V19.9972V20.007V20.0169V20.0268V20.0367V20.0466V20.0565V20.0664V20.0763V20.0862V20.0961V20.106V20.1159V20.1258V20.1357V20.1457V20.1556V20.1655V20.1755V20.1854V20.1954V20.2053V20.2152V20.2252V20.2351V20.2451V20.2551V20.265V20.275V20.2849V20.2949V20.3049V20.3148V20.3248V20.3347V20.3447V20.3547V20.3646V20.3746V20.3846V20.3946V20.4045V20.4145V20.4245V20.4344V20.4444V20.4544V20.4643V20.4743V20.4843V20.4942V20.5042V20.5141V20.5241V20.5341V20.544V20.554V20.5639V20.5739V20.5838V20.5938V20.6037V20.6136V20.6236V20.6335V20.6434V20.6534V20.6633V20.6732V20.6831V20.693V20.703V20.7129V20.7228V20.7327V20.7426V20.7524V20.7623V20.7722V20.7821V20.792V20.8018V20.8117V20.8215V20.8314V20.8412V20.8511V20.8609V20.8707V20.8806V20.8904V20.9002V20.91V20.9198V20.9296V20.9394V20.9491V20.9589V20.9687V20.9784V20.9882V20.9979V21.0076V21.0174V21.0271V21.0368V21.0465V21.0562V21.0659V21.0755V21.0852V21.0948V21.1045V21.1141V21.1238V21.1334V21.143V21.1526V21.1622V21.1718V21.1813V21.1909V21.2005V21.21V21.2195V21.2291V21.2386V21.2481V21.2576V21.267V21.2765V21.2859V21.2954V21.3048V21.3142V21.3237V21.333V21.3424V21.3518V21.3612V21.3705V21.3798V21.3892V21.3985V21.4078V21.4171V21.4263V21.4356V21.4448V21.4541V21.4633V21.4725V21.4817V21.4908V21.5H13V21.4908V21.4817V21.4725V21.4633V21.4541V21.4448V21.4356V21.4263V21.4171V21.4078V21.3985V21.3892V21.3798V21.3705V21.3612V21.3518V21.3424V21.333V21.3237V21.3142V21.3048V21.2954V21.2859V21.2765V21.267V21.2576V21.2481V21.2386V21.2291V21.2195V21.21V21.2005V21.1909V21.1813V21.1718V21.1622V21.1526V21.143V21.1334V21.1238V21.1141V21.1045V21.0948V21.0852V21.0755V21.0659V21.0562V21.0465V21.0368V21.0271V21.0174V21.0076V20.9979V20.9882V20.9784V20.9687V20.9589V20.9491V20.9394V20.9296V20.9198V20.91V20.9002V20.8904V20.8806V20.8707V20.8609V20.8511V20.8412V20.8314V20.8215V20.8117V20.8018V20.792V20.7821V20.7722V20.7623V20.7524V20.7426V20.7327V20.7228V20.7129V20.703V20.693V20.6831V20.6732V20.6633V20.6534V20.6434V20.6335V20.6236V20.6136V20.6037V20.5938V20.5838V20.5739V20.5639V20.554V20.544V20.5341V20.5241V20.5141V20.5042V20.4942V20.4843V20.4743V20.4643V20.4544V20.4444V20.4344V20.4245V20.4145V20.4045V20.3946V20.3846V20.3746V20.3646V20.3547V20.3447V20.3347V20.3248V20.3148V20.3049V20.2949V20.2849V20.275V20.265V20.2551V20.2451V20.2351V20.2252V20.2152V20.2053V20.1954V20.1854V20.1755V20.1655V20.1556V20.1457V20.1357V20.1258V20.1159V20.106V20.0961V20.0862V20.0763V20.0664V20.0565V20.0466V20.0367V20.0268V20.0169V20.007V19.9972V19.9873V19.9774V19.9676V19.9577V19.9479V19.9381V19.9282V19.9184V19.9086V19.8988V19.889V19.8792V19.8694V19.8596V19.8498V19.84V19.8303V19.8205V19.8107V19.801V19.7913V19.7815V19.7718V19.7621V19.7524V19.7427V19.733V19.7233V19.7137V19.704V19.6943V19.6847V19.6751V19.6654V19.6558V19.6462V19.6366V19.627V19.6174V19.6079V19.5983V19.5887V19.5792V19.5697V19.5602V19.5507V19.5412V19.5317V19.5222V19.5127V19.5033V19.4938V19.4844V19.475V19.4656V19.4562V19.4468V19.4374V19.4281V19.4187V19.4094V19.4001V19.3908V19.3815V19.3722V19.363V19.3537V19.3445V19.3352V19.326V19.3168V19.3076V19.2985V19.2893V19.2802V19.271V19.2619V19.2528V19.2437V19.2347V19.2256V19.2166V19.2076V19.1986V19.1896V19.1806V19.1716V19.1627V19.1538V19.1448V19.1359V19.1271V19.1182V19.1094V19.1005V19.0917V19.0829V19.0741V19.0654V19.0566V19.0479V19.0392V19.0305V19.0219V19.0132V19.0046V18.9959V18.9874V18.9788V18.9702V18.9617V18.9531V18.9446V18.9362V18.9277V18.9193V18.9108V18.9024V18.894V18.8857V18.8773V18.869V18.8607V18.8524V18.8441V18.8359V18.8277V18.8195V18.8113V18.8031V18.795V18.7869V18.7788V18.7707V18.7627V18.7546V18.7466V18.7386V18.7307V18.7227V18.7148V18.7069V18.6991V18.6912V18.6834V18.6756V18.6678V18.6601V18.6523V18.6446V18.6369V18.6293V18.6216V18.614V18.6064V18.5989V18.5913V18.5838V18.5763V18.5689V18.5614V18.554V18.5466V18.5393V18.532V18.5246V18.5174V18.5101V18.5029V18.5H4.5V21.5H3V17.75V6.75C3 6.50526 3.11941 6.27592 3.3199 6.13558L8.3199 2.63558ZM13 17V16H4.5V17H13ZM13 14.5V7.5H4.5V14.5H13ZM11.3707 6L8.75 4.16549L6.12927 6H11.3707ZM7.5 10.7445C7.5 10.0526 8.05114 9.5 8.75 9.5C9.44615 9.5 10 10.061 10 10.7445C10 11.4417 9.44345 12 8.75 12C8.05656 12 7.5 11.4417 7.5 10.7445ZM8.75 8C7.22664 8 6 9.22025 6 10.7445C6 12.2632 7.22122 13.5 8.75 13.5C10.2788 13.5 11.5 12.2632 11.5 10.7445C11.5 9.23405 10.2761 8 8.75 8Z" fill="#004D45"/>
</svg>
