<svg width="40" height="40" viewBox="0 0 40 40" fill="none" xmlns="http://www.w3.org/2000/svg">
<path d="M12.63 13C12.2661 13 12 13.2883 12 13.6V26.4C12 26.7117 12.2661 27 12.63 27H22.38C22.7299 27 23 26.7156 23 26.4V25.6H25V26.4C25 27.8444 23.8101 29 22.38 29H12.63C11.1939 29 10 27.8483 10 26.4V13.6C10 12.1517 11.1939 11 12.63 11H22.38C23.8242 11 25 12.1596 25 13.6V14.4H23V13.6C23 13.2804 22.7358 13 22.38 13H12.63Z" fill="#1A1A1A"/>
<path d="M26.5075 16.0927L29.7075 19.2927C29.9935 19.5787 30.0791 20.0088 29.9243 20.3825C29.8697 20.5141 29.7892 20.6297 29.69 20.7241L26.5069 23.9071L25.0927 22.4929L26.5858 20.9998H15.4004V18.9998H26.5862L25.0933 17.5069L26.5075 16.0927Z" fill="#1A1A1A"/>
</svg>
