<svg width="24" height="24" viewBox="0 0 24 24" fill="none" xmlns="http://www.w3.org/2000/svg">
<path fill-rule="evenodd" clip-rule="evenodd" d="M6 5C6.55228 5 7 4.55228 7 4C7 3.44772 6.55228 3 6 3C5.44772 3 5 3.44772 5 4C5 4.55228 5.44772 5 6 5ZM6 7C6 7.55228 5.55228 8 5 8C4.44772 8 4 7.55228 4 7C4 6.44772 4.44772 6 5 6C5.55228 6 6 6.44772 6 7ZM9 9C9.55228 9 10 8.55228 10 8C10 7.44772 9.55228 7 9 7C8.44772 7 8 7.44772 8 8C8 8.55228 8.44772 9 9 9ZM13.25 9C13.25 8.58579 13.5858 8.25 14 8.25H17C17.4142 8.25 17.75 8.58579 17.75 9V10H20H22V11.5H20.75V17.22C20.75 18.4744 19.9019 19.5377 18.75 19.8657V21.2188C18.75 21.633 18.4142 21.9688 18 21.9688H16C15.5858 21.9688 15.25 21.633 15.25 21.2188V19.97H8.75V21.2188C8.75 21.633 8.41421 21.9688 8 21.9688H6C5.58579 21.9688 5.25 21.633 5.25 21.2188V19.8657C4.0981 19.5377 3.25 18.4744 3.25 17.22V11.5H2V10H4H13.25V9ZM17.75 14V11.5H19.25V17.22C19.25 17.8943 18.7046 18.451 18.0344 18.4695L18.02 18.469L18 18.4688H16C15.9853 18.4688 15.9708 18.4692 15.9563 18.47H8.04365C8.02921 18.4692 8.01465 18.4688 8 18.4688H6C5.98847 18.4688 5.977 18.469 5.96559 18.4695C5.29544 18.451 4.75 17.8943 4.75 17.22V11.5H13.25V14C13.25 14.4142 13.5858 14.75 14 14.75H17C17.4142 14.75 17.75 14.4142 17.75 14ZM14.75 13.25H16.25V9.75H14.75V13.25ZM17.25 19.97V20.4688H16.75V19.97H17.25ZM6.75 20.4688V19.97H7.25V20.4688H6.75Z" fill="#004D45"/>
</svg>
