<svg width="24" height="24" viewBox="0 0 24 24" fill="none" xmlns="http://www.w3.org/2000/svg">
<path d="M20 19H4V12.875L6.4 5H17.6L20 12.875V19Z" stroke="#004D45" stroke-width="1.5" stroke-linejoin="round"/>
<path d="M2 11.75L22 11.75" stroke="#004D45" stroke-width="1.5" stroke-linejoin="round"/>
<path d="M10 15.25H14" stroke="#004D45" stroke-width="1.5" stroke-linejoin="round"/>
<path d="M5 20.25H8" stroke="#004D45" stroke-width="1.5" stroke-linejoin="round"/>
<path d="M16 20.25H19" stroke="#004D45" stroke-width="1.5" stroke-linejoin="round"/>
<mask id="path-6-inside-1_11870_19412" fill="white">
<path fill-rule="evenodd" clip-rule="evenodd" d="M5.68258 4.78136C5.77878 4.46569 6.07 4.25 6.4 4.25H17.6C17.93 4.25 18.2212 4.46569 18.3174 4.78136L20.2126 11H22V12.5H20.6698L20.7174 12.6564C20.739 12.7272 20.75 12.8009 20.75 12.875V19C20.75 19.4142 20.4142 19.75 20 19.75H19V21H16V19.75H8V21H5V19.75H4C3.58579 19.75 3.25 19.4142 3.25 19V12.875C3.25 12.8009 3.26098 12.7272 3.28258 12.6564L3.33023 12.5H2V11H3.78737L5.68258 4.78136ZM17.0445 5.75L18.6445 11L5.35549 11L6.95549 5.75H17.0445ZM4.75 12.9867L4.89834 12.5L19.1017 12.5L19.25 12.9867V18.25H4.75V12.9867ZM10 16H14V14.5H10V16Z"/>
</mask>
<path d="M5.68258 4.78136L4.72601 4.48983V4.48983L5.68258 4.78136ZM18.3174 4.78136L17.3609 5.07288L17.3609 5.07288L18.3174 4.78136ZM20.2126 11L19.2561 11.2915L19.472 12H20.2126V11ZM22 11H23V10H22V11ZM22 12.5V13.5H23V12.5H22ZM20.6698 12.5V11.5H19.3196L19.7132 12.7915L20.6698 12.5ZM20.7174 12.6564L21.674 12.3648V12.3648L20.7174 12.6564ZM19 19.75V18.75H18V19.75H19ZM19 21V22H20V21H19ZM16 21H15V22H16V21ZM16 19.75H17V18.75H16V19.75ZM8 19.75V18.75H7V19.75H8ZM8 21V22H9V21H8ZM5 21H4V22H5V21ZM5 19.75H6V18.75H5V19.75ZM3.28258 12.6564L4.23914 12.9479L4.23914 12.9479L3.28258 12.6564ZM3.33023 12.5L4.28679 12.7915L4.6804 11.5H3.33023V12.5ZM2 12.5H1V13.5H2V12.5ZM2 11V10H1V11H2ZM3.78737 11V12H4.52802L4.74394 11.2915L3.78737 11ZM18.6445 11V12H19.9947L19.6011 10.7085L18.6445 11ZM17.0445 5.75L18.0011 5.45848L17.7852 4.75H17.0445V5.75ZM5.35549 11L4.39892 10.7085L4.00531 12H5.35549V11ZM6.95549 5.75V4.75H6.21484L5.99892 5.45848L6.95549 5.75ZM4.89834 12.5L4.89834 11.5H4.1577L3.94178 12.2085L4.89834 12.5ZM4.75 12.9867L3.79344 12.6952L3.75 12.8378V12.9867H4.75ZM19.1017 12.5L20.0582 12.2085L19.8423 11.5H19.1017V12.5ZM19.25 12.9867H20.25V12.8377L20.2066 12.6952L19.25 12.9867ZM19.25 18.25V19.25H20.25V18.25H19.25ZM4.75 18.25H3.75V19.25H4.75V18.25ZM14 16V17H15V16H14ZM10 16H9V17H10V16ZM14 14.5H15V13.5H14V14.5ZM10 14.5V13.5H9V14.5H10ZM6.4 3.25C5.63001 3.25 4.95048 3.75329 4.72601 4.48983L6.63914 5.07288C6.60707 5.1781 6.51 5.25 6.4 5.25V3.25ZM17.6 3.25H6.4V5.25H17.6V3.25ZM19.274 4.48984C19.0495 3.75329 18.37 3.25 17.6 3.25V5.25C17.49 5.25 17.3929 5.1781 17.3609 5.07288L19.274 4.48984ZM21.1692 10.7085L19.274 4.48983L17.3609 5.07288L19.2561 11.2915L21.1692 10.7085ZM22 10H20.2126V12H22V10ZM23 12.5V11H21V12.5H23ZM20.6698 13.5H22V11.5H20.6698V13.5ZM21.674 12.3648L21.6263 12.2085L19.7132 12.7915L19.7609 12.9479L21.674 12.3648ZM21.75 12.875C21.75 12.7021 21.7244 12.5302 21.674 12.3648L19.7609 12.9479C19.7537 12.9243 19.75 12.8997 19.75 12.875H21.75ZM21.75 19V12.875H19.75V19H21.75ZM20 20.75C20.9665 20.75 21.75 19.9665 21.75 19H19.75C19.75 18.8619 19.8619 18.75 20 18.75V20.75ZM19 20.75H20V18.75H19V20.75ZM18 19.75V21H20V19.75H18ZM19 20H16V22H19V20ZM17 21V19.75H15V21H17ZM8 20.75H16V18.75H8V20.75ZM9 21V19.75H7V21H9ZM5 22H8V20H5V22ZM4 19.75V21H6V19.75H4ZM4 20.75H5V18.75H4V20.75ZM2.25 19C2.25 19.9665 3.0335 20.75 4 20.75V18.75C4.13807 18.75 4.25 18.8619 4.25 19H2.25ZM2.25 12.875V19H4.25V12.875H2.25ZM2.32601 12.3648C2.27562 12.5302 2.25 12.7021 2.25 12.875H4.25C4.25 12.8997 4.24634 12.9243 4.23914 12.9479L2.32601 12.3648ZM2.37367 12.2085L2.32601 12.3648L4.23914 12.9479L4.28679 12.7915L2.37367 12.2085ZM2 13.5H3.33023V11.5H2V13.5ZM1 11V12.5H3V11H1ZM3.78737 10H2V12H3.78737V10ZM4.72601 4.48983L2.83081 10.7085L4.74394 11.2915L6.63914 5.07288L4.72601 4.48983ZM19.6011 10.7085L18.0011 5.45848L16.088 6.04152L17.688 11.2915L19.6011 10.7085ZM5.35549 12L18.6445 12V10L5.35549 10V12ZM5.99892 5.45848L4.39892 10.7085L6.31205 11.2915L7.91205 6.04152L5.99892 5.45848ZM17.0445 4.75H6.95549V6.75H17.0445V4.75ZM3.94178 12.2085L3.79344 12.6952L5.70656 13.2783L5.85491 12.7915L3.94178 12.2085ZM19.1017 11.5L4.89834 11.5L4.89834 13.5L19.1017 13.5V11.5ZM20.2066 12.6952L20.0582 12.2085L18.1451 12.7915L18.2934 13.2783L20.2066 12.6952ZM20.25 18.25V12.9867H18.25V18.25H20.25ZM4.75 19.25H19.25V17.25H4.75V19.25ZM3.75 12.9867V18.25H5.75V12.9867H3.75ZM14 15H10V17H14V15ZM13 14.5V16H15V14.5H13ZM10 15.5H14V13.5H10V15.5ZM11 16V14.5H9V16H11Z" fill="#004D45" mask="url(#path-6-inside-1_11870_19412)"/>
</svg>
