<svg width="48" height="48" viewBox="0 0 48 48" fill="none" xmlns="http://www.w3.org/2000/svg">
<rect x="0.5" y="0.5" width="47" height="47" rx="23.5" fill="white"/>
<rect x="0.5" y="0.5" width="47" height="47" rx="23.5" stroke="#D9D9D9"/>
<path fill-rule="evenodd" clip-rule="evenodd" d="M32.7123 15.651C30.6621 13.6007 27.3379 13.6007 25.2877 15.651L22.42 18.5187L23.4806 19.5793L26.3484 16.7116C27.8128 15.2472 30.1872 15.2472 31.6517 16.7116C33.1161 18.1761 33.1161 20.5505 31.6517 22.0149L28.7839 24.8826L29.8446 25.9433L32.7123 23.0756C34.7626 21.0253 34.7626 17.7012 32.7123 15.651ZM17.156 25.904L20.0237 23.0363L18.963 21.9756L16.0953 24.8434C14.0451 26.8936 14.0451 30.2177 16.0953 32.268C18.1456 34.3182 21.4697 34.3182 23.5199 32.268L26.3876 29.4003L25.327 28.3396L22.4593 31.2073C20.9948 32.6718 18.6204 32.6718 17.156 31.2073C15.6915 29.7429 15.6915 27.3685 17.156 25.904ZM27.9586 21.4652C28.2515 21.1723 28.2515 20.6974 27.9586 20.4045C27.6657 20.1116 27.1908 20.1116 26.8979 20.4045L21.2803 26.0221C20.9874 26.315 20.9874 26.7899 21.2803 27.0828C21.5732 27.3757 22.0481 27.3757 22.341 27.0828L27.9586 21.4652Z" fill="#1A1A1A"/>
</svg>
