<svg width="24" height="24" viewBox="0 0 24 24" fill="none" xmlns="http://www.w3.org/2000/svg">
<path d="M17.5 4V4.5H18H19C20.3739 4.5 21.5 5.62614 21.5 7V19C21.5 20.3739 20.3739 21.5 19 21.5H5C3.62614 21.5 2.5 20.3739 2.5 19V7C2.5 5.62614 3.62614 4.5 5 4.5H6H6.5V4V3C6.5 2.72614 6.72614 2.5 7 2.5C7.27386 2.5 7.5 2.72614 7.5 3V4V4.5H8H16H16.5V4V3C16.5 2.72614 16.7261 2.5 17 2.5C17.2739 2.5 17.5 2.72614 17.5 3V4ZM20 9.5H20.5V9V7C20.5 6.17386 19.8261 5.5 19 5.5H5C4.17386 5.5 3.5 6.17386 3.5 7V9V9.5H4H20ZM4 10.5H3.5V11V19C3.5 19.8261 4.17386 20.5 5 20.5H19C19.8261 20.5 20.5 19.8261 20.5 19V11V10.5H20H4Z" fill="white" stroke="#1F1B1C"/>
</svg>
