<svg width="24" height="24" viewBox="0 0 24 24" fill="none" xmlns="http://www.w3.org/2000/svg">
<path d="M15.0099 14.4601L13.9493 13.3994L10.8396 16.5091L9.54992 15.2194L8.48926 16.2801L10.8396 18.6304L15.0099 14.4601Z" fill="black"/>
<path fill-rule="evenodd" clip-rule="evenodd" d="M16.5 6.75C16.5 8.27313 15.7831 9.62882 14.6683 10.4981C18.0667 11.6991 20.5 14.9392 20.5 18.75V19.6C20.5 20.8942 19.4442 21.95 18.15 21.95H5.35C4.05579 21.95 3 20.8942 3 19.6V18.75C3 14.9392 5.43332 11.6991 8.83168 10.4981C7.7169 9.62882 7 8.27313 7 6.75C7 4.12665 9.12665 2 11.75 2C14.3734 2 16.5 4.12665 16.5 6.75ZM11.75 3.5C9.95507 3.5 8.5 4.95507 8.5 6.75C8.5 8.54493 9.95507 10 11.75 10C13.5449 10 15 8.54493 15 6.75C15 4.95507 13.5449 3.5 11.75 3.5ZM11.75 11.5C7.74421 11.5 4.5 14.7442 4.5 18.75V19.6C4.5 20.0658 4.88421 20.45 5.35 20.45H18.15C18.6158 20.45 19 20.0658 19 19.6V18.75C19 14.7442 15.7558 11.5 11.75 11.5Z" fill="black"/>
</svg>
