<svg width="24" height="24" viewBox="0 0 24 24" fill="none" xmlns="http://www.w3.org/2000/svg">
<path fill-rule="evenodd" clip-rule="evenodd" d="M20.5 11.6316V6.75C20.5 5.23579 19.2642 4 17.75 4H5.75C4.23579 4 3 5.23579 3 6.75V11.6316C2.38988 12.1368 2 12.8995 2 13.75V18.75C2 19.1642 2.33579 19.5 2.75 19.5H4V20.75H5.5V19.5H18V20.75H19.5V19.5H20.75C21.1642 19.5 21.5 19.1642 21.5 18.75V13.75C21.5 12.8995 21.1101 12.1368 20.5 11.6316ZM4.5 6.75C4.5 6.06421 5.06421 5.5 5.75 5.5H17.75C18.4358 5.5 19 6.06421 19 6.75V8.30173C18.6246 8.10893 18.1996 8 17.75 8H13.75C12.9635 8 12.2521 8.3334 11.75 8.86605C11.2479 8.3334 10.5365 8 9.75 8H5.75C5.30044 8 4.87542 8.10893 4.5 8.30173V6.75ZM11 10.75C11 10.0642 10.4358 9.5 9.75 9.5H5.75C5.06421 9.5 4.5 10.0642 4.5 10.75V11H11V10.75ZM4.75 12.5C4.06421 12.5 3.5 13.0642 3.5 13.75V18H20V13.75C20 13.0642 19.4358 12.5 18.75 12.5H4.75ZM19 10.75C19 10.0642 18.4358 9.5 17.75 9.5H13.75C13.0642 9.5 12.5 10.0642 12.5 10.75V11H19V10.75Z" fill="#004D45"/>
</svg>
