<svg width="40" height="40" viewBox="0 0 40 40" fill="none" xmlns="http://www.w3.org/2000/svg">
<path d="M20.2381 14.7802C16.3781 14.7802 13.2381 17.9202 13.2381 21.7802C13.2381 22.3002 13.2981 22.8202 13.3981 23.3002L21.7581 14.9402C21.2581 14.8402 20.7581 14.7802 20.2381 14.7802ZM20.2381 14.7802C16.3781 14.7802 13.2381 17.9202 13.2381 21.7802C13.2381 22.3002 13.2981 22.8202 13.3981 23.3002L21.7581 14.9402C21.2581 14.8402 20.7581 14.7802 20.2381 14.7802ZM20.2381 14.7802C16.3781 14.7802 13.2381 17.9202 13.2381 21.7802C13.2381 22.3002 13.2981 22.8202 13.3981 23.3002L21.7581 14.9402C21.2581 14.8402 20.7581 14.7802 20.2381 14.7802ZM27.5781 4.34016C27.1581 3.34016 26.1781 2.66016 25.0981 2.66016H15.3781C14.2981 2.66016 13.3181 3.32016 12.8981 4.34016L10.8981 9.34016H4.23812C2.75812 9.34016 1.57812 10.5402 1.57812 12.0002V32.0002C1.57812 32.8602 1.97812 33.6202 2.59812 34.1002L12.1581 24.5602C11.8581 23.6802 11.6981 22.7602 11.6981 21.7802C11.6981 17.0602 15.5381 13.2202 20.2581 13.2202C21.2381 13.2202 22.1781 13.3802 23.0381 13.6802L28.9581 7.76016L27.5981 4.34016H27.5781ZM20.2381 14.7802C16.3781 14.7802 13.2381 17.9202 13.2381 21.7802C13.2381 22.3002 13.2981 22.8202 13.3981 23.3002L21.7581 14.9402C21.2581 14.8402 20.7581 14.7802 20.2381 14.7802ZM20.2381 14.7802C16.3781 14.7802 13.2381 17.9202 13.2381 21.7802C13.2381 22.3002 13.2981 22.8202 13.3981 23.3002L21.7581 14.9402C21.2581 14.8402 20.7581 14.7802 20.2381 14.7802Z" fill="#CCCCCC"/>
<path d="M36.24 9.34H31.76L40 1.1L38.9 0L24.52 14.38C24.98 14.64 25.4 14.94 25.82 15.3C27.64 16.88 28.8 19.2 28.8 21.78C28.8 26.5 24.96 30.34 20.24 30.34C17.64 30.34 15.32 29.18 13.76 27.36C13.4 26.96 13.1 26.52 12.84 26.06L0 38.9L1.1 40L6.44 34.66H36.24C37.72 34.66 38.9 33.46 38.9 32V12C38.9 10.52 37.7 9.34 36.24 9.34ZM32.24 14.68C31.5 14.68 30.9 14.08 30.9 13.34C30.9 12.6 31.5 12 32.24 12C32.98 12 33.58 12.6 33.58 13.34C33.58 14.08 32.98 14.68 32.24 14.68Z" fill="#CCCCCC"/>
<path d="M27.24 21.78C27.24 25.64 24.1 28.78 20.24 28.78C18.08 28.78 16.14 27.8 14.86 26.26C14.52 25.86 14.22 25.4 13.98 24.92L23.38 15.52C23.86 15.76 24.3 16.04 24.7 16.4C26.24 17.68 27.24 19.62 27.24 21.78Z" fill="#CCCCCC"/>
</svg>
