<svg width="24" height="24" viewBox="0 0 24 24" fill="none" xmlns="http://www.w3.org/2000/svg">
<path fill-rule="evenodd" clip-rule="evenodd" d="M6 3C5.58579 3 5.25 3.33579 5.25 3.75V10H2V11.5H3.25V17.22C3.25 18.4744 4.0981 19.5377 5.25 19.8657V21.22C5.25 21.6342 5.58579 21.97 6 21.97H8C8.41421 21.97 8.75 21.6342 8.75 21.22V19.97H15.25V21.22C15.25 21.6342 15.5858 21.97 16 21.97H18C18.4142 21.97 18.75 21.6342 18.75 21.22V19.8657C19.9019 19.5377 20.75 18.4744 20.75 17.22V11.5H22V10H6.75V4.5H10.25V6.75H11.75V3.75C11.75 3.33579 11.4142 3 11 3H6ZM16.75 19.97H17.25V20.47H16.75V19.97ZM18.0056 18.47C18.6889 18.4669 19.25 17.9039 19.25 17.22V11.5H4.75V17.22C4.75 17.9039 5.31112 18.4669 5.99435 18.47L6 18.47H8L8.00662 18.47H15.9934C15.9956 18.47 15.9978 18.47 16 18.47H18L18.0056 18.47ZM6.75 20.47V19.97H7.25V20.47H6.75Z" fill="#004D45"/>
</svg>
