<svg width="24" height="24" viewBox="0 0 24 24" fill="none" xmlns="http://www.w3.org/2000/svg">
<path d="M18.75 8.45996H4.75C3.64543 8.45996 2.75 9.35539 2.75 10.46V17.75C2.75 18.8545 3.64543 19.75 4.75 19.75H18.75C19.8546 19.75 20.75 18.8545 20.75 17.75V10.46C20.75 9.35539 19.8546 8.45996 18.75 8.45996Z" stroke="black" stroke-width="1.5" stroke-linecap="round" stroke-linejoin="round"/>
<path d="M9.75 3.75H13.75C14.85 3.75 15.75 4.65 15.75 5.75V19.75H7.75V5.75C7.75 4.65 8.65 3.75 9.75 3.75Z" stroke="black" stroke-width="1.5" stroke-linecap="round" stroke-linejoin="round"/>
<path fill-rule="evenodd" clip-rule="evenodd" d="M7 7.70996V5.75C7 4.23579 8.23579 3 9.75 3H13.75C15.2642 3 16.5 4.23579 16.5 5.75V7.70996H18.75C20.2688 7.70996 21.5 8.94118 21.5 10.46V17.75C21.5 19.2687 20.2688 20.5 18.75 20.5H15.7576C15.7551 20.5 15.7526 20.5 15.75 20.5H7.75C7.74745 20.5 7.7449 20.5 7.74236 20.5H4.75C3.23122 20.5 2 19.2687 2 17.75V10.46C2 8.94118 3.23122 7.70996 4.75 7.70996H7ZM8.5 5.75C8.5 5.06421 9.06421 4.5 9.75 4.5H13.75C14.4358 4.5 15 5.06421 15 5.75V7.70996H8.5V5.75ZM7 19H4.75C4.05964 19 3.5 18.4403 3.5 17.75V10.46C3.5 9.7696 4.05964 9.20996 4.75 9.20996H7V19ZM8.5 19V9.20996H15V19H8.5ZM16.5 19H18.75C19.4404 19 20 18.4403 20 17.75V10.46C20 9.7696 19.4404 9.20996 18.75 9.20996H16.5V19Z" fill="#004D45"/>
</svg>
