<svg width="24" height="24" viewBox="0 0 24 24" fill="none" xmlns="http://www.w3.org/2000/svg">
<g id="ico-24px-Dark">
<g id="Union">
<path fill-rule="evenodd" clip-rule="evenodd" d="M6.10742 10.6259C4.34925 10.2782 3.02148 8.73122 3.02148 6.8721V5.84645C3.02148 3.73089 4.74081 2.01953 6.8572 2.01953C8.97359 2.01953 10.6929 3.73089 10.6929 5.84645V6.8721C10.6929 8.73106 9.36538 10.2779 7.60742 10.6258V21.231C7.60742 21.6452 7.27164 21.981 6.85742 21.981C6.44321 21.981 6.10742 21.6452 6.10742 21.231V10.6259ZM4.52148 5.84645C4.52148 4.56335 5.5652 3.51953 6.8572 3.51953C8.1492 3.51953 9.19291 4.56335 9.19291 5.84645V6.8721C9.19291 8.15277 8.15315 9.19506 6.86454 9.19901L6.85742 9.19897L6.85019 9.19901C5.56143 9.19524 4.52148 8.15288 4.52148 6.8721V5.84645Z" fill="white"/>
<path d="M14.0576 2.01953C14.4718 2.01953 14.8076 2.35532 14.8076 2.76953V6.8721C14.8076 7.8973 15.4685 8.7664 16.3926 9.07702V2.76953C16.3926 2.35532 16.7284 2.01953 17.1426 2.01953C17.5568 2.01953 17.8926 2.35532 17.8926 2.76953V9.07752C18.8174 8.76734 19.479 7.89785 19.479 6.8721V2.76953C19.479 2.35532 19.8148 2.01953 20.229 2.01953C20.6433 2.01953 20.979 2.35532 20.979 2.76953V6.8721C20.979 8.73456 19.6531 10.2797 17.8926 10.6263V21.2311C17.8926 21.6453 17.5568 21.9811 17.1426 21.9811C16.7284 21.9811 16.3926 21.6453 16.3926 21.2311V10.626C14.6328 10.2788 13.3076 8.73403 13.3076 6.8721V2.76953C13.3076 2.35532 13.6434 2.01953 14.0576 2.01953Z" fill="white"/>
</g>
</g>
</svg>
