<svg width="24" height="24" viewBox="0 0 24 24" fill="none" xmlns="http://www.w3.org/2000/svg">
<g id="ico-24px-Light">
<g id="Union">
<path d="M15.4385 12C15.4385 11.5752 15.7829 11.2308 16.2077 11.2308H17.2597C17.6845 11.2308 18.0289 11.5752 18.0289 12C18.0289 12.4248 17.6845 12.7692 17.2597 12.7692H16.2077C15.7829 12.7692 15.4385 12.4248 15.4385 12Z" fill="#1A1A1A"/>
<path d="M8.84395 18.9231H15.1556V17.3846H8.84395V18.9231Z" fill="#1A1A1A"/>
<path fill-rule="evenodd" clip-rule="evenodd" d="M6.10256 2.76923C6.10256 2.3444 6.44696 2 6.8718 2H17.1282C17.553 2 17.8974 2.3444 17.8974 2.76923V8.15385H21.2308C21.6556 8.15385 22 8.49824 22 8.92308V19.1795C22 19.6043 21.6556 19.9487 21.2308 19.9487H17.8974V21.2308C17.8974 21.6556 17.553 22 17.1282 22H6.8718C6.44696 22 6.10256 21.6556 6.10256 21.2308V19.9487H2.76923C2.3444 19.9487 2 19.6043 2 19.1795V8.92308C2 8.49824 2.3444 8.15385 2.76923 8.15385H6.10256V2.76923ZM6.10256 18.4103V15.0769C6.10256 14.6521 6.44696 14.3077 6.8718 14.3077H17.1282C17.553 14.3077 17.8974 14.6521 17.8974 15.0769V18.4103H20.4615V9.69231H3.53846V18.4103H6.10256ZM16.359 15.8462H7.64103V20.4615H16.359V15.8462ZM16.359 3.53846V8.15385H7.64103V3.53846H16.359Z" fill="#1A1A1A"/>
</g>
</g>
</svg>
