<svg width="24" height="24" viewBox="0 0 24 24" fill="none" xmlns="http://www.w3.org/2000/svg">
<path d="M14.5778 17.7236L18.6804 13.673L17.6265 12.6056L14.0509 16.136L12.5265 14.6309L11.4727 15.6983L13.5239 17.7236C13.816 18.012 14.2857 18.012 14.5778 17.7236Z" fill="#004D45"/>
<path fill-rule="evenodd" clip-rule="evenodd" d="M7.75 4.28796V2H6.25V4.28796H4.82081C3.28743 4.28796 2.01953 5.52616 2.01953 7.06328V18.1924C2.01953 19.7295 3.28743 20.9677 4.82081 20.9677H11.446C12.5063 21.6254 13.7535 21.9905 15.0767 21.9905C16.4747 21.9905 17.7879 21.5829 18.8854 20.8534C19.1618 20.6713 19.4256 20.4674 19.6767 20.2423C21.0926 19.0017 21.9805 17.1798 21.9805 15.1646C21.9805 13.2722 21.1976 11.5504 19.9298 10.3202V7.06328C19.9298 5.52616 18.6619 4.28796 17.1285 4.28796H15.8271V2H14.3271V4.28796H7.75ZM4.82081 5.78796C4.09779 5.78796 3.51953 6.37255 3.51953 7.06328V18.1924C3.51953 18.8831 4.09779 19.4677 4.82081 19.4677H9.71965C8.85937 18.4238 8.30425 17.1211 8.19335 15.6942C8.15638 15.2268 8.16726 14.7463 8.23095 14.2575C8.62407 11.2665 11.0531 8.82735 14.0711 8.40654L14.0732 8.40625C14.4398 8.35619 14.8022 8.33438 15.1583 8.33909C16.3452 8.35271 17.4596 8.66292 18.4298 9.20084V7.06328C18.4298 6.37255 17.8515 5.78796 17.1285 5.78796H4.82081ZM15.0767 20.4905C14.0097 20.4905 13.0167 20.1905 12.1831 19.6593C12.1548 19.6339 12.1242 19.6104 12.0915 19.5892C10.6957 18.6805 9.75477 17.1445 9.67758 15.3892C9.67444 15.3147 9.67285 15.2398 9.67285 15.1646C9.67285 12.2359 12.087 9.83862 15.0767 9.83862L15.1186 9.83878C16.3238 9.85055 17.4282 10.2462 18.3174 10.9108C18.4424 11.0044 18.5631 11.1033 18.6793 11.2072L18.6854 11.2126C19.7905 12.1795 20.4805 13.5967 20.4805 15.1646C20.4805 16.7324 19.7905 18.1497 18.6854 19.1166L18.6783 19.1229C18.4796 19.3012 18.2733 19.4605 18.0592 19.6014L18.0562 19.6034C17.2053 20.1694 16.1806 20.4905 15.0767 20.4905Z" fill="#004D45"/>
</svg>
