<svg width="80" height="80" viewBox="0 0 80 80" fill="none" xmlns="http://www.w3.org/2000/svg">
<path fill-rule="evenodd" clip-rule="evenodd" d="M17.5 11.166C15.8379 11.166 14.5 12.5039 14.5 14.166V64.166C14.5 65.8281 15.8379 67.166 17.5 67.166H40.5V44.166C40.5 40.2948 43.6288 37.166 47.5 37.166H53.8333V14.166C53.8333 12.5039 52.4954 11.166 50.8333 11.166H17.5ZM17.5 71.166H42.4961H42.5L62.5 71.166C66.3712 71.166 69.5 68.0372 69.5 64.166V44.166C69.5 40.2948 66.3712 37.166 62.5 37.166H57.8333V14.166C57.8333 10.2948 54.7046 7.16602 50.8333 7.16602H17.5C13.6288 7.16602 10.5 10.2948 10.5 14.166V64.166C10.5 68.0372 13.6288 71.166 17.5 71.166ZM62.5 67.166H44.5V44.166C44.5 42.5039 45.8379 41.166 47.5 41.166H55.8333L62.5 41.166C64.1621 41.166 65.5 42.5039 65.5 44.166V64.166C65.5 65.8281 64.1621 67.166 62.5 67.166ZM22.5 19.166H29.1667V25.8327H22.5V19.166ZM45.8327 19.166H39.166V25.8327H45.8327V19.166ZM22.5 35.832H29.1667V42.4987H22.5V35.832ZM29.1667 52.5H22.5V59.1667H29.1667V52.5ZM52.5 52.5H59.1667V59.1667H52.5V52.5Z" fill="white"/>
</svg>
