<svg width="20" height="20" viewBox="0 0 20 20" fill="none" xmlns="http://www.w3.org/2000/svg">
<rect x="0.5" y="0.5" width="19" height="19" rx="9.5" fill="white"/>
<rect x="0.5" y="0.5" width="19" height="19" rx="9.5" stroke="#D9D9D9"/>
<path d="M9.625 12.0717V11.9773C9.63163 11.3608 9.69295 10.8703 9.80895 10.5057C9.92827 10.1411 10.0973 9.84612 10.3161 9.62074C10.5348 9.39536 10.7983 9.18987 11.1065 9.00426C11.3054 8.87831 11.4844 8.73745 11.6435 8.58168C11.8026 8.4259 11.9285 8.24692 12.0213 8.04474C12.1141 7.84257 12.1605 7.61884 12.1605 7.37358C12.1605 7.0786 12.0909 6.82339 11.9517 6.60795C11.8125 6.39252 11.6269 6.2268 11.3949 6.1108C11.1662 5.99148 10.911 5.93182 10.6293 5.93182C10.3741 5.93182 10.1304 5.98485 9.89844 6.09091C9.66643 6.19697 9.4742 6.36269 9.32173 6.58807C9.16927 6.81013 9.08144 7.09683 9.05824 7.44815H7.54688C7.57008 6.85156 7.72088 6.34777 7.99929 5.93679C8.2777 5.52249 8.6456 5.20928 9.10298 4.99716C9.56368 4.78504 10.0724 4.67898 10.6293 4.67898C11.2391 4.67898 11.7727 4.79332 12.2301 5.02202C12.6875 5.2474 13.0421 5.56392 13.294 5.97159C13.5492 6.37595 13.6768 6.84825 13.6768 7.38849C13.6768 7.75971 13.6188 8.09446 13.5028 8.39276C13.3868 8.68774 13.2211 8.95123 13.0057 9.18324C12.7936 9.41525 12.5384 9.62074 12.2401 9.79972C11.9583 9.97538 11.7296 10.1577 11.554 10.3466C11.3816 10.5355 11.2557 10.7592 11.1761 11.0178C11.0966 11.2763 11.0535 11.5961 11.0469 11.9773V12.0717H9.625ZM10.3757 15.0945C10.1039 15.0945 9.87027 14.9983 9.67472 14.8061C9.47917 14.6106 9.38139 14.3752 9.38139 14.1001C9.38139 13.8284 9.47917 13.5964 9.67472 13.4041C9.87027 13.2086 10.1039 13.1108 10.3757 13.1108C10.6442 13.1108 10.8762 13.2086 11.0717 13.4041C11.2706 13.5964 11.37 13.8284 11.37 14.1001C11.37 14.2824 11.3236 14.4498 11.2308 14.6023C11.1413 14.7514 11.022 14.8707 10.8729 14.9602C10.7237 15.0497 10.558 15.0945 10.3757 15.0945Z" fill="#666666"/>
</svg>
