<svg width="60" height="60" viewBox="0 0 60 60" fill="none" xmlns="http://www.w3.org/2000/svg">
<g clip-path="url(#clip0_4571_3083)">
<circle cx="30" cy="30" r="29" fill="white" stroke="#E3E5E8" stroke-width="2"/>
<path d="M30 17C28.8954 17 28 17.8954 28 19V35C28 36.1046 28.8954 37 30 37C31.1046 37 32 36.1046 32 35V19C32 17.8954 31.1046 17 30 17Z" fill="#004D45"/>
<path d="M30 43C31.1046 43 32 42.1046 32 41C32 39.8954 31.1046 39 30 39C28.8954 39 28 39.8954 28 41C28 42.1046 28.8954 43 30 43Z" fill="#004D45"/>
</g>
<defs>
<clipPath id="clip0_4571_3083">
<rect width="60" height="60" fill="white"/>
</clipPath>
</defs>
</svg>
