<svg width="125" height="24" viewBox="0 0 125 24" fill="none" xmlns="http://www.w3.org/2000/svg">
<g clip-path="url(#clip0_4107_1255)">
<path d="M77.8471 8.85503V5.41799H82.0141V9.6H82.7564L83.4987 8.85503V0.0507936H82.0141V4.22434H77.8471V0.0507936H76.3626V9.6H77.1049L77.8471 8.85503Z" fill="#231F20"/>
<path d="M90.5336 9.54921L91.2252 8.85503V8.35556H86.1726V5.37566H90.6348V4.18201H86.1726V1.19365H90.3396L90.93 0.601058V0H84.688V9.54921H90.5336Z" fill="#231F20"/>
<path d="M68.0371 1.24444H70.8629V9.6H71.6052L72.3475 8.85503V1.24444H74.5743L75.1732 0.643386V0.0507936H68.0371V1.24444Z" fill="#231F20"/>
<path d="M80.0065 14.4085H78.6232L75.1901 23.9831H76.6831L77.7206 20.9862H80.9766L82.0478 23.9831H83.5408L80.1077 14.4085H79.9981H80.0065ZM78.1339 19.7926L79.3233 16.364L80.5548 19.7926H78.1339Z" fill="#231F20"/>
<path d="M84.7386 24H85.4809L86.2317 23.2466V14.4169H84.7386V24Z" fill="#231F20"/>
<path d="M88.914 14.4169H87.421V24H92.6423L93.3846 23.2466V22.7979H88.914V14.4169Z" fill="#231F20"/>
<path d="M100.251 21.4519L96.0754 14.4H94.5824V23.9746H95.3247L96.0754 23.2296V16.9228L100.251 23.9746H100.993L101.735 23.2296V14.4H100.251V21.4519Z" fill="#231F20"/>
<path d="M120.529 22.7979V14.4169H119.036V24H124.257L124.999 23.2466V22.7979H120.529Z" fill="#231F20"/>
<path d="M112.777 19.7841H117.248V18.5905H112.777V15.5936H116.952L117.543 15.0011V14.4H111.284V23.9746H117.104L117.846 23.2381V22.781H112.777V19.7841Z" fill="#231F20"/>
<path d="M102.933 15.5936H105.767V23.9746H106.51L107.252 23.2296V15.5936H109.496L110.086 15.0011V14.4H102.933V15.5936Z" fill="#231F20"/>
<path d="M74.5996 17.3968C74.5996 15.746 73.5284 14.4 72.2125 14.4H68.0371V23.9746H68.7794L69.5217 23.2296V20.3852H71.0906L73.5537 23.9746H74.4478L74.8864 23.5344L72.6849 20.3259C73.773 20.0466 74.5912 18.836 74.5912 17.3968H74.5996ZM69.5301 19.1915V15.6021H72.2125C72.8451 15.6021 73.4018 16.4402 73.4018 17.3968C73.4018 18.3534 72.8451 19.1915 72.2125 19.1915H69.5301Z" fill="#231F20"/>
<path d="M6.52035 0H0V5.45185H6.52035V0Z" fill="#049882"/>
<path d="M7.33855 0H19.561V5.45185H13.0407V24H7.33855V0Z" fill="#049882"/>
<path d="M34.7189 14.9672C37.8905 14.0444 40.2186 11.1153 40.2186 7.63598C40.2186 3.42011 36.8108 0 32.6102 0H21.7457V24H27.4479V15.272H29.2361L35.5962 24H41.2983L34.7189 14.9672ZM32.6017 9.82011H27.4394V5.46032H32.6017C33.7995 5.46032 34.778 6.44233 34.778 7.64444C34.778 8.84656 33.7995 9.82857 32.6017 9.82857V9.82011Z" fill="#231F20"/>
<path d="M60.8594 0H41.2983V5.45185H48.232V24H53.9341V5.45185H60.8594V0Z" fill="#D8942A"/>
</g>
<defs>
<clipPath id="clip0_4107_1255">
<rect width="125" height="24" fill="white"/>
</clipPath>
</defs>
</svg>
