<svg width="20" height="20" viewBox="0 0 20 20" fill="none" xmlns="http://www.w3.org/2000/svg">
<path d="M17.0708 5.86C17.4108 6.58 17.0708 7.44 16.3908 7.83L7.22078 13.13C6.93078 13.3 6.56078 13.25 6.32078 13.02L2.80078 9.62L4.10078 8.87L6.52078 10.07L8.47078 8.95L3.52078 4.87L5.47078 3.75L12.3608 6.69L14.9608 5.19C15.3208 4.98 15.7208 4.94 16.1008 5.04C16.5108 5.15 16.8708 5.43 17.0708 5.85V5.86Z" stroke="black" stroke-width="1.5" stroke-linecap="round" stroke-linejoin="round"/>
<path d="M2 16.4297H18" stroke="black" stroke-width="1.5" stroke-linejoin="round"/>
<path fill-rule="evenodd" clip-rule="evenodd" d="M5.76416 3.06018C5.54767 2.9678 5.30038 2.98241 5.09627 3.09964L3.14627 4.21964C2.93281 4.34224 2.79311 4.56178 2.77246 4.80708C2.7518 5.05237 2.85283 5.29218 3.04278 5.44875L7.15647 8.83942L6.49387 9.21999L4.433 8.19807C4.20814 8.08657 3.94242 8.09494 3.72502 8.22036L2.42502 8.97036C2.22104 9.08804 2.08417 9.2947 2.05542 9.52844C2.02667 9.76217 2.10937 9.99584 2.27876 10.1594L5.79876 13.5594L5.80088 13.5615C6.27475 14.0156 7.00875 14.1216 7.59667 13.7784L7.5991 13.777L16.7629 8.48059L16.7642 8.47987C17.7105 7.93636 18.2532 6.72011 17.7827 5.61699C17.7727 5.58652 17.7608 5.55664 17.747 5.52755C17.449 4.90179 16.9079 4.48028 16.2942 4.31562L16.2907 4.3147C15.7323 4.16776 15.1267 4.22504 14.5837 4.54114L14.5819 4.54217L12.3096 5.85313L5.76416 3.06018ZM4.83315 4.98058L5.51924 4.58652L12.0655 7.37982C12.2824 7.4724 12.5303 7.45752 12.7346 7.33964L15.3346 5.83964L15.3377 5.83784C15.5138 5.73514 15.7068 5.71253 15.9072 5.76484C16.0972 5.81628 16.2638 5.93836 16.3683 6.12529C16.3753 6.14388 16.3831 6.16222 16.3916 6.18026C16.5411 6.4967 16.4075 6.95527 16.0167 7.17941L16.0145 7.18066L6.84451 12.4807C6.84147 12.4802 6.83936 12.479 6.83884 12.4786L4.03689 9.77217L4.12658 9.72042L6.18662 10.7419C6.41102 10.8532 6.67616 10.8451 6.89335 10.7204L8.84335 9.60036C9.05681 9.47776 9.19651 9.25822 9.21717 9.01293C9.23782 8.76763 9.13679 8.52782 8.94684 8.37126L4.83315 4.98058Z" fill="#1A1A1A"/>
<path d="M2 17.18H18V15.68H2V17.18Z" fill="#1A1A1A"/>
</svg>
