<svg width="60" height="60" viewBox="0 0 60 60" fill="none" xmlns="http://www.w3.org/2000/svg">
<path d="M44 27.04V8C44 6.35 42.65 5 41 5H13C11.35 5 10 6.35 10 8V14H6C4.35 14 3 15.35 3 17V50C3 50.55 3.45 51 4 51H33.22C35.83 53.58 39.3 55 43 55C50.72 55 57 48.72 57 41C57 33.28 51.26 27.55 44 27.04ZM17 49H13V43C13 41.9 13.9 41 15 41C16.1 41 17 41.9 17 43V49ZM25 49H19V43C19 40.79 17.21 39 15 39C12.79 39 11 40.79 11 43V49H5V17C5 16.45 5.45 16 6 16H24C24.55 16 25 16.45 25 17V49ZM27 49V17C27 15.35 25.65 14 24 14H12V8C12 7.45 12.45 7 13 7H41C41.55 7 42 7.45 42 8V27.04C41.78 27.06 41.56 27.08 41.35 27.1C41.32 27.1 41.3 27.11 41.29 27.11C41.08 27.14 40.87 27.17 40.66 27.2C40.33 27.26 40 27.32 39.68 27.4C39.36 27.48 39.04 27.57 38.73 27.67C38.33 27.8 37.94 27.94 37.56 28.1C37.54 28.11 37.52 28.12 37.5 28.13C36.9 28.39 36.32 28.68 35.77 29.02C35.59 29.13 35.4 29.24 35.23 29.36C34.51 29.84 33.84 30.39 33.23 30.98C33.08 31.12 32.94 31.27 32.8 31.42C32.5 31.74 32.22 32.08 31.95 32.42C31.81 32.59 31.69 32.76 31.56 32.94C31.42 33.14 31.29 33.34 31.16 33.54C31.06 33.7 30.96 33.86 30.87 34.03C30.76 34.21 30.65 34.4 30.56 34.59C30.46 34.79 30.36 34.98 30.27 35.18C30.07 35.61 29.9 36.05 29.75 36.5C29.69 36.67 29.63 36.84 29.58 37.02C29.52 37.23 29.46 37.44 29.41 37.65C29.35 37.87 29.3 38.08 29.26 38.3C29.22 38.52 29.18 38.74 29.15 38.96C29.12 39.18 29.09 39.41 29.07 39.63C29.02 40.08 29 40.54 29 41C29 41.23 29.01 41.45 29.02 41.68C29.03 41.95 29.05 42.21 29.08 42.47C29.14 43.1 29.25 43.73 29.4 44.33C29.45 44.53 29.5 44.72 29.55 44.91C29.69 45.39 29.85 45.85 30.04 46.3C30.14 46.55 30.25 46.79 30.36 47.03C30.69 47.71 31.07 48.37 31.51 49H27ZM43 53C39.7 53 36.63 51.69 34.35 49.31C32.19 47.07 31 44.12 31 41C31 34.38 36.38 29 43 29C49.62 29 55 34.38 55 41C55 47.62 49.62 53 43 53Z" fill="#719C98"/>
<path d="M43 44.3799C42.17 44.3799 41.5 43.7099 41.5 42.8799V34.8799C41.5 34.0499 42.17 33.3799 43 33.3799C43.83 33.3799 44.5 34.0499 44.5 34.8799V42.8799C44.5 43.7099 43.83 44.3799 43 44.3799Z" fill="#719C98"/>
<path d="M43 48.6201C43.8284 48.6201 44.5 47.9485 44.5 47.1201C44.5 46.2917 43.8284 45.6201 43 45.6201C42.1716 45.6201 41.5 46.2917 41.5 47.1201C41.5 47.9485 42.1716 48.6201 43 48.6201Z" fill="#719C98"/>
<path d="M22 19H8V21H22V19Z" fill="#719C98"/>
<path d="M22 24H8V26H22V24Z" fill="#719C98"/>
<path d="M22 29H8V31H22V29Z" fill="#719C98"/>
</svg>
