<svg width="24" height="24" viewBox="0 0 24 24" fill="none" xmlns="http://www.w3.org/2000/svg">
<path fill-rule="evenodd" clip-rule="evenodd" d="M7.89699 2.01953C6.35457 2.01953 5.0957 3.27839 5.0957 4.82081C5.0957 6.36323 6.35457 7.6221 7.89699 7.6221C7.94506 7.6221 7.9927 7.62077 8.0399 7.61818L10.4343 14.8015H15.6785L18.7554 19.9297H21.2313C21.6455 19.9297 21.9813 19.594 21.9813 19.1797C21.9813 18.7655 21.6455 18.4297 21.2313 18.4297H19.6047L16.5278 13.3015H11.5155L9.46057 7.13678C10.2032 6.63654 10.6983 5.78646 10.6983 4.82081C10.6983 3.27839 9.4394 2.01953 7.89699 2.01953ZM6.5957 4.82081C6.5957 4.10682 7.18299 3.51953 7.89699 3.51953C8.61098 3.51953 9.19827 4.10682 9.19827 4.82081C9.19827 5.38753 8.82282 5.87765 8.30868 6.04687L8.29538 6.05138C8.16167 6.09818 8.02998 6.1221 7.89699 6.1221C7.18299 6.1221 6.5957 5.53481 6.5957 4.82081Z" fill="#004D45"/>
<path d="M7.89774 10.2246C4.65275 10.2246 2.01953 12.8578 2.01953 16.1028C2.01953 19.3478 4.65275 21.981 7.89774 21.981C11.1427 21.981 13.7759 19.3478 13.7759 16.1028H12.2759C12.2759 18.5194 10.3143 20.481 7.89774 20.481C5.48118 20.481 3.51953 18.5194 3.51953 16.1028C3.51953 13.6863 5.48118 11.7246 7.89774 11.7246V10.2246Z" fill="#004D45"/>
<path d="M12 8.17334C11.5858 8.17334 11.25 8.50913 11.25 8.92334C11.25 9.33755 11.5858 9.67334 12 9.67334H16.1026C16.5168 9.67334 16.8526 9.33755 16.8526 8.92334C16.8526 8.50913 16.5168 8.17334 16.1026 8.17334H12Z" fill="#004D45"/>
</svg>
