<svg width="20" height="21" viewBox="0 0 20 21" fill="none" xmlns="http://www.w3.org/2000/svg">
<path d="M0.5 10.5C0.5 5.2533 4.7533 1 10 1C15.2467 1 19.5 5.2533 19.5 10.5C19.5 15.7467 15.2467 20 10 20C4.7533 20 0.5 15.7467 0.5 10.5Z" fill="white"/>
<path d="M0.5 10.5C0.5 5.2533 4.7533 1 10 1C15.2467 1 19.5 5.2533 19.5 10.5C19.5 15.7467 15.2467 20 10 20C4.7533 20 0.5 15.7467 0.5 10.5Z" stroke="#D9D9D9"/>
<path fill-rule="evenodd" clip-rule="evenodd" d="M10 7.5C10.5523 7.5 11 7.05228 11 6.5C11 5.94772 10.5523 5.5 10 5.5C9.44772 5.5 9 5.94772 9 6.5C9 7.05228 9.44772 7.5 10 7.5ZM11 15.5V9.5H9V15.5H11Z" fill="#666666"/>
</svg>
