<svg width="48" height="48" viewBox="0 0 48 48" fill="none" xmlns="http://www.w3.org/2000/svg">
<path d="M37.75 21.6701H28.5V11.0801C28.5 9.57008 27.27 8.33008 25.75 8.33008H5.75C4.23 8.33008 3 9.57008 3 11.0801V41.7501C3 43.2701 4.23 44.5001 5.75 44.5001H37.75C39.27 44.5001 40.5 43.2701 40.5 41.7501V24.4201C40.5 22.9001 39.27 21.6701 37.75 21.6701ZM20.33 43.0001H11.17V39.1701H20.33V43.0001ZM27 43.0001H21.83V38.4201C21.83 38.0001 21.5 37.6701 21.08 37.6701H10.42C10 37.6701 9.67 38.0001 9.67 38.4201V43.0001H5.75C5.06 43.0001 4.5 42.4401 4.5 41.7501V11.0801C4.5 10.3901 5.06 9.83008 5.75 9.83008H25.75C26.44 9.83008 27 10.3901 27 11.0801V43.0001ZM39 41.7501C39 42.4401 38.44 43.0001 37.75 43.0001H28.5V23.1701H37.75C38.44 23.1701 39 23.7301 39 24.4201V41.7501Z" fill="#8BAFAC"/>
<path d="M20.33 39.1701H11.17V43.0001H20.33V39.1701Z" fill="white"/>
<path d="M25.75 9.83008H5.75C5.06 9.83008 4.5 10.3901 4.5 11.0801V41.7501C4.5 42.4401 5.06 43.0001 5.75 43.0001H9.67V38.4201C9.67 38.0001 10 37.6701 10.42 37.6701H21.08C21.5 37.6701 21.83 38.0001 21.83 38.4201V43.0001H27V11.0801C27 10.3901 26.44 9.83008 25.75 9.83008ZM14.42 25.4201C14.42 25.9701 13.97 26.4201 13.42 26.4201H10.08C9.53 26.4201 9.08 25.9701 9.08 25.4201V22.0801C9.08 21.5301 9.53 21.0801 10.08 21.0801H13.42C13.97 21.0801 14.42 21.5301 14.42 22.0801V25.4201ZM14.42 17.4201C14.42 17.9701 13.97 18.4201 13.42 18.4201H10.08C9.53 18.4201 9.08 17.9701 9.08 17.4201V14.0801C9.08 13.5301 9.53 13.0801 10.08 13.0801H13.42C13.97 13.0801 14.42 13.5301 14.42 14.0801V17.4201ZM22.42 33.4201C22.42 33.9701 21.97 34.4201 21.42 34.4201H18.08C17.53 34.4201 17.08 33.9701 17.08 33.4201V30.0801C17.08 29.5301 17.53 29.0801 18.08 29.0801H21.42C21.97 29.0801 22.42 29.5301 22.42 30.0801V33.4201ZM22.42 25.4201C22.42 25.9701 21.97 26.4201 21.42 26.4201H18.08C17.53 26.4201 17.08 25.9701 17.08 25.4201V22.0801C17.08 21.5301 17.53 21.0801 18.08 21.0801H21.42C21.97 21.0801 22.42 21.5301 22.42 22.0801V25.4201ZM22.42 17.4201C22.42 17.9701 21.97 18.4201 21.42 18.4201H18.08C17.53 18.4201 17.08 17.9701 17.08 17.4201V14.0801C17.08 13.5301 17.53 13.0801 18.08 13.0801H21.42C21.97 13.0801 22.42 13.5301 22.42 14.0801V17.4201Z" fill="white"/>
<path d="M37.75 23.1701H28.5V43.0001H37.75C38.44 43.0001 39 42.4401 39 41.7501V24.4201C39 23.7301 38.44 23.1701 37.75 23.1701ZM35.75 40.5799C35.75 40.8599 35.53 41.0799 35.25 41.0799H32.25C31.97 41.0799 31.75 40.8599 31.75 40.5799V37.5799C31.75 37.3099 31.97 37.0799 32.25 37.0799H35.25C35.53 37.0799 35.75 37.3099 35.75 37.5799V40.5799ZM35.75 35.2499C35.75 35.5299 35.53 35.7499 35.25 35.7499H32.25C31.97 35.7499 31.75 35.5299 31.75 35.2499V32.2499C31.75 31.9699 31.97 31.7499 32.25 31.7499H35.25C35.53 31.7499 35.75 31.9699 35.75 32.2499V35.2499ZM35.75 29.9199C35.75 30.1899 35.53 30.4199 35.25 30.4199H32.25C31.97 30.4199 31.75 30.1899 31.75 29.9199V26.9199C31.75 26.6399 31.97 26.4199 32.25 26.4199H35.25C35.53 26.4199 35.75 26.6399 35.75 26.9199V29.9199Z" fill="white"/>
<path d="M44.5 8.5V7H40.5V3H39V7H35V8.5H39V12.5H40.5V8.5H44.5Z" fill="#8BAFAC"/>
<path d="M13.42 13.0801H10.08C9.52771 13.0801 9.08 13.5278 9.08 14.0801V17.4201C9.08 17.9724 9.52771 18.4201 10.08 18.4201H13.42C13.9723 18.4201 14.42 17.9724 14.42 17.4201V14.0801C14.42 13.5278 13.9723 13.0801 13.42 13.0801Z" fill="#8BAFAC"/>
<path d="M21.42 13.0801H18.08C17.5277 13.0801 17.08 13.5278 17.08 14.0801V17.4201C17.08 17.9724 17.5277 18.4201 18.08 18.4201H21.42C21.9723 18.4201 22.42 17.9724 22.42 17.4201V14.0801C22.42 13.5278 21.9723 13.0801 21.42 13.0801Z" fill="#8BAFAC"/>
<path d="M35.75 26.9199V29.9199C35.75 30.1899 35.53 30.4199 35.25 30.4199H32.25C31.97 30.4199 31.75 30.1899 31.75 29.9199V26.9199C31.75 26.6399 31.97 26.4199 32.25 26.4199H35.25C35.53 26.4199 35.75 26.6399 35.75 26.9199Z" fill="#8BAFAC"/>
<path d="M35.25 31.7499H32.25C31.9739 31.7499 31.75 31.9738 31.75 32.2499V35.2499C31.75 35.5261 31.9739 35.7499 32.25 35.7499H35.25C35.5261 35.7499 35.75 35.5261 35.75 35.2499V32.2499C35.75 31.9738 35.5261 31.7499 35.25 31.7499Z" fill="#8BAFAC"/>
<path d="M35.75 37.5799V40.5799C35.75 40.8599 35.53 41.0799 35.25 41.0799H32.25C31.97 41.0799 31.75 40.8599 31.75 40.5799V37.5799C31.75 37.3099 31.97 37.0799 32.25 37.0799H35.25C35.53 37.0799 35.75 37.3099 35.75 37.5799Z" fill="#8BAFAC"/>
<path d="M13.42 21.0801H10.08C9.52771 21.0801 9.08 21.5278 9.08 22.0801V25.4201C9.08 25.9724 9.52771 26.4201 10.08 26.4201H13.42C13.9723 26.4201 14.42 25.9724 14.42 25.4201V22.0801C14.42 21.5278 13.9723 21.0801 13.42 21.0801Z" fill="#8BAFAC"/>
<path d="M21.42 21.0801H18.08C17.5277 21.0801 17.08 21.5278 17.08 22.0801V25.4201C17.08 25.9724 17.5277 26.4201 18.08 26.4201H21.42C21.9723 26.4201 22.42 25.9724 22.42 25.4201V22.0801C22.42 21.5278 21.9723 21.0801 21.42 21.0801Z" fill="#8BAFAC"/>
<path d="M13.4101 29.0801H10.0801C9.52779 29.0801 9.08008 29.5278 9.08008 30.0801V33.4101C9.08008 33.9624 9.52779 34.4101 10.0801 34.4101H13.4101C13.9624 34.4101 14.4101 33.9624 14.4101 33.4101V30.0801C14.4101 29.5278 13.9624 29.0801 13.4101 29.0801Z" fill="#8BAFAC"/>
<path d="M21.42 29.0801H18.08C17.5277 29.0801 17.08 29.5278 17.08 30.0801V33.4201C17.08 33.9724 17.5277 34.4201 18.08 34.4201H21.42C21.9723 34.4201 22.42 33.9724 22.42 33.4201V30.0801C22.42 29.5278 21.9723 29.0801 21.42 29.0801Z" fill="#8BAFAC"/>
</svg>
