<svg width="24" height="24" viewBox="0 0 24 24" fill="none" xmlns="http://www.w3.org/2000/svg">
<g id="ico-24px-Dark">
<path id="Union" fill-rule="evenodd" clip-rule="evenodd" d="M1 2.98697L2.98697 1L4.68149 2.69453C5.29995 2.26884 6.04967 2.01968 6.8572 2.01968C8.97359 2.01968 10.6929 3.73104 10.6929 5.84661V6.87225C10.6929 7.41235 10.5809 7.9261 10.3787 8.39176L16.3926 14.4056V10.6262C14.6328 10.279 13.3076 8.73418 13.3076 6.87225V2.76968C13.3076 2.35547 13.6434 2.01968 14.0576 2.01968C14.4718 2.01968 14.8076 2.35547 14.8076 2.76968V6.87225C14.8076 7.89745 15.4685 8.76655 16.3926 9.07717V2.76968C16.3926 2.35547 16.7284 2.01968 17.1426 2.01968C17.5568 2.01968 17.8926 2.35547 17.8926 2.76968V9.07767C18.8174 8.7675 19.479 7.89801 19.479 6.87225V2.76968C19.479 2.35547 19.8148 2.01968 20.229 2.01968C20.6433 2.01968 20.979 2.35547 20.979 2.76968V6.87225C20.979 8.73471 19.6531 10.2799 17.8926 10.6265V15.9056L22.9839 20.997L20.997 22.9839L17.8926 19.8795V21.2312C17.8926 21.6454 17.5568 21.9812 17.1426 21.9812C16.7284 21.9812 16.3926 21.6454 16.3926 21.2312V18.3795L8.39302 10.38C8.14382 10.4888 7.88082 10.5719 7.60742 10.626V21.2314C7.60742 21.6456 7.27164 21.9814 6.85742 21.9814C6.44321 21.9814 6.10742 21.6456 6.10742 21.2314V10.6261C4.34925 10.2783 3.02148 8.73137 3.02148 6.87225V5.84661C3.02148 5.5856 3.04766 5.33074 3.09752 5.08449L1 2.98697ZM4.52148 6.50845V6.87225C4.52148 8.15536 5.5652 9.19917 6.8572 9.19917C6.96984 9.19917 7.08059 9.19124 7.18893 9.1759L4.52148 6.50845ZM9.17198 7.18501C9.18578 7.08269 9.19291 6.97829 9.19291 6.87225V5.84661C9.19291 4.5635 8.1492 3.51968 6.8572 3.51968C6.46532 3.51968 6.09629 3.61571 5.77229 3.78532L9.17198 7.18501Z" fill="white"/>
</g>
</svg>
