<svg width="24" height="24" viewBox="0 0 24 24" fill="none" xmlns="http://www.w3.org/2000/svg">
<path fill-rule="evenodd" clip-rule="evenodd" d="M14.0681 3.07082C14.3317 3.19425 14.5 3.459 14.5 3.75001V8.0747C16.2136 8.42125 17.5 9.93271 17.5 11.75C17.5 13.5673 16.2136 15.0787 14.5 15.4253V19.75C14.5 20.041 14.3317 20.3058 14.0681 20.4292C13.8046 20.5526 13.4934 20.5125 13.2699 20.3262L7.47846 15.5H5.75C4.78579 15.5 4 14.7142 4 13.75V9.75001C4 8.7858 4.78579 8.00001 5.75 8.00001H7.47846L13.2699 3.17384C13.4934 2.98754 13.8046 2.94738 14.0681 3.07082ZM16 11.75C16 12.7326 15.3753 13.5649 14.5 13.8727V9.62726C15.3753 9.93507 16 10.7674 16 11.75ZM13 5.35129V18.1487L8.23014 14.1738C8.09535 14.0615 7.92545 14 7.75 14H5.75C5.61421 14 5.5 13.8858 5.5 13.75V9.75001C5.5 9.61422 5.61421 9.50001 5.75 9.50001H7.75C7.92545 9.50001 8.09535 9.4385 8.23014 9.32618L13 5.35129Z" fill="#1A1A1A"/>
<path d="M16.3732 7.19859C17.9428 8.11051 19 9.80936 19 11.7501C19 13.6908 17.9428 15.3897 16.3732 16.3016L17.1268 17.5986C19.1372 16.4305 20.5 14.2494 20.5 11.7501C20.5 9.25084 19.1372 7.06969 17.1268 5.90161L16.3732 7.19859Z" fill="#1A1A1A"/>
</svg>
