<svg width="48" height="48" viewBox="0 0 48 48" fill="none" xmlns="http://www.w3.org/2000/svg">
<path d="M38.96 19.48C38.96 21.2953 38.3851 23.3859 37.4046 25.6105C36.4285 27.8252 35.0782 30.1114 33.5925 32.301C30.6213 36.6802 27.1628 40.595 25.2378 42.6689C24.8236 43.1135 24.1274 43.1137 23.7129 42.6696C21.7923 40.5951 18.3363 36.6803 15.3664 32.3012C13.8813 30.1115 12.5312 27.8253 11.5552 25.6105C10.5749 23.3859 10 21.2954 10 19.48C10 11.4823 16.4823 5 24.48 5C32.4777 5 38.96 11.4823 38.96 19.48Z" fill="#004D45" stroke="white" stroke-width="2"/>
<path d="M24.4805 24C27.7942 24 30.4805 21.3137 30.4805 18C30.4805 14.6863 27.7942 12 24.4805 12C21.1668 12 18.4805 14.6863 18.4805 18C18.4805 21.3137 21.1668 24 24.4805 24Z" fill="white"/>
</svg>
