<svg width="24" height="24" viewBox="0 0 24 24" fill="none" xmlns="http://www.w3.org/2000/svg">
<path fill-rule="evenodd" clip-rule="evenodd" d="M18.7595 6.74088C17.1024 5.08377 14.4373 5.08377 12.7802 6.74088L12.2802 7.24088C11.9873 7.53377 11.5124 7.53377 11.2195 7.24088L10.7195 6.74088C9.8856 5.90696 8.81874 5.50055 7.72985 5.50055C6.64095 5.50055 5.5741 5.90696 4.74018 6.74088L4.73881 6.74224C3.08427 8.38829 3.08209 11.0629 4.73087 12.7209C4.73109 12.7211 4.73132 12.7214 4.73154 12.7216L11.2702 19.2602C11.5273 19.5173 11.9624 19.5173 12.2195 19.2602L18.7595 12.7202C19.5934 11.8863 19.9998 10.8194 19.9998 9.73055C19.9998 8.64165 19.5934 7.5748 18.7595 6.74088ZM11.7498 5.65011C13.9949 3.43737 17.5874 3.44741 19.8202 5.68022C20.9463 6.8063 21.4998 8.25944 21.4998 9.73055C21.4998 11.2016 20.9463 12.6548 19.8202 13.7809L13.2802 20.3209C12.4373 21.1638 11.0524 21.1638 10.2095 20.3209L3.66952 13.7809L3.66815 13.7795C1.43783 11.5377 1.43564 7.91331 3.6802 5.67954C4.80618 4.55391 6.25904 4.00055 7.72985 4.00055C9.18778 4.00055 10.6281 4.54427 11.7498 5.65011Z" fill="#004D45"/>
</svg>
