<svg width="24" height="24" viewBox="0 0 24 24" fill="none" xmlns="http://www.w3.org/2000/svg">
<path d="M11.4697 8.21967C11.7626 7.92678 12.2375 7.92678 12.5304 8.21967L14.5304 10.2197L13.4697 11.2803L12.0001 9.81066L10.5304 11.2803L9.46973 10.2197L11.4697 8.21967Z" fill="#004D45"/>
<path d="M9.46973 13.2804L11.4697 15.2804C11.7626 15.5733 12.2375 15.5733 12.5304 15.2804L14.5304 13.2804L13.4697 12.2197L12.0001 13.6894L10.5304 12.2197L9.46973 13.2804Z" fill="#004D45"/>
<path fill-rule="evenodd" clip-rule="evenodd" d="M4.25 20V4.75C4.25 3.23579 5.48579 2 7 2H17C18.5142 2 19.75 3.23579 19.75 4.75V20H22V21.5H2V20H4.25ZM5.75 4.75C5.75 4.06421 6.31421 3.5 7 3.5H11.25V5.75H12.75V3.5H17C17.6858 3.5 18.25 4.06421 18.25 4.75V20H12.75V17.75H11.25V20H5.75V4.75Z" fill="#004D45"/>
</svg>
