<svg width="24" height="24" viewBox="0 0 24 24" fill="none" xmlns="http://www.w3.org/2000/svg">
<path fill-rule="evenodd" clip-rule="evenodd" d="M12 5.6236L8.39515 2L7.32919 3.06046L10.1918 5.93792H4.82075C3.25923 5.93792 2 7.20929 2 8.7694V19.1678C2 20.7279 3.25923 21.9993 4.82075 21.9993H19.1792C20.7408 21.9993 22 20.7279 22 19.1678V8.7694C22 7.20929 20.7408 5.93792 19.1792 5.93792H13.8083L16.6709 3.06046L15.6049 2L12 5.6236ZM4.82075 7.44152C4.09698 7.44152 3.50361 8.03236 3.50361 8.7694V19.1678C3.50361 19.9048 4.09698 20.4957 4.82075 20.4957H19.1792C19.903 20.4957 20.4964 19.9048 20.4964 19.1678V8.7694C20.4964 8.03236 19.903 7.44152 19.1792 7.44152H4.82075Z" fill="#004D45"/>
</svg>
