<svg width="24" height="24" viewBox="0 0 24 24" fill="none" xmlns="http://www.w3.org/2000/svg">
<path fill-rule="evenodd" clip-rule="evenodd" d="M7.75 2V4.25H16.25V2H17.75V4.25H19C20.5188 4.25 21.75 5.48122 21.75 7V19C21.75 20.5188 20.5188 21.75 19 21.75H5C3.48122 21.75 2.25 20.5188 2.25 19V7C2.25 5.48122 3.48122 4.25 5 4.25H6.25V2H7.75ZM3.75 7C3.75 6.30964 4.30964 5.75 5 5.75H19C19.6904 5.75 20.25 6.30964 20.25 7V9.25H3.75V7ZM20.25 10.75V19C20.25 19.6904 19.6904 20.25 19 20.25H5C4.30964 20.25 3.75 19.6904 3.75 19V10.75H20.25Z" fill="#1A1A1A"/>
</svg>
