<svg width="20" height="20" viewBox="0 0 20 20" fill="none" xmlns="http://www.w3.org/2000/svg">
<g id="ico-20px">
<path id="Union" fill-rule="evenodd" clip-rule="evenodd" d="M11.318 16.2097L16.3192 11.208C16.345 11.1882 16.3697 11.1666 16.3932 11.1432C17.3032 10.233 17.7497 9.05749 17.7497 7.87493C17.7497 6.691 17.2932 5.50682 16.3932 4.6067C14.6362 2.84956 11.8164 2.80499 10.0055 4.47298C9.11642 3.65279 7.99971 3.25 6.87662 3.25C5.69307 3.25 4.50931 3.70631 3.60936 4.6059C1.79643 6.40899 1.79706 9.33267 3.61016 11.1357L8.69286 16.2097C9.41324 16.9301 10.5976 16.9301 11.318 16.2097ZM3.60936 4.6059L3.60857 4.6067L4.13892 5.13701L3.61016 4.60511L3.60936 4.6059Z" fill="#004D45"/>
</g>
</svg>
