<svg width="33" height="32" viewBox="0 0 33 32" fill="none" xmlns="http://www.w3.org/2000/svg">
<path d="M10.8906 2.33594C10.8906 1.78365 11.3383 1.33594 11.8906 1.33594H30.5573C31.1096 1.33594 31.5573 1.78365 31.5573 2.33594V15.6651L29.5573 14.3751V3.33594H12.8906V3.62585L10.8906 2.33594Z" fill="#1A1A1A"/>
<path d="M10.811 14.6693L9.85018 13.7085L11.2644 12.2943L14.6382 15.668L11.2644 19.0418L9.85018 17.6276L10.8085 16.6693H6.55729V14.6693H10.811Z" fill="#1A1A1A"/>
<path fill-rule="evenodd" clip-rule="evenodd" d="M12.8906 3.62585L10.8906 2.33594V8.00913C10.7789 8.0047 10.6677 8.0026 10.5573 8.0026C6.32501 8.0026 2.89062 11.437 2.89062 15.6693C2.89062 18.9797 4.99458 21.8029 7.93507 22.8769L5.62907 28.6306C5.50558 28.9387 5.54304 29.288 5.72904 29.563C5.91504 29.8379 6.22535 30.0026 6.5573 30.0026H25.224C25.6329 30.0026 26.0006 29.7537 26.1524 29.374L31.4774 16.0615C31.5211 15.9592 31.5482 15.8481 31.5554 15.7316C31.5566 15.711 31.5573 15.6902 31.5573 15.6693L29.5573 14.3789V14.3751L12.8906 3.62585ZM12.8906 3.62585L29.5573 14.3789V14.6693H18.1593C17.7715 11.6921 15.676 9.25089 12.8906 8.3637V3.62585ZM9.46828 21.2343C6.86185 20.7239 4.89062 18.4209 4.89062 15.6693C4.89062 12.5416 7.42958 10.0026 10.5573 10.0026C10.9535 10.0026 11.3328 10.0377 11.6752 10.1125L16.224 15.6693C16.224 18.797 13.685 21.3359 10.5573 21.3359C10.1786 21.3359 9.81588 21.3015 9.46828 21.2343ZM11.6771 10.113L11.6918 10.116C14.2734 10.6368 16.224 12.927 16.224 15.6693L11.6771 10.113ZM9.91595 23.3105C10.1277 23.3275 10.3415 23.3359 10.5573 23.3359C14.4507 23.3359 17.6688 20.4296 18.1592 16.6693H29.0803L24.5469 28.0026H8.03541L9.91595 23.3105Z" fill="#1A1A1A"/>
</svg>
