<svg width="210" height="40" viewBox="0 0 210 40" fill="none" xmlns="http://www.w3.org/2000/svg">
<g clip-path="url(#clip0_10458_74683)">
<path d="M130.68 14.7589V9.03411H137.644V16.0031H138.883L140.128 14.7589V9.03411V7.04744V0.0836487H137.644V7.04744H130.68V0.0836487H128.192V7.04744V9.03411V16.0031H129.436L130.68 14.7589Z" fill="#231F20"/>
<path d="M151.901 15.9195L153.062 14.7589V13.9276H144.608V8.95569H152.068V6.9638H144.608V1.9919H151.572L152.565 0.993334V0H144.608H142.119V1.9919V6.9638V8.95569V13.9276V15.9195H144.608H151.901Z" fill="#231F20"/>
<path d="M114.264 2.07032H118.99V16.0031H120.229L121.474 14.7589V2.07032H125.207L126.2 1.07698V0.0836487H114.264V2.07032Z" fill="#231F20"/>
<path d="M134.283 24.0125H131.972L126.231 39.9791H128.725L130.461 34.9915H135.914L137.707 39.9791H140.201L134.46 24.0125H134.272H134.283ZM131.162 32.9944L133.148 27.2801L135.203 32.9944H131.162Z" fill="#231F20"/>
<path d="M142.203 40H143.453L144.697 38.7557V24.0334H142.203V40Z" fill="#231F20"/>
<path d="M149.188 24.0334H146.694V38.0081V40H149.188H155.425L156.674 38.7557V38.0081H149.188V24.0334Z" fill="#231F20"/>
<path d="M168.15 35.7652L161.165 24.0021H158.666V39.9686H159.916L161.165 38.7191V28.2002L168.15 39.9686H169.394L170.644 38.7191V24.0021H168.15V35.7652Z" fill="#231F20"/>
<path d="M202.075 38.0081V24.0334H199.581V38.0081V40H202.075H208.312L209.561 38.7557V38.0081H202.075Z" fill="#231F20"/>
<path d="M189.104 32.9839H196.591V30.9868H189.104V25.9992H196.089L197.087 25.0006V24.0021H189.104H186.61V25.9992V30.9868V32.9839V37.9715V39.9686H189.104H196.35L197.589 38.7296V37.9715H189.104V32.9839Z" fill="#231F20"/>
<path d="M172.641 25.9992H177.377V39.9686H178.627L179.876 38.7191V25.9992H183.614L184.613 25.0006V24.0021H172.641V25.9992Z" fill="#231F20"/>
<path d="M125.238 29.0001C125.238 26.2449 123.45 24.0125 121.249 24.0125H114.264V39.9791H115.514L116.763 38.7296V33.9877H119.382L123.497 39.9739H124.992L125.729 39.2367L122.054 33.8884C123.873 33.4231 125.243 31.4103 125.243 29.0001H125.238ZM120.747 31.9958H116.753V26.0097H121.244C122.305 26.0097 123.241 27.4108 123.241 29.0054C123.241 30.5999 122.31 32.001 121.244 32.001H120.747V31.9958Z" fill="#231F20"/>
<path d="M11.3495 0H0.438477V9.09162H11.3495V0Z" fill="#009781"/>
<path d="M12.7139 0H33.1661V9.09162H22.2551V40H12.7139V0Z" fill="#009781"/>
<path d="M58.5226 24.9484C63.8291 23.4165 67.7188 18.5283 67.7188 12.7304C67.7188 5.6986 62.0202 0 54.9884 0H36.8052V40H46.3516V25.4555H49.3473L59.9865 40H69.5329L58.5226 24.9484ZM54.9884 16.3639H46.3516V9.09162H54.9884C56.996 9.09162 58.6272 10.7228 58.6272 12.7304C58.6272 14.7379 56.996 16.3691 54.9884 16.3691V16.3639Z" fill="#231F20"/>
<path d="M102.26 0H90.6698H81.1234H69.5327V9.09162H81.1234V40H90.6698V9.09162H102.26V0Z" fill="#D7932A"/>
</g>
<defs>
<clipPath id="clip0_10458_74683">
<rect width="209.123" height="40" fill="white" transform="translate(0.438477)"/>
</clipPath>
</defs>
</svg>
