<svg width="280" height="54" viewBox="0 0 280 54" fill="none" xmlns="http://www.w3.org/2000/svg">
<g clip-path="url(#clip0_6052_9231)">
<path d="M174.378 19.9238V12.1905H183.712V21.6H185.374L187.037 19.9238V0.114286H183.712V9.50476H174.378V0.114286H171.052V21.6H172.715L174.378 19.9238Z" fill="#231F20"/>
<path d="M202.795 21.4857L204.345 19.9238V18.8H193.027V12.0952H203.022V9.40952H193.027V2.68571H202.361L203.683 1.35238V0H189.701V21.4857H202.795Z" fill="#231F20"/>
<path d="M152.403 2.8H158.733V21.6H160.396L162.058 19.9238V2.8H167.047L168.388 1.44762V0.114286H152.403V2.8Z" fill="#231F20"/>
<path d="M179.215 32.419H176.116L168.426 53.9619H171.77L174.094 47.219H181.388L183.787 53.9619H187.132L179.441 32.419H179.196H179.215ZM175.02 44.5333L177.684 36.819L180.443 44.5333H175.02Z" fill="#231F20"/>
<path d="M189.815 54H191.477L193.159 52.3048V32.4381H189.815V54Z" fill="#231F20"/>
<path d="M199.167 32.4381H195.823V54H207.519L209.182 52.3048V51.2952H199.167V32.4381Z" fill="#231F20"/>
<path d="M224.562 48.2667L215.209 32.4H211.865V53.9429H213.527L215.209 52.2667V38.0762L224.562 53.9429H226.225L227.887 52.2667V32.4H224.562V48.2667Z" fill="#231F20"/>
<path d="M269.985 51.2952V32.4381H266.64V54H278.336L279.999 52.3048V51.2952H269.985Z" fill="#231F20"/>
<path d="M252.62 44.5143H262.635V41.8286H252.62V35.0857H261.973L263.296 33.7524V32.4H249.276V53.9429H262.313L263.976 52.2857V51.2571H252.62V44.5143Z" fill="#231F20"/>
<path d="M230.57 35.0857H236.919V53.9429H238.582L240.244 52.2667V35.0857H245.27L246.593 33.7524V32.4H230.57V35.0857Z" fill="#231F20"/>
<path d="M167.103 39.1429C167.103 35.4286 164.704 32.4 161.756 32.4H152.403V53.9429H154.066L155.729 52.2667V45.8667H159.243L164.76 53.9429H166.763L167.746 52.9524L162.814 45.7333C165.251 45.1048 167.084 42.3809 167.084 39.1429H167.103ZM155.747 43.181V35.1048H161.756C163.173 35.1048 164.42 36.9905 164.42 39.1429C164.42 41.2952 163.173 43.181 161.756 43.181H155.747Z" fill="#231F20"/>
<path d="M14.6056 0H0V12.2667H14.6056V0Z" fill="#049882"/>
<path d="M16.4384 0H43.8167V12.2667H29.2111V54H16.4384V0Z" fill="#049882"/>
<path d="M77.7704 33.6762C84.8748 31.6 90.0898 25.0095 90.0898 17.181C90.0898 7.69524 82.4563 0 73.0468 0H48.7104V54H61.4832V34.3619H65.4889L79.7355 54H92.5083L77.7704 33.6762ZM73.0279 22.0952H61.4643V12.2857H73.0279C75.7109 12.2857 77.9027 14.4952 77.9027 17.2C77.9027 19.9048 75.7109 22.1143 73.0279 22.1143V22.0952Z" fill="#231F20"/>
<path d="M136.325 0H92.5083V12.2667H108.04V54H120.812V12.2667H136.325V0Z" fill="#D8942A"/>
</g>
<defs>
<clipPath id="clip0_6052_9231">
<rect width="280" height="54" fill="white"/>
</clipPath>
</defs>
</svg>
