<svg width="32" height="32" viewBox="0 0 32 32" fill="none" xmlns="http://www.w3.org/2000/svg">
<path d="M0.666667 16C0.666667 7.53163 7.53163 0.666667 16 0.666667C24.4684 0.666667 31.3333 7.53163 31.3333 16C31.3333 24.4684 24.4684 31.3333 16 31.3333C7.53163 31.3333 0.666667 24.4684 0.666667 16Z" fill="white"/>
<path d="M0.666667 16C0.666667 7.53163 7.53163 0.666667 16 0.666667C24.4684 0.666667 31.3333 7.53163 31.3333 16C31.3333 24.4684 24.4684 31.3333 16 31.3333C7.53163 31.3333 0.666667 24.4684 0.666667 16Z" stroke="#D9D9D9" stroke-width="1.33333"/>
<path d="M22.2558 10.9444C20.4696 9.15812 17.5956 9.15009 15.7996 10.9203C14.9022 10.0356 13.7499 9.60063 12.5836 9.60063C11.4069 9.60063 10.2447 10.0433 9.34387 10.9438C7.54822 12.7308 7.54997 15.6303 9.33423 17.4238L9.33532 17.4249L14.5673 22.6569C15.2416 23.3312 16.3495 23.3312 17.0238 22.6569L22.2558 17.4249C23.1567 16.524 23.5996 15.3615 23.5996 14.1846C23.5996 13.0078 23.1567 11.8452 22.2558 10.9444Z" fill="#004D45"/>
</svg>
