<svg width="40" height="40" viewBox="0 0 40 40" fill="none" xmlns="http://www.w3.org/2000/svg">
<path d="M0.5 20C0.5 9.23045 9.23045 0.5 20 0.5C30.7696 0.5 39.5 9.23045 39.5 20C39.5 30.7696 30.7696 39.5 20 39.5C9.23045 39.5 0.5 30.7696 0.5 20Z" fill="white"/>
<path d="M0.5 20C0.5 9.23045 9.23045 0.5 20 0.5C30.7696 0.5 39.5 9.23045 39.5 20C39.5 30.7696 30.7696 39.5 20 39.5C9.23045 39.5 0.5 30.7696 0.5 20Z" stroke="#D9D9D9"/>
<path d="M27.8202 13.6802C25.5874 11.4474 21.9949 11.4374 19.7498 13.6501C18.6281 12.5443 17.1878 12.0005 15.7298 12.0005C14.259 12.0005 12.8062 12.5539 11.6802 13.6795C9.43564 15.9133 9.43783 19.5377 11.6682 21.7795L11.6695 21.7809L18.2095 28.3209C19.0524 29.1638 20.4373 29.1638 21.2802 28.3209L27.8202 21.7809C28.9463 20.6548 29.4998 19.2016 29.4998 17.7305C29.4998 16.2594 28.9463 14.8063 27.8202 13.6802Z" fill="#004D45"/>
</svg>
