<svg width="32" height="32" viewBox="0 0 32 32" fill="none" xmlns="http://www.w3.org/2000/svg">
<path d="M0.666667 16C0.666667 7.53163 7.53163 0.666667 16 0.666667C24.4684 0.666667 31.3333 7.53163 31.3333 16C31.3333 24.4684 24.4684 31.3333 16 31.3333C7.53163 31.3333 0.666667 24.4684 0.666667 16Z" fill="white"/>
<path d="M0.666667 16C0.666667 7.53163 7.53163 0.666667 16 0.666667C24.4684 0.666667 31.3333 7.53163 31.3333 16C31.3333 24.4684 24.4684 31.3333 16 31.3333C7.53163 31.3333 0.666667 24.4684 0.666667 16Z" stroke="#D9D9D9" stroke-width="1.33333"/>
<path fill-rule="evenodd" clip-rule="evenodd" d="M12.8766 10.75C12.0777 10.75 11.2791 11.0575 10.6693 11.6673L10.6677 11.6689C9.44375 12.8856 9.44375 14.8552 10.6677 16.0719L10.6688 16.073L15.7531 21.1486C15.8877 21.2832 16.1227 21.2836 16.2573 21.1491L21.3325 16.0734C21.3533 16.0526 21.3751 16.0332 21.3979 16.0152C21.9715 15.4078 22.2497 14.6465 22.2497 13.8749C22.2497 13.0759 21.9422 12.2772 21.3325 11.6673C20.1155 10.4503 18.1438 10.4503 16.9269 11.6673L16.5358 12.0584C16.3951 12.1991 16.2043 12.2781 16.0054 12.2781C15.8065 12.2781 15.6157 12.1991 15.4751 12.0584L15.084 11.6673C14.466 11.0493 13.6769 10.75 12.8766 10.75ZM22.3192 17.208L17.318 22.2097C16.5976 22.9301 15.4132 22.9301 14.6929 22.2097L9.61016 17.1357C9.60998 17.1355 9.61034 17.1358 9.61016 17.1357C7.79679 15.3324 7.79643 12.4081 9.61016 10.6051L10.1389 11.137L9.60857 10.6067C10.5086 9.70658 11.6927 9.25 12.8766 9.25C13.9997 9.25 15.1164 9.65279 16.0055 10.473C17.8164 8.80499 20.6362 8.84956 22.3932 10.6067C23.2932 11.5068 23.7497 12.691 23.7497 13.8749C23.7497 15.0575 23.3032 16.233 22.3932 17.1432C22.3697 17.1666 22.345 17.1882 22.3192 17.208Z" fill="#999999"/>
</svg>
