<svg width="40" height="40" viewBox="0 0 40 40" fill="none" xmlns="http://www.w3.org/2000/svg">
<path d="M0.5 20C0.5 9.23045 9.23045 0.5 20 0.5C30.7696 0.5 39.5 9.23045 39.5 20C39.5 30.7696 30.7696 39.5 20 39.5C9.23045 39.5 0.5 30.7696 0.5 20Z" fill="white"/>
<path d="M0.5 20C0.5 9.23045 9.23045 0.5 20 0.5C30.7696 0.5 39.5 9.23045 39.5 20C39.5 30.7696 30.7696 39.5 20 39.5C9.23045 39.5 0.5 30.7696 0.5 20Z" stroke="#D9D9D9"/>
<g clip-path="url(#clip0_5422_17972)">
<path fill-rule="evenodd" clip-rule="evenodd" d="M16 14C15.2877 14 14.6046 14.283 14.1009 14.7866C13.7623 15.1252 13.5235 15.5449 13.4033 16H12V17.3714H13.4033C13.5235 17.8265 13.7623 18.2462 14.1009 18.5848C14.6046 19.0885 15.2877 19.3714 16 19.3714C16.7123 19.3714 17.3954 19.0885 17.8991 18.5848C18.2377 18.2462 18.4765 17.8265 18.5967 17.3714H28V16H18.5967C18.4765 15.5449 18.2377 15.1252 17.8991 14.7866C17.3954 14.283 16.7123 14 16 14ZM15.0707 15.7564C15.3171 15.5099 15.6514 15.3714 16 15.3714C16.3486 15.3714 16.6829 15.5099 16.9293 15.7564C17.1758 16.0029 17.3143 16.3371 17.3143 16.6857C17.3143 17.0343 17.1758 17.3686 16.9293 17.6151C16.6829 17.8615 16.3486 18 16 18C15.6514 18 15.3171 17.8615 15.0707 17.6151C14.8242 17.3686 14.6857 17.0343 14.6857 16.6857C14.6857 16.3371 14.8242 16.0029 15.0707 15.7564ZM24 21C23.2877 21 22.6046 21.283 22.1009 21.7866C21.7623 22.1252 21.5235 22.5449 21.4033 23H12V24.3714H21.4033C21.5235 24.8265 21.7623 25.2462 22.1009 25.5848C22.6046 26.0885 23.2877 26.3714 24 26.3714C24.7123 26.3714 25.3954 26.0885 25.8991 25.5848C26.2377 25.2462 26.4765 24.8265 26.5967 24.3714H28V23H26.5967C26.4765 22.5449 26.2377 22.1252 25.8991 21.7866C25.3954 21.283 24.7123 21 24 21ZM23.0707 22.7564C23.3171 22.5099 23.6514 22.3714 24 22.3714C24.3486 22.3714 24.6829 22.5099 24.9293 22.7564C25.1758 23.0029 25.3143 23.3371 25.3143 23.6857C25.3143 24.0343 25.1758 24.3686 24.9293 24.6151C24.6829 24.8615 24.3486 25 24 25C23.6514 25 23.3171 24.8615 23.0707 24.6151C22.8242 24.3686 22.6857 24.0343 22.6857 23.6857C22.6857 23.3371 22.8242 23.0029 23.0707 22.7564Z" fill="#1A1A1A"/>
</g>
<defs>
<clipPath id="clip0_5422_17972">
<rect width="20" height="20" fill="white" transform="translate(10 10)"/>
</clipPath>
</defs>
</svg>
