<svg width="24" height="24" viewBox="0 0 24 24" fill="none" xmlns="http://www.w3.org/2000/svg">
<path d="M0.5 12C0.5 5.64873 5.64873 0.5 12 0.5C18.3513 0.5 23.5 5.64873 23.5 12C23.5 18.3513 18.3513 23.5 12 23.5C5.64873 23.5 0.5 18.3513 0.5 12Z" fill="white"/>
<path d="M0.5 12C0.5 5.64873 5.64873 0.5 12 0.5C18.3513 0.5 23.5 5.64873 23.5 12C23.5 18.3513 18.3513 23.5 12 23.5C5.64873 23.5 0.5 18.3513 0.5 12Z" stroke="#D9D9D9"/>
<path d="M16.6925 8.20852C15.3528 6.86883 13.1973 6.86281 11.8503 8.19045C11.1772 7.52695 10.3131 7.20072 9.4383 7.20072C8.55581 7.20072 7.6841 7.53274 7.00851 8.20811C5.66178 9.54838 5.66309 11.723 7.00128 13.0681L7.0021 13.0689L10.9261 16.9929C11.4318 17.4987 12.2628 17.4987 12.7685 16.9929L16.6925 13.0689C17.3681 12.3933 17.7003 11.5214 17.7003 10.6387C17.7003 9.75606 17.3681 8.88417 16.6925 8.20852Z" fill="#004D45"/>
</svg>
