<svg width="24" height="24" viewBox="0 0 24 24" fill="none" xmlns="http://www.w3.org/2000/svg">
<g clip-path="url(#clip0_4892_4489)">
<path fill-rule="evenodd" clip-rule="evenodd" d="M12 3.81818C10.018 3.81818 8.47366 5.29361 8.47366 7.04132C8.47366 8.78904 10.018 10.2645 12 10.2645C13.9819 10.2645 15.5263 8.78904 15.5263 7.04132C15.5263 5.29361 13.9819 3.81818 12 3.81818ZM6.57892 7.04132C6.57892 4.2247 9.0404 2 12 2C14.9595 2 17.421 4.2247 17.421 7.04132C17.421 9.85795 14.9595 12.0826 12 12.0826C9.0404 12.0826 6.57892 9.85795 6.57892 7.04132Z" fill="black"/>
<path fill-rule="evenodd" clip-rule="evenodd" d="M11.3289 12.0826C7.74672 12.0826 4.89474 14.7659 4.89474 17.9917V19.7273C4.89474 19.9449 5.0983 20.1818 5.42368 20.1818H18.5763C18.9017 20.1818 19.1053 19.9449 19.1053 19.7273V17.9917C19.1053 14.7659 16.2533 12.0826 12.6711 12.0826H11.3289ZM3 17.9917C3 13.697 6.76907 10.2645 11.3289 10.2645H12.6711C17.2309 10.2645 21 13.697 21 17.9917V19.7273C21 21.0138 19.8794 22 18.5763 22H5.42368C4.12065 22 3 21.0138 3 19.7273V17.9917Z" fill="black"/>
<path fill-rule="evenodd" clip-rule="evenodd" d="M12 3.81818C10.018 3.81818 8.47366 5.29361 8.47366 7.04132C8.47366 8.78904 10.018 10.2645 12 10.2645C13.9819 10.2645 15.5263 8.78904 15.5263 7.04132C15.5263 5.29361 13.9819 3.81818 12 3.81818ZM6.57892 7.04132C6.57892 4.2247 9.0404 2 12 2C14.9595 2 17.421 4.2247 17.421 7.04132C17.421 9.85795 14.9595 12.0826 12 12.0826C9.0404 12.0826 6.57892 9.85795 6.57892 7.04132Z" fill="black"/>
<path fill-rule="evenodd" clip-rule="evenodd" d="M11.3289 12.0826C7.74672 12.0826 4.89474 14.7659 4.89474 17.9917V19.7273C4.89474 19.9449 5.0983 20.1818 5.42368 20.1818H18.5763C18.9017 20.1818 19.1053 19.9449 19.1053 19.7273V17.9917C19.1053 14.7659 16.2533 12.0826 12.6711 12.0826H11.3289ZM3 17.9917C3 13.697 6.76907 10.2645 11.3289 10.2645H12.6711C17.2309 10.2645 21 13.697 21 17.9917V19.7273C21 21.0138 19.8794 22 18.5763 22H5.42368C4.12065 22 3 21.0138 3 19.7273V17.9917Z" fill="black"/>
</g>
<defs>
<clipPath id="clip0_4892_4489">
<rect width="24" height="24" fill="white"/>
</clipPath>
</defs>
</svg>
