<svg width="20" height="20" viewBox="0 0 20 20" fill="none" xmlns="http://www.w3.org/2000/svg">
<path fill-rule="evenodd" clip-rule="evenodd" d="M16.1671 4.85005C14.7282 3.38332 12.4204 3.38332 10.9814 4.85005L10.537 5.30298C10.396 5.44674 10.2031 5.52774 10.0017 5.52774C9.80027 5.52774 9.60734 5.44674 9.46629 5.30298L9.02194 4.85005C8.296 4.1101 7.37092 3.75226 6.42908 3.75226C5.48723 3.75226 4.56216 4.1101 3.83622 4.85005L3.83486 4.85143C2.3906 6.31602 2.38844 8.70188 3.82805 10.1775C3.82826 10.1778 3.82847 10.178 3.82868 10.1782L9.63945 16.1011C9.83423 16.2996 10.1602 16.2996 10.355 16.1011L16.1671 10.1768C16.8938 9.43614 17.25 8.48631 17.25 7.51343C17.25 6.54054 16.8938 5.59072 16.1671 4.85005ZM10.0017 3.70898C12.0345 1.73393 15.241 1.76413 17.2379 3.79958C18.2531 4.83439 18.75 6.16732 18.75 7.51343C18.75 8.85953 18.2531 10.1925 17.2379 11.2273L11.4257 17.1516C10.643 17.9495 9.3515 17.9495 8.5687 17.1516L2.75658 11.2273L2.75523 11.2259C0.747528 9.1689 0.745351 5.84886 2.76614 3.79889C3.78197 2.76383 5.09614 2.25226 6.42908 2.25226C7.72284 2.25226 8.99893 2.7342 10.0017 3.70898Z" fill="#004D45"/>
</svg>
