<svg width="20" height="20" viewBox="0 0 20 20" fill="none" xmlns="http://www.w3.org/2000/svg">
<path d="M2.05728 7.99189C6.71951 3.32967 14.2805 3.32967 18.9427 7.99189L20 6.93461C14.7539 1.68846 6.24614 1.68846 1 6.93461L2.05728 7.99189Z" fill="#004D45"/>
<path d="M4.74889 10.6832C7.92585 7.50622 13.0745 7.50622 16.2515 10.6832L17.3088 9.6259C13.5479 5.86501 7.45249 5.86501 3.6916 9.6259L4.74889 10.6832Z" fill="#004D45"/>
<path d="M13.5593 13.3747C11.8676 11.683 9.13122 11.683 7.43952 13.3747L6.38223 12.3174C8.65786 10.0418 12.341 10.0418 14.6166 12.3174L13.5593 13.3747Z" fill="#004D45"/>
<path d="M11.9952 16.2254C11.9952 17.0511 11.3257 17.7206 10.4999 17.7206C9.67415 17.7206 9.00472 17.0511 9.00472 16.2254C9.00472 15.3996 9.67415 14.7301 10.4999 14.7301C11.3257 14.7301 11.9952 15.3996 11.9952 16.2254Z" fill="#004D45"/>
</svg>
