<svg width="20" height="20" viewBox="0 0 20 20" fill="none" xmlns="http://www.w3.org/2000/svg">
<path fill-rule="evenodd" clip-rule="evenodd" d="M2.75 9.11111C2.75 5.59644 5.59644 2.75 9.11111 2.75V1.25C4.76801 1.25 1.25 4.76801 1.25 9.11111C1.25 13.4542 4.76801 16.9722 9.11111 16.9722C11.0124 16.9722 12.7556 16.298 14.1147 15.1755L17.4696 18.5303L18.5302 17.4697L15.1754 14.1149C16.298 12.7557 16.9722 11.0125 16.9722 9.11111H15.4722C15.4722 12.6258 12.6258 15.4722 9.11111 15.4722C5.59644 15.4722 2.75 12.6258 2.75 9.11111ZM16.222 4.52777H10.8887V3.02777H16.222V4.52777ZM10.8887 7.19446H14.4442V5.69446H10.8887V7.19446Z" fill="#004D45"/>
</svg>
