<svg width="96" height="96" viewBox="0 0 96 96" fill="none" xmlns="http://www.w3.org/2000/svg">
<g id="ico-img-96px">
<g id="og">
<g id="!">
<ellipse id="Ellipse 35" cx="65.6137" cy="31.8814" rx="13.8872" ry="13.8814" fill="#E6B300"/>
<g id="Group 2">
<path id="Line 56" d="M65.6152 24.9407L65.6152 32.873" stroke="#FAFBFC" stroke-width="3" stroke-linecap="round"/>
<ellipse id="Ellipse 36" cx="65.6151" cy="37.3353" rx="1.48819" ry="1.4876" fill="#FAFBFC"/>
</g>
</g>
<path id="Union" fill-rule="evenodd" clip-rule="evenodd" d="M20.6667 23.441C18.3655 23.441 16.5 25.3065 16.5 27.6077V62.9271C16.5 65.2283 18.3655 67.0938 20.6667 67.0938H44.2744V75.0004H32.8789V78.0004H58.6693V75.0004H47.2744V67.0938H70.882C73.1827 67.0938 75.0486 65.2294 75.0486 62.9277V62.8961V62.8643V62.8325V62.8007V62.7688V62.7368V62.7048V62.6728V62.6407V62.6086V62.5764V62.5441V62.5119V62.4795V62.4472V62.4147V62.3823V62.3498V62.3172V62.2846V62.252V62.2193V62.1866V62.1538V62.121V62.0882V62.0553V62.0224V61.9894V61.9564V61.9234V61.8903V61.8572V61.824V61.7908V61.7576V61.7243V61.6911V61.6577V61.6244V61.591V61.5575V61.5241V61.4906V61.457V61.4235V61.3899V61.3562V61.3226V61.2889V61.2552V61.2214V61.1877V61.1539V61.12V61.0862V61.0523V61.0184V60.9844V60.9505V60.9165V60.8825V60.8484V60.8144V60.7803V60.7462V60.7121V60.6779V60.6437V60.6096V60.5753V60.5411V60.5069V60.4726V60.4383V60.404V60.3696V60.3353V60.3009V60.2666V60.2322V60.1978V60.1633V60.1289V60.0944V60.06V60.0255V59.991V59.9565V59.9219V59.8874V59.8529V59.8183V59.7837V59.7492V59.7146V59.68V59.6454V59.6108V59.5761V59.5415V59.5069V59.4722V59.4376V59.4029V59.3683V59.3336V59.2989V59.2643V59.2296V59.1949V59.1602V59.1256V59.0909V59.0562V59.0215V58.9868V58.9521V58.9174V58.8828V58.8481V58.8134V58.7787V58.744V58.7094V58.6747V58.64V58.6054V58.5707V58.5361V58.5014V58.4668V58.4322V58.3975V58.3629V58.3283V58.2937V58.2591V58.2246V58.19V58.1554V58.1209V58.0863V58.0518V58.0173V57.9828V57.9483V57.9138V57.8794V57.8449V57.8105V57.7761V57.7417V57.7073V57.6729V57.6386V57.6042V57.5699V57.5356V57.5014V57.4671V57.4329V57.3986V57.3644V57.3303V57.2961V57.262V57.2279V57.1938V57.1597V57.1257V57.0916V57.0577V57.0237V56.9897V56.9558V56.9219V56.8881V56.8542V56.8204V56.7866V56.7529V56.7192V56.6855V56.6518V56.6182V56.5846V56.551V56.5175V56.484V56.4505V56.417V56.3836V56.3503V56.3169V56.2836V56.2503V56.2171V56.1839V56.1507V56.1176V56.0845V56.0515V56.0185V55.9855V55.9526V55.9197V55.8868V55.854V55.8212V55.7885V55.7558V55.7232V55.6906V55.658V55.6255V55.593V55.5606V55.5282V55.4959V55.4636V55.4313V55.3991V55.367V55.3349V55.3028V55.2708V55.2389V55.207V55.1751V55.1433V55.1115V55.0798V55.0482V55.0166V54.985V54.9535V54.9221V54.8907V54.8593V54.8281V54.7968V54.7657V54.7346V54.7035V54.6725V54.6416V54.6107V54.5798V54.5491V54.5184V54.4877V54.4571V54.4266V54.3961V54.3657V54.3354V54.3051V54.2749V54.2447V54.2146V54.1846V54.1546V54.1247V54.0949V54.0651V54.0354V54.0058V53.9762V53.9467V53.9173V53.8879V53.8586V53.8294V53.8003V53.7712V53.7422V53.7132V53.6843V53.6555V53.6268V53.5982V53.5696V53.5411V53.5126V53.4843V53.456V53.4278V53.3997V53.3716V53.3436V53.3157V53.2879V53.2602V53.2325V53.2049V53.1774V53.15V53.1226V53.0954V53.0682V53.0411V53.0141V52.9871V52.9603V52.9335V52.9068V52.8802V52.8537V52.8273V52.8009V52.7747V52.7485V52.7224V52.6964V52.6705V52.6447V52.6189V52.5933V52.5677V52.5423V52.5169V52.4916V52.4664V52.4413V52.4163V52.3914V52.3666V52.3419V52.3173V52.2927V52.2683V52.2439V52.2197V52.1955V52.1715V52.1475V52.1237V52.0999V52.0762V52.0527V52.0292V52.0058V51.9826V51.9594V51.9363V51.9134V51.8905V51.8678V51.8451V51.8226V51.8001V51.7778V51.7555V51.7334V51.7114V51.6895V51.6677V51.646V51.6244V51.6029V51.5815V51.5602V51.539V51.518V51.4971V51.4762V51.4555V51.4349V51.4144V51.394V51.3737V51.3536V51.3335V51.3136V51.2938V51.2741V51.2545V51.235V51.2157V51.1964V51.1773V51.1583V51.1394V51.1207V51.102V51.0835V51.0651V51.0468V51.0287V51.0106V50.9927V50.9749V50.9572V50.9397V50.9222V50.9049V50.8878V50.8707V50.8538V50.837V50.8203V50.8037V50.7873V50.771V50.7548V50.7388V50.7229V50.7071V50.6914V50.6759V50.6605V50.6453V50.6301V50.6151V50.6003V50.5855V50.5709V50.5565V50.5422V50.528V50.5139V50.5V50.4862V50.4725V50.459V50.4456V50.4324V50.4193V50.4063V50.3935V50.3808V50.3683V50.3559V50.3436V50.3315V50.3195V50.3076V50.2959V50.2844V50.273V50.2617V50.2506V50.2396V50.2288V50.2181V50.2076V50.1972V50.1869V50.1768V50.1669V50.1571V50.1474V50.1379V50.1285V50.1193V50.1103V50.1014V50.0926V50.084V50.0756V50.0673V50.0591V50.0512V50.0433V50.0356V50.0281V50.0208V50.0135V50.0065V49.9996V49.9928V49.9863V49.9798V49.9736V49.9675V49.9615V49.9557V49.9501V49.9446V49.9393V49.9342V49.9292V49.9244V49.9197V49.9152V49.9109V49.9067V49.9027V49.8989V49.8952V49.8917V49.8884V49.8852V49.8822V49.8794V49.8767V49.8742V49.8719V49.8697V49.8677V49.8659V49.8643V49.8628V49.8615V49.8603V49.8594V49.8586V49.858V49.8576V49.8573L73.5486 49.8572L72.0486 49.8573V49.8576V49.858V49.8586V49.8594V49.8603V49.8615V49.8628V49.8643V49.8659V49.8677V49.8697V49.8719V49.8742V49.8767V49.8794V49.8822V49.8852V49.8884V49.8917V49.8952V49.8989V49.9027V49.9067V49.9109V49.9152V49.9197V49.9244V49.9292V49.9342V49.9393V49.9446V49.9501V49.9557V49.9615V49.9675V49.9736V49.9798V49.9863V49.9928V49.9996V50.0065V50.0135V50.0208V50.0281V50.0356V50.0433V50.0512V50.0591V50.0673V50.0756V50.084V50.0926V50.1014V50.1103V50.1193V50.1285V50.1379V50.1474V50.1571V50.1669V50.1768V50.1869V50.1972V50.2076V50.2181V50.2288V50.2396V50.2506V50.2617V50.273V50.2844V50.2959V50.3076V50.3195V50.3315V50.3436V50.3559V50.3683V50.3808V50.3935V50.4063V50.4193V50.4324V50.4456V50.459V50.4725V50.4862V50.5V50.5139V50.528V50.5422V50.5565V50.5709V50.5855V50.6003V50.6151V50.6301V50.6453V50.6605V50.6759V50.6914V50.7071V50.7229V50.7388V50.7548V50.771V50.7873V50.8037V50.8203V50.837V50.8538V50.8707V50.8878V50.9049V50.9222V50.9397V50.9572V50.9749V50.9927V51.0106V51.0287V51.0468V51.0651V51.0835V51.102V51.1207V51.1394V51.1583V51.1773V51.1964V51.2157V51.235V51.2545V51.2741V51.2938V51.3136V51.3335V51.3536V51.3737V51.394V51.4144V51.4349V51.4555V51.4762V51.4971V51.518V51.539V51.5602V51.5815V51.6029V51.6244V51.646V51.6677V51.6895V51.7114V51.7334V51.7555V51.7778V51.8001V51.8226V51.8451V51.8678V51.8905V51.9134V51.9363V51.9594V51.9826V52.0058V52.0292V52.0527V52.0762V52.0999V52.1237V52.1475V52.1715V52.1955V52.2197V52.2439V52.2683V52.2927V52.3173V52.3419V52.3666V52.3914V52.4163V52.4413V52.4664V52.4916V52.5169V52.5423V52.5677V52.5933V52.6189V52.6447V52.6705V52.6964V52.7224V52.7485V52.7747V52.8009V52.8273V52.8537V52.8802V52.9068V52.9335V52.9603V52.9871V53.0141V53.0411V53.0682V53.0954V53.1226V53.15V53.1774V53.2049V53.2325V53.2602V53.2879V53.3157V53.3436V53.3716V53.3997V53.4278V53.456V53.4843V53.5126V53.5411V53.5696V53.5982V53.6268V53.6555V53.6843V53.7132V53.7422V53.7712V53.8003V53.8294V53.8586V53.8879V53.9173V53.9467V53.9762V54.0058V54.0354V54.0651V54.0949V54.1247V54.1546V54.1846V54.2146V54.2447V54.2749V54.3051V54.3354V54.3657V54.3961V54.4266V54.4571V54.4877V54.5184V54.5491V54.5798V54.6107V54.6416V54.6725V54.7035V54.7346V54.7657V54.7968V54.8281V54.8593V54.8907V54.9221V54.9535V54.985V55.0166V55.0482V55.0798V55.1115V55.1433V55.1751V55.207V55.2389V55.2708V55.3028V55.3349V55.367V55.3991V55.4313V55.4636V55.4959V55.5282V55.5606V55.593V55.6255V55.658V55.6906V55.7232V55.7558V55.7885V55.8212V55.854V55.8868V55.9197V55.9526V55.9855V56.0185V56.0515V56.0845V56.1176V56.1507V56.1839V56.2171V56.2503V56.2836V56.3169V56.3503V56.3836V56.417V56.4505V56.484V56.5175V56.551V56.5846V56.6182V56.6518V56.6855V56.7192V56.7529V56.7866V56.8204V56.8542V56.8881V56.9219V56.9558V56.9897V57.0237V57.0577V57.0916V57.1257V57.1597V57.1938V57.2279V57.262V57.2961V57.3303V57.3644V57.3986V57.4329V57.4671V57.5014V57.5356V57.5699V57.6042V57.6386V57.6729V57.7073V57.7417V57.7761V57.8105V57.8449V57.8794V57.9138V57.9483V57.9828V58.0173V58.0518V58.0863V58.1209V58.1554V58.19V58.2246V58.2591V58.2937V58.3283V58.3629V58.3975V58.4322V58.4668V58.5014V58.5361V58.5707V58.6054V58.64V58.6747V58.7094V58.744V58.7787V58.8134V58.8481V58.8828V58.9174V58.9521V58.9868V59.0215V59.0562V59.0909V59.1256V59.1602V59.1949V59.2296V59.2643V59.2989V59.3336V59.3683V59.4029V59.4376V59.4722V59.5069V59.5415V59.5761V59.6108V59.6454V59.68V59.7146V59.7492V59.7837V59.8183V59.8529V59.8874V59.9219V59.9565V59.991V60.0255V60.06V60.0944V60.1289V60.1633V60.1978V60.2322V60.2666V60.3009V60.3353V60.3696V60.404V60.4383V60.4726V60.5069V60.5411V60.5753V60.6096V60.6437V60.6779V60.7121V60.7462V60.7803V60.8144V60.8484V60.8825V60.9165V60.9505V60.9844V61.0184V61.0523V61.0862V61.12V61.1539V61.1877V61.2214V61.2552V61.2889V61.3226V61.3562V61.3899V61.4235V61.457V61.4906V61.5241V61.5575V61.591V61.6244V61.6577V61.6911V61.7243V61.7576V61.7908V61.824V61.8572V61.8903V61.9234V61.9564V61.9894V62.0224V62.0553V62.0882V62.121V62.1538V62.1866V62.2193V62.252V62.2846V62.3172V62.3498V62.3823V62.4147V62.4472V62.4795V62.5119V62.5441V62.5764V62.6086V62.6407V62.6728V62.7048V62.7368V62.7688V62.8007V62.8325V62.8643V62.8961V62.9277C72.0486 63.5716 71.5268 64.0938 70.882 64.0938H20.6667C20.0223 64.0938 19.5 63.5714 19.5 62.9271V27.6077C19.5 26.9633 20.0223 26.441 20.6667 26.441H46.4356V23.441H20.6667ZM40.8154 60.2448H50.7348V57.2448H40.8154V60.2448Z" fill="#004D45"/>
</g>
</g>
</svg>
