<svg width="20" height="20" viewBox="0 0 20 20" fill="none" xmlns="http://www.w3.org/2000/svg">
<path fill-rule="evenodd" clip-rule="evenodd" d="M5.52048 3.38353C5.33916 3.30612 5.13194 3.3188 4.96141 3.41775L2.93641 4.59275C2.75928 4.69553 2.64374 4.87857 2.62714 5.08269C2.61055 5.28681 2.695 5.48611 2.85321 5.61615L7.30781 9.27787L6.35165 9.83267L4.12737 8.73155C3.93957 8.63858 3.71767 8.64591 3.53641 8.75108L2.18641 9.53442C2.01702 9.63271 1.90349 9.80472 1.87971 9.99912C1.85593 10.1935 1.92465 10.3878 2.06536 10.524L5.7237 14.0657C6.17028 14.4974 6.85844 14.5921 7.40519 14.2741L7.40667 14.2732L16.9625 8.75798L16.967 8.75538C17.8784 8.21926 18.3956 7.06039 17.9724 6.00384C17.9622 5.96417 17.9481 5.9252 17.93 5.88753C17.6436 5.29184 17.1225 4.86794 16.5093 4.71224C15.9653 4.56378 15.3784 4.62283 14.8548 4.92509L12.417 6.32775L5.52048 3.38353ZM16.1985 5.92301C16.4264 5.97998 16.634 6.13032 16.7667 6.3596C16.774 6.38092 16.7824 6.40197 16.7921 6.42264C16.9854 6.83702 16.8073 7.39777 16.3352 7.67676L16.3332 7.67796L6.77933 13.192L6.77683 13.1935C6.72391 13.2243 6.64606 13.2186 6.59305 13.1675L3.5286 10.2008L3.87352 10.0007L6.0978 11.1018C6.2856 11.1948 6.50751 11.1874 6.68876 11.0823L8.71376 9.90726C8.89089 9.80448 9.00644 9.62144 9.02303 9.41732C9.03963 9.2132 8.95517 9.0139 8.79697 8.88385L4.34236 5.22214L5.3178 4.65615L12.213 7.59981C12.3936 7.67691 12.5999 7.66466 12.7701 7.56673L15.4785 6.0084L15.4794 6.00784C15.7033 5.8785 15.9464 5.85349 16.1835 5.91905L16.1985 5.92301Z" fill="#1A1A1A"/>
<path d="M1.66675 17.7913H18.3334V16.5413H1.66675V17.7913Z" fill="#1A1A1A"/>
</svg>
