<svg width="20" height="20" viewBox="0 0 20 20" fill="none" xmlns="http://www.w3.org/2000/svg">
<path fill-rule="evenodd" clip-rule="evenodd" d="M7.19434 4.77778C7.19434 4.21421 7.65855 3.75 8.22211 3.75H11.7777C12.3412 3.75 12.8054 4.21421 12.8054 4.77778V6.43665H7.19434V4.77778ZM5.69434 6.43665V4.77778C5.69434 3.38579 6.83012 2.25 8.22211 2.25H11.7777C13.1697 2.25 14.3054 3.38579 14.3054 4.77778V6.43665H16.2222C17.6183 6.43665 18.75 7.56837 18.75 8.96442V15.4444C18.75 16.8405 17.6183 17.9722 16.2222 17.9722H13.5611C13.5592 17.9722 13.5573 17.9722 13.5554 17.9722H6.44434C6.44244 17.9722 6.44055 17.9722 6.43867 17.9722H3.77778C2.38172 17.9722 1.25 16.8405 1.25 15.4444V8.96442C1.25 7.56837 2.38172 6.43665 3.77778 6.43665H5.69434ZM5.69434 16.4722H3.77778C3.21015 16.4722 2.75 16.012 2.75 15.4444V8.96442C2.75 8.3968 3.21015 7.93665 3.77778 7.93665H5.69434V16.4722ZM7.19434 16.4722V7.93665H12.8054V16.4722H7.19434ZM14.3054 16.4722H16.2222C16.7898 16.4722 17.25 16.012 17.25 15.4444V8.96442C17.25 8.3968 16.7898 7.93665 16.2222 7.93665H14.3054V16.4722Z" fill="#004D45"/>
</svg>
