<svg width="20" height="20" viewBox="0 0 20 20" fill="none" xmlns="http://www.w3.org/2000/svg">
<path fill-rule="evenodd" clip-rule="evenodd" d="M10.75 3.77778C10.75 3.21421 11.2142 2.75 11.7778 2.75C12.3413 2.75 12.8056 3.21421 12.8056 3.77778H14.3056C14.3056 2.38579 13.1698 1.25 11.7778 1.25C10.3858 1.25 9.25 2.38579 9.25 3.77778V8.22222H10.75V3.77778ZM1.25 10C1.25 9.58579 1.58579 9.25 2 9.25H6.5829V7.33332C6.5829 6.76976 6.11869 6.30554 5.55512 6.30554C4.99156 6.30554 4.52734 6.76976 4.52734 7.33332H3.02734C3.02734 5.94133 4.16313 4.80554 5.55512 4.80554C6.94711 4.80554 8.0829 5.94133 8.0829 7.33332V9.25H11.916V7.33332C11.916 5.94133 13.0518 4.80554 14.4438 4.80554C15.8358 4.80554 16.9716 5.94133 16.9716 7.33332H15.4716C15.4716 6.76976 15.0074 6.30554 14.4438 6.30554C13.8802 6.30554 13.416 6.76976 13.416 7.33332V9.25H18C18.4142 9.25 18.75 9.58579 18.75 10V11.7778C18.75 12.192 18.4142 12.5278 18 12.5278H17.8609V16.2223C17.8609 17.6143 16.7251 18.7501 15.3331 18.7501H4.66645C3.27446 18.7501 2.13867 17.6143 2.13867 16.2223V12.5278H2C1.58579 12.5278 1.25 12.192 1.25 11.7778V10ZM2.75 10.75V11.0278H17.25V10.75H2.75ZM3.63867 12.5278V16.2223C3.63867 16.7858 4.10289 17.2501 4.66645 17.2501H15.3331C15.8967 17.2501 16.3609 16.7858 16.3609 16.2223V12.5278H3.63867Z" fill="#004D45"/>
</svg>
