<svg width="20" height="20" viewBox="0 0 20 20" fill="none" xmlns="http://www.w3.org/2000/svg">
<path fill-rule="evenodd" clip-rule="evenodd" d="M5.08919 8.8546C3.62405 8.56483 2.51758 7.27569 2.51758 5.72642V4.87172C2.51758 3.10875 3.95035 1.68262 5.71401 1.68262C7.47766 1.68262 8.91044 3.10875 8.91044 4.87172V5.72642C8.91044 7.27556 7.80415 8.56461 6.33919 8.85452V17.6922C6.33919 18.0374 6.05937 18.3172 5.71419 18.3172C5.36901 18.3172 5.08919 18.0374 5.08919 17.6922V8.8546ZM3.76758 4.87172C3.76758 3.80246 4.63734 2.93262 5.71401 2.93262C6.79067 2.93262 7.66044 3.80246 7.66044 4.87172V5.72642C7.66044 6.79365 6.79397 7.66223 5.72013 7.66551L5.71419 7.66549L5.70817 7.66551C4.6342 7.66238 3.76758 6.79374 3.76758 5.72642V4.87172Z" fill="white"/>
<path d="M11.7144 1.68262C12.0595 1.68262 12.3394 1.96244 12.3394 2.30762V5.72642C12.3394 6.58075 12.8901 7.30501 13.6602 7.56385V2.30762C13.6602 1.96244 13.94 1.68262 14.2852 1.68262C14.6303 1.68262 14.9102 1.96244 14.9102 2.30762V7.56428C15.6809 7.30579 16.2322 6.58122 16.2322 5.72642V2.30762C16.2322 1.96244 16.512 1.68262 16.8572 1.68262C17.2024 1.68262 17.4822 1.96244 17.4822 2.30762V5.72642C17.4822 7.27847 16.3772 8.5661 14.9102 8.85494V17.6922C14.9102 18.0374 14.6303 18.3172 14.2852 18.3172C13.94 18.3172 13.6602 18.0374 13.6602 17.6922V8.85469C12.1937 8.56537 11.0894 7.27803 11.0894 5.72642V2.30762C11.0894 1.96244 11.3692 1.68262 11.7144 1.68262Z" fill="white"/>
</svg>
