<svg width="56" height="56" viewBox="0 0 56 56" fill="none" xmlns="http://www.w3.org/2000/svg">
<path d="M45.2588 27.2784C45.6923 27.56 46.1169 27.8592 46.515 28.1848C46.1169 27.8504 45.7012 27.5512 45.2588 27.2784Z" fill="#719C98"/>
<path d="M49.2308 31.3528V13.04C49.2308 10.6112 47.2492 8.64 44.8077 8.64H37.7308V6.88C37.7308 6.396 37.3327 6 36.8462 6C36.3596 6 35.9615 6.396 35.9615 6.88V8.64H18.2692V6.88C18.2692 6.396 17.8712 6 17.3846 6C16.8981 6 16.5 6.396 16.5 6.88V8.64H9.42308C6.98154 8.64 5 10.6112 5 13.04V42.08C5 44.5088 6.98154 46.48 9.42308 46.48H29.9638C32.2727 48.7504 35.3423 50 38.6154 50C45.4446 50 51 44.4736 51 37.68C51 35.4272 50.3896 33.2448 49.2308 31.3528ZM6.76923 13.04C6.76923 11.588 7.96346 10.4 9.42308 10.4H16.5V12.16C16.5 12.644 16.8981 13.04 17.3846 13.04C17.8712 13.04 18.2692 12.644 18.2692 12.16V10.4H35.9615V12.16C35.9615 12.644 36.3596 13.04 36.8462 13.04C37.3327 13.04 37.7308 12.644 37.7308 12.16V10.4H44.8077C46.2673 10.4 47.4615 11.588 47.4615 13.04V17.44H6.76923V13.04ZM9.42308 44.72C7.96346 44.72 6.76923 43.532 6.76923 42.08V19.2H47.4615V29.056C47.3465 28.9328 47.2227 28.8184 47.0988 28.704C46.9042 28.5192 46.7096 28.352 46.515 28.1848C46.1169 27.8592 45.6923 27.56 45.2588 27.2784C44.8519 27.0144 44.4185 26.7768 43.9762 26.5744C43.8081 26.4864 43.6312 26.416 43.4542 26.3368C43.18 26.2224 42.9058 26.1168 42.6227 26.02C42.5165 25.9848 42.4192 25.9496 42.3131 25.9232C41.9062 25.7912 41.4992 25.6856 41.0835 25.6064C40.9596 25.58 40.8269 25.5536 40.6942 25.536C40.535 25.5096 40.3846 25.4832 40.2254 25.4656C40.1723 25.4568 40.1192 25.448 40.0662 25.448C39.5885 25.3864 39.1019 25.36 38.6154 25.36C31.7862 25.36 26.2308 30.8864 26.2308 37.68C26.2308 37.8824 26.2396 38.076 26.2485 38.2784C26.2573 38.516 26.275 38.7448 26.3015 38.9736C26.3015 39.0176 26.3104 39.0528 26.3104 39.088C26.3281 39.2024 26.3369 39.3168 26.3635 39.4312C26.3635 39.5016 26.3723 39.572 26.3988 39.6424C26.4254 39.8272 26.4608 40.0032 26.4962 40.188C26.5315 40.3992 26.5758 40.6016 26.6377 40.804C26.7173 41.1208 26.8146 41.4288 26.9208 41.7368C27.0181 42.036 27.1331 42.3264 27.2658 42.608C27.3631 42.8368 27.4692 43.0568 27.5842 43.2768C27.6815 43.4704 27.7877 43.664 27.9027 43.8576C28.0708 44.148 28.2565 44.4384 28.4512 44.72H9.42308ZM38.6154 48.24C35.6962 48.24 32.9804 47.0872 30.9635 44.9928C29.0527 43.0216 28 40.4256 28 37.68C28 31.8544 32.7592 27.12 38.6154 27.12C38.8719 27.12 39.1285 27.1288 39.3762 27.1464C39.6062 27.164 39.845 27.1904 40.0662 27.2256C40.19 27.2344 40.3138 27.252 40.4288 27.2784C40.65 27.3136 40.8712 27.3576 41.0835 27.4104C41.2869 27.4544 41.4815 27.5072 41.6762 27.5688C41.8708 27.6216 42.0565 27.6832 42.2423 27.7536C42.4192 27.8152 42.5962 27.8768 42.7642 27.9648C43.5073 28.2728 44.2062 28.6688 44.8608 29.144C45.02 29.2584 45.1881 29.3816 45.3385 29.5136C45.5065 29.6456 45.6658 29.7776 45.8162 29.9272C45.8692 29.9712 45.9135 30.0152 45.9577 30.068C46.0992 30.1912 46.2319 30.3232 46.3558 30.464C46.5062 30.6224 46.6654 30.7896 46.8069 30.9656C47.09 31.3088 47.3554 31.6784 47.6031 32.0656C47.6119 32.0744 47.6119 32.0832 47.6208 32.092C48.6735 33.7552 49.2308 35.6824 49.2308 37.68C49.2308 43.5056 44.4715 48.24 38.6154 48.24Z" fill="#719C98"/>
<path d="M40.3846 30.64V37.68C40.3846 37.9176 40.2873 38.1376 40.1281 38.3048L36.5896 41.8248L35.3335 40.5752L38.6154 37.3192V30.64H40.3846Z" fill="#719C98"/>
<path d="M27.4781 26.24L24.205 29.5048L22.9488 28.2552L24.0988 27.12H14.2088L15.3588 28.2552L14.1027 29.5048L10.8296 26.24L14.1027 22.9752L15.3588 24.2248L14.2088 25.36H24.0988L22.9488 24.2248L24.205 22.9752L27.4781 26.24Z" fill="#719C98"/>
</svg>
