<svg width="20" height="20" viewBox="0 0 20 20" fill="none" xmlns="http://www.w3.org/2000/svg">
<path fill-rule="evenodd" clip-rule="evenodd" d="M4.4502 3.8C4.4502 3.22421 4.92441 2.75 5.5002 2.75H9.25V4.7H10.75V2.75H14.5002C15.076 2.75 15.5502 3.22421 15.5502 3.8V17.45H10.75V15.5H9.25V17.45H4.4502V3.8ZM5.5002 1.25C4.09598 1.25 2.9502 2.39579 2.9502 3.8V17.45H1V18.95H19V17.45H17.0502V3.8C17.0502 2.39579 15.9044 1.25 14.5002 1.25H5.5002ZM10.0002 6.65002C10.1991 6.65002 10.3899 6.72904 10.5305 6.86969L12.3305 8.66969L11.2699 9.73035L10.0002 8.46068L8.73053 9.73035L7.66987 8.66969L9.46986 6.86969C9.61052 6.72904 9.80128 6.65002 10.0002 6.65002ZM7.66987 11.5303L9.46986 13.3303C9.61052 13.471 9.80128 13.55 10.0002 13.55C10.1991 13.55 10.3899 13.471 10.5305 13.3303L12.3305 11.5303L11.2699 10.4697L10.0002 11.7393L8.73053 10.4697L7.66987 11.5303Z" fill="#004D45"/>
</svg>
