<svg width="24" height="24" viewBox="0 0 24 24" fill="none" xmlns="http://www.w3.org/2000/svg">
<g id="ico-24px-Dark">
<g id="Union">
<path fill-rule="evenodd" clip-rule="evenodd" d="M15.6005 6.10718C14.3342 6.10718 13.3076 7.13373 13.3076 8.40003C13.3076 9.66635 14.3342 10.6929 15.6005 10.6929C16.8668 10.6929 17.8933 9.66635 17.8933 8.40003C17.8933 7.13373 16.8668 6.10718 15.6005 6.10718ZM14.8076 8.40003C14.8076 7.96215 15.1626 7.60718 15.6005 7.60718C16.0384 7.60718 16.3933 7.96215 16.3933 8.40003C16.3933 8.83792 16.0384 9.19289 15.6005 9.19289C15.1626 9.19289 14.8076 8.83792 14.8076 8.40003Z" fill="white"/>
<path fill-rule="evenodd" clip-rule="evenodd" d="M3.02148 5.60234V18.5829C3.02148 19.9752 4.25705 20.9786 5.60234 20.9786H18.3978C19.7431 20.9786 20.9786 19.9752 20.9786 18.5829V5.60234C20.9786 4.18013 19.82 3.02148 18.3978 3.02148H5.60234C4.18013 3.02148 3.02148 4.18013 3.02148 5.60234ZM5.60234 4.52148C5.00856 4.52148 4.52148 5.00856 4.52148 5.60234V15.9931L9.57475 11.4427C9.85988 11.1859 10.2928 11.1858 10.5781 11.4423L13.955 14.4788L16.0456 12.6039C16.3308 12.3481 16.763 12.3484 17.0479 12.6047L19.4786 14.791V5.60234C19.4786 5.00856 18.9916 4.52148 18.3978 4.52148H5.60234ZM4.52148 18.5829V18.0117L10.077 13.009L13.4529 16.0446C13.7377 16.3008 14.1699 16.301 14.4551 16.0453L16.5456 14.1704L19.4786 16.8085V18.5829C19.4786 19.0008 19.0685 19.4786 18.3978 19.4786H5.60234C4.93163 19.4786 4.52148 19.0008 4.52148 18.5829Z" fill="white"/>
</g>
</g>
</svg>
