<svg width="24" height="24" viewBox="0 0 24 24" fill="none" xmlns="http://www.w3.org/2000/svg">
<path d="M0 12C0 5.37258 5.37258 0 12 0C18.6274 0 24 5.37258 24 12C24 18.6274 18.6274 24 12 24C5.37258 24 0 18.6274 0 12Z" fill="#F2F2F2"/>
<path d="M12 18C8.6935 18 6 15.3086 6 12.0046C6 8.7007 8.6935 6 12 6C13.3003 6 14.5356 6.40835 15.5387 7.16937L15.5387 6.16705L16.9319 6.16705L16.9319 8.82135C16.9319 8.92343 16.904 9.0348 16.8576 9.12761C16.7461 9.36891 16.5046 9.5174 16.2353 9.5174L13.5882 9.5174L13.5882 8.12529L14.4892 8.12529C13.7554 7.65197 12.9009 7.39211 12 7.39211C9.45511 7.39211 7.39319 9.46172 7.39319 12.0046C7.39319 14.5476 9.45511 16.6079 12 16.6079C14.5449 16.6079 16.6068 14.5383 16.6068 12.0046L18 12.0046C18 15.3086 15.3065 18 12 18Z" fill="#999999"/>
</svg>
