<svg width="20" height="20" viewBox="0 0 20 20" fill="none" xmlns="http://www.w3.org/2000/svg">
<path fill-rule="evenodd" clip-rule="evenodd" d="M5.58203 2.88898C5.58203 2.26426 6.09629 1.75 6.72101 1.75C7.34574 1.75 7.86 2.26426 7.86 2.88898C7.86 3.38429 7.53162 3.81355 7.08158 3.96166L7.08154 3.96154L7.06828 3.96618C6.9508 4.0073 6.83615 4.02797 6.72101 4.02797C6.09629 4.02797 5.58203 3.51371 5.58203 2.88898ZM6.72101 0.25C5.26786 0.25 4.08203 1.43583 4.08203 2.88898C4.08203 4.34214 5.26786 5.52797 6.72101 5.52797C6.75078 5.52797 6.78037 5.52743 6.80977 5.52637L8.84334 11.6271L9.01428 12.1399H9.55485H13.8527L16.4677 16.4982L16.6861 16.8624H17.1108H18.9998C19.414 16.8624 19.7498 16.5266 19.7498 16.1124C19.7498 15.6981 19.414 15.3624 18.9998 15.3624H17.5354L14.9204 11.004L14.702 10.6399H14.2773H10.0954L8.23071 5.04576C8.90983 4.57147 9.36 3.7829 9.36 2.88898C9.36 1.43583 8.17417 0.25 6.72101 0.25ZM6.72246 7.80591C3.70145 7.80591 1.25 10.2574 1.25 13.2784C1.25 16.2994 3.70145 18.7508 6.72246 18.7508C9.74347 18.7508 12.1949 16.2994 12.1949 13.2784H10.6949C10.6949 15.4709 8.91504 17.2508 6.72246 17.2508C4.52987 17.2508 2.75 15.4709 2.75 13.2784C2.75 11.0858 4.52987 9.30591 6.72246 9.30591V7.80591ZM10.5 5.91736C10.0858 5.91736 9.75 6.25314 9.75 6.66736C9.75 7.08157 10.0858 7.41736 10.5 7.41736H14.278C14.6922 7.41736 15.028 7.08157 15.028 6.66736C15.028 6.25314 14.6922 5.91736 14.278 5.91736H10.5Z" fill="#004D45"/>
</svg>
