<svg width="20" height="20" viewBox="0 0 20 20" fill="none" xmlns="http://www.w3.org/2000/svg">
<path fill-rule="evenodd" clip-rule="evenodd" d="M3.5 4.75C3.5 4.33579 3.83579 4 4.25 4H6.75C7.16421 4 7.5 4.33579 7.5 4.75V9H13V4.75C13 4.33579 13.3358 4 13.75 4H16.25C16.6642 4 17 4.33579 17 4.75V6H18.75C19.1642 6 19.5 6.33579 19.5 6.75V12.75C19.5 13.1642 19.1642 13.5 18.75 13.5H17V14.75C17 15.1642 16.6642 15.5 16.25 15.5H13.75C13.3358 15.5 13 15.1642 13 14.75V10.5H7.5V14.75C7.5 15.1642 7.16421 15.5 6.75 15.5H4.25C3.83579 15.5 3.5 15.1642 3.5 14.75V13.5H1.75C1.33579 13.5 1 13.1642 1 12.75V6.75C1 6.33579 1.33579 6 1.75 6H3.5V4.75ZM15.5 12.75V6.75V5.5H14.5V14H15.5V12.75ZM17 12H18V7.5H17V12ZM5 6.75V12.75V14H6V5.5H5V6.75ZM3.5 7.5H2.5V12H3.5V7.5Z" fill="#004D45"/>
</svg>
