<svg width="22" height="22" viewBox="0 0 22 22" fill="none" xmlns="http://www.w3.org/2000/svg">
<g id="icon-ckeck">
<path id="Union" fill-rule="evenodd" clip-rule="evenodd" d="M11.0002 3.41361C9.30686 3.41361 7.93415 4.78489 7.93415 6.47644C7.93415 8.16799 9.30686 9.53927 11.0002 9.53927C12.6935 9.53927 14.0662 8.16799 14.0662 6.47644C14.0662 4.78489 12.6935 3.41361 11.0002 3.41361ZM15.4813 6.47644C15.4813 7.86491 14.8485 9.10574 13.8553 9.92682C16.5578 10.8731 18.5 13.4463 18.5 16.466V18.0492C18.5 19.1256 17.6247 20 16.5472 20H5.45283C4.37527 20 3.5 19.1256 3.5 18.0492V16.466C3.5 13.4462 5.44227 10.8729 8.14498 9.92672C7.15181 9.10565 6.51905 7.86486 6.51905 6.47644C6.51905 4.00417 8.52532 2 11.0002 2C13.475 2 15.4813 4.00417 15.4813 6.47644ZM10.434 10.9529C7.39077 10.9529 4.91509 13.426 4.91509 16.466V18.0492C4.91509 18.3449 5.15681 18.5864 5.45283 18.5864H16.5472C16.8432 18.5864 17.0849 18.3449 17.0849 18.0492V16.466C17.0849 13.426 14.6092 10.9529 11.566 10.9529H11.0002H10.434ZM13.7643 13.7616L12.7637 12.762L10.2451 15.2779L9.23598 14.2699L8.23535 15.2694L9.74479 16.7773L10.2451 17.2771L10.7454 16.7773L13.7643 13.7616Z" fill="#1A1A1A"/>
</g>
</svg>
