<svg width="24" height="24" viewBox="0 0 24 24" fill="none" xmlns="http://www.w3.org/2000/svg">
<path d="M7.66406 1.75C7.66406 1.33579 7.99985 1 8.41406 1H22.4141C22.8283 1 23.1641 1.33579 23.1641 1.75V11.7468L21.6641 10.7794V2.5H9.16406V2.71744L7.66406 1.75Z" fill="#004D45"/>
<path d="M7.60432 11L6.88373 10.2794L7.94439 9.21875L10.4747 11.7491L7.94439 14.2794L6.88373 13.2188L7.60248 12.5H4.41406V11H7.60432Z" fill="#004D45"/>
<path fill-rule="evenodd" clip-rule="evenodd" d="M9.16406 2.71744L7.66406 1.75V6.0049C7.5803 6.00158 7.49688 6 7.41406 6C4.23985 6 1.66406 8.57579 1.66406 11.75C1.66406 14.2328 3.24203 16.3502 5.44739 17.1557L3.7179 21.471C3.62528 21.7021 3.65337 21.9641 3.79287 22.1703C3.93238 22.3765 4.16511 22.5 4.41407 22.5H18.4141C18.7207 22.5 18.9965 22.3133 19.1104 22.0285L23.1042 12.0442C23.1369 11.9674 23.1573 11.8841 23.1626 11.7968C23.1636 11.7813 23.1641 11.7657 23.1641 11.75L21.6641 10.7823V10.7794L9.16406 2.71744ZM9.16406 2.71744L21.6641 10.7823V11H13.1156C12.8247 8.76714 11.2531 6.93621 9.16406 6.27082V2.71744ZM6.5973 15.9238C4.64248 15.541 3.16406 13.8137 3.16406 11.75C3.16406 9.40421 5.06828 7.5 7.41406 7.5C7.71126 7.5 7.9957 7.52634 8.25248 7.58239L11.6641 11.75C11.6641 14.0958 9.75985 16 7.41406 16C7.13008 16 6.858 15.9742 6.5973 15.9238ZM8.25389 7.5828L8.26495 7.58503C10.2012 7.97567 11.6641 9.69333 11.6641 11.75L8.25389 7.5828ZM6.93306 17.4809C7.09188 17.4937 7.25225 17.5 7.41406 17.5C10.3341 17.5 12.7477 15.3202 13.1155 12.5H21.3063L17.9063 21H5.52265L6.93306 17.4809Z" fill="#004D45"/>
</svg>
