<svg width="20" height="20" viewBox="0 0 20 20" fill="none" xmlns="http://www.w3.org/2000/svg">
<g id="ico-20px-file_add">
<path id="Union" fill-rule="evenodd" clip-rule="evenodd" d="M5.35112 15.2148C4.12867 13.9924 4.12867 12.0076 5.35112 10.7852L11.3861 4.75025C12.173 3.96336 13.4545 3.96336 14.2414 4.75025C15.0282 5.53714 15.0282 6.81864 14.2414 7.60553L10.6151 11.2317L8.20641 13.6405C7.85508 13.9918 7.27678 13.9918 6.92546 13.6405C6.57413 13.2891 6.57413 12.7109 6.92546 12.3595L11.1447 8.14031L12.698 6.58697C12.9239 6.36104 12.9239 5.99474 12.698 5.76881C12.4721 5.54289 12.1058 5.54289 11.8799 5.76881L10.3265 7.32215L6.1073 11.5414C5.30412 12.3445 5.30412 13.6555 6.1073 14.4586C6.91048 15.2618 8.22138 15.2618 9.02457 14.4586L11.4333 12.0499L15.0595 8.42369C16.2983 7.18494 16.2983 5.17084 15.0595 3.93209C13.8208 2.69334 11.8067 2.69334 10.5679 3.93209L4.53297 9.96703C2.85865 11.6413 2.85865 14.3587 4.53297 16.033C6.20728 17.7073 8.92459 17.7073 10.5989 16.033L10.5995 16.0324L16.6338 9.99802C16.8598 9.7721 16.8598 9.40579 16.6338 9.17987C16.4079 8.95394 16.0416 8.95394 15.8157 9.17987L9.78074 15.2148C8.55828 16.4373 6.57358 16.4373 5.35112 15.2148Z" fill="#1A1A1A"/>
</g>
</svg>
