<svg width="96" height="96" viewBox="0 0 96 96" fill="none" xmlns="http://www.w3.org/2000/svg">
<g id="ico-img-96px">
<g id="og">
<path id="Union" fill-rule="evenodd" clip-rule="evenodd" d="M75 16.5H21V13.5H75V16.5ZM42.75 45.5C34.88 45.5 28.5 39.1197 28.5 31.2496V31.2353V31.2211V31.2069V31.1927V31.1785V31.1642V31.15V31.1358V31.1216V31.1074V31.0932V31.079V31.0648V31.0505V31.0363V31.0221V31.0079V30.9937V30.9795V30.9653V30.9511V30.9369V30.9227V30.9085V30.8943V30.8801V30.8659V30.8517V30.8375V30.8233V30.8091V30.7949V30.7807V30.7666V30.7524V30.7382V30.724V30.7098V30.6956V30.6814V30.6673V30.6531V30.6389V30.6247V30.6105V30.5964V30.5822V30.568V30.5539V30.5397V30.5255V30.5114V30.4972V30.483V30.4689V30.4547V30.4405V30.4264V30.4122V30.3981V30.3839V30.3698V30.3556V30.3415V30.3273V30.3132V30.299V30.2849V30.2708V30.2566V30.2425V30.2283V30.2142V30.2001V30.1859V30.1718V30.1577V30.1436V30.1294V30.1153V30.1012V30.0871V30.073V30.0588V30.0447V30.0306V30.0165V30.0024V29.9883V29.9742V29.9601V29.946V29.9319V29.9178V29.9037V29.8896V29.8755V29.8614V29.8473V29.8332V29.8192V29.8051V29.791V29.7769V29.7628V29.7488V29.7347V29.7206V29.7066V29.6925V29.6784V29.6644V29.6503V29.6363V29.6222V29.6081V29.5941V29.58V29.566V29.552V29.5379V29.5239V29.5098V29.4958V29.4818V29.4677V29.4537V29.4397V29.4257V29.4116V29.3976V29.3836V29.3696V29.3556V29.3416V29.3275V29.3135V29.2995V29.2855V29.2715V29.2575V29.2436V29.2296V29.2156V29.2016V29.1876V29.1736V29.1596V29.1457V29.1317V29.1177V29.1038V29.0898V29.0758V29.0619V29.0479V29.0339V29.02V29.006V28.9921V28.9782V28.9642V28.9503V28.9363V28.9224V28.9085V28.8945V28.8806V28.8667V28.8528V28.8389V28.8249V28.811V28.7971V28.7832V28.7693V28.7554V28.7415V28.7276V28.7137V28.6998V28.6859V28.6721V28.6582V28.6443V28.6304V28.6166V28.6027V28.5888V28.575V28.5611V28.5472V28.5334V28.5195V28.5057V28.4919V28.478V28.4642V28.4503V28.4365V28.4227V28.4088V28.395V28.3812V28.3674V28.3536V28.3398V28.326V28.3122V28.2984V28.2846V28.2708V28.257V28.2432V28.2294V28.2156V28.2019V28.1881V28.1743V28.1605V28.1468V28.133V28.1193V28.1055V28.0918V28.078V28.0643V28.0505V28.0368V28.0231V28.0093V27.9956V27.9819V27.9682V27.9544V27.9407V27.927V27.9133V27.8996V27.8859V27.8722V27.8585V27.8449V27.8312V27.8175V27.8038V27.7901V27.7765V27.7628V27.7491V27.7355V27.7218V27.7082V27.6945V27.6809V27.6673V27.6536V27.64V27.6264V27.6127V27.5991V27.5855V27.5719V27.5583V27.5447V27.5311V27.5175V27.5039V27.4903V27.4767V27.4631V27.4496V27.436V27.4224V27.4089V27.3953V27.3817V27.3682V27.3546V27.3411V27.3276V27.314V27.3005V27.287V27.2734V27.2599V27.2464V27.2329V27.2194V27.2059V27.1924V27.1789V27.1654V27.1519V27.1384V27.125V27.1115V27.098V27.0846V27.0711V27.0576V27.0442V27.0307V27.0173V27.0039V26.9904V26.977V26.9636V26.9501V26.9367V26.9233V26.9099V26.8965V26.8831V26.8697V26.8563V26.8429V26.8295V26.8162V26.8028V26.7894V26.7761V26.7627V26.7494V26.736V26.7227V26.7093V26.696V26.6827V26.6693V26.656V26.6427V26.6294V26.6161V26.6028V26.5895V26.5762V26.5629V26.5496V26.5363V26.5231V26.5098V26.4965V26.4833V26.47V26.4568V26.4435V26.4303V26.417V26.4038V26.3906V26.3774V26.3641V26.3509V26.3377V26.3245V26.3113V26.2981V26.2849V26.2718V26.2586V26.2454V26.2322V26.2191V26.2059V26.1928V26.1796V26.1665V26.1534V26.1402V26.1271V26.114V26.1009V26.0878V26.0746V26.0616V26.0485V26.0354V26.0223V26.0092V25.9961V25.9831V25.97V25.9569V25.9439V25.9308V25.9178V25.9048V25.8917V25.8787V25.8657V25.8527V25.8397V25.8267V25.8137V25.8007V25.7877V25.7747V25.7617V25.7487V25.7358V25.7228V25.7099V25.6969V25.684V25.671V25.6581V25.6452V25.6322V25.6193V25.6064V25.5935V25.5806V25.5677V25.5548V25.5419V25.5291V25.5162V25.5033V25.4905V25.4776V25.4648V25.4519V25.4391V25.4263V25.4134V25.4006V25.3878V25.375V25.3622V25.3494V25.3366V25.3238V25.311V25.2983V25.2855V25.2727V25.26V25.2472V25.2345V25.2218V25.209V25.1963V25.1836V25.1709V25.1582V25.1455V25.1328V25.1201V25.1074V25.0947V25.082V25.0694V25.0567V25.0441V25.0314V25.0188V25.0061V24.9935V24.9809V24.9683V24.9557V24.9431V24.9305V24.9179V24.9053V24.8927V24.8801V24.8676V24.855V24.8425V24.8299V24.8174V24.8048V24.7923V24.7798V24.7673V24.7548V24.7423V24.7298V24.7173V24.7048V24.6923V24.6798V24.6674V24.6549V24.6425V24.63V24.6176V24.6052V24.5927V24.5803V24.5679V24.5555V24.5431V24.5307V24.5183V24.5059V24.4936V24.4812V24.4688V24.4565V24.4441V24.4318V24.4195V24.4071V24.3948V24.3825V24.3702V24.3579V24.3456V24.3333H25.5V24.3456V24.3579V24.3702V24.3825V24.3948V24.4071V24.4195V24.4318V24.4441V24.4565V24.4688V24.4812V24.4936V24.5059V24.5183V24.5307V24.5431V24.5555V24.5679V24.5803V24.5927V24.6052V24.6176V24.63V24.6425V24.6549V24.6674V24.6798V24.6923V24.7048V24.7173V24.7298V24.7423V24.7548V24.7673V24.7798V24.7923V24.8048V24.8174V24.8299V24.8425V24.855V24.8676V24.8801V24.8927V24.9053V24.9179V24.9305V24.9431V24.9557V24.9683V24.9809V24.9935V25.0061V25.0188V25.0314V25.0441V25.0567V25.0694V25.082V25.0947V25.1074V25.1201V25.1328V25.1455V25.1582V25.1709V25.1836V25.1963V25.209V25.2218V25.2345V25.2472V25.26V25.2727V25.2855V25.2983V25.311V25.3238V25.3366V25.3494V25.3622V25.375V25.3878V25.4006V25.4134V25.4263V25.4391V25.4519V25.4648V25.4776V25.4905V25.5033V25.5162V25.5291V25.5419V25.5548V25.5677V25.5806V25.5935V25.6064V25.6193V25.6322V25.6452V25.6581V25.671V25.684V25.6969V25.7099V25.7228V25.7358V25.7487V25.7617V25.7747V25.7877V25.8007V25.8137V25.8267V25.8397V25.8527V25.8657V25.8787V25.8917V25.9048V25.9178V25.9308V25.9439V25.9569V25.97V25.9831V25.9961V26.0092V26.0223V26.0354V26.0485V26.0616V26.0746V26.0878V26.1009V26.114V26.1271V26.1402V26.1534V26.1665V26.1796V26.1928V26.2059V26.2191V26.2322V26.2454V26.2586V26.2718V26.2849V26.2981V26.3113V26.3245V26.3377V26.3509V26.3641V26.3774V26.3906V26.4038V26.417V26.4303V26.4435V26.4568V26.47V26.4833V26.4965V26.5098V26.5231V26.5363V26.5496V26.5629V26.5762V26.5895V26.6028V26.6161V26.6294V26.6427V26.656V26.6693V26.6827V26.696V26.7093V26.7227V26.736V26.7494V26.7627V26.7761V26.7894V26.8028V26.8162V26.8295V26.8429V26.8563V26.8697V26.8831V26.8965V26.9099V26.9233V26.9367V26.9501V26.9636V26.977V26.9904V27.0039V27.0173V27.0307V27.0442V27.0576V27.0711V27.0846V27.098V27.1115V27.125V27.1384V27.1519V27.1654V27.1789V27.1924V27.2059V27.2194V27.2329V27.2464V27.2599V27.2734V27.287V27.3005V27.314V27.3276V27.3411V27.3546V27.3682V27.3817V27.3953V27.4089V27.4224V27.436V27.4496V27.4631V27.4767V27.4903V27.5039V27.5175V27.5311V27.5447V27.5583V27.5719V27.5855V27.5991V27.6127V27.6264V27.64V27.6536V27.6673V27.6809V27.6945V27.7082V27.7218V27.7355V27.7491V27.7628V27.7765V27.7901V27.8038V27.8175V27.8312V27.8449V27.8585V27.8722V27.8859V27.8996V27.9133V27.927V27.9407V27.9544V27.9682V27.9819V27.9956V28.0093V28.0231V28.0368V28.0505V28.0643V28.078V28.0918V28.1055V28.1193V28.133V28.1468V28.1605V28.1743V28.1881V28.2019V28.2156V28.2294V28.2432V28.257V28.2708V28.2846V28.2984V28.3122V28.326V28.3398V28.3536V28.3674V28.3812V28.395V28.4088V28.4227V28.4365V28.4503V28.4642V28.478V28.4919V28.5057V28.5195V28.5334V28.5472V28.5611V28.575V28.5888V28.6027V28.6166V28.6304V28.6443V28.6582V28.6721V28.6859V28.6998V28.7137V28.7276V28.7415V28.7554V28.7693V28.7832V28.7971V28.811V28.8249V28.8389V28.8528V28.8667V28.8806V28.8945V28.9085V28.9224V28.9363V28.9503V28.9642V28.9782V28.9921V29.006V29.02V29.0339V29.0479V29.0619V29.0758V29.0898V29.1038V29.1177V29.1317V29.1457V29.1596V29.1736V29.1876V29.2016V29.2156V29.2296V29.2436V29.2575V29.2715V29.2855V29.2995V29.3135V29.3275V29.3416V29.3556V29.3696V29.3836V29.3976V29.4116V29.4257V29.4397V29.4537V29.4677V29.4818V29.4958V29.5098V29.5239V29.5379V29.552V29.566V29.58V29.5941V29.6081V29.6222V29.6363V29.6503V29.6644V29.6784V29.6925V29.7066V29.7206V29.7347V29.7488V29.7628V29.7769V29.791V29.8051V29.8192V29.8332V29.8473V29.8614V29.8755V29.8896V29.9037V29.9178V29.9319V29.946V29.9601V29.9742V29.9883V30.0024V30.0165V30.0306V30.0447V30.0588V30.073V30.0871V30.1012V30.1153V30.1294V30.1436V30.1577V30.1718V30.1859V30.2001V30.2142V30.2283V30.2425V30.2566V30.2708V30.2849V30.299V30.3132V30.3273V30.3415V30.3556V30.3698V30.3839V30.3981V30.4122V30.4264V30.4405V30.4547V30.4689V30.483V30.4972V30.5114V30.5255V30.5397V30.5539V30.568V30.5822V30.5964V30.6105V30.6247V30.6389V30.6531V30.6673V30.6814V30.6956V30.7098V30.724V30.7382V30.7524V30.7666V30.7807V30.7949V30.8091V30.8233V30.8375V30.8517V30.8659V30.8801V30.8943V30.9085V30.9227V30.9369V30.9511V30.9653V30.9795V30.9937V31.0079V31.0221V31.0363V31.0505V31.0648V31.079V31.0932V31.1074V31.1216V31.1358V31.15V31.1642V31.1785V31.1927V31.2069V31.2211V31.2353V31.2496C25.5 38.2665 29.6897 44.3051 35.704 47C29.6897 49.6947 25.5 55.7331 25.5 62.75V81C25.5 81.8284 26.1716 82.5 27 82.5H69C69.8284 82.5 70.5 81.8284 70.5 81V62.75C70.5 55.7331 66.3103 49.6947 60.2961 47C66.3103 44.3053 70.5 38.2669 70.5 31.25V19H67.5V31.25C67.5 39.1201 61.1201 45.5 53.25 45.5V48.5C61.1201 48.5 67.5 54.8799 67.5 62.75V79.5H28.5V62.75C28.5 54.8799 34.8799 48.5 42.75 48.5V45.5Z" fill="#004D45"/>
<path id="Rectangle" d="M66 31H30C30 38.1797 35.8203 44 43 44H43.5H52.5H52.9996C60.1793 44 66 38.1797 66 31Z" fill="#E6B300"/>
<path id="Rectangle_2" d="M31 74.3333V73.6667C31 72.1939 32.1939 71 33.6667 71H43.75H52.25H62.3357C63.8085 71 65 72.1939 65 73.6667V74.3333C65 75.8061 63.8061 77 62.3333 77H33.6667C32.1939 77 31 75.8061 31 74.3333Z" fill="#E6B300"/>
</g>
</g>
</svg>
