<svg width="22" height="22" viewBox="0 0 22 22" fill="none" xmlns="http://www.w3.org/2000/svg">
<g id="icon-time">
<path id="Union" fill-rule="evenodd" clip-rule="evenodd" d="M3.41361 11C3.41361 6.81015 6.81015 3.41361 11 3.41361C15.1898 3.41361 18.5864 6.81015 18.5864 11C18.5864 15.1898 15.1898 18.5864 11 18.5864C6.81015 18.5864 3.41361 15.1898 3.41361 11ZM11 2C6.02944 2 2 6.02944 2 11C2 15.9706 6.02944 20 11 20C15.9706 20 20 15.9706 20 11C20 6.02944 15.9706 2 11 2ZM11.7069 11V5.72253H10.2933V10.2932H7.23047V11.7068H11.0001C11.3905 11.7068 11.7069 11.3904 11.7069 11Z" fill="#1A1A1A"/>
</g>
</svg>
