<svg width="20" height="20" viewBox="0 0 20 20" fill="none" xmlns="http://www.w3.org/2000/svg">
<path d="M15 8.29999H17.2008V14.123C17.2008 15.113 16.3908 15.923 15.4008 15.923H4.60078C3.61078 15.923 2.80078 15.113 2.80078 14.123V8.29999H11.3568" stroke="#004D45" stroke-width="1.5" stroke-linejoin="round"/>
<path d="M1 8.29999H12" stroke="#004D45" stroke-width="1.5" stroke-linejoin="round"/>
<path d="M15 8.29999H19" stroke="#004D45" stroke-width="1.5" stroke-linejoin="round"/>
<path d="M6.39961 15.9227H4.59961V17.7227H6.39961V15.9227Z" stroke="#004D45" stroke-width="1.5" stroke-linejoin="round"/>
<path d="M15.3996 15.9227H13.5996V17.7227H15.3996V15.9227Z" stroke="#004D45" stroke-width="1.5" stroke-linejoin="round"/>
<circle cx="7.83333" cy="5.83333" r="0.833333" fill="#004D45"/>
<circle cx="3.83333" cy="4.83333" r="0.833333" fill="#004D45"/>
<circle cx="4.83333" cy="1.83333" r="0.833333" fill="#004D45"/>
<path d="M14.5 7H12V11.1667H14.5V7Z" stroke="#004D45" stroke-width="1.5" stroke-linejoin="round"/>
<path fill-rule="evenodd" clip-rule="evenodd" d="M5.66667 1.83333C5.66667 2.29357 5.29357 2.66667 4.83333 2.66667C4.3731 2.66667 4 2.29357 4 1.83333C4 1.3731 4.3731 1 4.83333 1C5.29357 1 5.66667 1.3731 5.66667 1.83333ZM3.83333 5.66667C4.29357 5.66667 4.66667 5.29357 4.66667 4.83333C4.66667 4.3731 4.29357 4 3.83333 4C3.3731 4 3 4.3731 3 4.83333C3 5.29357 3.3731 5.66667 3.83333 5.66667ZM8.66667 5.83333C8.66667 6.29357 8.29357 6.66667 7.83333 6.66667C7.3731 6.66667 7 6.29357 7 5.83333C7 5.3731 7.3731 5 7.83333 5C8.29357 5 8.66667 5.3731 8.66667 5.83333ZM11.25 7.54999V7C11.25 6.58579 11.5858 6.25 12 6.25H14.5C14.9142 6.25 15.25 6.58579 15.25 7V7.54999H17.2008H19V9.04999H17.9508V14.123C17.9508 15.2668 17.1905 16.2392 16.1496 16.5605V17.7227C16.1496 18.1369 15.8138 18.4727 15.3996 18.4727H13.5996C13.1854 18.4727 12.8496 18.1369 12.8496 17.7227V16.673H7.14961V17.7227C7.14961 18.1369 6.81382 18.4727 6.39961 18.4727H4.59961C4.1854 18.4727 3.84961 18.1369 3.84961 17.7227V16.5597C2.8099 16.2377 2.05078 15.266 2.05078 14.123V9.04999H1V7.54999H2.80078H11.25ZM15.25 9.04999H16.4508V14.123C16.4508 14.694 15.9844 15.1651 15.4151 15.1729L15.3996 15.1727H13.5996L13.5798 15.173H6.41946L6.39961 15.1727H4.59961L4.58494 15.1729C4.01632 15.1643 3.55078 14.6935 3.55078 14.123V9.04999H11.25V11.1667C11.25 11.5809 11.5858 11.9167 12 11.9167H14.5C14.9142 11.9167 15.25 11.5809 15.25 11.1667V9.04999ZM14.3496 16.673V16.9727H14.6496V16.673H14.3496ZM5.64961 16.673H5.34961V16.9727H5.64961V16.673ZM12.75 10.4167V7.75H13.75V10.4167H12.75Z" fill="#004D45"/>
</svg>
