<svg width="56" height="56" viewBox="0 0 56 56" fill="none" xmlns="http://www.w3.org/2000/svg">
<path d="M40.9632 25.4074V7.77778C40.9632 6.25 39.7132 5 38.1854 5H12.2595C10.7317 5 9.48173 6.25 9.48173 7.77778V13.3333H5.77802C4.25024 13.3333 3.00024 14.5833 3.00024 16.1111V46.6667C3.00024 47.1759 3.41691 47.5926 3.92617 47.5926H30.9817C33.3984 49.9815 36.6114 51.2963 40.0373 51.2963C47.1854 51.2963 53.0002 45.4815 53.0002 38.3333C53.0002 31.1852 47.6854 25.8796 40.9632 25.4074ZM15.9632 45.7407H12.2595V40.1852C12.2595 39.1667 13.0928 38.3333 14.1114 38.3333C15.1299 38.3333 15.9632 39.1667 15.9632 40.1852V45.7407ZM23.3706 45.7407H17.8151V40.1852C17.8151 38.1389 16.1577 36.4815 14.1114 36.4815C12.0651 36.4815 10.4077 38.1389 10.4077 40.1852V45.7407H4.8521V16.1111C4.8521 15.6019 5.26876 15.1852 5.77802 15.1852H22.4447C22.9539 15.1852 23.3706 15.6019 23.3706 16.1111V45.7407ZM25.2225 45.7407V16.1111C25.2225 14.5833 23.9725 13.3333 22.4447 13.3333H11.3336V7.77778C11.3336 7.26852 11.7502 6.85185 12.2595 6.85185H38.1854C38.6947 6.85185 39.1114 7.26852 39.1114 7.77778V25.4074C38.9076 25.4259 38.7039 25.4444 38.5095 25.463C38.4817 25.463 38.4632 25.4722 38.4539 25.4722C38.2595 25.5 38.0651 25.5278 37.8706 25.5556C37.5651 25.6111 37.2595 25.6667 36.9632 25.7407C36.6669 25.8148 36.3706 25.8981 36.0836 25.9907C35.7132 26.1111 35.3521 26.2407 35.0002 26.3889C34.9817 26.3981 34.9632 26.4074 34.9447 26.4167C34.3891 26.6574 33.8521 26.9259 33.3428 27.2407C33.1762 27.3426 33.0002 27.4444 32.8428 27.5556C32.1762 28 31.5558 28.5093 30.991 29.0556C30.8521 29.1852 30.7225 29.3241 30.5928 29.463C30.3151 29.7593 30.0558 30.0741 29.8058 30.3889C29.6762 30.5463 29.5651 30.7037 29.4447 30.8704C29.3151 31.0556 29.1947 31.2407 29.0743 31.4259C28.9817 31.5741 28.8891 31.7222 28.8058 31.8796C28.7039 32.0463 28.6021 32.2222 28.5188 32.3981C28.4262 32.5833 28.3336 32.7593 28.2502 32.9444C28.0651 33.3426 27.9077 33.75 27.7688 34.1667C27.7132 34.3241 27.6577 34.4815 27.6114 34.6481C27.5558 34.8426 27.5002 35.037 27.4539 35.2315C27.3984 35.4352 27.3521 35.6296 27.3151 35.8333C27.278 36.037 27.241 36.2407 27.2132 36.4444C27.1854 36.6481 27.1576 36.8611 27.1391 37.0648C27.0928 37.4815 27.0743 37.9074 27.0743 38.3333C27.0743 38.5463 27.0836 38.75 27.0928 38.963C27.1021 39.213 27.1206 39.4537 27.1484 39.6944C27.2039 40.2778 27.3058 40.8611 27.4447 41.4167C27.491 41.6019 27.5373 41.7778 27.5836 41.9537C27.7132 42.3981 27.8614 42.8241 28.0373 43.2407C28.1299 43.4722 28.2317 43.6944 28.3336 43.9167C28.6391 44.5463 28.991 45.1574 29.3984 45.7407H25.2225ZM40.0373 49.4444C36.9817 49.4444 34.1391 48.2315 32.028 46.0278C30.028 43.9537 28.9262 41.2222 28.9262 38.3333C28.9262 32.2037 33.9077 27.2222 40.0373 27.2222C46.1669 27.2222 51.1484 32.2037 51.1484 38.3333C51.1484 44.463 46.1669 49.4444 40.0373 49.4444Z" fill="#719C98"/>
<path d="M40.0373 41.4629C39.2688 41.4629 38.6484 40.8425 38.6484 40.074V32.6666C38.6484 31.898 39.2688 31.2777 40.0373 31.2777C40.8058 31.2777 41.4262 31.898 41.4262 32.6666V40.074C41.4262 40.8425 40.8058 41.4629 40.0373 41.4629Z" fill="#719C98"/>
<path d="M40.0373 45.389C40.8043 45.389 41.4262 44.7672 41.4262 44.0001C41.4262 43.233 40.8043 42.6112 40.0373 42.6112C39.2702 42.6112 38.6484 43.233 38.6484 44.0001C38.6484 44.7672 39.2702 45.389 40.0373 45.389Z" fill="#719C98"/>
<path d="M20.5928 17.963H7.62987V19.8148H20.5928V17.963Z" fill="#719C98"/>
<path d="M20.5928 22.5926H7.62987V24.4444H20.5928V22.5926Z" fill="#719C98"/>
<path d="M20.5928 27.2222H7.62987V29.0741H20.5928V27.2222Z" fill="#719C98"/>
</svg>
