<svg width="20" height="20" viewBox="0 0 20 20" fill="none" xmlns="http://www.w3.org/2000/svg">
<g id="Mo/ico-20px-Light">
<g id="Union">
<path fill-rule="evenodd" clip-rule="evenodd" d="M11.1887 2.06475C11.4292 2.1776 11.5829 2.41965 11.5829 2.68572V6.63972C13.1469 6.95657 14.3209 8.33847 14.3209 9.99999C14.3209 11.6615 13.1469 13.0434 11.5829 13.3603V17.3143C11.5829 17.5803 11.4292 17.8224 11.1887 17.9353C10.9482 18.0481 10.6642 18.0114 10.4602 17.8411L5.17464 13.4286H3.59715C2.71715 13.4286 2 12.7101 2 11.8286V8.17143C2 7.28986 2.71715 6.57143 3.59715 6.57143H5.17464L10.4602 2.15894C10.6642 1.98861 10.9482 1.95189 11.1887 2.06475ZM12.9519 9.99999C12.9519 10.8984 12.3817 11.6594 11.5829 11.9408V8.0592C12.3817 8.34063 12.9519 9.10161 12.9519 9.99999ZM10.2139 4.14975V15.8503L5.86066 12.2161C5.73765 12.1134 5.58259 12.0571 5.42246 12.0571H3.59715C3.47322 12.0571 3.36898 11.9527 3.36898 11.8286V8.17143C3.36898 8.04728 3.47322 7.94286 3.59715 7.94286H5.42246C5.58259 7.94286 5.73765 7.88662 5.86066 7.78393L10.2139 4.14975Z" fill="#1A1A1A"/>
<path d="M13.2925 5.83871C14.725 6.67246 15.6898 8.22569 15.6898 10.0001C15.6898 11.7745 14.725 13.3277 13.2925 14.1615L13.9802 15.3473C15.8151 14.2793 17.0588 12.2851 17.0588 10.0001C17.0588 7.71505 15.8151 5.72086 13.9802 4.6529L13.2925 5.83871Z" fill="#1A1A1A"/>
</g>
</g>
</svg>
