<svg width="16" height="16" viewBox="0 0 16 16" fill="none" xmlns="http://www.w3.org/2000/svg">
<path d="M0.444444 8C0.444444 3.82718 3.82718 0.444444 8 0.444444C12.1728 0.444444 15.5556 3.82718 15.5556 8C15.5556 12.1728 12.1728 15.5556 8 15.5556C3.82718 15.5556 0.444444 12.1728 0.444444 8Z" fill="white"/>
<path d="M0.444444 8C0.444444 3.82718 3.82718 0.444444 8 0.444444C12.1728 0.444444 15.5556 3.82718 15.5556 8C15.5556 12.1728 12.1728 15.5556 8 15.5556C3.82718 15.5556 0.444444 12.1728 0.444444 8Z" stroke="#D9D9D9" stroke-width="0.888889"/>
<path fill-rule="evenodd" clip-rule="evenodd" d="M8.00022 5.33334C8.49114 5.33334 8.88911 4.93537 8.88911 4.44445C8.88911 3.95353 8.49114 3.55556 8.00022 3.55556C7.5093 3.55556 7.11133 3.95353 7.11133 4.44445C7.11133 4.93537 7.5093 5.33334 8.00022 5.33334ZM8.88911 12.4444V7.11111H7.11133V12.4444H8.88911Z" fill="#666666"/>
</svg>
