<svg width="20" height="20" viewBox="0 0 20 20" fill="none" xmlns="http://www.w3.org/2000/svg">
<path fill-rule="evenodd" clip-rule="evenodd" d="M6.41602 4.41667C6.41602 3.91421 6.83023 3.5 7.33268 3.5C7.83514 3.5 8.24935 3.91421 8.24935 4.41667H9.74935C9.74935 3.08579 8.66356 2 7.33268 2C6.0018 2 4.91602 3.08579 4.91602 4.41667V13H1V14.5H19V13H13.25V4.41667C13.25 3.91421 13.6642 3.5 14.1667 3.5C14.6691 3.5 15.0833 3.91421 15.0833 4.41667H16.5833C16.5833 3.08579 15.4975 2 14.1667 2C12.8358 2 11.75 3.08579 11.75 4.41667V7H6.41602V4.41667ZM11.75 13H6.41602V11H11.75V13ZM11.75 9.5V8.5H6.41602V9.5H11.75ZM2 17H18V15.5H2V17Z" fill="#004D45"/>
</svg>
