<svg width="24" height="24" viewBox="0 0 24 24" fill="none" xmlns="http://www.w3.org/2000/svg">
<path d="M15 13.75C15 13.3358 15.3358 13 15.75 13H18.75C19.1642 13 19.5 13.3358 19.5 13.75C19.5 14.1642 19.1642 14.5 18.75 14.5H15.75C15.3358 14.5 15 14.1642 15 13.75Z" fill="#004D45"/>
<path fill-rule="evenodd" clip-rule="evenodd" d="M1 5.75C1 4.23122 2.23122 3 3.75 3H19.75C21.2688 3 22.5 4.23122 22.5 5.75V17.75C22.5 19.2688 21.2688 20.5 19.75 20.5H3.75C2.23122 20.5 1 19.2688 1 17.75V5.75ZM3.75 4.5C3.05964 4.5 2.5 5.05964 2.5 5.75V7.25H21V5.75C21 5.05964 20.4404 4.5 19.75 4.5H3.75ZM21 10.25H2.5V17.75C2.5 18.4404 3.05964 19 3.75 19H19.75C20.4404 19 21 18.4404 21 17.75V10.25Z" fill="#004D45"/>
</svg>
