<svg width="56" height="56" viewBox="0 0 56 56" fill="none" xmlns="http://www.w3.org/2000/svg">
<path d="M46.3191 27.6H40.9574V10.5C40.9574 8.016 38.9557 6 36.4894 6H11.4681C9.0017 6 7 8.016 7 10.5V46.5C7 48.984 9.0017 51 11.4681 51H44.0851C46.7928 51 49 48.777 49 46.05V30.3C49 28.815 47.7936 27.6 46.3191 27.6ZM11.4681 49.2C9.99362 49.2 8.78723 47.985 8.78723 46.5V10.5C8.78723 9.015 9.99362 7.8 11.4681 7.8H36.4894C37.9638 7.8 39.1702 9.015 39.1702 10.5V46.05C39.1702 46.221 39.1791 46.392 39.197 46.554C39.206 46.68 39.2238 46.806 39.2506 46.923C39.2685 47.031 39.2864 47.13 39.3132 47.22C39.3311 47.31 39.3489 47.391 39.3847 47.481C39.3847 47.508 39.3936 47.535 39.4115 47.571C39.4472 47.688 39.4919 47.814 39.5366 47.931C39.5455 47.958 39.5545 47.976 39.5634 48.003C39.626 48.138 39.6974 48.273 39.7689 48.408C39.8315 48.534 39.9119 48.66 39.9923 48.777C40.0817 48.921 40.1889 49.065 40.2962 49.2H11.4681ZM47.2128 46.05C47.2128 47.787 45.8098 49.2 44.0851 49.2C42.3604 49.2 40.9574 47.787 40.9574 46.05V29.4H46.3191C46.8106 29.4 47.2128 29.805 47.2128 30.3V46.05Z" fill="#719C98"/>
<path d="M23.9787 41.1C17.08 41.1 11.4681 35.448 11.4681 28.5C11.4681 21.552 17.08 15.9 23.9787 15.9C30.8774 15.9 36.4894 21.552 36.4894 28.5C36.4894 35.448 30.8774 41.1 23.9787 41.1ZM23.9787 17.7C18.063 17.7 13.2553 22.542 13.2553 28.5C13.2553 34.458 18.063 39.3 23.9787 39.3C29.8945 39.3 34.7021 34.458 34.7021 28.5C34.7021 22.542 29.8945 17.7 23.9787 17.7Z" fill="#719C98"/>
<path d="M28.2413 30.129C28.0715 29.751 27.8302 29.418 27.5174 29.139C27.2047 28.86 26.8383 28.626 26.4094 28.428C25.9804 28.239 25.5157 28.086 25.0064 27.969L24.4345 27.834V24.972C24.8187 25.017 25.1404 25.143 25.3906 25.323C25.7391 25.584 25.9357 25.944 25.9804 26.403H28.3485C28.3396 25.701 28.1519 25.089 27.7945 24.558C27.4281 24.018 26.9187 23.604 26.2753 23.307C25.7391 23.064 25.1226 22.911 24.4345 22.875V21.543H23.4962V22.875C22.8438 22.92 22.2451 23.073 21.7089 23.307C21.0387 23.604 20.5204 24.018 20.1362 24.558C19.7519 25.089 19.5643 25.71 19.5643 26.421C19.5643 27.294 19.8413 27.987 20.4132 28.5C20.9851 29.013 21.7626 29.391 22.7545 29.634L23.4962 29.823V32.856C23.246 32.82 23.0136 32.766 22.7991 32.676C22.4596 32.55 22.1915 32.352 21.986 32.091C21.7894 31.821 21.6732 31.497 21.6464 31.101H19.2604C19.2783 31.947 19.4838 32.658 19.8681 33.234C20.2613 33.81 20.8064 34.242 21.5034 34.53C22.0843 34.764 22.7455 34.917 23.4962 34.953V36.276H24.4345V34.953C25.194 34.917 25.8553 34.773 26.4094 34.53C27.0885 34.242 27.6068 33.837 27.9643 33.306C28.3217 32.784 28.5094 32.154 28.5094 31.434C28.5094 30.939 28.42 30.507 28.2413 30.129ZM23.4962 27.6C23.4068 27.573 23.3174 27.537 23.2281 27.51C23.0047 27.429 22.8081 27.33 22.6383 27.213C22.4685 27.105 22.3345 26.97 22.2362 26.808C22.1379 26.655 22.0932 26.466 22.1021 26.259C22.1021 26.007 22.1736 25.782 22.3255 25.575C22.4685 25.377 22.683 25.224 22.96 25.107C23.1209 25.044 23.2996 24.999 23.4962 24.972V27.6ZM25.757 32.181C25.5872 32.397 25.346 32.568 25.0332 32.694C24.8455 32.766 24.6489 32.82 24.4345 32.847V30.066C24.6847 30.138 24.9081 30.219 25.1047 30.3C25.3996 30.426 25.6319 30.579 25.7838 30.759C25.9357 30.939 26.0162 31.164 26.0162 31.425C26.0162 31.713 25.9268 31.965 25.757 32.181Z" fill="#719C98"/>
</svg>
