<svg width="16" height="17" viewBox="0 0 16 17" fill="none" xmlns="http://www.w3.org/2000/svg">
<path d="M12.8174 12.97C12.8174 13.9026 10.6634 14.6595 8.00016 14.6595C5.33693 14.6595 3.18295 13.9026 3.18295 12.97C3.18295 12.2942 4.30467 11.713 5.93564 11.4427C6.98166 12.5916 8.00016 13.3079 8.00016 13.3079C8.00016 13.3079 9.01865 12.5916 10.0647 11.4427C11.6956 11.713 12.8174 12.2942 12.8174 12.97Z" stroke="black" stroke-width="1.5" stroke-linecap="round" stroke-linejoin="round"/>
<path d="M7.99993 2.33984C5.59821 2.33984 3.65756 4.25233 3.65756 6.60408C3.65756 8.48953 4.81369 10.2128 5.93541 11.4427C6.98143 12.5916 7.99993 13.3079 7.99993 13.3079C7.99993 13.3079 9.01842 12.5916 10.0644 11.4427C11.1862 10.2128 12.3423 8.48953 12.3423 6.60408C12.3423 4.25233 10.4016 2.33984 7.99993 2.33984ZM7.99993 5.38766C8.6881 5.38766 9.23864 5.93505 9.23864 6.60408C9.23864 7.27311 8.6881 7.82726 7.99993 7.82726C7.31176 7.82726 6.76122 7.27987 6.76122 6.60408C6.76122 5.92829 7.31176 5.38766 7.99993 5.38766Z" stroke="black" stroke-width="1.5" stroke-linecap="round" stroke-linejoin="round"/>
<path d="M9.2385 6.60378C9.2385 7.27957 8.68796 7.82696 7.99979 7.82696C7.31162 7.82696 6.76108 7.27957 6.76108 6.60378C6.76108 5.92799 7.31162 5.38736 7.99979 5.38736C8.68796 5.38736 9.2385 5.93475 9.2385 6.60378Z" stroke="black" stroke-width="1.5" stroke-linecap="round" stroke-linejoin="round"/>
<path fill-rule="evenodd" clip-rule="evenodd" d="M3.15756 6.60408C3.15756 3.96818 5.33014 1.83984 7.99993 1.83984C10.6697 1.83984 12.8423 3.96818 12.8423 6.60408C12.8423 8.34681 11.9536 9.92369 10.9923 11.127C11.4909 11.2562 11.933 11.4199 12.2916 11.6151C12.8066 11.8954 13.3174 12.3376 13.3174 12.97C13.3174 13.411 13.0615 13.7607 12.7585 14.0122C12.4524 14.2662 12.0395 14.4726 11.573 14.6362C10.6356 14.9652 9.37274 15.1595 8.00016 15.1595C6.62758 15.1595 5.36471 14.9652 4.42728 14.6362C3.96086 14.4726 3.54791 14.2662 3.24183 14.0122C2.9388 13.7607 2.68295 13.411 2.68295 12.97C2.68295 12.3376 3.19368 11.8954 3.70868 11.6151C4.06731 11.42 4.50942 11.2562 5.00803 11.127C4.04663 9.92374 3.15756 8.34684 3.15756 6.60408ZM5.75521 11.9831C5.09257 12.112 4.55688 12.292 4.18669 12.4935C3.73308 12.7403 3.68295 12.9266 3.68295 12.97C3.68295 12.9953 3.69635 13.0899 3.88042 13.2426C4.06143 13.3928 4.35343 13.5505 4.75841 13.6927C5.56378 13.9753 6.70951 14.1595 8.00016 14.1595C9.29081 14.1595 10.4365 13.9753 11.2419 13.6927C11.6469 13.5505 11.9389 13.3928 12.1199 13.2426C12.304 13.0899 12.3174 12.9953 12.3174 12.97C12.3174 12.9266 12.2672 12.7403 11.8136 12.4935C11.4434 12.292 10.9077 12.112 10.2451 11.9831C9.7698 12.4849 9.3126 12.8952 8.96115 13.1895C8.76187 13.3563 8.59574 13.4866 8.47845 13.5759C8.41978 13.6205 8.37327 13.655 8.34085 13.6786C8.33073 13.686 8.32198 13.6924 8.31466 13.6977C8.31027 13.7008 8.30639 13.7036 8.30304 13.706L8.29251 13.7135L8.28942 13.7157L8.28842 13.7164C8.28842 13.7164 8.2878 13.7169 8.00016 13.3079C7.71251 13.7169 7.71239 13.7168 7.71239 13.7168L7.7109 13.7157L7.70781 13.7135L7.69728 13.706C7.68835 13.6996 7.67567 13.6905 7.65946 13.6786C7.62705 13.655 7.58053 13.6205 7.52187 13.5759C7.40457 13.4866 7.23844 13.3563 7.03916 13.1895C6.68771 12.8952 6.23051 12.4849 5.75521 11.9831ZM8.00016 13.3079C7.88778 13.4676 7.71239 13.7168 7.71239 13.7168C7.88495 13.8381 8.11524 13.8382 8.2878 13.7169C8.2878 13.7169 8.11249 13.4676 8.00016 13.3079ZM8.00016 12.6817C8.08992 12.6112 8.19768 12.5245 8.31916 12.4228C8.69199 12.1106 9.19077 11.6598 9.69496 11.1061C10.7945 9.90042 11.8423 8.29634 11.8423 6.60408C11.8423 4.53648 10.1336 2.83984 7.99993 2.83984C5.86627 2.83984 4.15756 4.53648 4.15756 6.60408C4.15756 8.29628 5.20542 9.90004 6.30507 11.1058C6.80927 11.6595 7.30832 12.1106 7.68115 12.4228C7.80264 12.5245 7.91039 12.6112 8.00016 12.6817ZM7.99993 5.88766C7.5793 5.88766 7.26122 6.21295 7.26122 6.60408C7.26122 6.99879 7.58294 7.32726 7.99993 7.32726C8.41511 7.32726 8.73864 6.99382 8.73864 6.60408C8.73864 6.21791 8.41873 5.88766 7.99993 5.88766ZM9.73864 6.60408C9.73864 7.56094 8.95928 8.32726 7.99993 8.32726C7.04057 8.32726 6.26122 7.56094 6.26122 6.60408C6.26122 5.64363 7.04421 4.88766 7.99993 4.88766C8.95747 4.88766 9.73864 5.65218 9.73864 6.60408Z" fill="white"/>
</svg>
