<svg width="20" height="20" viewBox="0 0 20 20" fill="none" xmlns="http://www.w3.org/2000/svg">
<path fill-rule="evenodd" clip-rule="evenodd" d="M3.63867 4.77778C3.63867 4.21421 4.10289 3.75 4.66645 3.75H15.3331C15.8967 3.75 16.3609 4.21421 16.3609 4.77778V6.02453C16.0467 5.88384 15.6988 5.80554 15.3333 5.80554H11.7778C11.0858 5.80554 10.4572 6.0862 9.99989 6.53947C9.5426 6.0862 8.91396 5.80554 8.222 5.80554H4.66645C4.30087 5.80554 3.95297 5.88388 3.63867 6.02462V4.77778ZM16.2347 8.47221L16.2222 8.47217H10.75V8.33332C10.75 7.76976 11.2142 7.30554 11.7778 7.30554H15.3333C15.8898 7.30554 16.3495 7.75821 16.3609 8.31221V8.47221H16.2347ZM17.8611 9.07815C18.4045 9.54244 18.75 10.2322 18.75 10.9999V15.4444C18.75 15.8586 18.4142 16.1944 18 16.1944H16.9727V17.2222H15.4727V16.1944H4.52734V17.2222H3.02734V16.1944H2C1.58579 16.1944 1.25 15.8586 1.25 15.4444V10.9999C1.25 10.2323 1.59539 9.54263 2.13867 9.07834V8.33332V4.77778C2.13867 3.38579 3.27446 2.25 4.66645 2.25H15.3331C16.7251 2.25 17.8609 3.38579 17.8609 4.77778V8.29998C17.861 8.31107 17.8611 8.32219 17.8611 8.33332V9.07815ZM9.24978 8.33332V8.47217H3.77778L3.76529 8.47221H3.63867V8.33332C3.63867 7.76976 4.10289 7.30554 4.66645 7.30554H8.222C8.78557 7.30554 9.24978 7.76976 9.24978 8.33332ZM3.76726 9.97222C3.20845 9.97795 2.75 10.4399 2.75 10.9999V14.6944H17.25V10.9999C17.25 10.4399 16.7915 9.97795 16.2327 9.97222H3.76726Z" fill="#004D45"/>
</svg>
