<svg width="24" height="24" viewBox="0 0 24 24" fill="none" xmlns="http://www.w3.org/2000/svg">
<path fill-rule="evenodd" clip-rule="evenodd" d="M20.4141 3C21.9328 3 23.1641 4.23122 23.1641 5.75V17.75C23.1641 19.2688 21.9328 20.5 20.4141 20.5H4.41406C2.89528 20.5 1.66406 19.2688 1.66406 17.75V5.75C1.66406 4.23122 2.89528 3 4.41406 3H20.4141ZM3.16406 5.75C3.16406 5.61419 3.18572 5.48344 3.22577 5.36102L11.9456 12.335C12.2195 12.5541 12.6086 12.5541 12.8825 12.335L21.6023 5.36099C21.6424 5.48342 21.6641 5.61418 21.6641 5.75V17.75C21.6641 18.4404 21.1044 19 20.4141 19H4.41406C3.72371 19 3.16406 18.4404 3.16406 17.75V5.75ZM12.414 10.7889L4.55077 4.5H20.2773L12.414 10.7889Z" fill="#1A1A1A"/>
</svg>
