<svg width="20" height="21" viewBox="0 0 20 21" fill="none" xmlns="http://www.w3.org/2000/svg">
<g clip-path="url(#clip0_11811_77664)">
<path fill-rule="evenodd" clip-rule="evenodd" d="M5.58203 3.38898C5.58203 2.76426 6.09629 2.25 6.72101 2.25C7.34574 2.25 7.86 2.76426 7.86 3.38898C7.86 3.88429 7.53162 4.31355 7.08158 4.46166L7.08154 4.46154L7.06828 4.46618C6.9508 4.5073 6.83615 4.52797 6.72101 4.52797C6.09629 4.52797 5.58203 4.01371 5.58203 3.38898ZM6.72101 0.75C5.26786 0.75 4.08203 1.93583 4.08203 3.38898C4.08203 4.84214 5.26786 6.02797 6.72101 6.02797C6.75078 6.02797 6.78037 6.02743 6.80977 6.02637L8.84334 12.1271L9.01428 12.6399H9.55485H13.8527L16.4677 16.9982L16.6861 17.3624H17.1108H18.9998C19.414 17.3624 19.7498 17.0266 19.7498 16.6124C19.7498 16.1981 19.414 15.8624 18.9998 15.8624H17.5354L14.9204 11.504L14.702 11.1399H14.2773H10.0954L8.23071 5.54576C8.90983 5.07147 9.36 4.2829 9.36 3.38898C9.36 1.93583 8.17417 0.75 6.72101 0.75ZM6.72246 8.30591C3.70145 8.30591 1.25 10.7574 1.25 13.7784C1.25 16.7994 3.70145 19.2508 6.72246 19.2508C9.74347 19.2508 12.1949 16.7994 12.1949 13.7784H10.6949C10.6949 15.9709 8.91504 17.7508 6.72246 17.7508C4.52987 17.7508 2.75 15.9709 2.75 13.7784C2.75 11.5858 4.52987 9.80591 6.72246 9.80591V8.30591ZM10.5 6.41736C10.0858 6.41736 9.75 6.75314 9.75 7.16736C9.75 7.58157 10.0858 7.91736 10.5 7.91736H14.278C14.6922 7.91736 15.028 7.58157 15.028 7.16736C15.028 6.75314 14.6922 6.41736 14.278 6.41736H10.5Z" fill="#004D45"/>
</g>
<defs>
<clipPath id="clip0_11811_77664">
<rect width="20" height="20" fill="white" transform="translate(0 0.5)"/>
</clipPath>
</defs>
</svg>
