<svg width="40" height="40" viewBox="0 0 40 40" fill="none" xmlns="http://www.w3.org/2000/svg">
<path fill-rule="evenodd" clip-rule="evenodd" d="M10.6289 8.08867C10.6289 6.73098 11.7291 5.63086 13.0857 5.63086H26.9129C28.2694 5.63086 29.3696 6.73098 29.3696 8.08867V22.6494H10.6289V8.08867ZM10.6289 24.6494H29.3696V25.3777C29.3696 26.7354 28.2694 27.8356 26.9129 27.8356H13.0857C11.7291 27.8356 10.6289 26.7354 10.6289 25.3777V24.6494ZM13.0857 3.63086C10.624 3.63086 8.62891 5.62697 8.62891 8.08867V25.3777C8.62891 27.8395 10.624 29.8356 13.0857 29.8356H14.1282L8.92169 35.0436L10.3361 36.4576L13.4998 33.293H26.4997L29.6634 36.4576L31.0778 35.0436L25.8713 29.8356H26.9129C29.3746 29.8356 31.3696 27.8395 31.3696 25.3777V8.08867C31.3696 5.62697 29.3746 3.63086 26.9129 3.63086H13.0857ZM24.5003 31.293L23.0433 29.8356H16.9562L15.4992 31.293H24.5003ZM16.543 12.5469H23.4565V10.5469H16.543V12.5469Z" fill="white"/>
</svg>
