<svg width="200" height="39" viewBox="0 0 200 39" fill="none" xmlns="http://www.w3.org/2000/svg">
<g clip-path="url(#clip0_4878_6737)">
<path d="M124.556 14.117V8.63756H131.224V15.3047H132.411L133.599 14.117V8.63756V6.7346V0.0809784H131.224V6.7346H124.556V0.0809784H122.181V6.7346V8.63756V15.3047H123.369L124.556 14.117Z" fill="#231F20"/>
<path d="M144.855 15.2237L145.961 14.117V13.3207H137.877V8.57008H145.017V6.66712H137.877V1.90296H144.544L145.489 0.958229V0H137.877H135.502V1.90296V6.66712V8.57008V13.3207V15.2237H137.877H144.855Z" fill="#231F20"/>
<path d="M108.86 1.98394H113.382V15.3047H114.569L115.757 14.117V1.98394H119.32L120.278 1.02571V0.0809784H108.86V1.98394Z" fill="#231F20"/>
<path d="M128.011 22.9705H125.798L120.305 38.2347H122.694L124.354 33.457H129.564L131.278 38.2347H133.666L128.173 22.9705H127.998H128.011ZM125.029 31.5541L126.932 26.0881L128.902 31.5541H125.042H125.029Z" fill="#231F20"/>
<path d="M135.583 38.2617H136.77L137.971 37.0605V22.984H135.583V38.2617Z" fill="#231F20"/>
<path d="M142.263 22.984H139.875V36.3452V38.2617H142.263H148.229L149.416 37.0605V36.3452H142.263V22.984Z" fill="#231F20"/>
<path d="M160.402 34.1994L153.721 22.957H151.333V38.2212H152.52L153.721 37.0336V26.9789L160.402 38.2212H161.59L162.777 37.0336V22.957H160.402V34.1994Z" fill="#231F20"/>
<path d="M192.847 36.3452V22.984H190.458V36.3452V38.2617H192.847H198.812L200 37.0605V36.3452H192.847Z" fill="#231F20"/>
<path d="M180.444 31.5406H187.597V29.6376H180.444V24.86H187.125L188.069 23.9153V22.957H180.444H178.055V24.86V29.6376V31.5406V36.3183V38.2212H180.444H187.368L188.555 37.0471V36.3183H180.444V31.5406Z" fill="#231F20"/>
<path d="M164.694 24.86H169.229V38.2212H170.416L171.604 37.0336V24.86H175.194L176.139 23.9153V22.957H164.694V24.86Z" fill="#231F20"/>
<path d="M119.36 27.7347C119.36 25.1029 117.646 22.957 115.541 22.957H108.86V38.2212H110.048L111.236 37.0336V32.4988H113.746L117.687 38.2212H119.117L119.819 37.5194L116.297 32.4044C118.038 31.959 119.347 30.029 119.347 27.7347H119.36ZM115.069 30.5959H111.249V24.8735H115.541C116.553 24.8735 117.444 26.2096 117.444 27.7347C117.444 29.2597 116.553 30.5959 115.541 30.5959H115.069Z" fill="#231F20"/>
<path d="M10.4326 0H0V8.69154H10.4326V0Z" fill="#231F20"/>
<path d="M11.7417 38.2617H20.8651V8.69155H31.2977V0H11.7417V38.2617Z" fill="#231F20"/>
<path d="M64.3364 12.1736C64.3364 5.45246 58.884 0 52.1629 0H34.7798V38.2617H43.9032V24.3471H46.7644L56.9405 38.2617H66.0639L55.5369 23.8613C60.6115 22.3902 64.3364 17.7205 64.3364 12.1736ZM43.9032 8.69155H52.1629C54.0793 8.69155 55.6449 10.2571 55.6449 12.1736C55.6449 14.09 54.0793 15.6556 52.1629 15.6556H43.9032V8.70504V8.69155Z" fill="#231F20"/>
<path d="M77.171 0H66.0771V8.69155H77.171V38.2617H86.2944V8.69155H97.3748V0H86.2944H77.171Z" fill="#231F20"/>
</g>
<defs>
<clipPath id="clip0_4878_6737">
<rect width="200" height="39" fill="white"/>
</clipPath>
</defs>
</svg>
