<svg width="20" height="20" viewBox="0 0 20 20" fill="none" xmlns="http://www.w3.org/2000/svg">
<path fill-rule="evenodd" clip-rule="evenodd" d="M6.30566 4.77778C6.30566 4.21421 6.76988 3.75 7.33344 3.75H12.6668C13.2303 3.75 13.6946 4.21421 13.6946 4.77778V4.91667H6.30566V4.77778ZM7.33344 2.25C5.94145 2.25 4.80566 3.38579 4.80566 4.77778V4.91669H2C1.58579 4.91669 1.25 5.25247 1.25 5.66669V8.33335V17.2222C1.25 17.6365 1.58579 17.9722 2 17.9722H18C18.4142 17.9722 18.75 17.6365 18.75 17.2222V8.33335V5.66669C18.75 5.25247 18.4142 4.91669 18 4.91669H15.1946V4.77778C15.1946 3.38579 14.0588 2.25 12.6668 2.25H7.33344ZM17.25 8.33335V6.41669H2.75V8.33335C2.75 9.88358 4.00532 11.1389 5.55556 11.1389H7.47222V10.1111C7.47222 9.72516 7.76378 9.40728 8.13867 9.36573C8.16624 9.36266 8.19427 9.36108 8.22266 9.36108H11.7782C12.1924 9.36108 12.5282 9.69687 12.5282 10.1111V11.1389H14.4444C15.9947 11.1389 17.25 9.88358 17.25 8.33335ZM11.7778 14.4167C11.8062 14.4167 11.8342 14.4151 11.8618 14.412C12.2367 14.3705 12.5282 14.0526 12.5282 13.6666V12.6389H14.4444C15.5164 12.6389 16.4966 12.2476 17.25 11.6V16.4722H2.75V11.6C3.50344 12.2476 4.48363 12.6389 5.55556 12.6389H7.47222V13.6667C7.47222 14.0809 7.80801 14.4167 8.22222 14.4167H11.7778ZM11.0278 11.8889V10.8611H8.97266V12.9166H11.0278V11.8889Z" fill="#004D45"/>
</svg>
