<svg width="20" height="20" viewBox="0 0 20 20" fill="none" xmlns="http://www.w3.org/2000/svg">
<path d="M0.5 4C0.5 2.067 2.067 0.5 4 0.5H16C17.933 0.5 19.5 2.067 19.5 4V16C19.5 17.933 17.933 19.5 16 19.5H4C2.067 19.5 0.5 17.933 0.5 16V4Z" fill="white"/>
<path d="M0.5 4C0.5 2.067 2.067 0.5 4 0.5H16C17.933 0.5 19.5 2.067 19.5 4V16C19.5 17.933 17.933 19.5 16 19.5H4C2.067 19.5 0.5 17.933 0.5 16V4Z" stroke="#D9D9D9"/>
<path fill-rule="evenodd" clip-rule="evenodd" d="M13.5304 9.56066L12.4697 8.5L10.0001 10.9697L7.5304 8.5L6.46974 9.56066L10.0001 13.091L13.5304 9.56066Z" fill="#1A1A1A"/>
</svg>
