<svg width="20" height="20" viewBox="0 0 20 20" fill="none" xmlns="http://www.w3.org/2000/svg">
<path fill-rule="evenodd" clip-rule="evenodd" d="M8.80913 3.89821C8.12999 4.04658 7.47637 4.30473 6.87491 4.66529C5.87625 5.26395 5.05882 6.12248 4.50983 7.14929C3.96083 8.1761 3.70087 9.33267 3.75766 10.4956C3.81445 11.6586 4.18587 12.7844 4.83229 13.7528C5.47872 14.7212 6.37591 15.496 7.42815 15.9945C8.48039 16.4931 9.64823 16.6966 10.8071 16.5834C11.9659 16.4702 13.0723 16.0446 14.0082 15.352C14.496 14.9909 14.928 14.5644 15.2931 14.0865C14.3644 14.1871 13.4179 14.0941 12.5153 13.8053C11.0154 13.3254 9.73114 12.3351 8.8857 11.0065C8.04026 9.67793 7.68711 8.0951 7.88763 6.53315C8.00829 5.59331 8.32481 4.69679 8.80913 3.89821ZM10.2781 2.25638H10.4932C10.8016 2.25638 11.0791 2.44512 11.1919 2.73213C11.3046 3.01913 11.2302 3.34591 11.0043 3.55581C10.1077 4.38901 9.53128 5.51008 9.37542 6.72415C9.21956 7.93822 9.49406 9.16853 10.1512 10.2012C10.8083 11.2339 11.8066 12.0036 12.9724 12.3767C14.1382 12.7497 15.3979 12.7024 16.5324 12.243C16.8127 12.1295 17.1338 12.1955 17.3467 12.4103C17.5595 12.6251 17.6225 12.9468 17.5065 13.226C16.9554 14.552 16.0548 15.7035 14.9006 16.5577C13.7464 17.4119 12.382 17.9368 10.9529 18.0763C9.52376 18.2159 8.08358 17.9649 6.78594 17.3501C5.4883 16.7353 4.38187 15.7798 3.58469 14.5856C2.78751 13.3913 2.32948 12.003 2.25944 10.5688C2.18941 9.13462 2.51 7.70831 3.18703 6.44204C3.86405 5.17576 4.87211 4.11702 6.10368 3.37874C7.33524 2.64047 8.74412 2.25035 10.18 2.25C10.2129 2.24999 10.2458 2.25215 10.2781 2.25638ZM16.8349 3.8045C16.8349 3.39029 16.4991 3.0545 16.0849 3.0545C15.6707 3.0545 15.3349 3.39029 15.3349 3.8045C15.3349 4.11347 15.2121 4.40978 14.9937 4.62825C14.7752 4.84672 14.4789 4.96945 14.1699 4.96945C13.7557 4.96945 13.4199 5.30524 13.4199 5.71945C13.4199 6.13367 13.7557 6.46945 14.1699 6.46945C14.4789 6.46945 14.7752 6.59219 14.9937 6.81066C15.2121 7.02913 15.3349 7.32544 15.3349 7.6344C15.3349 8.04861 15.6707 8.3844 16.0849 8.3844C16.4991 8.3844 16.8349 8.04861 16.8349 7.6344C16.8349 7.32544 16.9576 7.02913 17.1761 6.81066C17.3945 6.59219 17.6909 6.46945 17.9998 6.46945C18.414 6.46945 18.7498 6.13367 18.7498 5.71945C18.7498 5.30524 18.414 4.96945 17.9998 4.96945C17.6909 4.96945 17.3945 4.84672 17.1761 4.62825C16.9576 4.40978 16.8349 4.11347 16.8349 3.8045Z" fill="#1A1A1A"/>
</svg>
