<svg width="20" height="20" viewBox="0 0 20 20" fill="none" xmlns="http://www.w3.org/2000/svg">
<path fill-rule="evenodd" clip-rule="evenodd" d="M4.61656 3.94804C4.71276 3.63238 5.00399 3.41669 5.33398 3.41669H14.6673C14.9973 3.41669 15.2885 3.63238 15.3847 3.94804L16.9371 9.04169H19V10.5417H17.3935C17.4093 10.6029 17.4173 10.6659 17.4173 10.7292V15.8334C17.4173 16.2476 17.0815 16.5834 16.6673 16.5834H15.834V17.625H13.334V16.5834H6.66602V17.625H4.16602V16.5834H3.33398C2.91977 16.5834 2.58398 16.2476 2.58398 15.8334V10.7292C2.58398 10.6659 2.592 10.6029 2.6078 10.5417H1V9.04169H3.06421L4.61656 3.94804ZM14.1118 4.91669L15.369 9.04169L4.63233 9.04169L5.88947 4.91669H14.1118ZM4.08398 10.8409L4.17518 10.5417L15.8261 10.5417L15.9173 10.8409V15.0834H4.08398V10.8409ZM8.33398 13.4583H11.6673V11.9583H8.33398V13.4583Z" fill="#004D45"/>
</svg>
