<svg width="125" height="24" viewBox="0 0 125 24" fill="none" xmlns="http://www.w3.org/2000/svg">
<g clip-path="url(#clip0_8885_10779)">
<path d="M77.8518 8.85501V5.41798H82.0187V9.59999H82.761L83.5033 8.85501V5.41798V4.22433V0.0507812H82.0187V4.22433H77.8518V0.0507812H76.3672V4.22433V5.41798V9.59999H77.1095L77.8518 8.85501Z" fill="#231F20"/>
<path d="M90.533 9.54921L91.2247 8.85503V8.35556H86.1721V5.37566H90.6343V4.18201H86.1721V1.19365H90.339L90.9295 0.601058V0H86.1721H84.6875V1.19365V4.18201V5.37566V8.35556V9.54921H86.1721H90.533Z" fill="#231F20"/>
<path d="M68.0391 1.24443H70.8648V9.59999H71.6071L72.3494 8.85501V1.24443H74.5763L75.1752 0.643374V0.0507812H68.0391V1.24443Z" fill="#231F20"/>
<path d="M80.0118 14.4087H78.6284L75.1953 23.9833H76.6883L77.7258 20.9865H80.9818L82.0531 23.9833H83.5461L80.113 14.4087H80.0033H80.0118ZM78.1392 19.7928L79.3285 16.3642L80.56 19.7928H78.1476H78.1392Z" fill="#231F20"/>
<path d="M84.7422 24.0001H85.4845L86.2352 23.2466V14.417H84.7422V24.0001Z" fill="#231F20"/>
<path d="M88.9149 14.417H87.4219V22.7979V24.0001H88.9149H92.6432L93.3855 23.2466V22.7979H88.9149V14.417Z" fill="#231F20"/>
<path d="M100.254 21.4518L96.079 14.3999H94.5859V23.9745H95.3282L96.079 23.2295V16.9227L100.254 23.9745H100.997L101.739 23.2295V14.3999H100.254V21.4518Z" fill="#231F20"/>
<path d="M120.532 22.7979V14.417H119.039V22.7979V24.0001H120.532H124.26L125.003 23.2466V22.7979H120.532Z" fill="#231F20"/>
<path d="M112.782 19.784H117.253V18.5904H112.782V15.5936H116.957L117.548 15.001V14.3999H112.782H111.289V15.5936V18.5904V19.784V22.7809V23.9745H112.782H117.109L117.852 23.238V22.7809H112.782V19.784Z" fill="#231F20"/>
<path d="M102.938 15.5936H105.772V23.9745H106.514L107.256 23.2295V15.5936H109.5L110.09 15.001V14.3999H102.938V15.5936Z" fill="#231F20"/>
<path d="M74.6016 17.3967C74.6016 15.7459 73.5303 14.3999 72.2144 14.3999H68.0391V23.9745H68.7814L69.5236 23.2295V20.3851H71.0926L73.5556 23.9745H74.4497L74.8884 23.5343L72.6868 20.3258C73.7749 20.0465 74.5931 18.8359 74.5931 17.3967H74.6016ZM71.9192 19.1914H69.5321V15.602H72.2144C72.8471 15.602 73.4038 16.4401 73.4038 17.3967C73.4038 18.3533 72.8471 19.1914 72.2144 19.1914H71.9192Z" fill="#231F20"/>
<path d="M6.52035 0H0V5.45185H6.52035V0Z" fill="#049882"/>
<path d="M7.33594 0H19.5584V5.45185H13.0381V24H7.33594V0Z" fill="#049882"/>
<path d="M34.7154 14.9672C37.887 14.0444 40.2151 11.1153 40.2151 7.63598C40.2151 3.42011 36.8073 0 32.6066 0H21.7422V24H27.4443V15.272H29.2326L35.5927 24H41.2948L34.7154 14.9672ZM32.5982 9.82011H27.4359V5.46032H32.5982C33.796 5.46032 34.7744 6.44233 34.7744 7.64444C34.7744 8.84656 33.796 9.82857 32.5982 9.82857V9.82011Z" fill="#231F20"/>
<path d="M60.8579 0H53.9327H48.2305H41.2969V5.45185H48.2305V24H53.9327V5.45185H60.8579V0Z" fill="#D8942A"/>
</g>
<defs>
<clipPath id="clip0_8885_10779">
<rect width="125" height="24" fill="white"/>
</clipPath>
</defs>
</svg>
