<svg width="20" height="20" viewBox="0 0 20 20" fill="none" xmlns="http://www.w3.org/2000/svg">
<path fill-rule="evenodd" clip-rule="evenodd" d="M8.11511 12.7487C8.57864 12.2797 9 11.4276 9 9.9C9 8.33504 8.55335 6.46155 7.83705 5.0111C7.48011 4.28834 7.09149 3.74293 6.72474 3.3985C6.35711 3.05325 6.11433 3 6 3C5.88566 3 5.64289 3.05325 5.27526 3.3985C4.90851 3.74293 4.51989 4.28834 4.16295 5.0111C3.44665 6.46155 3 8.33504 3 9.9C3 11.4276 3.42136 12.2797 3.88489 12.7487C4.24968 13.1178 4.75869 13.3693 5.41667 13.4612V11.9773L3.96967 10.5303L5.03033 9.46967L5.41667 9.85601V7.5H6.91667V9.85601L7.303 9.46967L8.36366 10.5303L6.91667 11.9773V13.3981C7.41588 13.2772 7.81447 13.0529 8.11511 12.7487ZM1.5 9.9C1.5 13.2213 3.20696 14.7493 5.41667 14.9714V16.75H1V18.25H19V16.75H15.75V15.9524V15.5634C17.0439 15.1937 18 13.8412 18 11.6667C18 9.08936 16.6569 5.66669 15 5.66669C13.3431 5.66669 12 9.08936 12 11.6667C12 13.8412 12.9561 15.1937 14.25 15.5634V15.9524V16.75H6.91667V14.9273C8.96237 14.5891 10.5 13.0522 10.5 9.9C10.5 6.29174 8.48528 1.5 6 1.5C3.51472 1.5 1.5 6.29174 1.5 9.9ZM15 14.1667C15.3667 14.1667 15.6883 14.0229 15.9505 13.6955C16.2297 13.3469 16.5 12.7053 16.5 11.6667C16.5 10.6002 16.2135 9.31402 15.7591 8.32809C15.5322 7.83585 15.298 7.49457 15.1038 7.29912C15.0619 7.25699 15.0273 7.22672 15 7.20519C14.9727 7.22672 14.9381 7.25699 14.8962 7.29912C14.702 7.49457 14.4678 7.83585 14.2409 8.32809C13.7865 9.31402 13.5 10.6002 13.5 11.6667C13.5 12.7053 13.7703 13.3469 14.0495 13.6955C14.3117 14.0229 14.6333 14.1667 15 14.1667ZM15.077 7.15559C15.077 7.15572 15.0752 7.15657 15.0716 7.15775C15.0752 7.15605 15.077 7.15546 15.077 7.15559ZM14.9284 7.15775C14.9248 7.15657 14.923 7.15572 14.923 7.15559C14.923 7.15546 14.9248 7.15605 14.9284 7.15775Z" fill="#004D45"/>
</svg>
