<svg width="40" height="40" viewBox="0 0 40 40" fill="none" xmlns="http://www.w3.org/2000/svg">
<path d="M0 20C0 8.95431 8.95431 0 20 0C31.0457 0 40 8.95431 40 20C40 31.0457 31.0457 40 20 40C8.95431 40 0 31.0457 0 20Z" fill="#F2F7F7"/>
<path fill-rule="evenodd" clip-rule="evenodd" d="M19.1279 12.3488C19.3585 12.2171 19.6415 12.2171 19.8721 12.3488L26.3721 16.0631C26.6058 16.1966 26.75 16.4451 26.75 16.7143V26C26.75 26.4142 26.4142 26.75 26 26.75H13C12.5858 26.75 12.25 26.4142 12.25 26V16.7143C12.25 16.4451 12.3942 16.1966 12.6279 16.0631L19.1279 12.3488ZM20.25 25.25V19.5C20.25 19.0858 19.9142 18.75 19.5 18.75C19.0858 18.75 18.75 19.0858 18.75 19.5V25.25H13.75V17.1495L19.5 13.8638L25.25 17.1495V25.25H20.25Z" fill="#1A1A1A"/>
</svg>
