<svg width="104" height="20" viewBox="0 0 104 20" fill="none" xmlns="http://www.w3.org/2000/svg">
<g id="ci" clip-path="url(#clip0_9531_2147)">
<g id="Group">
<path id="Vector" d="M64.7692 7.3791V4.5149H68.2361V7.99991H68.8537L69.4713 7.3791V4.5149V3.52019V0.0422363H68.2361V3.52019H64.7692V0.0422363H63.5341V3.52019V4.5149V7.99991H64.1516L64.7692 7.3791Z" fill="#231F20"/>
<path id="Vector_2" d="M75.3244 7.95767L75.8998 7.37919V6.96296H71.696V4.47972H75.4086V3.48501H71.696V0.994709H75.1629L75.6542 0.500882V0H71.696H70.4609V0.994709V3.48501V4.47972V6.96296V7.95767H71.696H75.3244Z" fill="#231F20"/>
<path id="Vector_3" d="M56.6073 1.03695H58.9583V7.99991H59.5759L60.1935 7.3791V1.03695H62.0463L62.5445 0.536063V0.0422363H56.6073V1.03695Z" fill="#231F20"/>
<path id="Vector_4" d="M66.5659 12.0071H65.4149L62.5586 19.9859H63.8008L64.664 17.4886H67.373L68.2642 19.9859H69.5064L66.6501 12.0071H66.5589H66.5659ZM65.0079 16.4939L65.9974 13.6367L67.0221 16.4939H65.0149H65.0079Z" fill="#231F20"/>
<path id="Vector_5" d="M70.503 20.0001H71.1206L71.7452 19.3722V12.0142H70.503V20.0001Z" fill="#231F20"/>
<path id="Vector_6" d="M73.9769 12.0142H72.7347V18.9983V20.0001H73.9769H77.0788L77.6964 19.3722V18.9983H73.9769V12.0142Z" fill="#231F20"/>
<path id="Vector_7" d="M83.4091 17.8765L79.9352 12H78.693V19.9788H79.3106L79.9352 19.358V14.1023L83.4091 19.9788H84.0267L84.6443 19.358V12H83.4091V17.8765Z" fill="#231F20"/>
<path id="Vector_8" d="M100.28 18.9983V12.0142H99.0382V18.9983V20.0001H100.28H103.382L104 19.3722V18.9983H100.28Z" fill="#231F20"/>
<path id="Vector_9" d="M93.8309 16.4868H97.5504V15.4921H93.8309V12.9947H97.3048L97.7961 12.5009V12H93.8309H92.5887V12.9947V15.4921V16.4868V18.9841V19.9788H93.8309H97.4311L98.0487 19.3651V18.9841H93.8309V16.4868Z" fill="#231F20"/>
<path id="Vector_10" d="M85.6408 12.9947H87.9989V19.9788H88.6164L89.234 19.358V12.9947H91.1008L91.5921 12.5009V12H85.6408V12.9947Z" fill="#231F20"/>
<path id="Vector_11" d="M62.0673 14.4974C62.0673 13.1217 61.176 12 60.0812 12H56.6073V19.9788H57.2249L57.8425 19.358V16.9877H59.1478L61.1971 19.9788H61.941L62.3059 19.612L60.4742 16.9383C61.3795 16.7055 62.0603 15.6966 62.0603 14.4974H62.0673ZM59.8356 15.9929H57.8495V13.0018H60.0812C60.6076 13.0018 61.0708 13.7002 61.0708 14.4974C61.0708 15.2945 60.6076 15.9929 60.0812 15.9929H59.8356Z" fill="#231F20"/>
</g>
<g id="TRT 2&#236;&#149;&#136;_Small">
<g id="T">
<path id="Vector_12" d="M5.42493 0H0V4.54321H5.42493V0Z" fill="#049882"/>
<path id="Vector_13" d="M6.10565 0H16.2748V4.54321H10.8498V20H6.10565V0Z" fill="#049882"/>
</g>
<path id="Vector_14" d="M28.8862 12.4727C31.525 11.7037 33.4619 9.26279 33.4619 6.36332C33.4619 2.85009 30.6266 0 27.1317 0H18.0925V20H22.8366V12.7266H24.3245L29.6161 20H34.3602L28.8862 12.4727ZM27.1247 8.18342H22.8296V4.55026H27.1247C28.1212 4.55026 28.9353 5.36861 28.9353 6.37037C28.9353 7.37213 28.1212 8.19048 27.1247 8.19048V8.18342Z" fill="#231F20"/>
<path id="Vector_15" d="M50.635 0H44.8732H40.129H34.3602V4.54321H40.129V20H44.8732V4.54321H50.635V0Z" fill="#D8942A"/>
</g>
</g>
<defs>
<clipPath id="clip0_9531_2147">
<rect width="104" height="20" fill="white"/>
</clipPath>
</defs>
</svg>
