<svg width="20" height="20" viewBox="0 0 20 20" fill="none" xmlns="http://www.w3.org/2000/svg">
<path d="M18.4996 12.4108C18.4996 13.9643 17.8151 15.3687 16.7216 16.3254C16.5261 16.5009 16.3216 16.6589 16.1083 16.7993C15.2637 17.3611 14.2503 17.677 13.1658 17.677C12.0813 17.677 11.0678 17.3611 10.2233 16.7993C8.78322 15.8602 7.83203 14.2452 7.83203 12.4108C7.83203 9.50557 10.2233 7.14453 13.1658 7.14453C14.5348 7.14453 15.7793 7.6536 16.7216 8.4962C17.8151 9.4529 18.4996 10.8572 18.4996 12.4108Z" stroke="#004D45" stroke-width="1.5" stroke-linecap="round" stroke-linejoin="round"/>
<path fill-rule="evenodd" clip-rule="evenodd" d="M4.27792 4.38281C3.70524 4.38281 3.25 4.84594 3.25 5.38823V15.0342C3.25 15.5765 3.70524 16.0397 4.27792 16.0397H8.32338C7.39807 14.8388 6.91709 13.2797 7.1345 11.6108L7.13461 11.61C7.48126 8.97254 9.62181 6.82437 12.2817 6.4535L12.2838 6.4532C13.619 6.27088 14.8906 6.51427 15.9734 7.0748V5.38823C15.9734 4.84594 15.5181 4.38281 14.9455 4.38281H4.27792ZM1.75 5.38823C1.75 3.99956 2.89489 2.88281 4.27792 2.88281H14.9455C16.3285 2.88281 17.4734 3.99956 17.4734 5.38823V8.49532C17.4734 8.791 17.2997 9.05908 17.0298 9.17988C16.7599 9.30067 16.4442 9.25163 16.2237 9.05465C15.2643 8.19756 13.9365 7.74176 12.4878 7.93927C10.4901 8.21829 8.87987 9.84381 8.62188 11.805C8.38595 13.6171 9.24345 15.2557 10.6343 16.1611C10.9125 16.3423 11.0385 16.6848 10.9441 17.0031C10.8496 17.3214 10.5571 17.5397 10.2251 17.5397H4.27792C2.89489 17.5397 1.75 16.4229 1.75 15.0342V5.38823Z" fill="#004D45"/>
<path fill-rule="evenodd" clip-rule="evenodd" d="M6.91699 1V3.63313H5.41699V1H6.91699Z" fill="#004D45"/>
<path fill-rule="evenodd" clip-rule="evenodd" d="M13.9189 1V3.63313H12.4189V1H13.9189Z" fill="#004D45"/>
<path fill-rule="evenodd" clip-rule="evenodd" d="M16.3608 11.1885L12.8049 14.6993C12.5128 14.9877 12.0432 14.9877 11.7511 14.6993L9.97314 12.9439L11.027 11.8765L12.278 13.1117L15.3069 10.1211L16.3608 11.1885Z" fill="#004D45"/>
</svg>
