<svg width="20" height="20" viewBox="0 0 20 20" fill="none" xmlns="http://www.w3.org/2000/svg">
<path fill-rule="evenodd" clip-rule="evenodd" d="M7.39806 6C7.39806 4.61329 8.53761 3.44262 10 3.44262C11.4624 3.44262 12.6019 4.61329 12.6019 6C12.6019 7.38671 11.4624 8.55738 10 8.55738C8.53761 8.55738 7.39806 7.38671 7.39806 6ZM10 2C7.81624 2 6 3.76517 6 6C6 7.20164 6.52508 8.26749 7.35006 8.99618C4.82354 9.8667 3 12.1214 3 14.7934V16.1818C3 17.211 3.89652 18 4.93895 18H15.4611C16.5035 18 17.4 17.211 17.4 16.1818V14.7934C17.4 12.0181 15.4326 9.69282 12.7536 8.9014C13.5186 8.17659 14 7.15053 14 6C14 3.76517 12.1838 2 10 2ZM4.51579 14.7934C4.51579 12.2127 6.79738 10.0661 9.66316 10.0661H10.7368C13.6026 10.0661 15.8842 12.2127 15.8842 14.7934V16.1818C15.8842 16.3559 15.7214 16.5455 15.4611 16.5455H4.93895C4.67864 16.5455 4.51579 16.3559 4.51579 16.1818V14.7934Z" fill="#1A1A1A"/>
</svg>
