<svg width="20" height="20" viewBox="0 0 20 20" fill="none" xmlns="http://www.w3.org/2000/svg">
<path fill-rule="evenodd" clip-rule="evenodd" d="M6.63396 5.9375C6.98453 4.12244 8.58315 2.75 10.5 2.75C12.4168 2.75 14.0155 4.12244 14.366 5.9375H6.63396ZM5.0625 7.4375V10.4375H6.5625V7.4375H14.4375V10.4375H15.9375V7.4375H17.25V18.125H3.75V7.4375H5.0625ZM5.11387 5.9375C5.47951 3.29034 7.75273 1.25 10.5 1.25C13.2473 1.25 15.5205 3.29034 15.8861 5.9375H18C18.4142 5.9375 18.75 6.27329 18.75 6.6875V18.875C18.75 19.2892 18.4142 19.625 18 19.625H3C2.58579 19.625 2.25 19.2892 2.25 18.875V6.6875C2.25 6.27329 2.58579 5.9375 3 5.9375H5.11387Z" fill="#004D45"/>
</svg>
