<svg width="64" height="67" viewBox="0 0 64 67" fill="none" xmlns="http://www.w3.org/2000/svg">
<path d="M32.2303 18.7799C28.3703 18.7799 25.2303 21.9199 25.2303 25.7799C25.2303 26.2999 25.2803 26.8099 25.3903 27.2999L33.7503 18.9399C33.2603 18.8299 32.7503 18.7799 32.2303 18.7799ZM32.2303 18.7799C28.3703 18.7799 25.2303 21.9199 25.2303 25.7799C25.2303 26.2999 25.2803 26.8099 25.3903 27.2999L33.7503 18.9399C33.2603 18.8299 32.7503 18.7799 32.2303 18.7799ZM32.2303 18.7799C28.3703 18.7799 25.2303 21.9199 25.2303 25.7799C25.2303 26.2999 25.2803 26.8099 25.3903 27.2999L33.7503 18.9399C33.2603 18.8299 32.7503 18.7799 32.2303 18.7799ZM39.5803 8.33992C39.1703 7.33992 38.1903 6.66992 37.1003 6.66992H27.3803C26.2903 6.66992 25.3103 7.33992 24.9003 8.33992L22.9103 13.3299H16.2403C14.7603 13.3299 13.5703 14.5199 13.5703 15.9999V35.9999C13.5703 36.8599 13.9703 37.6199 14.6003 38.1099L24.1503 28.5699C23.8503 27.6999 23.6803 26.7699 23.6803 25.7899C23.6803 21.0699 27.5203 17.2299 32.2403 17.2299C33.2203 17.2299 34.1503 17.3899 35.0203 17.6999L40.9503 11.7699L39.5803 8.34992V8.33992ZM32.2303 18.7799C28.3703 18.7799 25.2303 21.9199 25.2303 25.7799C25.2303 26.2999 25.2803 26.8099 25.3903 27.2999L33.7503 18.9399C33.2603 18.8299 32.7503 18.7799 32.2303 18.7799ZM32.2303 18.7799C28.3703 18.7799 25.2303 21.9199 25.2303 25.7799C25.2303 26.2999 25.2803 26.8099 25.3903 27.2999L33.7503 18.9399C33.2603 18.8299 32.7503 18.7799 32.2303 18.7799Z" fill="#AAC4C1"/>
<path d="M43.76 13.33L52 5.1L50.9 4L36.52 18.38C36.98 18.64 37.41 18.94 37.81 19.29C39.63 20.86 40.79 23.19 40.79 25.78C40.79 30.5 36.95 34.34 32.23 34.34C29.64 34.34 27.31 33.18 25.74 31.36C25.39 30.96 25.09 30.53 24.83 30.07L12 42.9L13.1 44L18.44 38.66H48.24C49.72 38.66 50.91 37.47 50.91 35.99V16C50.91 14.52 49.72 13.33 48.24 13.33H43.76ZM44.24 18.67C43.51 18.67 42.9 18.07 42.9 17.33C42.9 16.59 43.51 16 44.24 16C44.97 16 45.57 16.6 45.57 17.33C45.57 18.06 44.97 18.67 44.24 18.67Z" fill="#AAC4C1"/>
<path d="M39.23 25.78C39.23 29.64 36.09 32.78 32.23 32.78C30.07 32.78 28.14 31.79 26.85 30.25C26.52 29.85 26.22 29.39 25.98 28.92L35.38 19.52C35.85 19.76 36.3 20.05 36.7 20.39C38.25 21.67 39.24 23.61 39.24 25.77L39.23 25.78Z" fill="#AAC4C1"/>
<path d="M9.87074 54.2727V63H8.27699L4.48011 57.5071H4.41619V63H2.57102V54.2727H4.19034L7.95739 59.7614H8.03409V54.2727H9.87074ZM19.4151 58.6364C19.4151 59.5881 19.2347 60.3977 18.8739 61.0653C18.516 61.733 18.0273 62.2429 17.408 62.5952C16.7915 62.9446 16.0984 63.1193 15.3285 63.1193C14.5529 63.1193 13.8569 62.9432 13.2404 62.5909C12.6239 62.2386 12.1367 61.7287 11.7788 61.0611C11.4208 60.3935 11.2418 59.5852 11.2418 58.6364C11.2418 57.6847 11.4208 56.875 11.7788 56.2074C12.1367 55.5398 12.6239 55.0312 13.2404 54.6818C13.8569 54.3295 14.5529 54.1534 15.3285 54.1534C16.0984 54.1534 16.7915 54.3295 17.408 54.6818C18.0273 55.0312 18.516 55.5398 18.8739 56.2074C19.2347 56.875 19.4151 57.6847 19.4151 58.6364ZM17.5444 58.6364C17.5444 58.0199 17.4521 57.5 17.2674 57.0767C17.0856 56.6534 16.8285 56.3324 16.4961 56.1136C16.1637 55.8949 15.7745 55.7855 15.3285 55.7855C14.8825 55.7855 14.4933 55.8949 14.1609 56.1136C13.8285 56.3324 13.57 56.6534 13.3853 57.0767C13.2035 57.5 13.1126 58.0199 13.1126 58.6364C13.1126 59.2528 13.2035 59.7727 13.3853 60.196C13.57 60.6193 13.8285 60.9403 14.1609 61.1591C14.4933 61.3778 14.8825 61.4872 15.3285 61.4872C15.7745 61.4872 16.1637 61.3778 16.4961 61.1591C16.8285 60.9403 17.0856 60.6193 17.2674 60.196C17.4521 59.7727 17.5444 59.2528 17.5444 58.6364ZM25.4045 54.2727V63H23.5593V54.2727H25.4045ZM26.9226 54.2727H29.1982L31.6016 60.1364H31.7038L34.1072 54.2727H36.3828V63H34.593V57.3196H34.5206L32.2621 62.9574H31.0433L28.7848 57.2983H28.7124V63H26.9226V54.2727ZM39.4073 63H37.43L40.4428 54.2727H42.8207L45.8292 63H43.8519L41.6658 56.267H41.5977L39.4073 63ZM39.2837 59.5696H43.9542V61.0099H39.2837V59.5696ZM52.2564 57.0938C52.1967 56.8864 52.1129 56.7031 52.005 56.544C51.897 56.3821 51.7649 56.2457 51.6087 56.1349C51.4553 56.0213 51.2791 55.9347 51.0803 55.875C50.8842 55.8153 50.6669 55.7855 50.4283 55.7855C49.9822 55.7855 49.5902 55.8963 49.2521 56.1179C48.9169 56.3395 48.6555 56.6619 48.468 57.0852C48.2805 57.5057 48.1868 58.0199 48.1868 58.6278C48.1868 59.2358 48.2791 59.7528 48.4638 60.179C48.6484 60.6051 48.9098 60.9304 49.2479 61.1548C49.5859 61.3764 49.9851 61.4872 50.4453 61.4872C50.8629 61.4872 51.2195 61.4134 51.5149 61.2656C51.8132 61.1151 52.0405 60.9034 52.1967 60.6307C52.3558 60.358 52.4354 60.0355 52.4354 59.6634L52.8104 59.7188H50.5604V58.3295H54.2124V59.429C54.2124 60.196 54.0504 60.8551 53.7266 61.4062C53.4027 61.9545 52.9567 62.3778 52.3885 62.6761C51.8203 62.9716 51.1697 63.1193 50.4368 63.1193C49.6186 63.1193 48.8999 62.9389 48.2805 62.5781C47.6612 62.2145 47.1783 61.6989 46.8317 61.0312C46.4879 60.3608 46.3161 59.5653 46.3161 58.6449C46.3161 57.9375 46.4183 57.3068 46.6229 56.7528C46.8303 56.196 47.12 55.7244 47.4922 55.3381C47.8643 54.9517 48.2976 54.6577 48.7919 54.456C49.2862 54.2543 49.8217 54.1534 50.3984 54.1534C50.8928 54.1534 51.353 54.2259 51.7791 54.3707C52.2053 54.5128 52.5831 54.7145 52.9126 54.9759C53.245 55.2372 53.5163 55.5483 53.7266 55.9091C53.9368 56.267 54.0717 56.6619 54.1314 57.0938H52.2564ZM55.5984 63V54.2727H61.479V55.794H57.4435V57.8736H61.1765V59.3949H57.4435V61.4787H61.4961V63H55.5984Z" fill="#AAC4C1"/>
</svg>
