<svg width="20" height="20" viewBox="0 0 20 20" fill="none" xmlns="http://www.w3.org/2000/svg">
<path fill-rule="evenodd" clip-rule="evenodd" d="M4.97222 2C4.97222 1.58579 4.63644 1.25 4.22222 1.25C3.80801 1.25 3.47222 1.58579 3.47222 2C3.47222 2.81245 2.81245 3.47222 2 3.47222C1.58579 3.47222 1.25 3.80801 1.25 4.22222C1.25 4.63644 1.58579 4.97222 2 4.97222C2.81245 4.97222 3.47222 5.63199 3.47222 6.44444C3.47222 6.85866 3.80801 7.19444 4.22222 7.19444C4.63644 7.19444 4.97222 6.85866 4.97222 6.44444C4.97222 5.63199 5.63199 4.97222 6.44444 4.97222C6.85866 4.97222 7.19444 4.63644 7.19444 4.22222C7.19444 3.80801 6.85866 3.47222 6.44444 3.47222C5.63199 3.47222 4.97222 2.81245 4.97222 2ZM3.97334 4.22222C4.0611 4.14422 4.14422 4.0611 4.22222 3.97334C4.30022 4.0611 4.38334 4.14422 4.47111 4.22222C4.38334 4.30022 4.30022 4.38334 4.22222 4.47111C4.14422 4.38334 4.0611 4.30022 3.97334 4.22222ZM2 8.36108C1.58579 8.36108 1.25 8.69687 1.25 9.11108V10.8889C1.25 11.3031 1.58579 11.6389 2 11.6389H2.13867V18C2.13867 18.4142 2.47446 18.75 2.88867 18.75H17.1109C17.5251 18.75 17.8609 18.4142 17.8609 18V11.6389H18C18.4142 11.6389 18.75 11.3031 18.75 10.8889V9.11108C18.75 8.69687 18.4142 8.36108 18 8.36108H11.6391V2.88889C11.6391 1.98579 10.9033 1.25 10.0002 1.25C9.09711 1.25 8.36133 1.98579 8.36133 2.88889V8.36108H2ZM10.1391 8.36108H9.86133V2.88889C9.86133 2.81421 9.92554 2.75 10.0002 2.75C10.0749 2.75 10.1391 2.81421 10.1391 2.88889V8.36108ZM9.10493 9.86108H2.75V10.1389H17.25V9.86108H10.8955C10.8934 9.8611 10.8912 9.86111 10.8891 9.86111H9.11133C9.10919 9.86111 9.10706 9.8611 9.10493 9.86108ZM3.63867 11.6389V17.25H5.69434V14.4445H7.19434V17.25H11.3138L12.8843 14.109C13.0113 13.855 13.271 13.6945 13.5551 13.6945C13.8392 13.6945 14.0989 13.855 14.2259 14.109L15.7964 17.25H16.3609V11.6389H3.63867ZM14.1194 17.25L13.5551 16.1215L12.9909 17.25H14.1194Z" fill="#004D45"/>
</svg>
