<svg width="20" height="21" viewBox="0 0 20 21" fill="none" xmlns="http://www.w3.org/2000/svg">
<rect x="0.5" y="1" width="19" height="19" rx="9.5" fill="white"/>
<rect x="0.5" y="1" width="19" height="19" rx="9.5" stroke="#D9D9D9"/>
<path d="M9.625 12.5717V12.4773C9.63163 11.8608 9.69295 11.3703 9.80895 11.0057C9.92827 10.6411 10.0973 10.3461 10.3161 10.1207C10.5348 9.89536 10.7983 9.68987 11.1065 9.50426C11.3054 9.37831 11.4844 9.23745 11.6435 9.08168C11.8026 8.9259 11.9285 8.74692 12.0213 8.54474C12.1141 8.34257 12.1605 8.11884 12.1605 7.87358C12.1605 7.5786 12.0909 7.32339 11.9517 7.10795C11.8125 6.89252 11.6269 6.7268 11.3949 6.6108C11.1662 6.49148 10.911 6.43182 10.6293 6.43182C10.3741 6.43182 10.1304 6.48485 9.89844 6.59091C9.66643 6.69697 9.4742 6.86269 9.32173 7.08807C9.16927 7.31013 9.08144 7.59683 9.05824 7.94815H7.54688C7.57008 7.35156 7.72088 6.84777 7.99929 6.43679C8.2777 6.02249 8.6456 5.70928 9.10298 5.49716C9.56368 5.28504 10.0724 5.17898 10.6293 5.17898C11.2391 5.17898 11.7727 5.29332 12.2301 5.52202C12.6875 5.7474 13.0421 6.06392 13.294 6.47159C13.5492 6.87595 13.6768 7.34825 13.6768 7.88849C13.6768 8.25971 13.6188 8.59446 13.5028 8.89276C13.3868 9.18774 13.2211 9.45123 13.0057 9.68324C12.7936 9.91525 12.5384 10.1207 12.2401 10.2997C11.9583 10.4754 11.7296 10.6577 11.554 10.8466C11.3816 11.0355 11.2557 11.2592 11.1761 11.5178C11.0966 11.7763 11.0535 12.0961 11.0469 12.4773V12.5717H9.625ZM10.3757 15.5945C10.1039 15.5945 9.87027 15.4983 9.67472 15.3061C9.47917 15.1106 9.38139 14.8752 9.38139 14.6001C9.38139 14.3284 9.47917 14.0964 9.67472 13.9041C9.87027 13.7086 10.1039 13.6108 10.3757 13.6108C10.6442 13.6108 10.8762 13.7086 11.0717 13.9041C11.2706 14.0964 11.37 14.3284 11.37 14.6001C11.37 14.7824 11.3236 14.9498 11.2308 15.1023C11.1413 15.2514 11.022 15.3707 10.8729 15.4602C10.7237 15.5497 10.558 15.5945 10.3757 15.5945Z" fill="#666666"/>
</svg>
