<svg width="16" height="16" viewBox="0 0 16 16" fill="none" xmlns="http://www.w3.org/2000/svg">
<g id="ico-16px">
<g id="Group 213">
<path id="Vector" d="M2 2.55556C2 2.143 2.18061 1.74733 2.5021 1.45561C2.82359 1.16389 3.25963 1 3.71429 1H12.2857C12.7404 1 13.1764 1.16389 13.4979 1.45561C13.8194 1.74733 14 2.143 14 2.55556V13.4444C14 13.857 13.8194 14.2527 13.4979 14.5444C13.1764 14.8361 12.7404 15 12.2857 15H3.71429C3.25963 15 2.82359 14.8361 2.5021 14.5444C2.18061 14.2527 2 13.857 2 13.4444V2.55556Z" fill="#999999"/>
<g id="Group 214">
<path id="Vector_2" d="M5.5 5.11108H10.1667" stroke="white" stroke-width="1.5" stroke-linecap="square" stroke-linejoin="round"/>
<path id="Vector_3" d="M5.5 8.33334H8.61111" stroke="white" stroke-width="1.5" stroke-linecap="square" stroke-linejoin="round"/>
</g>
</g>
</g>
</svg>
