<svg width="20" height="20" viewBox="0 0 20 20" fill="none" xmlns="http://www.w3.org/2000/svg">
<g id="ico-24px-Light" clip-path="url(#clip0_5733_24081)">
<g id="Vector">
<g id="Union">
<path fill-rule="evenodd" clip-rule="evenodd" d="M5.08919 8.85484C3.62405 8.56507 2.51758 7.27593 2.51758 5.72667V4.87196C2.51758 3.10899 3.95035 1.68286 5.71401 1.68286C7.47766 1.68286 8.91044 3.10899 8.91044 4.87196V5.72667C8.91044 7.2758 7.80415 8.56485 6.33919 8.85477V17.6924C6.33919 18.0376 6.05937 18.3174 5.71419 18.3174C5.36901 18.3174 5.08919 18.0376 5.08919 17.6924V8.85484ZM3.76758 4.87196C3.76758 3.80271 4.63734 2.93286 5.71401 2.93286C6.79067 2.93286 7.66044 3.80271 7.66044 4.87196V5.72667C7.66044 6.7939 6.79397 7.66247 5.72013 7.66576L5.71419 7.66573L5.70817 7.66576C4.6342 7.66262 3.76758 6.79399 3.76758 5.72667V4.87196Z" fill="#1A1A1A"/>
<path d="M11.7144 1.68286C12.0595 1.68286 12.3394 1.96268 12.3394 2.30786V5.72667C12.3394 6.581 12.8901 7.30525 13.6602 7.5641V2.30786C13.6602 1.96268 13.94 1.68286 14.2852 1.68286C14.6303 1.68286 14.9102 1.96268 14.9102 2.30786V7.56452C15.6809 7.30604 16.2322 6.58146 16.2322 5.72667V2.30786C16.2322 1.96268 16.512 1.68286 16.8572 1.68286C17.2024 1.68286 17.4822 1.96268 17.4822 2.30786V5.72667C17.4822 7.27872 16.3772 8.56635 14.9102 8.85518V17.6925C14.9102 18.0377 14.6303 18.3175 14.2852 18.3175C13.94 18.3175 13.6602 18.0377 13.6602 17.6925V8.85493C12.1937 8.56561 11.0894 7.27828 11.0894 5.72667V2.30786C11.0894 1.96268 11.3692 1.68286 11.7144 1.68286Z" fill="#1A1A1A"/>
</g>
<g id="Vector_2">
<path d="M2.48898 0.833293L0.833171 2.4891L17.4973 19.1532L19.1531 17.4974L2.48898 0.833293Z" fill="black"/>
<path fill-rule="evenodd" clip-rule="evenodd" d="M0.538543 2.78373C0.375824 2.62101 0.375824 2.35719 0.538543 2.19447L2.19435 0.538665C2.35707 0.375946 2.62089 0.375946 2.78361 0.538665L19.4478 17.2028C19.6105 17.3655 19.6105 17.6294 19.4478 17.7921L17.7919 19.4479C17.6292 19.6106 17.3654 19.6106 17.2027 19.4479L0.538543 2.78373ZM1.42243 2.4891L17.4973 18.564L18.5639 17.4974C12.2862 11.2198 8.76661 7.70018 2.48898 1.42255L1.42243 2.4891Z" fill="white"/>
</g>
</g>
</g>
<defs>
<clipPath id="clip0_5733_24081">
<rect width="20" height="20" fill="white"/>
</clipPath>
</defs>
</svg>
