<svg width="16" height="17" viewBox="0 0 16 17" fill="none" xmlns="http://www.w3.org/2000/svg">
<g id="ico-20px/Rating">
<path id="vactor" fill-rule="evenodd" clip-rule="evenodd" d="M5.08131 6.13201C5.08337 6.13199 5.08544 6.13198 5.0875 6.13198H5.47839L7.77104 2.98693C8.06777 2.45532 8.62945 2.09998 9.2635 2.09998C10.2273 2.09998 10.9675 2.88914 10.9675 3.79598C10.9675 3.94487 10.9413 4.09025 10.9258 4.17531C10.9188 4.21421 10.9079 4.25232 10.8933 4.28908L10.1628 6.13198H12.4555C13.6403 6.13198 14.5691 7.16483 14.4364 8.33732L14.0451 12.666L14.0437 12.6797C13.9294 13.6855 13.0741 14.452 12.0635 14.452H5.09419C5.09213 14.452 5.09007 14.452 5.088 14.452H3C2.66863 14.452 2.4 14.1834 2.4 13.852V6.73201C2.4 6.40064 2.66863 6.13201 3 6.13201H5.08131ZM8.81145 3.58552C8.90555 3.40516 9.0827 3.29998 9.2635 3.29998C9.54766 3.29998 9.7675 3.53481 9.7675 3.79598C9.7675 3.81679 9.76409 3.8491 9.75502 3.90415L8.72173 6.51088C8.64848 6.69565 8.6715 6.90471 8.78319 7.06913C8.89488 7.23354 9.08074 7.33198 9.2795 7.33198H12.4555C12.9318 7.33198 13.2972 7.74997 13.2436 8.20587L13.2419 8.22195L12.8506 12.5501C12.8023 12.9494 12.459 13.252 12.0635 13.252H5.688V7.33198H5.7835C5.97523 7.33198 6.15541 7.24035 6.26835 7.08542L8.76435 3.66142C8.78192 3.63732 8.79766 3.61195 8.81145 3.58552ZM4.4875 7.33201H3.6V13.252H4.4875V7.33201Z" fill="#004D45"/>
</g>
</svg>
