<svg width="20" height="20" viewBox="0 0 20 20" fill="none" xmlns="http://www.w3.org/2000/svg">
<g id="ico-24px-Light">
<g id="icon">
<path id="Vector" d="M3.4375 5.9375C3.4375 6.51766 3.66797 7.07406 4.0782 7.4843C4.48844 7.89453 5.04484 8.125 5.625 8.125C6.20516 8.125 6.76156 7.89453 7.1718 7.4843C7.58203 7.07406 7.8125 6.51766 7.8125 5.9375C7.8125 5.35734 7.58203 4.80094 7.1718 4.3907C6.76156 3.98047 6.20516 3.75 5.625 3.75C5.04484 3.75 4.48844 3.98047 4.0782 4.3907C3.66797 4.80094 3.4375 5.35734 3.4375 5.9375Z" stroke="#1A1A1A" stroke-width="1.5" stroke-linecap="round" stroke-linejoin="round"/>
<path id="Vector_2" d="M1.25 5.9375H3.4375" stroke="#1A1A1A" stroke-width="1.5" stroke-linejoin="round"/>
<path id="Vector_3" d="M7.8125 5.9375H18.75" stroke="#1A1A1A" stroke-width="1.5" stroke-linejoin="round"/>
<path id="Vector_4" d="M12.1875 13.5937C12.1875 14.1739 12.418 14.7303 12.8282 15.1405C13.2384 15.5508 13.7948 15.7812 14.375 15.7812C14.9552 15.7812 15.5116 15.5508 15.9218 15.1405C16.332 14.7303 16.5625 14.1739 16.5625 13.5937C16.5625 13.0136 16.332 12.4572 15.9218 12.047C15.5116 11.6367 14.9552 11.4062 14.375 11.4062C13.7948 11.4062 13.2384 11.6367 12.8282 12.047C12.418 12.4572 12.1875 13.0136 12.1875 13.5937Z" stroke="#1A1A1A" stroke-width="1.5" stroke-linecap="round" stroke-linejoin="round"/>
<path id="Vector_5" d="M1.25 13.5938H12.1875" stroke="#1A1A1A" stroke-width="1.5" stroke-linejoin="round"/>
<path id="Vector_6" d="M16.5625 13.5938H18.75" stroke="#1A1A1A" stroke-width="1.5" stroke-linejoin="round"/>
</g>
</g>
</svg>
