<svg width="32" height="32" viewBox="0 0 32 32" fill="none" xmlns="http://www.w3.org/2000/svg">
<g clip-path="url(#clip0_10754_50030)">
<rect width="32" height="32" rx="16" fill="white"/>
<path fill-rule="evenodd" clip-rule="evenodd" d="M22.7196 9.28308C21.1572 7.72065 18.624 7.72065 17.0616 9.28308L14.5585 11.7861L15.5202 12.7478L18.0233 10.2447C19.0546 9.21343 20.7267 9.21343 21.758 10.2447C22.7893 11.2761 22.7893 12.9481 21.758 13.9795L19.2549 16.4825L20.2166 17.4442L22.7196 14.9411C24.2821 13.3787 24.2821 10.8455 22.7196 9.28308ZM10.245 18.023L12.7481 15.5199L11.7864 14.5583L9.28334 17.0613C7.72091 18.6238 7.72091 21.157 9.28334 22.7194C10.8458 24.2818 13.379 24.2818 14.9414 22.7194L17.4444 20.2163L16.4828 19.2547L13.9797 21.7577C12.9484 22.789 11.2763 22.789 10.245 21.7577C9.21369 20.7264 9.21369 19.0543 10.245 18.023ZM18.5623 14.4038C18.8279 14.1383 18.8279 13.7077 18.5623 13.4422C18.2967 13.1766 17.8662 13.1766 17.6006 13.4422L13.4424 17.6004C13.1769 17.8659 13.1769 18.2965 13.4424 18.562C13.708 18.8276 14.1385 18.8276 14.4041 18.562L18.5623 14.4038Z" fill="#1A1A1A"/>
</g>
<rect x="0.34" y="0.34" width="31.32" height="31.32" rx="15.66" stroke="#D9D9D9" stroke-width="0.68"/>
<defs>
<clipPath id="clip0_10754_50030">
<rect width="32" height="32" rx="16" fill="white"/>
</clipPath>
</defs>
</svg>
