<svg width="83" height="24" viewBox="0 0 83 24" fill="none" xmlns="http://www.w3.org/2000/svg">
<path d="M41.1876 10.6425V17.8703H37.9314V10.9137C37.9314 9.46713 36.9959 8.37563 35.3108 8.37563C33.779 8.37563 32.6862 9.46713 32.6862 10.9426L32.6822 17.8703H29.4366V5.5558H32.5551V7.00371C33.3387 5.78904 34.9478 5.41297 36.0852 5.41297C39.8222 5.41297 41.1876 7.87508 41.1876 10.6438V10.6425ZM10.3306 5.55973L7.10723 13.2828L3.80127 5.55973H0L5.36973 17.1103L2.30356 23.9699H5.97248L14.1437 5.55973H10.332H10.3306ZM55.9707 11.7995C55.9707 15.3191 53.1181 18.1717 49.5986 18.1717C46.0791 18.1717 43.2265 15.3191 43.2265 11.7995C43.2265 8.27997 46.0791 5.42739 49.5986 5.42739C53.1181 5.42739 55.9707 8.27997 55.9707 11.7995ZM52.7683 11.7995C52.7683 10.0489 51.3492 8.62983 49.5986 8.62983C47.848 8.62983 46.4289 10.0489 46.4289 11.7995C46.4289 13.5501 47.848 14.9692 49.5986 14.9692C51.3492 14.9692 52.7683 13.5501 52.7683 11.7995ZM26.8657 12.1651V17.8703H23.9292V16.6006C22.9714 17.5676 21.7318 18.1546 20.3966 18.1546C16.877 18.1546 14.0245 15.302 14.0245 11.7825C14.0245 8.26294 16.877 5.41035 20.3966 5.41035C23.9161 5.41035 26.8657 8.18956 26.8657 12.1638V12.1651ZM23.565 11.7995C23.565 10.0489 22.1459 8.62983 20.3953 8.62983C18.6447 8.62983 17.2256 10.0489 17.2256 11.7995C17.2256 13.5501 18.6447 14.9692 20.3953 14.9692C22.1459 14.9692 23.565 13.5501 23.565 11.7995ZM82.1603 12.1651V17.8703H79.2238V16.6006C78.266 17.5676 77.0277 18.1546 75.6912 18.1546C72.1717 18.1546 69.3191 15.302 69.3191 11.7825C69.3191 8.26294 72.1717 5.41035 75.6912 5.41035C79.2107 5.41035 82.1603 8.18956 82.1603 12.1638V12.1651ZM78.8596 11.7995C78.8596 10.0489 77.4405 8.62983 75.6899 8.62983C73.9393 8.62983 72.5202 10.0489 72.5202 11.7995C72.5202 13.5501 73.9393 14.9692 75.6899 14.9692C77.4405 14.9692 78.8596 13.5501 78.8596 11.7995ZM58.0515 17.8677H61.3667V0H58.0515V17.8677ZM64.0253 17.6973C64.0253 19.9773 62.6521 20.7307 61.3916 20.7307V24C63.2824 24 67.2841 23.4628 67.3038 17.755V5.55449H64.024V17.696L64.0253 17.6973Z" fill="#FF3478"/>
</svg>
