<svg width="20" height="20" viewBox="0 0 20 20" fill="none" xmlns="http://www.w3.org/2000/svg">
<path fill-rule="evenodd" clip-rule="evenodd" d="M8.8934 3.57065C5.95372 3.57065 3.57065 5.95372 3.57065 8.8934C3.57065 11.8331 5.95372 14.2161 8.8934 14.2161C11.8331 14.2161 14.2161 11.8331 14.2161 8.8934C14.2161 5.95372 11.8331 3.57065 8.8934 3.57065ZM2 8.8934C2 5.08628 5.08628 2 8.8934 2C12.7005 2 15.7868 5.08628 15.7868 8.8934C15.7868 12.7005 12.7005 15.7868 8.8934 15.7868C5.08628 15.7868 2 12.7005 2 8.8934Z" fill="#1A1A1A"/>
<path fill-rule="evenodd" clip-rule="evenodd" d="M13.928 12.8169L18 16.8889L16.8894 17.9996L12.8174 13.9275L13.928 12.8169Z" fill="#1A1A1A"/>
</svg>
