<svg width="32" height="32" viewBox="0 0 32 32" fill="none" xmlns="http://www.w3.org/2000/svg">
<g id="btn/function">
<path d="M0.666667 16C0.666667 7.53163 7.53163 0.666667 16 0.666667C24.4684 0.666667 31.3333 7.53163 31.3333 16C31.3333 24.4684 24.4684 31.3333 16 31.3333C7.53163 31.3333 0.666667 24.4684 0.666667 16Z" fill="white"/>
<path d="M0.666667 16C0.666667 7.53163 7.53163 0.666667 16 0.666667C24.4684 0.666667 31.3333 7.53163 31.3333 16C31.3333 24.4684 24.4684 31.3333 16 31.3333C7.53163 31.3333 0.666667 24.4684 0.666667 16Z" stroke="#D9D9D9" stroke-width="1.33333"/>
<g id="Vector">
<path d="M14 12H18V13H14V12Z" fill="#999999"/>
<path d="M14 21H19V22H14V21Z" fill="#999999"/>
<path d="M15 12H18V22H15V12Z" fill="#999999"/>
<path d="M18 9.5C18 10.3284 17.3284 11 16.5 11C15.6716 11 15 10.3284 15 9.5C15 8.67157 15.6716 8 16.5 8C17.3284 8 18 8.67157 18 9.5Z" fill="#999999"/>
</g>
</g>
</svg>
