<svg width="20" height="20" viewBox="0 0 20 20" fill="none" xmlns="http://www.w3.org/2000/svg">
<g id="Vector">
<path d="M10.1191 7.39008C8.18906 7.39008 6.61906 8.96008 6.61906 10.8901C6.61906 11.1501 6.64906 11.4101 6.69906 11.6501L10.8791 7.47008C10.6291 7.42008 10.3791 7.39008 10.1191 7.39008ZM10.1191 7.39008C8.18906 7.39008 6.61906 8.96008 6.61906 10.8901C6.61906 11.1501 6.64906 11.4101 6.69906 11.6501L10.8791 7.47008C10.6291 7.42008 10.3791 7.39008 10.1191 7.39008ZM10.1191 7.39008C8.18906 7.39008 6.61906 8.96008 6.61906 10.8901C6.61906 11.1501 6.64906 11.4101 6.69906 11.6501L10.8791 7.47008C10.6291 7.42008 10.3791 7.39008 10.1191 7.39008ZM13.7891 2.17008C13.5791 1.67008 13.0891 1.33008 12.5491 1.33008H7.68906C7.14906 1.33008 6.65906 1.66008 6.44906 2.17008L5.44906 4.67008H2.11906C1.37906 4.67008 0.789062 5.27008 0.789062 6.00008V16.0001C0.789062 16.4301 0.989062 16.8101 1.29906 17.0501L6.07906 12.2801C5.92906 11.8401 5.84906 11.3801 5.84906 10.8901C5.84906 8.53008 7.76906 6.61008 10.1291 6.61008C10.6191 6.61008 11.0891 6.69008 11.5191 6.84008L14.4791 3.88008L13.7991 2.17008H13.7891ZM10.1191 7.39008C8.18906 7.39008 6.61906 8.96008 6.61906 10.8901C6.61906 11.1501 6.64906 11.4101 6.69906 11.6501L10.8791 7.47008C10.6291 7.42008 10.3791 7.39008 10.1191 7.39008ZM10.1191 7.39008C8.18906 7.39008 6.61906 8.96008 6.61906 10.8901C6.61906 11.1501 6.64906 11.4101 6.69906 11.6501L10.8791 7.47008C10.6291 7.42008 10.3791 7.39008 10.1191 7.39008Z" fill="#AAC4C1"/>
<path d="M18.12 4.67H15.88L20 0.55L19.45 0L12.26 7.19C12.49 7.32 12.7 7.47 12.91 7.65C13.82 8.44 14.4 9.6 14.4 10.89C14.4 13.25 12.48 15.17 10.12 15.17C8.82 15.17 7.66 14.59 6.88 13.68C6.7 13.48 6.55 13.26 6.42 13.03L0 19.45L0.55 20L3.22 17.33H18.12C18.86 17.33 19.45 16.73 19.45 16V6C19.45 5.26 18.85 4.67 18.12 4.67ZM16.12 7.34C15.75 7.34 15.45 7.04 15.45 6.67C15.45 6.3 15.75 6 16.12 6C16.49 6 16.79 6.3 16.79 6.67C16.79 7.04 16.49 7.34 16.12 7.34Z" fill="#AAC4C1"/>
<path d="M13.62 10.89C13.62 12.82 12.05 14.39 10.12 14.39C9.04 14.39 8.07 13.9 7.43 13.13C7.26 12.93 7.11 12.7 6.99 12.46L11.69 7.76C11.93 7.88 12.15 8.02 12.35 8.2C13.12 8.84 13.62 9.81 13.62 10.89Z" fill="#AAC4C1"/>
</g>
</svg>
