<svg width="20" height="20" viewBox="0 0 20 20" fill="none" xmlns="http://www.w3.org/2000/svg">
<path fill-rule="evenodd" clip-rule="evenodd" d="M6.51282 2V3.82278H13.4872V2H14.7179V3.82278H15.7436C16.9898 3.82278 18 4.82023 18 6.05063V15.7722C18 17.0026 16.9898 18 15.7436 18H4.25641C3.01023 18 2 17.0026 2 15.7722V6.05063C2 4.82023 3.01023 3.82278 4.25641 3.82278H5.28205V2H6.51282ZM3.23077 6.05063C3.23077 5.49136 3.68996 5.03797 4.25641 5.03797H15.7436C16.31 5.03797 16.7692 5.49136 16.7692 6.05063V7.87342H3.23077V6.05063ZM16.7692 9.08861V15.7722C16.7692 16.3314 16.31 16.7848 15.7436 16.7848H4.25641C3.68996 16.7848 3.23077 16.3314 3.23077 15.7722V9.08861H16.7692Z" fill="#1A1A1A"/>
</svg>
