<svg width="20" height="20" viewBox="0 0 20 20" fill="none" xmlns="http://www.w3.org/2000/svg">
<path fill-rule="evenodd" clip-rule="evenodd" d="M10.0001 4.53505L6.95207 1.47119L5.88867 2.5291L8.19575 4.84814H3.78971C2.38341 4.84814 1.25 5.99303 1.25 7.39714V16.3921C1.25 17.7962 2.38341 18.9411 3.78971 18.9411H16.2103C17.6166 18.9411 18.75 17.7962 18.75 16.3921V7.39714C18.75 5.99303 17.6166 4.84814 16.2103 4.84814H11.8045L14.1116 2.5291L13.0482 1.47119L10.0001 4.53505ZM3.78971 6.34814C3.21915 6.34814 2.75 6.81413 2.75 7.39714V16.3921C2.75 16.9751 3.21915 17.4411 3.78971 17.4411H16.2103C16.7809 17.4411 17.25 16.9751 17.25 16.3921V7.39714C17.25 6.81413 16.7809 6.34814 16.2103 6.34814H3.78971Z" fill="#004D45"/>
</svg>
