<svg width="24" height="24" viewBox="0 0 24 24" fill="none" xmlns="http://www.w3.org/2000/svg">
<path d="M11.75 21.5C11.6 21.5 11.44 21.45 11.31 21.36C11.01 21.15 4 16.06 4 9.75C4 5.48 7.48 2 11.75 2C16.02 2 19.5 5.48 19.5 9.75C19.5 16.06 12.48 21.15 12.19 21.36C12.06 21.45 11.91 21.5 11.75 21.5ZM11.75 3.5C8.3 3.5 5.5 6.3 5.5 9.75C5.5 14.45 10.26 18.62 11.75 19.8C13.24 18.61 18 14.44 18 9.75C18 6.3 15.2 3.5 11.75 3.5Z" fill="#1A1A1A"/>
<path d="M11.75 12.5C10.23 12.5 9 11.27 9 9.75C9 8.23 10.23 7 11.75 7C13.27 7 14.5 8.23 14.5 9.75C14.5 11.27 13.27 12.5 11.75 12.5ZM11.75 8.5C11.06 8.5 10.5 9.06 10.5 9.75C10.5 10.44 11.06 11 11.75 11C12.44 11 13 10.44 13 9.75C13 9.06 12.44 8.5 11.75 8.5Z" fill="#1A1A1A"/>
</svg>
