<svg width="16" height="16" viewBox="0 0 16 16" fill="none" xmlns="http://www.w3.org/2000/svg">
<g id="ico-16px/home">
<path id="Union" fill-rule="evenodd" clip-rule="evenodd" d="M8.09778 1.67905C7.91332 1.57365 7.68687 1.57365 7.50241 1.67905L1.90241 4.87905C1.71547 4.98588 1.6001 5.18468 1.6001 5.4V13.4C1.6001 13.7314 1.86873 14 2.2001 14H13.4001C13.7315 14 14.0001 13.7314 14.0001 13.4V5.4C14.0001 5.18468 13.8847 4.98588 13.6978 4.87905L8.09778 1.67905ZM8.4001 12.8V7.8C8.4001 7.46863 8.13147 7.2 7.8001 7.2C7.46873 7.2 7.2001 7.46863 7.2001 7.8V12.8H2.8001V5.74819L7.8001 2.89105L12.8001 5.74819V12.8H8.4001Z" fill="#999999"/>
</g>
</svg>
