<svg width="40" height="40" viewBox="0 0 40 40" fill="none" xmlns="http://www.w3.org/2000/svg">
<path d="M0 20C0 8.95431 8.95431 0 20 0C31.0457 0 40 8.95431 40 20C40 31.0457 31.0457 40 20 40C8.95431 40 0 31.0457 0 20Z" fill="#F2F7F7"/>
<path fill-rule="evenodd" clip-rule="evenodd" d="M15.7934 15.2978C15.4949 15.2978 15.2727 15.54 15.2727 15.8024V25.0309C15.2727 25.2933 15.4949 25.5356 15.7934 25.5356H22.7355C23.034 25.5356 23.2562 25.2933 23.2562 25.0309V24.4541H24.5289V25.0309C24.5289 26.0374 23.7098 26.8333 22.7355 26.8333H15.7934C14.8191 26.8333 14 26.0374 14 25.0309V15.8024C14 14.7959 14.8191 14 15.7934 14H22.7355C23.7098 14 24.5289 14.7959 24.5289 15.8024V16.3792H23.2562V15.8024C23.2562 15.54 23.034 15.2978 22.7355 15.2978H15.7934Z" fill="#1A1A1A"/>
<path fill-rule="evenodd" clip-rule="evenodd" d="M25.4944 17.6456L27.8085 19.9527C27.9934 20.1372 28.0505 20.4174 27.9529 20.6616C27.8552 20.9059 27.6223 21.0656 27.3636 21.0656H17.5289V19.7678H25.8025L24.6047 18.5735L25.4944 17.6456Z" fill="#1A1A1A"/>
<path fill-rule="evenodd" clip-rule="evenodd" d="M24.6047 22.2598L26.9187 19.9527L27.8085 20.8806L25.4945 23.1877L24.6047 22.2598Z" fill="#1A1A1A"/>
</svg>
