<svg width="20" height="20" viewBox="0 0 20 20" fill="none" xmlns="http://www.w3.org/2000/svg">
<path fill-rule="evenodd" clip-rule="evenodd" d="M4.59961 1.25C4.1854 1.25 3.84961 1.58579 3.84961 2V7.54999H2.7998H1V9.04999H2.0498V14.123C2.0498 15.2663 2.8094 16.2383 3.84961 16.56V17.7227C3.84961 18.1369 4.1854 18.4727 4.59961 18.4727H6.39961C6.81382 18.4727 7.14961 18.1369 7.14961 17.7227V16.673H12.8496V17.7227C12.8496 18.1369 13.1854 18.4727 13.5996 18.4727H15.3996C15.8138 18.4727 16.1496 18.1369 16.1496 17.7227V16.5602C17.19 16.2386 17.9498 15.2665 17.9498 14.123V9.04999H19V7.54999H17.1998H5.34961V2.75H8.34961V4.7H9.84961V2C9.84961 1.58579 9.51382 1.25 9.09961 1.25H4.59961ZM14.3496 16.673H14.6496V16.9727H14.3496V16.673ZM15.4148 15.1729C15.9838 15.1647 16.4498 14.6938 16.4498 14.123V9.04999H3.5498V14.123C3.5498 14.6937 4.01569 15.1646 4.5846 15.1729L4.59961 15.1727H6.39961L6.41946 15.173H13.5798C13.5864 15.1728 13.593 15.1727 13.5996 15.1727H15.3996C15.4047 15.1727 15.4097 15.1728 15.4148 15.1729ZM5.34961 16.9727V16.673H5.64961V16.9727H5.34961Z" fill="#004D45"/>
</svg>
