<svg width="20" height="20" viewBox="0 0 20 20" fill="none" xmlns="http://www.w3.org/2000/svg">
<path fill-rule="evenodd" clip-rule="evenodd" d="M6.55 1.4C6.81667 1.2 7.18333 1.2 7.45 1.4L11.45 4.4C11.6389 4.54164 11.75 4.76393 11.75 5V11.25H13.959C14.2988 11.25 14.5961 11.4784 14.6837 11.8068L16.2019 17.5H18V19H15.6257C15.2859 19 14.9885 18.7716 14.901 18.4432L13.3828 12.75H11.75V15H11L11.75 15V15.0001V15.0003V15.0005V15.0008V15.0011V15.0015V15.002V15.0025V15.0031V15.0037V15.0044V15.0052V15.006V15.0068V15.0078V15.0088V15.0098V15.0109V15.0121V15.0133V15.0146V15.016V15.0174V15.0188V15.0203V15.0219V15.0235V15.0252V15.027V15.0288V15.0306V15.0325V15.0345V15.0365V15.0386V15.0407V15.0429V15.0452V15.0475V15.0498V15.0522V15.0547V15.0572V15.0597V15.0624V15.065V15.0678V15.0706V15.0734V15.0763V15.0792V15.0822V15.0852V15.0883V15.0915V15.0947V15.0979V15.1012V15.1046V15.108V15.1114V15.1149V15.1185V15.1221V15.1257V15.1294V15.1332V15.137V15.1408V15.1447V15.1487V15.1527V15.1567V15.1608V15.165V15.1692V15.1734V15.1777V15.182V15.1864V15.1908V15.1953V15.1998V15.2044V15.209V15.2136V15.2183V15.2231V15.2279V15.2327V15.2376V15.2425V15.2475V15.2525V15.2576V15.2627V15.2678V15.273V15.2783V15.2836V15.2889V15.2943V15.2997V15.3051V15.3106V15.3162V15.3217V15.3274V15.333V15.3387V15.3445V15.3503V15.3561V15.362V15.3679V15.3738V15.3798V15.3859V15.3919V15.3981V15.4042V15.4104V15.4166V15.4229V15.4292V15.4356V15.4419V15.4484V15.4548V15.4613V15.4679V15.4744V15.4811V15.4877V15.4944V15.5011V15.5079V15.5147V15.5215V15.5284V15.5353V15.5422V15.5492V15.5562V15.5633V15.5704V15.5775V15.5846V15.5918V15.599V15.6063V15.6136V15.6209V15.6283V15.6357V15.6431V15.6505V15.658V15.6655V15.6731V15.6807V15.6883V15.696V15.7036V15.7113V15.7191V15.7269V15.7347V15.7425V15.7504V15.7583V15.7662V15.7742V15.7822V15.7902V15.7982V15.8063V15.8144V15.8226V15.8307V15.8389V15.8471V15.8554V15.8637V15.872V15.8803V15.8887V15.8971V15.9055V15.9139V15.9224V15.9309V15.9394V15.948V15.9565V15.9651V15.9738V15.9824V15.9911V15.9998V16.0085V16.0173V16.0261V16.0349V16.0437V16.0525V16.0614V16.0703V16.0792V16.0882V16.0971V16.1061V16.1151V16.1242V16.1332V16.1423V16.1514V16.1605V16.1697V16.1789V16.1881V16.1973V16.2065V16.2157V16.225V16.2343V16.2436V16.253V16.2623V16.2717V16.2811V16.2905V16.2999V16.3094V16.3188V16.3283V16.3378V16.3473V16.3569V16.3664V16.376V16.3856V16.3952V16.4049V16.4145V16.4242V16.4338V16.4435V16.4532V16.463V16.4727V16.4825V16.4923V16.502V16.5118V16.5217V16.5315V16.5413V16.5512V16.5611V16.571V16.5809V16.5908V16.6007V16.6107V16.6206V16.6306V16.6406V16.6506V16.6606V16.6706V16.6806V16.6907V16.7008V16.7108V16.7209V16.731V16.7411V16.7512V16.7613V16.7715V16.7816V16.7917V16.8019V16.8121V16.8223V16.8325V16.8427V16.8529V16.8631V16.8733V16.8835V16.8938V16.904V16.9143V16.9246V16.9348V16.9451V16.9554V16.9657V16.976V16.9863V16.9966V17.0069V17.0172V17.0276V17.0379V17.0483V17.0586V17.069V17.0793V17.0897V17.1V17.1104V17.1208V17.1312V17.1415V17.1519V17.1623V17.1727V17.1831V17.1935V17.2039V17.2143V17.2247V17.2351V17.2455V17.2559V17.2663V17.2768V17.2872V17.2976V17.308V17.3184V17.3288V17.3393V17.3497V17.3601V17.3705V17.3809V17.3914V17.4018V17.4122V17.4226V17.433V17.4434V17.4538V17.4642V17.4746V17.485V17.4954V17.5058V17.5162V17.5266V17.537V17.5474V17.5578V17.5682V17.5785V17.5889V17.5993V17.6096V17.62V17.6303V17.6407V17.651V17.6614V17.6717V17.682V17.6923V17.7026V17.7129V17.7232V17.7335V17.7438V17.7541V17.7644V17.7746V17.7849V17.7951V17.8054V17.8156V17.8258V17.836V17.8462V17.8564V17.8666V17.8768V17.887V17.8971V17.9073V17.9174V17.9276V17.9377V17.9478V17.9579V17.968V17.9781V17.9881V17.9982V18.0082V18.0182V18.0283V18.0383V18.0483V18.0582V18.0682V18.0782V18.0881V18.098V18.1079V18.1178V18.1277V18.1376V18.1475V18.1573V18.1671V18.177V18.1868V18.1966V18.2063V18.2161V18.2258V18.2355V18.2452V18.2549V18.2646V18.2743V18.2839V18.2935V18.3031V18.3127V18.3223V18.3319V18.3414V18.3509V18.3604V18.3699V18.3794V18.3888V18.3982V18.4076V18.417V18.4264V18.4357V18.4451V18.4544V18.4637V18.4729V18.4822V18.4914V18.5006V18.5098V18.519V18.5281V18.5372V18.5463V18.5554V18.5644V18.5735V18.5825V18.5915V18.6004V18.6094V18.6183V18.6272V18.6361V18.6449V18.6537V18.6625V18.6713V18.68V18.6888V18.6975V18.7061V18.7148V18.7234V18.732V18.7406V18.7491V18.7576V18.7661V18.7746V18.783V18.7914V18.7998V18.8082V18.8165V18.8248V18.8331V18.8413V18.8495V18.8577V18.8659V18.874V18.8821V18.8902V18.8982V18.9062V18.9142V18.9222V18.9301V18.938V18.9458V18.9537V18.9615V18.9692V18.977V18.9847V18.9924V19H10.25V18.9924V18.9847V18.977V18.9692V18.9615V18.9537V18.9458V18.938V18.9301V18.9222V18.9142V18.9062V18.8982V18.8902V18.8821V18.874V18.8659V18.8577V18.8495V18.8413V18.8331V18.8248V18.8165V18.8082V18.7998V18.7914V18.783V18.7746V18.7661V18.7576V18.7491V18.7406V18.732V18.7234V18.7148V18.7061V18.6975V18.6888V18.68V18.6713V18.6625V18.6537V18.6449V18.6361V18.6272V18.6183V18.6094V18.6004V18.5915V18.5825V18.5735V18.5644V18.5554V18.5463V18.5372V18.5281V18.519V18.5098V18.5006V18.4914V18.4822V18.4729V18.4637V18.4544V18.4451V18.4357V18.4264V18.417V18.4076V18.3982V18.3888V18.3794V18.3699V18.3604V18.3509V18.3414V18.3319V18.3223V18.3127V18.3031V18.2935V18.2839V18.2743V18.2646V18.2549V18.2452V18.2355V18.2258V18.2161V18.2063V18.1966V18.1868V18.177V18.1671V18.1573V18.1475V18.1376V18.1277V18.1178V18.1079V18.098V18.0881V18.0782V18.0682V18.0582V18.0483V18.0383V18.0283V18.0182V18.0082V17.9982V17.9881V17.9781V17.968V17.9579V17.9478V17.9377V17.9276V17.9174V17.9073V17.8971V17.887V17.8768V17.8666V17.8564V17.8462V17.836V17.8258V17.8156V17.8054V17.7951V17.7849V17.7746V17.7644V17.7541V17.7438V17.7335V17.7232V17.7129V17.7026V17.6923V17.682V17.6717V17.6614V17.651V17.6407V17.6303V17.62V17.6096V17.5993V17.5889V17.5785V17.5682V17.5578V17.5474V17.537V17.5266V17.5162V17.5058V17.4954V17.485V17.4746V17.4642V17.4538V17.4434V17.433V17.4226V17.4122V17.4018V17.3914V17.3809V17.3705V17.3601V17.3497V17.3393V17.3288V17.3184V17.308V17.2976V17.2872V17.2768V17.2663V17.2559V17.2455V17.2351V17.2247V17.2143V17.2039V17.1935V17.1831V17.1727V17.1623V17.1519V17.1415V17.1312V17.1208V17.1104V17.1V17.0897V17.0793V17.069V17.0586V17.0483V17.0379V17.0276V17.0172V17.0069V16.9966V16.9863V16.976V16.9657V16.9554V16.9451V16.9348V16.9246V16.9143V16.904V16.8938V16.8835V16.8733V16.8631V16.8529V16.8427V16.8325V16.8223V16.8121V16.8019V16.7917V16.7816V16.7715V16.7613V16.7512V16.7411V16.731V16.7209V16.7108V16.7008V16.6907V16.6806V16.6706V16.6606V16.6506V16.6406V16.6306V16.6206V16.6107V16.6007V16.5908V16.5809V16.571V16.5611V16.5512V16.5413V16.5315V16.5217V16.5118V16.502V16.4923V16.4825V16.4727V16.463V16.4532V16.4435V16.4338V16.4242V16.4145V16.4049V16.3952V16.3856V16.376V16.3664V16.3569V16.3473V16.3378V16.3283V16.3188V16.3094V16.2999V16.2905V16.2811V16.2717V16.2623V16.253V16.2436V16.2343V16.225V16.2157V16.2065V16.1973V16.1881V16.1789V16.1697V16.1605V16.1514V16.1423V16.1332V16.1242V16.1151V16.1061V16.0971V16.0882V16.0792V16.0703V16.0614V16.0525V16.0437V16.0349V16.0261V16.0173V16.0085V15.9998V15.9911V15.9824V15.9738V15.9651V15.9565V15.948V15.9394V15.9309V15.9224V15.9139V15.9055V15.8971V15.8887V15.8803V15.872V15.8637V15.8554V15.8471V15.8389V15.8307V15.8226V15.8144V15.8063V15.7982V15.7902V15.7822V15.7742V15.7662V15.7583V15.7504V15.75H7H3.75V19H2.25V15V5C2.25 4.76393 2.36115 4.54164 2.55 4.4L6.55 1.4ZM3.75 14.25H7H10.25V12.75H3.75V14.25ZM3.75 11.25H10.25V5.75H3.75V11.25ZM5.25 4.25H8.75L7 2.9375L5.25 4.25ZM6.25 8.49584C6.25 8.08099 6.57892 7.75 7 7.75C7.41837 7.75 7.75 8.08659 7.75 8.49584C7.75 8.91612 7.41567 9.25 7 9.25C6.58433 9.25 6.25 8.91612 6.25 8.49584ZM7 6.25C5.75442 6.25 4.75 7.24865 4.75 8.49584C4.75 9.73762 5.749 10.75 7 10.75C8.251 10.75 9.25 9.73762 9.25 8.49584C9.25 7.25967 8.2483 6.25 7 6.25Z" fill="#004D45"/>
</svg>
