<svg width="20" height="20" viewBox="0 0 20 20" fill="none" xmlns="http://www.w3.org/2000/svg">
<g clip-path="url(#clip0_6170_30006)">
<path d="M10 1.50289C14.6922 1.50289 18.4971 5.30775 18.4971 10C18.4971 14.6922 14.6922 18.4971 10 18.4971C5.30775 18.4971 1.50289 14.6922 1.50289 10C1.50289 7.35001 2.71925 4.9809 4.62428 3.42004V6.52662H6.12717V1.16117H5.43523L5.40977 1.1121C5.37856 1.1283 5.34746 1.14465 5.31644 1.16117H0.751445V2.66406H3.20593C1.23625 4.49106 0 7.10119 0 10C0 15.5223 4.47773 20 10 20C15.5223 20 20 15.5223 20 10C20 4.47773 15.5223 0 10 0V1.50289Z" fill="white"/>
<path d="M13.2674 10.5548C13.1338 10.2671 12.9489 10.0102 12.7125 9.80468C12.4762 9.58888 12.1884 9.41419 11.8596 9.27032C11.5308 9.12645 11.1711 9.00314 10.7806 8.92093L10.3387 8.81817V6.66017C10.6265 6.70128 10.8834 6.77321 11.0786 6.91708C11.3458 7.11232 11.4999 7.38978 11.5308 7.73917H13.3496C13.3496 7.20481 13.1955 6.73211 12.918 6.33134C12.6406 5.93056 12.2501 5.612 11.7568 5.38593C11.3458 5.20096 10.8628 5.10847 10.349 5.07764V4.05003H9.62966V5.08792C9.13641 5.12902 8.67398 5.21123 8.26293 5.3962C7.74912 5.62228 7.34835 5.94084 7.05034 6.34161C6.75233 6.75266 6.60847 7.22536 6.61874 7.75972C6.61874 8.42768 6.83454 8.95176 7.27642 9.34225C7.71829 9.73275 8.31431 10.0205 9.06447 10.2055L9.62966 10.3493V12.6512C9.43442 12.6306 9.25972 12.5895 9.0953 12.5279C8.8384 12.4251 8.63287 12.2812 8.47873 12.0757C8.32459 11.8805 8.24238 11.6236 8.22183 11.3256H6.38239C6.39267 11.973 6.55709 12.5073 6.8551 12.9492C7.1531 13.3911 7.57443 13.7199 8.10879 13.9357C8.55066 14.1207 9.06447 14.2029 9.63994 14.2337V15.2613H10.3593V14.2337C10.9347 14.2029 11.4485 14.1104 11.8801 13.9357C12.394 13.7199 12.7947 13.4013 13.0722 13.0006C13.3496 12.5998 13.4832 12.1271 13.4935 11.5722C13.4935 11.2022 13.4216 10.8631 13.288 10.5754L13.2674 10.5548ZM9.42414 8.56127C9.24944 8.49961 9.0953 8.42768 8.97199 8.33519C8.8384 8.25298 8.73564 8.15022 8.6637 8.0269C8.59177 7.90359 8.55066 7.77 8.56094 7.60558C8.56094 7.41033 8.61232 7.24592 8.72536 7.09177C8.8384 6.93763 9.00281 6.82459 9.20834 6.73211C9.33165 6.68073 9.46524 6.6499 9.61939 6.62934V8.61265C9.55773 8.59209 9.47552 8.58182 9.41386 8.55099L9.42414 8.56127ZM11.3663 12.1168C11.2327 12.2812 11.0478 12.4148 10.8114 12.5073C10.6676 12.5587 10.5134 12.5998 10.349 12.6204V10.5137C10.5442 10.5651 10.7189 10.6268 10.8628 10.6884C11.0889 10.7809 11.2636 10.9042 11.3766 11.0378C11.4999 11.1714 11.5513 11.3461 11.5513 11.5516C11.5513 11.7674 11.4896 11.9627 11.3561 12.1271L11.3663 12.1168Z" fill="white"/>
</g>
<defs>
<clipPath id="clip0_6170_30006">
<rect width="20" height="20" fill="white"/>
</clipPath>
</defs>
</svg>
