<svg width="20" height="20" viewBox="0 0 20 20" fill="none" xmlns="http://www.w3.org/2000/svg">
<g id="ico-24px-Light">
<g id="Union">
<path fill-rule="evenodd" clip-rule="evenodd" d="M5.08968 8.85496C3.62454 8.56519 2.51807 7.27605 2.51807 5.72679V4.87209C2.51807 3.10911 3.95084 1.68298 5.7145 1.68298C7.47815 1.68298 8.91092 3.10911 8.91092 4.87209V5.72679C8.91092 7.27592 7.80464 8.56498 6.33968 8.85489V17.6926C6.33968 18.0377 6.05986 18.3176 5.71468 18.3176C5.3695 18.3176 5.08968 18.0377 5.08968 17.6926V8.85496ZM3.76807 4.87209C3.76807 3.80283 4.63783 2.93298 5.7145 2.93298C6.79116 2.93298 7.66092 3.80283 7.66092 4.87209V5.72679C7.66092 6.79402 6.79445 7.66259 5.72062 7.66588L5.71468 7.66585L5.70866 7.66588C4.63469 7.66274 3.76807 6.79411 3.76807 5.72679V4.87209Z" fill="#1A1A1A"/>
<path d="M11.7148 1.68298C12.06 1.68298 12.3398 1.96281 12.3398 2.30798V5.72679C12.3398 6.58112 12.8906 7.30537 13.6606 7.56422V2.30798C13.6606 1.96281 13.9405 1.68298 14.2856 1.68298C14.6308 1.68298 14.9106 1.96281 14.9106 2.30798V7.56464C15.6813 7.30616 16.2327 6.58158 16.2327 5.72679V2.30798C16.2327 1.96281 16.5125 1.68298 16.8577 1.68298C17.2029 1.68298 17.4827 1.96281 17.4827 2.30798V5.72679C17.4827 7.27884 16.3777 8.56647 14.9106 8.8553V17.6926C14.9106 18.0378 14.6308 18.3176 14.2856 18.3176C13.9405 18.3176 13.6606 18.0378 13.6606 17.6926V8.85506C12.1942 8.56573 11.0898 7.2784 11.0898 5.72679V2.30798C11.0898 1.96281 11.3697 1.68298 11.7148 1.68298Z" fill="#1A1A1A"/>
</g>
</g>
</svg>
