<svg width="40" height="40" viewBox="0 0 40 40" fill="none" xmlns="http://www.w3.org/2000/svg">
<path fill-rule="evenodd" clip-rule="evenodd" d="M8.75 5.58301C7.91895 5.58301 7.25 6.25196 7.25 7.08301V32.083C7.25 32.9141 7.91895 33.583 8.75 33.583H20.25V22.083C20.25 20.1474 21.8144 18.583 23.75 18.583H26.9167V7.08301C26.9167 6.25196 26.2477 5.58301 25.4167 5.58301H8.75ZM8.75 35.583H21.248H21.25L31.25 35.583C33.1856 35.583 34.75 34.0186 34.75 32.083V22.083C34.75 20.1474 33.1856 18.583 31.25 18.583H28.9167V7.08301C28.9167 5.14739 27.3523 3.58301 25.4167 3.58301H8.75C6.81438 3.58301 5.25 5.14739 5.25 7.08301V32.083C5.25 34.0186 6.81438 35.583 8.75 35.583ZM31.25 33.583H22.25V22.083C22.25 21.252 22.919 20.583 23.75 20.583H27.9167L31.25 20.583C32.081 20.583 32.75 21.252 32.75 22.083V32.083C32.75 32.9141 32.081 33.583 31.25 33.583ZM11.25 9.58301H14.5833V12.9163H11.25V9.58301ZM22.9163 9.58301H19.583V12.9163H22.9163V9.58301ZM11.25 17.916H14.5833V21.2493H11.25V17.916ZM14.5833 26.25H11.25V29.5833H14.5833V26.25ZM26.25 26.25H29.5833V29.5833H26.25V26.25Z" fill="white"/>
</svg>
