<svg width="20" height="20" viewBox="0 0 20 20" fill="none" xmlns="http://www.w3.org/2000/svg">
<path fill-rule="evenodd" clip-rule="evenodd" d="M3.75 10.5C3.75 6.77208 6.77208 3.75 10.5 3.75C14.2279 3.75 17.25 6.77208 17.25 10.5C17.25 14.2279 14.2279 17.25 10.5 17.25C6.77208 17.25 3.75 14.2279 3.75 10.5ZM10.5 2.25C5.94365 2.25 2.25 5.94365 2.25 10.5C2.25 15.0563 5.94365 18.75 10.5 18.75C15.0563 18.75 18.75 15.0563 18.75 10.5C18.75 5.94365 15.0563 2.25 10.5 2.25ZM10.5003 11.3333C10.9606 11.3333 11.3337 10.9602 11.3337 10.5C11.3337 10.0397 10.9606 9.66663 10.5003 9.66663C10.0401 9.66663 9.66699 10.0397 9.66699 10.5C9.66699 10.9602 10.0401 11.3333 10.5003 11.3333ZM7.99967 10.5C7.99967 10.9602 7.62658 11.3333 7.16634 11.3333C6.7061 11.3333 6.33301 10.9602 6.33301 10.5C6.33301 10.0397 6.7061 9.66663 7.16634 9.66663C7.62658 9.66663 7.99967 10.0397 7.99967 10.5ZM13.8333 11.3333C14.2936 11.3333 14.6667 10.9602 14.6667 10.5C14.6667 10.0397 14.2936 9.66663 13.8333 9.66663C13.3731 9.66663 13 10.0397 13 10.5C13 10.9602 13.3731 11.3333 13.8333 11.3333Z" fill="#004D45"/>
</svg>
