<svg width="20" height="20" viewBox="0 0 20 20" fill="none" xmlns="http://www.w3.org/2000/svg">
<g id="ico-20px-Light">
<path id="Union" fill-rule="evenodd" clip-rule="evenodd" d="M16.5326 5.61759V2H15.0988V3.8556C13.7182 2.70452 11.944 2.01049 10 2.01049C5.57267 2.01049 2 5.5952 2 10.0052C2 14.4161 5.58624 18 10 18C14.4129 18 18 14.4297 18 10.0052L16.5662 10.0052C16.5662 13.6367 13.6227 16.5672 10 16.5672C6.3781 16.5672 3.43378 13.6248 3.43378 10.0052C3.43378 6.3849 6.36616 3.44333 10 3.44333C11.5779 3.44333 13.0197 3.99997 14.1488 4.92948H12.1811V6.36232H15.8163C16.0877 6.36232 16.3358 6.20917 16.4573 5.96666C16.5126 5.85639 16.5373 5.73625 16.5326 5.61759Z" fill="#1A1A1A"/>
</g>
</svg>
