<svg width="40" height="40" viewBox="0 0 40 40" fill="none" xmlns="http://www.w3.org/2000/svg">
<path d="M33 15.9311C33 17.5444 32.486 19.4106 31.6022 21.4062C30.7227 23.3918 29.505 25.4437 28.1634 27.4113C25.4803 31.3464 22.3561 34.8655 20.6168 36.7302C20.2796 37.0899 19.7117 37.0899 19.3744 36.7304C17.6388 34.865 14.5173 31.3462 11.8355 27.4114C10.4945 25.4438 9.27702 23.3919 8.3977 21.4062C7.51397 19.4106 7 17.5444 7 15.9311C7 8.79354 12.8151 3 20 3C27.1849 3 33 8.79354 33 15.9311Z" fill="#004D45" stroke="white" stroke-width="2"/>
<path d="M20.0006 19.9989C22.9975 19.9989 25.4269 17.5814 25.4269 14.5992C25.4269 11.6171 22.9975 9.19955 20.0006 9.19955C17.0037 9.19955 14.5742 11.6171 14.5742 14.5992C14.5742 17.5814 17.0037 19.9989 20.0006 19.9989Z" fill="white"/>
</svg>
