<svg width="40" height="40" viewBox="0 0 40 40" fill="none" xmlns="http://www.w3.org/2000/svg">
<path d="M0.416667 20C0.416667 9.18442 9.18442 0.416667 20 0.416667C30.8156 0.416667 39.5833 9.18442 39.5833 20C39.5833 30.8156 30.8156 39.5833 20 39.5833C9.18442 39.5833 0.416667 30.8156 0.416667 20Z" fill="white"/>
<path d="M0.416667 20C0.416667 9.18442 9.18442 0.416667 20 0.416667C30.8156 0.416667 39.5833 9.18442 39.5833 20C39.5833 30.8156 30.8156 39.5833 20 39.5833C9.18442 39.5833 0.416667 30.8156 0.416667 20Z" stroke="#D9D9D9" stroke-width="0.833333"/>
<path fill-rule="evenodd" clip-rule="evenodd" d="M23.6005 14.1072C22.3342 14.1072 21.3076 15.1337 21.3076 16.4C21.3076 17.6663 22.3342 18.6929 23.6005 18.6929C24.8668 18.6929 25.8933 17.6663 25.8933 16.4C25.8933 15.1337 24.8668 14.1072 23.6005 14.1072ZM22.8076 16.4C22.8076 15.9622 23.1626 15.6072 23.6005 15.6072C24.0384 15.6072 24.3933 15.9622 24.3933 16.4C24.3933 16.8379 24.0384 17.1929 23.6005 17.1929C23.1626 17.1929 22.8076 16.8379 22.8076 16.4Z" fill="#999999"/>
<path fill-rule="evenodd" clip-rule="evenodd" d="M11.0215 13.6023V26.5829C11.0215 27.9752 12.257 28.9786 13.6023 28.9786H26.3978C27.7431 28.9786 28.9786 27.9752 28.9786 26.5829V13.6023C28.9786 12.1801 27.82 11.0215 26.3978 11.0215H13.6023C12.1801 11.0215 11.0215 12.1801 11.0215 13.6023ZM13.6023 12.5215C13.0086 12.5215 12.5215 13.0086 12.5215 13.6023V23.9931L17.5748 19.4427C17.8599 19.1859 18.2928 19.1858 18.5781 19.4423L21.955 22.4788L24.0456 20.6039C24.3308 20.3481 24.763 20.3484 25.0479 20.6047L27.4786 22.791V13.6023C27.4786 13.0086 26.9916 12.5215 26.3978 12.5215H13.6023ZM12.5215 26.5829V26.0117L18.077 21.009L21.4529 24.0446C21.7377 24.3008 22.1699 24.301 22.4551 24.0453L24.5456 22.1704L27.4786 24.8085V26.5829C27.4786 27.0008 27.0685 27.4786 26.3978 27.4786H13.6023C12.9316 27.4786 12.5215 27.0008 12.5215 26.5829Z" fill="#999999"/>
</svg>
