<svg width="20" height="20" viewBox="0 0 20 20" fill="none" xmlns="http://www.w3.org/2000/svg">
<g id="og">
<path id="Union" fill-rule="evenodd" clip-rule="evenodd" d="M3.89453 4.87172C3.89453 3.87183 4.70799 3.05762 5.71596 3.05762C6.72393 3.05762 7.53739 3.87183 7.53739 4.87172V5.72642C7.53739 6.72631 6.72393 7.54052 5.71596 7.54052C4.70799 7.54052 3.89453 6.72631 3.89453 5.72642V4.87172ZM5.71596 1.55762C3.8836 1.55762 2.39453 3.03938 2.39453 4.87172V5.72642C2.39453 7.30051 3.49343 8.61587 4.96484 8.95538V17.6924C4.96484 18.1066 5.30063 18.4424 5.71484 18.4424C6.12906 18.4424 6.46484 18.1066 6.46484 17.6924V8.9559C7.93738 8.6172 9.03739 7.3013 9.03739 5.72642V4.87172C9.03739 3.03938 7.54832 1.55762 5.71596 1.55762ZM11.7148 1.55762C12.1291 1.55762 12.4648 1.8934 12.4648 2.30762V5.72642C12.4648 6.46363 12.9032 7.09755 13.5371 7.38147V2.30762C13.5371 1.8934 13.8729 1.55762 14.2871 1.55762C14.7013 1.55762 15.0371 1.8934 15.0371 2.30762V7.38072C15.6701 7.09644 16.1077 6.46299 16.1077 5.72642V2.30762C16.1077 1.8934 16.4435 1.55762 16.8577 1.55762C17.2719 1.55762 17.6077 1.8934 17.6077 2.30762V5.72642C17.6077 7.30322 16.5102 8.61718 15.0371 8.95578V17.6922C15.0371 18.1064 14.7013 18.4422 14.2871 18.4422C13.8729 18.4422 13.5371 18.1064 13.5371 17.6922V8.95616C12.0631 8.61818 10.9648 7.30381 10.9648 5.72642V2.30762C10.9648 1.8934 11.3006 1.55762 11.7148 1.55762Z" fill="white"/>
<path id="Vector" d="M2.48979 0.83345L0.833984 2.48926L17.4981 19.1534L19.1539 17.4976L2.48979 0.83345Z" fill="white"/>
<path id="Vector (Stroke)" fill-rule="evenodd" clip-rule="evenodd" d="M0.480507 2.84281C0.285244 2.64755 0.285244 2.33097 0.480507 2.1357L2.13631 0.479896C2.33158 0.284634 2.64816 0.284634 2.84342 0.479896L19.5076 17.144C19.7028 17.3393 19.7028 17.6559 19.5076 17.8512L17.8518 19.507C17.6565 19.7022 17.3399 19.7022 17.1447 19.507L0.480507 2.84281ZM1.54117 2.48926L17.4982 18.4463L18.4469 17.4976L2.48987 1.54056L1.54117 2.48926Z" fill="#1A1A1A"/>
</g>
</svg>
