<svg width="20" height="20" viewBox="0 0 20 20" fill="none" xmlns="http://www.w3.org/2000/svg">
<path fill-rule="evenodd" clip-rule="evenodd" d="M10.75 4.75H11.7782V3.25H8.22266V4.75H9.25001V5.0791C5.74549 5.45462 3.02735 8.43385 3.02735 12.0515V13.0906H2.00001C1.75918 13.0906 1.533 13.2062 1.392 13.4015C1.25099 13.5967 1.21232 13.8478 1.28804 14.0764L2.17693 16.7602C2.27859 17.0672 2.56554 17.2744 2.88889 17.2744H17.1111C17.4345 17.2744 17.7214 17.0672 17.8231 16.7602L18.712 14.0764C18.7877 13.8478 18.749 13.5967 18.608 13.4015C18.467 13.2062 18.2408 13.0906 18 13.0906H16.9718V12.0515C16.9718 8.43415 14.2541 5.45512 10.75 5.07919V4.75ZM4.52735 12.0515C4.52735 8.99902 6.97832 6.53918 9.99957 6.53918C13.0208 6.53918 15.4718 8.99902 15.4718 12.0515V13.0906H4.52735V12.0515ZM3.75895 14.5906H3.03847L3.43056 15.7744H16.5694L16.9615 14.5906H16.2402L16.2218 14.5908H3.77735L3.75895 14.5906Z" fill="#004D45"/>
</svg>
