<svg width="20" height="20" viewBox="0 0 20 20" fill="none" xmlns="http://www.w3.org/2000/svg">
<path fill-rule="evenodd" clip-rule="evenodd" d="M3.69958 2C3.25948 2 2.90271 2.35677 2.90271 2.79688V17.3H2V18.8938H19V17.3H12.9965V2.79688C12.9965 2.35677 12.6397 2 12.1996 2H3.69958ZM4.49646 17.3V3.59375H11.4027V17.3H4.49646ZM9.65041 12.1468C10.1199 12.1468 10.5004 11.7663 10.5004 11.2968C10.5004 10.8274 10.1199 10.4468 9.65041 10.4468C9.18097 10.4468 8.80042 10.8274 8.80042 11.2968C8.80042 11.7663 9.18097 12.1468 9.65041 12.1468ZM6.25 6.14378H9.65V4.55003H6.25V6.14378Z" fill="#004D45"/>
</svg>
