<svg width="146" height="28" viewBox="0 0 146 28" fill="none" xmlns="http://www.w3.org/2000/svg">
<g clip-path="url(#clip0_10789_51922)">
<path d="M90.8769 10.3309V6.32099H95.7306V11.2H96.5952L97.4598 10.3309V6.32099V4.9284V0.0592651H95.7306V4.9284H90.8769V0.0592651H89.1477V4.9284V6.32099V11.2H90.0123L90.8769 10.3309Z" fill="#231F20"/>
<path d="M105.654 11.1407L106.46 10.3309V9.74815H100.574V6.27161H105.772V4.87901H100.574V1.39259H105.428L106.116 0.701235V0H100.574H98.8452V1.39259V4.87901V6.27161V9.74815V11.1407H100.574H105.654Z" fill="#231F20"/>
<path d="M79.4502 1.45186H82.7416V11.2H83.6063L84.4709 10.3309V1.45186H87.0647L87.7623 0.750623V0.0592651H79.4502V1.45186Z" fill="#231F20"/>
<path d="M93.3922 16.8099H91.7808L87.782 27.9802H89.5211L90.7295 24.484H94.5221L95.7699 27.9802H97.509L93.5101 16.8099H93.3824H93.3922ZM91.211 23.0914L92.5963 19.0914L94.0308 23.0914H91.2208H91.211Z" fill="#231F20"/>
<path d="M98.9042 28H99.7688L100.643 27.121V16.8197H98.9042V28Z" fill="#231F20"/>
<path d="M103.768 16.8197H102.029V26.5975V28H103.768H108.11L108.975 27.121V26.5975H103.768V16.8197Z" fill="#231F20"/>
<path d="M116.973 25.0272L112.109 16.8H110.37V27.9704H111.235L112.109 27.1012V19.7432L116.973 27.9704H117.837L118.702 27.1012V16.8H116.973V25.0272Z" fill="#231F20"/>
<path d="M140.593 26.5975V16.8197H138.854V26.5975V28H140.593H144.935L145.8 27.121V26.5975H140.593Z" fill="#231F20"/>
<path d="M131.563 23.0815H136.771V21.6889H131.563V18.1926H136.427L137.114 17.5012V16.8H131.563H129.824V18.1926V21.6889V23.0815V26.5778V27.9704H131.563H136.604L137.468 27.1111V26.5778H131.563V23.0815Z" fill="#231F20"/>
<path d="M120.097 18.1926H123.398V27.9704H124.263L125.128 27.1012V18.1926H127.741L128.429 17.5012V16.8H120.097V18.1926Z" fill="#231F20"/>
<path d="M87.0942 20.2963C87.0942 18.3704 85.8464 16.8 84.3137 16.8H79.4502V27.9704H80.3148L81.1794 27.1012V23.7827H83.0069L85.8759 27.9704H86.9174L87.4283 27.4568L84.8639 23.7136C86.1313 23.3877 87.0844 21.9753 87.0844 20.2963H87.0942ZM83.9698 22.3901H81.1893V18.2025H84.3137C85.0506 18.2025 85.699 19.1802 85.699 20.2963C85.699 21.4123 85.0506 22.3901 84.3137 22.3901H83.9698Z" fill="#231F20"/>
<path d="M7.79485 0H0.199951V6.36049H7.79485V0Z" fill="#049882"/>
<path d="M8.74792 0H22.9847V6.36049H15.3898V28H8.74792V0Z" fill="#049882"/>
<path d="M40.6406 17.4617C44.3349 16.3852 47.0467 12.9679 47.0467 8.90864C47.0467 3.99012 43.0773 0 38.1843 0H25.5294V28H32.1713V17.8173H34.2542L41.6624 28H48.3043L40.6406 17.4617ZM38.1745 11.4568H32.1614V6.37037H38.1745C39.5697 6.37037 40.7094 7.51605 40.7094 8.91852C40.7094 10.321 39.5697 11.4667 38.1745 11.4667V11.4568Z" fill="#231F20"/>
<path d="M71.0889 0H63.0224H56.3805H48.3042V6.36049H56.3805V28H63.0224V6.36049H71.0889V0Z" fill="#D8942A"/>
</g>
<defs>
<clipPath id="clip0_10789_51922">
<rect width="145.6" height="28" fill="white" transform="translate(0.199951)"/>
</clipPath>
</defs>
</svg>
