<svg width="142" height="27" viewBox="0 0 142 27" fill="none" xmlns="http://www.w3.org/2000/svg">
<g clip-path="url(#clip0_6948_9892)">
<path d="M88.4339 9.9619V6.09524H93.1675V10.8H94.0108L94.854 9.9619V0.0571429H93.1675V4.75238H88.4339V0.0571429H86.7474V10.8H87.5906L88.4339 9.9619Z" fill="#231F20"/>
<path d="M102.846 10.7429L103.631 9.9619V9.4H97.8916V6.04762H102.961V4.70476H97.8916V1.34286H102.625L103.296 0.67619V0H96.2051V10.7429H102.846Z" fill="#231F20"/>
<path d="M77.2897 1.4H80.4997V10.8H81.343L82.1862 9.9619V1.4H84.716L85.3963 0.72381V0.0571429H77.2897V1.4Z" fill="#231F20"/>
<path d="M90.8869 16.2095H89.3154L85.4154 26.9809H87.1115L88.2901 23.6095H91.9889L93.2058 26.9809H94.9019L91.0019 16.2095H90.8773H90.8869ZM88.7597 22.2667L90.1108 18.4095L91.5098 22.2667H88.7597Z" fill="#231F20"/>
<path d="M96.2626 27H97.1058L97.9587 26.1524V16.219H96.2626V27Z" fill="#231F20"/>
<path d="M101.006 16.219H99.3098V27H105.241L106.084 26.1524V25.6476H101.006V16.219Z" fill="#231F20"/>
<path d="M113.884 24.1333L109.141 16.2H107.445V26.9714H108.288L109.141 26.1333V19.0381L113.884 26.9714H114.728L115.571 26.1333V16.2H113.884V24.1333Z" fill="#231F20"/>
<path d="M136.92 25.6476V16.219H135.224V27H141.156L141.999 26.1524V25.6476H136.92Z" fill="#231F20"/>
<path d="M128.114 22.2571H133.193V20.9143H128.114V17.5429H132.857L133.528 16.8762V16.2H126.418V26.9714H133.03L133.873 26.1429V25.6286H128.114V22.2571Z" fill="#231F20"/>
<path d="M116.932 17.5429H120.151V26.9714H120.994L121.838 26.1333V17.5429H124.387L125.057 16.8762V16.2H116.932V17.5429Z" fill="#231F20"/>
<path d="M84.7447 19.5714C84.7447 17.7143 83.5277 16.2 82.0329 16.2H77.2897V26.9714H78.1329L78.9761 26.1333V22.9333H80.7585L83.5565 26.9714H84.5722L85.0705 26.4762L82.5695 22.8667C83.8056 22.5524 84.7351 21.1905 84.7351 19.5714H84.7447ZM78.9857 21.5905V17.5524H82.0329C82.7516 17.5524 83.384 18.4952 83.384 19.5714C83.384 20.6476 82.7516 21.5905 82.0329 21.5905H78.9857Z" fill="#231F20"/>
<path d="M7.40662 0H-0.000488281V6.13333H7.40662V0Z" fill="#049882"/>
<path d="M8.33611 0H22.2208V6.13333H14.8137V27H8.33611V0Z" fill="#049882"/>
<path d="M39.4402 16.8381C43.0432 15.8 45.6879 12.5048 45.6879 8.59048C45.6879 3.84762 41.8166 0 37.0447 0H24.7027V27H31.1803V17.181H33.2117L40.4368 27H46.9144L39.4402 16.8381ZM37.0351 11.0476H31.1707V6.14286H37.0351C38.3958 6.14286 39.5073 7.24762 39.5073 8.6C39.5073 9.95238 38.3958 11.0571 37.0351 11.0571V11.0476Z" fill="#231F20"/>
<path d="M69.1358 0H46.9144V6.13333H54.7911V27H61.2687V6.13333H69.1358V0Z" fill="#D8942A"/>
</g>
<defs>
<clipPath id="clip0_6948_9892">
<rect width="142" height="27" fill="white"/>
</clipPath>
</defs>
</svg>
