<svg width="1920" height="180" viewBox="0 0 1920 180" fill="none" xmlns="http://www.w3.org/2000/svg">
<g clip-path="url(#clip0_7934_14351)">
<g opacity="0.5">
<path d="M2336.26 177V2.45454H2453.87V32.8807H2373.16V74.4716H2447.82V104.898H2373.16V146.574H2454.22V177H2336.26Z" fill="white"/>
<path d="M2314.6 63.5625H2277.27C2276.59 58.733 2275.19 54.4432 2273.09 50.6932C2270.99 46.8864 2268.29 43.6477 2265 40.9773C2261.7 38.3068 2257.89 36.2614 2253.58 34.8409C2249.31 33.4205 2244.68 32.7102 2239.68 32.7102C2230.65 32.7102 2222.78 34.9545 2216.08 39.4432C2209.37 43.875 2204.17 50.3523 2200.48 58.875C2196.79 67.3409 2194.94 77.625 2194.94 89.7273C2194.94 102.17 2196.79 112.625 2200.48 121.091C2204.23 129.557 2209.46 135.949 2216.16 140.267C2222.86 144.585 2230.62 146.744 2239.43 146.744C2244.37 146.744 2248.94 146.091 2253.15 144.784C2257.41 143.477 2261.19 141.574 2264.48 139.074C2267.78 136.517 2270.51 133.42 2272.67 129.784C2274.88 126.148 2276.42 122 2277.27 117.341L2314.6 117.511C2313.63 125.523 2311.22 133.25 2307.35 140.693C2303.55 148.08 2298.4 154.699 2291.93 160.551C2285.51 166.347 2277.84 170.949 2268.92 174.358C2260.05 177.71 2250.02 179.386 2238.83 179.386C2223.26 179.386 2209.34 175.864 2197.07 168.818C2184.85 161.773 2175.19 151.574 2168.09 138.222C2161.05 124.869 2157.52 108.705 2157.52 89.7273C2157.52 70.6932 2161.1 54.5 2168.26 41.1477C2175.42 27.7954 2185.14 17.625 2197.41 10.6364C2209.68 3.59091 2223.49 0.0681763 2238.83 0.0681763C2248.94 0.0681763 2258.32 1.48863 2266.96 4.32954C2275.65 7.17045 2283.35 11.3182 2290.05 16.7727C2296.76 22.1704 2302.21 28.7898 2306.42 36.6307C2310.68 44.4716 2313.4 53.4489 2314.6 63.5625Z" fill="white"/>
<path d="M2134.9 2.45454V177H2103.03L2027.09 67.142H2025.81V177H1988.91V2.45454H2021.29L2096.64 112.227H2098.17V2.45454H2134.9Z" fill="white"/>
<path d="M1846.75 177V2.45454H1964.37V32.8807H1883.66V74.4716H1958.32V104.898H1883.66V146.574H1964.71V177H1846.75Z" fill="white"/>
<path d="M1821.19 2.45454V177H1784.29V2.45454H1821.19Z" fill="white"/>
<path d="M1631.59 177V2.45454H1700.45C1713.63 2.45454 1724.88 4.81249 1734.2 9.5284C1743.58 14.1875 1750.71 20.8068 1755.59 29.3864C1760.54 37.9091 1763.01 47.9375 1763.01 59.4716C1763.01 71.0625 1760.51 81.0341 1755.51 89.3864C1750.51 97.6818 1743.27 104.045 1733.78 108.477C1724.34 112.909 1712.92 115.125 1699.52 115.125H1653.41V85.4659H1693.55C1700.59 85.4659 1706.45 84.5 1711.11 82.5682C1715.77 80.6364 1719.23 77.7386 1721.5 73.875C1723.83 70.0114 1725 65.2102 1725 59.4716C1725 53.6761 1723.83 48.7898 1721.5 44.8125C1719.23 40.8352 1715.74 37.8239 1711.02 35.7784C1706.36 33.6761 1700.48 32.625 1693.38 32.625H1668.49V177H1631.59ZM1725.85 97.5682L1769.23 177H1728.49L1686.05 97.5682H1725.85Z" fill="white"/>
<path d="M1489.44 177V2.45454H1607.05V32.8807H1526.34V74.4716H1601V104.898H1526.34V146.574H1607.39V177H1489.44Z" fill="white"/>
<path d="M1338.85 177V2.45454H1407.71C1420.95 2.45454 1432.23 4.98295 1441.54 10.0398C1450.86 15.0398 1457.96 22 1462.85 30.9204C1467.79 39.7841 1470.27 50.0114 1470.27 61.6023C1470.27 73.1932 1467.77 83.4205 1462.77 92.2841C1457.77 101.148 1450.52 108.051 1441.03 112.994C1431.6 117.938 1420.18 120.409 1406.77 120.409H1362.88V90.8352H1400.81C1407.91 90.8352 1413.76 89.6136 1418.36 87.1705C1423.02 84.6705 1426.49 81.233 1428.76 76.858C1431.09 72.4261 1432.25 67.3409 1432.25 61.6023C1432.25 55.8068 1431.09 50.75 1428.76 46.4318C1426.49 42.0568 1423.02 38.6761 1418.36 36.2898C1413.7 33.8466 1407.79 32.625 1400.64 32.625H1375.75V177H1338.85Z" fill="white"/>
<path d="M1206.69 2.45454L1241.88 61.9432H1243.25L1278.62 2.45454H1320.29L1267.03 89.7273L1321.49 177H1279.04L1243.25 117.426H1241.88L1206.09 177H1163.82L1218.45 89.7273L1164.84 2.45454H1206.69Z" fill="white"/>
<path d="M1029.93 177V2.45454H1147.54V32.8807H1066.83V74.4716H1141.49V104.898H1066.83V146.574H1147.88V177H1029.93Z" fill="white"/>
<path d="M871.249 177H809.374V2.45454H871.76C889.317 2.45454 904.43 5.94886 917.101 12.9375C929.771 19.8693 939.516 29.8409 946.334 42.8523C953.209 55.8636 956.646 71.4318 956.646 89.5568C956.646 107.739 953.209 123.364 946.334 136.432C939.516 149.5 929.714 159.528 916.93 166.517C904.203 173.506 888.976 177 871.249 177ZM846.277 145.381H869.714C880.624 145.381 889.8 143.449 897.243 139.585C904.743 135.665 910.368 129.614 914.118 121.432C917.925 113.193 919.828 102.568 919.828 89.5568C919.828 76.6591 917.925 66.1193 914.118 57.9375C910.368 49.7557 904.771 43.7329 897.328 39.8693C889.885 36.0057 880.709 34.0739 869.8 34.0739H846.277V145.381Z" fill="white"/>
<path d="M783.683 2.45454V177H751.808L675.871 67.142H674.593V177H637.689V2.45454H670.076L745.416 112.227H746.951V2.45454H783.683Z" fill="white"/>
<path d="M615.153 89.7273C615.153 108.761 611.545 124.955 604.329 138.307C597.17 151.659 587.397 161.858 575.01 168.903C562.681 175.892 548.817 179.386 533.42 179.386C517.908 179.386 503.988 175.864 491.658 168.818C479.329 161.773 469.584 151.574 462.425 138.222C455.266 124.869 451.687 108.705 451.687 89.7273C451.687 70.6932 455.266 54.5 462.425 41.1477C469.584 27.7954 479.329 17.625 491.658 10.6364C503.988 3.59091 517.908 0.0681763 533.42 0.0681763C548.817 0.0681763 562.681 3.59091 575.01 10.6364C587.397 17.625 597.17 27.7954 604.329 41.1477C611.545 54.5 615.153 70.6932 615.153 89.7273ZM577.738 89.7273C577.738 77.3977 575.891 67 572.198 58.5341C568.562 50.0682 563.42 43.6477 556.772 39.2727C550.124 34.8977 542.34 32.7102 533.42 32.7102C524.499 32.7102 516.715 34.8977 510.067 39.2727C503.42 43.6477 498.249 50.0682 494.556 58.5341C490.92 67 489.101 77.3977 489.101 89.7273C489.101 102.057 490.92 112.455 494.556 120.92C498.249 129.386 503.42 135.807 510.067 140.182C516.715 144.557 524.499 146.744 533.42 146.744C542.34 146.744 550.124 144.557 556.772 140.182C563.42 135.807 568.562 129.386 572.198 120.92C575.891 112.455 577.738 102.057 577.738 89.7273Z" fill="white"/>
<path d="M285.968 2.45454H327.303L367.105 77.625H368.809L408.61 2.45454H449.945L386.281 115.295V177H349.633V115.295L285.968 2.45454Z" fill="white"/>
<path d="M154.042 177V2.45454H271.656V32.8807H190.946V74.4716H265.605V104.898H190.946V146.574H271.997V177H154.042Z" fill="white"/>
<path d="M0.17041 177V2.45454H70.0568C82.8977 2.45454 93.6079 4.35795 102.187 8.16477C110.767 11.9716 117.216 17.2557 121.534 24.017C125.852 30.7216 128.011 38.4489 128.011 47.1989C128.011 54.017 126.648 60.0114 123.92 65.1818C121.193 70.2955 117.443 74.5 112.67 77.7955C107.955 81.0341 102.557 83.3352 96.4772 84.6989V86.4034C103.125 86.6875 109.347 88.5625 115.142 92.0284C120.994 95.4943 125.739 100.352 129.375 106.602C133.011 112.795 134.83 120.182 134.83 128.761C134.83 138.023 132.528 146.29 127.926 153.562C123.381 160.778 116.648 166.489 107.727 170.693C98.8068 174.898 87.8125 177 74.7443 177H0.17041ZM37.0738 146.83H67.159C77.4431 146.83 84.9431 144.869 89.659 140.949C94.375 136.972 96.7329 131.687 96.7329 125.097C96.7329 120.267 95.5681 116.006 93.2386 112.312C90.909 108.619 87.5852 105.722 83.267 103.619C79.0056 101.517 73.9204 100.466 68.0113 100.466H37.0738V146.83ZM37.0738 75.4943H64.4318C69.4886 75.4943 73.9772 74.6136 77.8977 72.8523C81.875 71.0341 85 68.4773 87.2727 65.1818C89.6022 61.8864 90.767 57.9375 90.767 53.3352C90.767 47.0284 88.5227 41.9432 84.034 38.0795C79.6022 34.2159 73.2954 32.2841 65.1136 32.2841H37.0738V75.4943Z" fill="white"/>
</g>
</g>
<defs>
<clipPath id="clip0_7934_14351">
<rect width="1920" height="180" fill="white"/>
</clipPath>
</defs>
</svg>
