<svg width="275" height="96" viewBox="0 0 275 96" fill="none" xmlns="http://www.w3.org/2000/svg">
<g clip-path="url(#clip0_6571_32480)">
<path d="M68.9333 96V64.4797H36.0667V96H21V22H36.0667V52.148H68.9333V22H84V96H68.9333Z" fill="white"/>
<path d="M111.499 51.8384H95.0444V64.1804H111.499V51.8384Z" fill="white"/>
<path d="M154.266 82.2563H136.457V64.091L150.795 62.1651C167.266 59.8097 168.685 81.1076 154.266 82.2563ZM160.552 41.8977C160.69 46.7003 157.63 49.6518 150.778 50.7451L136.441 52.1135V33.6537H150.778C157.751 33.6585 160.844 37.0686 160.552 41.8953V41.8977ZM178.694 72.265C179.432 64.284 174.029 57.0319 166.168 55.4608C172.161 52.905 174.164 49.787 174.164 40.7682C174.227 31.011 168.319 21.6737 152.871 21.6737H122.47V95.7205H154.263C172.677 95.0616 178.513 84.0205 178.689 72.265H178.694Z" fill="white"/>
<path d="M189.662 95.7173H204.673V40.8834H189.662V95.7173ZM259.351 40.8834H216.25V52.2696H242.09L216.144 84.5435V95.7342H259.672V84.348H233.187L259.351 52.0741V40.8834Z" fill="white"/>
<path d="M262.278 10.5095C260.058 6.04721 253.573 7.25389 249.972 8.27474L231.404 13.3935L209.278 0.667833C208.088 -0.418179 206.322 -0.572634 204.96 0.288935L201.845 1.83349L214.612 19.2531L196.173 25.1224L186.515 20.1123C185.815 19.5813 184.869 19.4993 184.09 19.9047L180.057 21.4251L190.019 32.6304H204.666C204.666 32.6304 239.45 23.0276 253.788 18.7608C262.401 15.6789 262.514 12.8191 262.275 10.5095H262.278Z" fill="white"/>
</g>
<defs>
<clipPath id="clip0_6571_32480">
<rect width="274.179" height="96" fill="white"/>
</clipPath>
</defs>
</svg>
