<svg width="278" height="36" viewBox="0 0 278 36" fill="none" xmlns="http://www.w3.org/2000/svg">
<rect x="0.375" y="0.375" width="132.766" height="35.25" stroke="white" stroke-width="0.75"/>
<path d="M50.2951 21.1772C50.2844 22.5102 49.9112 23.6085 48.2903 23.6085C46.6695 23.6085 46.2963 22.5102 46.2856 21.1772V11.5161H44.4941V21.1879C44.4941 23.3313 45.6991 25.0374 48.2903 25.0481C50.8709 25.0481 52.0759 23.3419 52.0865 21.1879V11.5161H50.2951V21.1772Z" fill="white"/>
<path d="M16.8254 17.1785H12.816V11.5269H11.0352V24.9309H12.816V18.6821H16.8254V24.9309H18.6169V11.5269H16.8254V17.1785Z" fill="white"/>
<path d="M68.8798 21.0814L65.3182 11.5269H62.6523V24.9309H64.4118V13.5956L68.7199 24.9309H70.6287V11.5269H68.8798V21.0814Z" fill="white"/>
<path d="M31.5078 17.2105L29.1298 11.5269H27.2637L30.6014 19.2579V24.9309H32.3821V19.2366L35.6772 11.5269H33.8111L31.5078 17.2105Z" fill="white"/>
<path d="M122.534 11.5269H120.807V24.9309H122.534V11.5269Z" fill="white"/>
<path fill-rule="evenodd" clip-rule="evenodd" d="M76.9824 0H96.2497V36H76.9824V0ZM82.8574 11.5269H85.7045V11.5162C87.1974 11.5162 88.4237 11.9001 89.2661 12.9451C90.1085 13.9902 90.5564 15.6537 90.5564 18.2129C90.5564 20.7722 90.1085 22.4463 89.2661 23.4913C88.4237 24.5364 87.1974 24.9309 85.7045 24.9309H82.8574V11.5269ZM84.5955 23.4274H85.3526V23.438C87.56 23.4167 88.7863 22.7662 88.8076 18.2236C88.7969 13.6916 87.5706 13.0091 85.3526 12.9984H84.5955V23.4274Z" fill="white"/>
<path d="M104.035 11.5269V11.5802L100.836 24.9202H102.627L103.47 21.156H106.988L107.831 24.9309H109.622L106.444 11.5375H104.024L104.035 11.5269ZM103.736 19.6418L105.229 12.9238L106.732 19.6418H103.736Z" fill="white"/>
<path d="M165.025 10.6416H153.189V12.497H165.025V10.6416Z" fill="white"/>
<path d="M164.364 17.2421C164.364 15.1521 162.404 13.4672 159.176 13.4565C156.055 13.4565 153.988 15.1521 153.988 17.2421C153.988 19.2575 156.055 21.017 159.155 21.017C162.362 21.017 164.354 19.2468 164.364 17.2421ZM156.225 17.2101C156.225 16.0798 157.248 15.2694 159.187 15.2694C161.147 15.28 162.117 16.0585 162.127 17.2101C162.127 18.3724 161.147 19.1722 159.187 19.1829C157.248 19.1722 156.236 18.3938 156.225 17.2101Z" fill="white"/>
<path d="M162.405 7.32471H155.98V9.18018H162.405V7.32471Z" fill="white"/>
<path d="M165.025 14.8647H168.232V17.4026L165.025 17.4133V19.3327H168.232V23.4168H170.363V7.37891H168.232V12.9346H165.025V14.8647Z" fill="white"/>
<path d="M159.154 22.2124H156.949V28.5892H170.937V26.6484H159.154V22.2124Z" fill="white"/>
<path d="M178.032 10.7909H183.795V8.86084H175.912V23.6618H185.191V21.6144H178.032V10.7909Z" fill="white"/>
<path d="M190.359 15.1206H187.93V7.73079H185.842V28.0128H187.93V17.2853H190.359V28.5886H192.469V7.37891H190.359V15.1206Z" fill="white"/>
<path d="M256.299 16.1865H244.443V14.0218H256.076V12.0704H244.443V9.94841H256.14V7.98633H242.248V18.138H256.299V16.1865Z" fill="white"/>
<path d="M275.806 7.37835V14.8321H272.078C271.897 12.4435 271.257 10.7587 270.363 9.63901C269.415 8.49801 268.232 7.95419 267.018 7.95419C265.739 7.95419 264.44 8.57265 263.47 9.89492C262.511 11.2492 261.883 13.2539 261.883 16.0691C261.883 18.8843 262.49 20.8144 263.449 22.1473C264.386 23.5016 265.686 24.1734 267.018 24.1734C268.296 24.1734 269.532 23.5762 270.469 22.3179C271.385 21.1129 272.014 19.3002 272.12 16.7836H275.796V28.5774H278.001V7.36768H275.796L275.806 7.37835ZM269.18 20.3345C268.669 21.4542 267.955 22.126 267.039 22.126C266.123 22.126 265.388 21.4542 264.866 20.3345C264.344 19.2148 264.067 17.6793 264.067 16.0691C264.067 14.4589 264.344 12.9767 264.866 11.857C265.388 10.7373 266.123 10.0655 267.039 10.0655C267.944 10.0655 268.669 10.7373 269.18 11.857C269.692 12.9767 269.958 14.5016 269.947 16.0691C269.947 17.6793 269.681 19.2148 269.18 20.3345Z" fill="white"/>
<path d="M239.734 22.03H248.14V28.588H250.345V22.03H258.633V20.0679H239.734V22.03Z" fill="white"/>
<path d="M233.48 16.9547H221.922V14.5448H229.656V8.15732H219.717V10.1088H227.451V12.5827H219.717V18.9062H233.48V19.8765H235.675V7.37891H233.48V16.9547Z" fill="white"/>
<path d="M221.869 28.3755H235.675V20.5698H221.869V28.3755ZM224.074 22.5319H233.481V26.4241H224.074V22.5319Z" fill="white"/>
<path d="M216.01 24.1416H196.707V26.1144H216.01V24.1416Z" fill="white"/>
<path d="M213.89 17.3068H201.373V10.5035H213.688V8.53076H199.242V19.2582H213.89V17.3068Z" fill="white"/>
</svg>
