<svg width="275" height="96" viewBox="0 0 275 96" fill="none" xmlns="http://www.w3.org/2000/svg">
<path d="M41.2488 0H15V21.8074H41.2488V0Z" fill="white"/>
<path d="M44.5425 96H67.4974V21.8074H93.7462V0H44.5425V96Z" fill="white"/>
<path d="M176.874 30.5439C176.874 13.6804 163.155 0 146.244 0H102.508V96H125.463V61.0878H132.661L158.265 96H181.22L154.734 59.8688C167.501 56.1778 176.874 44.4614 176.874 30.5439ZM146.244 39.2804H125.463V21.8413H146.244C151.066 21.8413 155.005 25.7693 155.005 30.5778C155.005 35.3862 151.066 39.3143 146.244 39.3143V39.2804Z" fill="white"/>
<path d="M209.166 0H181.254V21.8074H209.166V96H232.121V21.8074H260V0H232.121H209.166Z" fill="white"/>
</svg>
